M48
; DRILL file {KiCad 9.0.2} date 2025-07-31T22:53:22+0200
; FORMAT={-:-/ absolute / inch / decimal}
; #@! TF.CreationDate,2025-07-31T22:53:22+02:00
; #@! TF.GenerationSoftware,Kicad,Pcbnew,9.0.2
; #@! TF.FileFunction,Plated,1,2,PTH
FMAT,2
INCH
; #@! TA.AperFunction,Plated,PTH,ViaDrill
T1C0.0118
; #@! TA.AperFunction,Plated,PTH,ComponentDrill
T2C0.0394
; #@! TA.AperFunction,Plated,PTH,ComponentDrill
T3C0.0402
%
G90
G05
T1
X1.6732Y-3.061
X1.811Y-1.9291
X1.811Y-2.1496
X1.811Y-3.4941
X2.0079Y-4.2224
X2.0276Y-4.065
X2.2047Y-5.0098
X2.2441Y-5.5118
X2.3031Y-3.9075
X2.3819Y-5.7185
X2.5787Y-4.5965
X2.5787Y-6.5256
X2.6378Y-3.189
X2.6693Y-4.5768
X2.6969Y-3.1594
X2.7953Y-3.937
X2.815Y-3.5531
X2.9134Y-3.7106
X2.9412Y-4.2421
X2.9528Y-4.8425
X2.9921Y-4.4882
X3.0709Y-5.128
X3.2087Y-2.9626
X3.2087Y-3.5335
X3.2087Y-5.7972
X3.2756Y-3.75
X3.3071Y-4.5276
X3.3071Y-5.4331
X3.3268Y-2.9035
X3.3268Y-6.2894
X3.4055Y-3.3957
X3.4646Y-3.8091
X3.563Y-2.5456
X3.6024Y-4.1732
X3.622Y-4.3701
X3.6909Y-3.2874
X3.7205Y-3.7579
X3.7598Y-3.5335
X3.7795Y-4.7638
X3.7992Y-3.8681
X3.8189Y-3.5925
X3.8386Y-3.5138
X3.8583Y-6.0335
X3.9764Y-4.872
X4.0551Y-6.5453
X4.0748Y-5.7579
X4.1535Y-6.1713
X4.1732Y-6.5256
X4.2717Y-2.2343
X4.2717Y-3.2382
X4.3307Y-1.939
X4.3701Y-2.2343
X4.3701Y-3.3957
X4.4291Y-3.2382
X4.6457Y-2.4311
X4.6457Y-3.1398
X4.6457Y-3.435
X4.685Y-1.8996
X4.685Y-3.8484
X4.8228Y-4.4587
X4.8819Y-5.2067
X4.9016Y-1.9783
X5.0197Y-6.063
X5.1378Y-3.1988
X5.3937Y-3.5531
X5.4921Y-2.5295
X5.6102Y-3.1201
X5.6496Y-3.8287
X5.689Y-4.3209
X5.748Y-5.1476
X5.7677Y-5.935
X6.2008Y-3.9272
X6.5157Y-2.2933
X6.5748Y-3.5728
X6.5748Y-5.9547
X6.5945Y-2.7854
X6.5945Y-4.3602
X6.5945Y-5.128
X7.0276Y-2.6083
X7.3622Y-5.1476
X7.3819Y-2.2343
X7.3819Y-2.8051
X7.3819Y-3.5728
X7.3819Y-4.3406
X7.9724Y-2.6476
X8.1496Y-5.1476
X8.1693Y-2.313
X8.1693Y-2.8051
X8.1693Y-3.5728
X8.1693Y-4.3406
X8.9173Y-5.1476
X8.937Y-2.313
X8.937Y-2.8051
X8.937Y-3.5728
X8.937Y-4.3406
X9.6654Y-5.1476
X9.6752Y-4.3406
X9.685Y-2.8051
X9.685Y-3.5728
X9.7244Y-2.0374
X10.4331Y-2.3327
X10.4528Y-5.1476
X10.4724Y-2.8051
X10.4724Y-3.5728
X10.4724Y-4.3406
X11.2205Y-4.3209
X11.223Y-3.536
X11.2402Y-5.1476
X11.25Y-2.0079
X11.2648Y-2.81
T2
X3.288Y-1.516
X3.3071Y-1.6142
X3.3262Y-1.7123
X3.3452Y-1.8105
T3
X2.3797Y-2.6489
X2.4005Y-2.7467
X2.4213Y-2.8445
X2.4421Y-2.9423
X2.4628Y-3.0401
X2.4836Y-3.1379
X2.5044Y-3.2357
X2.5252Y-3.3336
X2.546Y-3.4314
X2.5668Y-3.5292
X2.5876Y-3.627
X2.6084Y-3.7248
X2.6292Y-3.8226
X2.65Y-3.9205
X2.6708Y-4.0183
X2.6915Y-4.1161
X2.7123Y-4.2139
X2.7331Y-4.3117
X2.7539Y-4.4095
X2.7747Y-4.5073
X2.7955Y-4.6052
X2.8163Y-4.703
X3.3436Y-2.444
X3.3644Y-2.5418
X3.3852Y-2.6396
X3.4059Y-2.7374
X3.4267Y-2.8352
X3.4475Y-2.933
X3.4683Y-3.0309
X3.4891Y-3.1287
X3.5099Y-3.2265
X3.5307Y-3.3243
X3.5515Y-3.4221
X3.5723Y-3.5199
X3.5931Y-3.6178
X3.6139Y-3.7156
X3.6347Y-3.8134
X3.6554Y-3.9112
X3.6762Y-4.009
X3.697Y-4.1068
X3.7178Y-4.2046
X3.7386Y-4.3025
X3.7594Y-4.4003
X3.7802Y-4.4981
M30
