%TF.GenerationSoftware,KiCad,Pcbnew,9.0.2*%
%TF.CreationDate,2025-07-31T22:53:19+02:00*%
%TF.ProjectId,multiboard_RIGHT,6d756c74-6962-46f6-9172-645f52494748,1.0*%
%TF.SameCoordinates,Original*%
%TF.FileFunction,Legend,Top*%
%TF.FilePolarity,Positive*%
%FSLAX46Y46*%
G04 Gerber Fmt 4.6, Leading zero omitted, Abs format (unit mm)*
G04 Created by KiCad (PCBNEW 9.0.2) date 2025-07-31 22:53:19*
%MOMM*%
%LPD*%
G01*
G04 APERTURE LIST*
%ADD10C,0.150000*%
%ADD11C,0.120000*%
%ADD12C,0.127000*%
%ADD13C,0.200000*%
G04 APERTURE END LIST*
D10*
X82555569Y-35315998D02*
X82691861Y-36017160D01*
X82691861Y-36017160D02*
X82672375Y-36166479D01*
X82672375Y-36166479D02*
X82597059Y-36278140D01*
X82597059Y-36278140D02*
X82465913Y-36352142D01*
X82465913Y-36352142D02*
X82372425Y-36370314D01*
X83728005Y-36106816D02*
X83167075Y-36215850D01*
X83447540Y-36161333D02*
X83256731Y-35179706D01*
X83256731Y-35179706D02*
X83190502Y-35338111D01*
X83190502Y-35338111D02*
X83115185Y-35449771D01*
X83115185Y-35449771D02*
X83030783Y-35514688D01*
X29832361Y-46866934D02*
X30017232Y-47556881D01*
X30017232Y-47556881D02*
X30008209Y-47707195D01*
X30008209Y-47707195D02*
X29940866Y-47823838D01*
X29940866Y-47823838D02*
X29815201Y-47906808D01*
X29815201Y-47906808D02*
X29723208Y-47931458D01*
X30270979Y-46848005D02*
X30304650Y-46789683D01*
X30304650Y-46789683D02*
X30384319Y-46719038D01*
X30384319Y-46719038D02*
X30614301Y-46657414D01*
X30614301Y-46657414D02*
X30718619Y-46678761D01*
X30718619Y-46678761D02*
X30776940Y-46712433D01*
X30776940Y-46712433D02*
X30847586Y-46792101D01*
X30847586Y-46792101D02*
X30872235Y-46884094D01*
X30872235Y-46884094D02*
X30863213Y-47034408D01*
X30863213Y-47034408D02*
X30459152Y-47734262D01*
X30459152Y-47734262D02*
X31057106Y-47574041D01*
D11*
%TO.C,J1*%
X82452108Y-40007109D02*
X83917521Y-47546006D01*
X82452108Y-40007109D02*
X85063237Y-39499559D01*
X83261569Y-37201103D02*
X84567133Y-36947327D01*
X83917521Y-47546006D02*
X86528650Y-47038454D01*
X84567133Y-36947327D02*
X84820909Y-38252891D01*
X85063237Y-39499559D02*
X86528650Y-47038454D01*
D12*
%TO.C,J2*%
X28333270Y-51285674D02*
X32467431Y-50177929D01*
X29912065Y-57177822D02*
X28333270Y-51285674D01*
X41006215Y-47889969D02*
X41952823Y-47636326D01*
X41870226Y-53973642D02*
X29912065Y-57177822D01*
X41952823Y-47636326D02*
X43177037Y-52205155D01*
D13*
X43492984Y-56102047D02*
G75*
G02*
X43292986Y-56102047I-99999J0D01*
G01*
X43292986Y-56102047D02*
G75*
G02*
X43492984Y-56102047I99999J0D01*
G01*
%TD*%
M02*
