%TF.GenerationSoftware,KiCad,Pcbnew,9.0.2*%
%TF.CreationDate,2025-07-31T22:53:19+02:00*%
%TF.ProjectId,multiboard_RIGHT,6d756c74-6962-46f6-9172-645f52494748,1.0*%
%TF.SameCoordinates,Original*%
%TF.FileFunction,Legend,Bot*%
%TF.FilePolarity,Positive*%
%FSLAX46Y46*%
G04 Gerber Fmt 4.6, Leading zero omitted, Abs format (unit mm)*
G04 Created by KiCad (PCBNEW 9.0.2) date 2025-07-31 22:53:19*
%MOMM*%
%LPD*%
G01*
G04 APERTURE LIST*
%ADD10C,0.150000*%
%ADD11C,0.120000*%
%ADD12C,0.127000*%
%ADD13C,0.200000*%
G04 APERTURE END LIST*
D10*
X71826544Y-158438923D02*
X71567725Y-157472997D01*
X71567725Y-157472997D02*
X71337743Y-157534620D01*
X71337743Y-157534620D02*
X71212078Y-157617591D01*
X71212078Y-157617591D02*
X71144735Y-157734233D01*
X71144735Y-157734233D02*
X71123388Y-157838551D01*
X71123388Y-157838551D02*
X71126690Y-158034862D01*
X71126690Y-158034862D02*
X71163664Y-158172851D01*
X71163664Y-158172851D02*
X71258960Y-158344512D01*
X71258960Y-158344512D02*
X71329605Y-158424180D01*
X71329605Y-158424180D02*
X71446248Y-158491524D01*
X71446248Y-158491524D02*
X71596562Y-158500546D01*
X71596562Y-158500546D02*
X71826544Y-158438923D01*
X70354657Y-158833314D02*
X70906615Y-158685417D01*
X70630636Y-158759365D02*
X70371817Y-157793439D01*
X70371817Y-157793439D02*
X70500784Y-157906779D01*
X70500784Y-157906779D02*
X70617427Y-157974123D01*
X70617427Y-157974123D02*
X70721744Y-157995470D01*
X69434728Y-159079808D02*
X69986686Y-158931911D01*
X69710707Y-159005860D02*
X69451888Y-158039934D01*
X69451888Y-158039934D02*
X69580855Y-158153274D01*
X69580855Y-158153274D02*
X69697497Y-158220617D01*
X69697497Y-158220617D02*
X69801815Y-158241964D01*
X255756103Y-84729619D02*
X255756103Y-83729619D01*
X255756103Y-83729619D02*
X255518008Y-83729619D01*
X255518008Y-83729619D02*
X255375151Y-83777238D01*
X255375151Y-83777238D02*
X255279913Y-83872476D01*
X255279913Y-83872476D02*
X255232294Y-83967714D01*
X255232294Y-83967714D02*
X255184675Y-84158190D01*
X255184675Y-84158190D02*
X255184675Y-84301047D01*
X255184675Y-84301047D02*
X255232294Y-84491523D01*
X255232294Y-84491523D02*
X255279913Y-84586761D01*
X255279913Y-84586761D02*
X255375151Y-84682000D01*
X255375151Y-84682000D02*
X255518008Y-84729619D01*
X255518008Y-84729619D02*
X255756103Y-84729619D01*
X254279913Y-83729619D02*
X254756103Y-83729619D01*
X254756103Y-83729619D02*
X254803722Y-84205809D01*
X254803722Y-84205809D02*
X254756103Y-84158190D01*
X254756103Y-84158190D02*
X254660865Y-84110571D01*
X254660865Y-84110571D02*
X254422770Y-84110571D01*
X254422770Y-84110571D02*
X254327532Y-84158190D01*
X254327532Y-84158190D02*
X254279913Y-84205809D01*
X254279913Y-84205809D02*
X254232294Y-84301047D01*
X254232294Y-84301047D02*
X254232294Y-84539142D01*
X254232294Y-84539142D02*
X254279913Y-84634380D01*
X254279913Y-84634380D02*
X254327532Y-84682000D01*
X254327532Y-84682000D02*
X254422770Y-84729619D01*
X254422770Y-84729619D02*
X254660865Y-84729619D01*
X254660865Y-84729619D02*
X254756103Y-84682000D01*
X254756103Y-84682000D02*
X254803722Y-84634380D01*
X253613246Y-83729619D02*
X253518008Y-83729619D01*
X253518008Y-83729619D02*
X253422770Y-83777238D01*
X253422770Y-83777238D02*
X253375151Y-83824857D01*
X253375151Y-83824857D02*
X253327532Y-83920095D01*
X253327532Y-83920095D02*
X253279913Y-84110571D01*
X253279913Y-84110571D02*
X253279913Y-84348666D01*
X253279913Y-84348666D02*
X253327532Y-84539142D01*
X253327532Y-84539142D02*
X253375151Y-84634380D01*
X253375151Y-84634380D02*
X253422770Y-84682000D01*
X253422770Y-84682000D02*
X253518008Y-84729619D01*
X253518008Y-84729619D02*
X253613246Y-84729619D01*
X253613246Y-84729619D02*
X253708484Y-84682000D01*
X253708484Y-84682000D02*
X253756103Y-84634380D01*
X253756103Y-84634380D02*
X253803722Y-84539142D01*
X253803722Y-84539142D02*
X253851341Y-84348666D01*
X253851341Y-84348666D02*
X253851341Y-84110571D01*
X253851341Y-84110571D02*
X253803722Y-83920095D01*
X253803722Y-83920095D02*
X253756103Y-83824857D01*
X253756103Y-83824857D02*
X253708484Y-83777238D01*
X253708484Y-83777238D02*
X253613246Y-83729619D01*
X126034970Y-66653826D02*
X125930441Y-65659304D01*
X125930441Y-65659304D02*
X125693650Y-65684191D01*
X125693650Y-65684191D02*
X125556553Y-65746482D01*
X125556553Y-65746482D02*
X125471792Y-65851154D01*
X125471792Y-65851154D02*
X125434389Y-65950848D01*
X125434389Y-65950848D02*
X125406941Y-66145258D01*
X125406941Y-66145258D02*
X125421874Y-66287332D01*
X125421874Y-66287332D02*
X125489142Y-66471788D01*
X125489142Y-66471788D02*
X125546455Y-66561526D01*
X125546455Y-66561526D02*
X125651127Y-66646288D01*
X125651127Y-66646288D02*
X125798179Y-66678713D01*
X125798179Y-66678713D02*
X126034970Y-66653826D01*
X124462338Y-65813608D02*
X124935919Y-65763832D01*
X124935919Y-65763832D02*
X125033053Y-66232436D01*
X125033053Y-66232436D02*
X124980717Y-66190056D01*
X124980717Y-66190056D02*
X124881023Y-66152653D01*
X124881023Y-66152653D02*
X124644233Y-66177540D01*
X124644233Y-66177540D02*
X124554494Y-66234854D01*
X124554494Y-66234854D02*
X124512113Y-66287189D01*
X124512113Y-66287189D02*
X124474710Y-66386883D01*
X124474710Y-66386883D02*
X124499598Y-66623674D01*
X124499598Y-66623674D02*
X124556911Y-66713413D01*
X124556911Y-66713413D02*
X124609247Y-66755794D01*
X124609247Y-66755794D02*
X124708941Y-66793197D01*
X124708941Y-66793197D02*
X124945732Y-66768309D01*
X124945732Y-66768309D02*
X125035470Y-66710996D01*
X125035470Y-66710996D02*
X125077851Y-66658660D01*
X123597375Y-66239688D02*
X123667060Y-66902703D01*
X123794345Y-65835935D02*
X124105800Y-66521420D01*
X124105800Y-66521420D02*
X123490143Y-66586128D01*
X256574285Y-124729619D02*
X256574285Y-123729619D01*
X256574285Y-123729619D02*
X256336190Y-123729619D01*
X256336190Y-123729619D02*
X256193333Y-123777238D01*
X256193333Y-123777238D02*
X256098095Y-123872476D01*
X256098095Y-123872476D02*
X256050476Y-123967714D01*
X256050476Y-123967714D02*
X256002857Y-124158190D01*
X256002857Y-124158190D02*
X256002857Y-124301047D01*
X256002857Y-124301047D02*
X256050476Y-124491523D01*
X256050476Y-124491523D02*
X256098095Y-124586761D01*
X256098095Y-124586761D02*
X256193333Y-124682000D01*
X256193333Y-124682000D02*
X256336190Y-124729619D01*
X256336190Y-124729619D02*
X256574285Y-124729619D01*
X255669523Y-123729619D02*
X255050476Y-123729619D01*
X255050476Y-123729619D02*
X255383809Y-124110571D01*
X255383809Y-124110571D02*
X255240952Y-124110571D01*
X255240952Y-124110571D02*
X255145714Y-124158190D01*
X255145714Y-124158190D02*
X255098095Y-124205809D01*
X255098095Y-124205809D02*
X255050476Y-124301047D01*
X255050476Y-124301047D02*
X255050476Y-124539142D01*
X255050476Y-124539142D02*
X255098095Y-124634380D01*
X255098095Y-124634380D02*
X255145714Y-124682000D01*
X255145714Y-124682000D02*
X255240952Y-124729619D01*
X255240952Y-124729619D02*
X255526666Y-124729619D01*
X255526666Y-124729619D02*
X255621904Y-124682000D01*
X255621904Y-124682000D02*
X255669523Y-124634380D01*
X254431428Y-123729619D02*
X254336190Y-123729619D01*
X254336190Y-123729619D02*
X254240952Y-123777238D01*
X254240952Y-123777238D02*
X254193333Y-123824857D01*
X254193333Y-123824857D02*
X254145714Y-123920095D01*
X254145714Y-123920095D02*
X254098095Y-124110571D01*
X254098095Y-124110571D02*
X254098095Y-124348666D01*
X254098095Y-124348666D02*
X254145714Y-124539142D01*
X254145714Y-124539142D02*
X254193333Y-124634380D01*
X254193333Y-124634380D02*
X254240952Y-124682000D01*
X254240952Y-124682000D02*
X254336190Y-124729619D01*
X254336190Y-124729619D02*
X254431428Y-124729619D01*
X254431428Y-124729619D02*
X254526666Y-124682000D01*
X254526666Y-124682000D02*
X254574285Y-124634380D01*
X254574285Y-124634380D02*
X254621904Y-124539142D01*
X254621904Y-124539142D02*
X254669523Y-124348666D01*
X254669523Y-124348666D02*
X254669523Y-124110571D01*
X254669523Y-124110571D02*
X254621904Y-123920095D01*
X254621904Y-123920095D02*
X254574285Y-123824857D01*
X254574285Y-123824857D02*
X254526666Y-123777238D01*
X254526666Y-123777238D02*
X254431428Y-123729619D01*
X51026544Y-80838923D02*
X50767725Y-79872997D01*
X50767725Y-79872997D02*
X50537743Y-79934620D01*
X50537743Y-79934620D02*
X50412078Y-80017591D01*
X50412078Y-80017591D02*
X50344735Y-80134233D01*
X50344735Y-80134233D02*
X50323388Y-80238551D01*
X50323388Y-80238551D02*
X50326690Y-80434862D01*
X50326690Y-80434862D02*
X50363664Y-80572851D01*
X50363664Y-80572851D02*
X50458960Y-80744512D01*
X50458960Y-80744512D02*
X50529605Y-80824180D01*
X50529605Y-80824180D02*
X50646248Y-80891524D01*
X50646248Y-80891524D02*
X50796562Y-80900546D01*
X50796562Y-80900546D02*
X51026544Y-80838923D01*
X49341835Y-80255063D02*
X49801799Y-80131816D01*
X49801799Y-80131816D02*
X49971043Y-80579456D01*
X49971043Y-80579456D02*
X49912722Y-80545784D01*
X49912722Y-80545784D02*
X49808404Y-80524437D01*
X49808404Y-80524437D02*
X49578422Y-80586061D01*
X49578422Y-80586061D02*
X49498754Y-80656707D01*
X49498754Y-80656707D02*
X49465082Y-80715028D01*
X49465082Y-80715028D02*
X49443735Y-80819345D01*
X49443735Y-80819345D02*
X49505358Y-81049328D01*
X49505358Y-81049328D02*
X49576004Y-81128996D01*
X49576004Y-81128996D02*
X49634326Y-81162668D01*
X49634326Y-81162668D02*
X49738643Y-81184015D01*
X49738643Y-81184015D02*
X49968626Y-81122391D01*
X49968626Y-81122391D02*
X50048294Y-81051745D01*
X50048294Y-81051745D02*
X50081966Y-80993424D01*
X48634728Y-81479808D02*
X49186686Y-81331911D01*
X48910707Y-81405860D02*
X48651888Y-80439934D01*
X48651888Y-80439934D02*
X48780855Y-80553274D01*
X48780855Y-80553274D02*
X48897497Y-80620617D01*
X48897497Y-80620617D02*
X49001815Y-80641964D01*
X177574285Y-144729619D02*
X177574285Y-143729619D01*
X177574285Y-143729619D02*
X177336190Y-143729619D01*
X177336190Y-143729619D02*
X177193333Y-143777238D01*
X177193333Y-143777238D02*
X177098095Y-143872476D01*
X177098095Y-143872476D02*
X177050476Y-143967714D01*
X177050476Y-143967714D02*
X177002857Y-144158190D01*
X177002857Y-144158190D02*
X177002857Y-144301047D01*
X177002857Y-144301047D02*
X177050476Y-144491523D01*
X177050476Y-144491523D02*
X177098095Y-144586761D01*
X177098095Y-144586761D02*
X177193333Y-144682000D01*
X177193333Y-144682000D02*
X177336190Y-144729619D01*
X177336190Y-144729619D02*
X177574285Y-144729619D01*
X176050476Y-144729619D02*
X176621904Y-144729619D01*
X176336190Y-144729619D02*
X176336190Y-143729619D01*
X176336190Y-143729619D02*
X176431428Y-143872476D01*
X176431428Y-143872476D02*
X176526666Y-143967714D01*
X176526666Y-143967714D02*
X176621904Y-144015333D01*
X175193333Y-143729619D02*
X175383809Y-143729619D01*
X175383809Y-143729619D02*
X175479047Y-143777238D01*
X175479047Y-143777238D02*
X175526666Y-143824857D01*
X175526666Y-143824857D02*
X175621904Y-143967714D01*
X175621904Y-143967714D02*
X175669523Y-144158190D01*
X175669523Y-144158190D02*
X175669523Y-144539142D01*
X175669523Y-144539142D02*
X175621904Y-144634380D01*
X175621904Y-144634380D02*
X175574285Y-144682000D01*
X175574285Y-144682000D02*
X175479047Y-144729619D01*
X175479047Y-144729619D02*
X175288571Y-144729619D01*
X175288571Y-144729619D02*
X175193333Y-144682000D01*
X175193333Y-144682000D02*
X175145714Y-144634380D01*
X175145714Y-144634380D02*
X175098095Y-144539142D01*
X175098095Y-144539142D02*
X175098095Y-144301047D01*
X175098095Y-144301047D02*
X175145714Y-144205809D01*
X175145714Y-144205809D02*
X175193333Y-144158190D01*
X175193333Y-144158190D02*
X175288571Y-144110571D01*
X175288571Y-144110571D02*
X175479047Y-144110571D01*
X175479047Y-144110571D02*
X175574285Y-144158190D01*
X175574285Y-144158190D02*
X175621904Y-144205809D01*
X175621904Y-144205809D02*
X175669523Y-144301047D01*
X157085103Y-164379625D02*
X157032767Y-163380996D01*
X157032767Y-163380996D02*
X156794998Y-163393457D01*
X156794998Y-163393457D02*
X156654829Y-163448487D01*
X156654829Y-163448487D02*
X156564706Y-163548579D01*
X156564706Y-163548579D02*
X156522136Y-163646179D01*
X156522136Y-163646179D02*
X156484551Y-163838886D01*
X156484551Y-163838886D02*
X156492028Y-163981548D01*
X156492028Y-163981548D02*
X156549551Y-164169270D01*
X156549551Y-164169270D02*
X156602089Y-164261886D01*
X156602089Y-164261886D02*
X156702181Y-164352009D01*
X156702181Y-164352009D02*
X156847334Y-164392086D01*
X156847334Y-164392086D02*
X157085103Y-164379625D01*
X155558600Y-163458254D02*
X156034138Y-163433332D01*
X156034138Y-163433332D02*
X156106613Y-163906377D01*
X156106613Y-163906377D02*
X156056567Y-163861316D01*
X156056567Y-163861316D02*
X155958968Y-163818746D01*
X155958968Y-163818746D02*
X155721199Y-163831207D01*
X155721199Y-163831207D02*
X155628583Y-163883746D01*
X155628583Y-163883746D02*
X155583522Y-163933792D01*
X155583522Y-163933792D02*
X155540952Y-164031391D01*
X155540952Y-164031391D02*
X155553413Y-164269160D01*
X155553413Y-164269160D02*
X155605951Y-164361776D01*
X155605951Y-164361776D02*
X155655997Y-164406837D01*
X155655997Y-164406837D02*
X155753597Y-164449407D01*
X155753597Y-164449407D02*
X155991366Y-164436946D01*
X155991366Y-164436946D02*
X156083981Y-164384408D01*
X156083981Y-164384408D02*
X156129043Y-164334362D01*
X216665194Y-84729619D02*
X216665194Y-83729619D01*
X216665194Y-83729619D02*
X216427099Y-83729619D01*
X216427099Y-83729619D02*
X216284242Y-83777238D01*
X216284242Y-83777238D02*
X216189004Y-83872476D01*
X216189004Y-83872476D02*
X216141385Y-83967714D01*
X216141385Y-83967714D02*
X216093766Y-84158190D01*
X216093766Y-84158190D02*
X216093766Y-84301047D01*
X216093766Y-84301047D02*
X216141385Y-84491523D01*
X216141385Y-84491523D02*
X216189004Y-84586761D01*
X216189004Y-84586761D02*
X216284242Y-84682000D01*
X216284242Y-84682000D02*
X216427099Y-84729619D01*
X216427099Y-84729619D02*
X216665194Y-84729619D01*
X215236623Y-84062952D02*
X215236623Y-84729619D01*
X215474718Y-83682000D02*
X215712813Y-84396285D01*
X215712813Y-84396285D02*
X215093766Y-84396285D01*
X214569956Y-84158190D02*
X214665194Y-84110571D01*
X214665194Y-84110571D02*
X214712813Y-84062952D01*
X214712813Y-84062952D02*
X214760432Y-83967714D01*
X214760432Y-83967714D02*
X214760432Y-83920095D01*
X214760432Y-83920095D02*
X214712813Y-83824857D01*
X214712813Y-83824857D02*
X214665194Y-83777238D01*
X214665194Y-83777238D02*
X214569956Y-83729619D01*
X214569956Y-83729619D02*
X214379480Y-83729619D01*
X214379480Y-83729619D02*
X214284242Y-83777238D01*
X214284242Y-83777238D02*
X214236623Y-83824857D01*
X214236623Y-83824857D02*
X214189004Y-83920095D01*
X214189004Y-83920095D02*
X214189004Y-83967714D01*
X214189004Y-83967714D02*
X214236623Y-84062952D01*
X214236623Y-84062952D02*
X214284242Y-84110571D01*
X214284242Y-84110571D02*
X214379480Y-84158190D01*
X214379480Y-84158190D02*
X214569956Y-84158190D01*
X214569956Y-84158190D02*
X214665194Y-84205809D01*
X214665194Y-84205809D02*
X214712813Y-84253428D01*
X214712813Y-84253428D02*
X214760432Y-84348666D01*
X214760432Y-84348666D02*
X214760432Y-84539142D01*
X214760432Y-84539142D02*
X214712813Y-84634380D01*
X214712813Y-84634380D02*
X214665194Y-84682000D01*
X214665194Y-84682000D02*
X214569956Y-84729619D01*
X214569956Y-84729619D02*
X214379480Y-84729619D01*
X214379480Y-84729619D02*
X214284242Y-84682000D01*
X214284242Y-84682000D02*
X214236623Y-84634380D01*
X214236623Y-84634380D02*
X214189004Y-84539142D01*
X214189004Y-84539142D02*
X214189004Y-84348666D01*
X214189004Y-84348666D02*
X214236623Y-84253428D01*
X214236623Y-84253428D02*
X214284242Y-84205809D01*
X214284242Y-84205809D02*
X214379480Y-84158190D01*
X178028830Y-124729619D02*
X178028830Y-123729619D01*
X178028830Y-123729619D02*
X177790735Y-123729619D01*
X177790735Y-123729619D02*
X177647878Y-123777238D01*
X177647878Y-123777238D02*
X177552640Y-123872476D01*
X177552640Y-123872476D02*
X177505021Y-123967714D01*
X177505021Y-123967714D02*
X177457402Y-124158190D01*
X177457402Y-124158190D02*
X177457402Y-124301047D01*
X177457402Y-124301047D02*
X177505021Y-124491523D01*
X177505021Y-124491523D02*
X177552640Y-124586761D01*
X177552640Y-124586761D02*
X177647878Y-124682000D01*
X177647878Y-124682000D02*
X177790735Y-124729619D01*
X177790735Y-124729619D02*
X178028830Y-124729619D01*
X177076449Y-123824857D02*
X177028830Y-123777238D01*
X177028830Y-123777238D02*
X176933592Y-123729619D01*
X176933592Y-123729619D02*
X176695497Y-123729619D01*
X176695497Y-123729619D02*
X176600259Y-123777238D01*
X176600259Y-123777238D02*
X176552640Y-123824857D01*
X176552640Y-123824857D02*
X176505021Y-123920095D01*
X176505021Y-123920095D02*
X176505021Y-124015333D01*
X176505021Y-124015333D02*
X176552640Y-124158190D01*
X176552640Y-124158190D02*
X177124068Y-124729619D01*
X177124068Y-124729619D02*
X176505021Y-124729619D01*
X175647878Y-123729619D02*
X175838354Y-123729619D01*
X175838354Y-123729619D02*
X175933592Y-123777238D01*
X175933592Y-123777238D02*
X175981211Y-123824857D01*
X175981211Y-123824857D02*
X176076449Y-123967714D01*
X176076449Y-123967714D02*
X176124068Y-124158190D01*
X176124068Y-124158190D02*
X176124068Y-124539142D01*
X176124068Y-124539142D02*
X176076449Y-124634380D01*
X176076449Y-124634380D02*
X176028830Y-124682000D01*
X176028830Y-124682000D02*
X175933592Y-124729619D01*
X175933592Y-124729619D02*
X175743116Y-124729619D01*
X175743116Y-124729619D02*
X175647878Y-124682000D01*
X175647878Y-124682000D02*
X175600259Y-124634380D01*
X175600259Y-124634380D02*
X175552640Y-124539142D01*
X175552640Y-124539142D02*
X175552640Y-124301047D01*
X175552640Y-124301047D02*
X175600259Y-124205809D01*
X175600259Y-124205809D02*
X175647878Y-124158190D01*
X175647878Y-124158190D02*
X175743116Y-124110571D01*
X175743116Y-124110571D02*
X175933592Y-124110571D01*
X175933592Y-124110571D02*
X176028830Y-124158190D01*
X176028830Y-124158190D02*
X176076449Y-124205809D01*
X176076449Y-124205809D02*
X176124068Y-124301047D01*
X79936583Y-94614737D02*
X79728672Y-93636590D01*
X79728672Y-93636590D02*
X79495779Y-93686093D01*
X79495779Y-93686093D02*
X79365945Y-93762373D01*
X79365945Y-93762373D02*
X79292589Y-93875331D01*
X79292589Y-93875331D02*
X79265811Y-93978388D01*
X79265811Y-93978388D02*
X79258835Y-94174603D01*
X79258835Y-94174603D02*
X79288537Y-94314338D01*
X79288537Y-94314338D02*
X79374718Y-94490751D01*
X79374718Y-94490751D02*
X79441097Y-94574008D01*
X79441097Y-94574008D02*
X79554055Y-94647363D01*
X79554055Y-94647363D02*
X79703691Y-94664240D01*
X79703691Y-94664240D02*
X79936583Y-94614737D01*
X78400622Y-94259656D02*
X78539230Y-94911754D01*
X78554310Y-93837525D02*
X78935710Y-94486699D01*
X78935710Y-94486699D02*
X78330190Y-94615407D01*
X77885334Y-94125769D02*
X77828855Y-94089091D01*
X77828855Y-94089091D02*
X77725798Y-94062314D01*
X77725798Y-94062314D02*
X77492906Y-94111817D01*
X77492906Y-94111817D02*
X77409649Y-94178196D01*
X77409649Y-94178196D02*
X77372971Y-94234675D01*
X77372971Y-94234675D02*
X77346194Y-94337733D01*
X77346194Y-94337733D02*
X77365995Y-94430890D01*
X77365995Y-94430890D02*
X77442275Y-94560724D01*
X77442275Y-94560724D02*
X78120024Y-95000859D01*
X78120024Y-95000859D02*
X77514504Y-95129566D01*
X96070798Y-173113743D02*
X95862887Y-172135596D01*
X95862887Y-172135596D02*
X95629994Y-172185098D01*
X95629994Y-172185098D02*
X95500160Y-172261378D01*
X95500160Y-172261378D02*
X95426804Y-172374336D01*
X95426804Y-172374336D02*
X95400026Y-172477394D01*
X95400026Y-172477394D02*
X95393050Y-172673608D01*
X95393050Y-172673608D02*
X95422752Y-172813344D01*
X95422752Y-172813344D02*
X95508933Y-172989757D01*
X95508933Y-172989757D02*
X95575312Y-173073013D01*
X95575312Y-173073013D02*
X95688270Y-173146369D01*
X95688270Y-173146369D02*
X95837906Y-173163246D01*
X95837906Y-173163246D02*
X96070798Y-173113743D01*
X94951119Y-172426764D02*
X94894640Y-172390086D01*
X94894640Y-172390086D02*
X94791582Y-172363308D01*
X94791582Y-172363308D02*
X94558690Y-172412811D01*
X94558690Y-172412811D02*
X94475433Y-172479191D01*
X94475433Y-172479191D02*
X94438756Y-172535670D01*
X94438756Y-172535670D02*
X94411978Y-172638727D01*
X94411978Y-172638727D02*
X94431779Y-172731884D01*
X94431779Y-172731884D02*
X94508059Y-172861719D01*
X94508059Y-172861719D02*
X95185808Y-173301854D01*
X95185808Y-173301854D02*
X94580288Y-173430561D01*
X275619739Y-104729619D02*
X275619739Y-103729619D01*
X275619739Y-103729619D02*
X275381644Y-103729619D01*
X275381644Y-103729619D02*
X275238787Y-103777238D01*
X275238787Y-103777238D02*
X275143549Y-103872476D01*
X275143549Y-103872476D02*
X275095930Y-103967714D01*
X275095930Y-103967714D02*
X275048311Y-104158190D01*
X275048311Y-104158190D02*
X275048311Y-104301047D01*
X275048311Y-104301047D02*
X275095930Y-104491523D01*
X275095930Y-104491523D02*
X275143549Y-104586761D01*
X275143549Y-104586761D02*
X275238787Y-104682000D01*
X275238787Y-104682000D02*
X275381644Y-104729619D01*
X275381644Y-104729619D02*
X275619739Y-104729619D01*
X274191168Y-103729619D02*
X274381644Y-103729619D01*
X274381644Y-103729619D02*
X274476882Y-103777238D01*
X274476882Y-103777238D02*
X274524501Y-103824857D01*
X274524501Y-103824857D02*
X274619739Y-103967714D01*
X274619739Y-103967714D02*
X274667358Y-104158190D01*
X274667358Y-104158190D02*
X274667358Y-104539142D01*
X274667358Y-104539142D02*
X274619739Y-104634380D01*
X274619739Y-104634380D02*
X274572120Y-104682000D01*
X274572120Y-104682000D02*
X274476882Y-104729619D01*
X274476882Y-104729619D02*
X274286406Y-104729619D01*
X274286406Y-104729619D02*
X274191168Y-104682000D01*
X274191168Y-104682000D02*
X274143549Y-104634380D01*
X274143549Y-104634380D02*
X274095930Y-104539142D01*
X274095930Y-104539142D02*
X274095930Y-104301047D01*
X274095930Y-104301047D02*
X274143549Y-104205809D01*
X274143549Y-104205809D02*
X274191168Y-104158190D01*
X274191168Y-104158190D02*
X274286406Y-104110571D01*
X274286406Y-104110571D02*
X274476882Y-104110571D01*
X274476882Y-104110571D02*
X274572120Y-104158190D01*
X274572120Y-104158190D02*
X274619739Y-104205809D01*
X274619739Y-104205809D02*
X274667358Y-104301047D01*
X273762596Y-103729619D02*
X273143549Y-103729619D01*
X273143549Y-103729619D02*
X273476882Y-104110571D01*
X273476882Y-104110571D02*
X273334025Y-104110571D01*
X273334025Y-104110571D02*
X273238787Y-104158190D01*
X273238787Y-104158190D02*
X273191168Y-104205809D01*
X273191168Y-104205809D02*
X273143549Y-104301047D01*
X273143549Y-104301047D02*
X273143549Y-104539142D01*
X273143549Y-104539142D02*
X273191168Y-104634380D01*
X273191168Y-104634380D02*
X273238787Y-104682000D01*
X273238787Y-104682000D02*
X273334025Y-104729619D01*
X273334025Y-104729619D02*
X273619739Y-104729619D01*
X273619739Y-104729619D02*
X273714977Y-104682000D01*
X273714977Y-104682000D02*
X273762596Y-104634380D01*
X107037543Y-109985604D02*
X106881108Y-108997915D01*
X106881108Y-108997915D02*
X106645944Y-109035162D01*
X106645944Y-109035162D02*
X106512295Y-109104542D01*
X106512295Y-109104542D02*
X106433128Y-109213506D01*
X106433128Y-109213506D02*
X106400994Y-109315021D01*
X106400994Y-109315021D02*
X106383758Y-109510602D01*
X106383758Y-109510602D02*
X106406106Y-109651700D01*
X106406106Y-109651700D02*
X106482936Y-109832382D01*
X106482936Y-109832382D02*
X106544867Y-109918998D01*
X106544867Y-109918998D02*
X106653831Y-109998165D01*
X106653831Y-109998165D02*
X106802379Y-110022850D01*
X106802379Y-110022850D02*
X107037543Y-109985604D01*
X105987486Y-109139451D02*
X105376059Y-109236292D01*
X105376059Y-109236292D02*
X105764883Y-109560409D01*
X105764883Y-109560409D02*
X105623785Y-109582757D01*
X105623785Y-109582757D02*
X105537168Y-109644688D01*
X105537168Y-109644688D02*
X105497585Y-109699170D01*
X105497585Y-109699170D02*
X105465451Y-109800685D01*
X105465451Y-109800685D02*
X105502697Y-110035849D01*
X105502697Y-110035849D02*
X105564628Y-110122465D01*
X105564628Y-110122465D02*
X105619110Y-110162049D01*
X105619110Y-110162049D02*
X105720625Y-110194183D01*
X105720625Y-110194183D02*
X106002822Y-110149488D01*
X106002822Y-110149488D02*
X106089438Y-110087556D01*
X106089438Y-110087556D02*
X106129021Y-110033074D01*
X105046830Y-109288437D02*
X104435404Y-109385277D01*
X104435404Y-109385277D02*
X104824227Y-109709394D01*
X104824227Y-109709394D02*
X104683129Y-109731742D01*
X104683129Y-109731742D02*
X104596513Y-109793674D01*
X104596513Y-109793674D02*
X104556929Y-109848156D01*
X104556929Y-109848156D02*
X104524795Y-109949670D01*
X104524795Y-109949670D02*
X104562041Y-110184834D01*
X104562041Y-110184834D02*
X104623973Y-110271451D01*
X104623973Y-110271451D02*
X104678455Y-110311034D01*
X104678455Y-110311034D02*
X104779969Y-110343168D01*
X104779969Y-110343168D02*
X105062166Y-110298473D01*
X105062166Y-110298473D02*
X105148782Y-110236541D01*
X105148782Y-110236541D02*
X105188366Y-110182059D01*
X236465194Y-104729619D02*
X236465194Y-103729619D01*
X236465194Y-103729619D02*
X236227099Y-103729619D01*
X236227099Y-103729619D02*
X236084242Y-103777238D01*
X236084242Y-103777238D02*
X235989004Y-103872476D01*
X235989004Y-103872476D02*
X235941385Y-103967714D01*
X235941385Y-103967714D02*
X235893766Y-104158190D01*
X235893766Y-104158190D02*
X235893766Y-104301047D01*
X235893766Y-104301047D02*
X235941385Y-104491523D01*
X235941385Y-104491523D02*
X235989004Y-104586761D01*
X235989004Y-104586761D02*
X236084242Y-104682000D01*
X236084242Y-104682000D02*
X236227099Y-104729619D01*
X236227099Y-104729619D02*
X236465194Y-104729619D01*
X235560432Y-103729619D02*
X234941385Y-103729619D01*
X234941385Y-103729619D02*
X235274718Y-104110571D01*
X235274718Y-104110571D02*
X235131861Y-104110571D01*
X235131861Y-104110571D02*
X235036623Y-104158190D01*
X235036623Y-104158190D02*
X234989004Y-104205809D01*
X234989004Y-104205809D02*
X234941385Y-104301047D01*
X234941385Y-104301047D02*
X234941385Y-104539142D01*
X234941385Y-104539142D02*
X234989004Y-104634380D01*
X234989004Y-104634380D02*
X235036623Y-104682000D01*
X235036623Y-104682000D02*
X235131861Y-104729619D01*
X235131861Y-104729619D02*
X235417575Y-104729619D01*
X235417575Y-104729619D02*
X235512813Y-104682000D01*
X235512813Y-104682000D02*
X235560432Y-104634380D01*
X234465194Y-104729619D02*
X234274718Y-104729619D01*
X234274718Y-104729619D02*
X234179480Y-104682000D01*
X234179480Y-104682000D02*
X234131861Y-104634380D01*
X234131861Y-104634380D02*
X234036623Y-104491523D01*
X234036623Y-104491523D02*
X233989004Y-104301047D01*
X233989004Y-104301047D02*
X233989004Y-103920095D01*
X233989004Y-103920095D02*
X234036623Y-103824857D01*
X234036623Y-103824857D02*
X234084242Y-103777238D01*
X234084242Y-103777238D02*
X234179480Y-103729619D01*
X234179480Y-103729619D02*
X234369956Y-103729619D01*
X234369956Y-103729619D02*
X234465194Y-103777238D01*
X234465194Y-103777238D02*
X234512813Y-103824857D01*
X234512813Y-103824857D02*
X234560432Y-103920095D01*
X234560432Y-103920095D02*
X234560432Y-104158190D01*
X234560432Y-104158190D02*
X234512813Y-104253428D01*
X234512813Y-104253428D02*
X234465194Y-104301047D01*
X234465194Y-104301047D02*
X234369956Y-104348666D01*
X234369956Y-104348666D02*
X234179480Y-104348666D01*
X234179480Y-104348666D02*
X234084242Y-104301047D01*
X234084242Y-104301047D02*
X234036623Y-104253428D01*
X234036623Y-104253428D02*
X233989004Y-104158190D01*
X128139516Y-86653826D02*
X128034987Y-85659304D01*
X128034987Y-85659304D02*
X127798196Y-85684191D01*
X127798196Y-85684191D02*
X127661099Y-85746482D01*
X127661099Y-85746482D02*
X127576338Y-85851154D01*
X127576338Y-85851154D02*
X127538935Y-85950848D01*
X127538935Y-85950848D02*
X127511487Y-86145258D01*
X127511487Y-86145258D02*
X127526420Y-86287332D01*
X127526420Y-86287332D02*
X127593688Y-86471788D01*
X127593688Y-86471788D02*
X127651001Y-86561526D01*
X127651001Y-86561526D02*
X127755673Y-86646288D01*
X127755673Y-86646288D02*
X127902725Y-86678713D01*
X127902725Y-86678713D02*
X128139516Y-86653826D01*
X126649085Y-86140137D02*
X126718770Y-86803152D01*
X126846055Y-85736384D02*
X127157509Y-86421869D01*
X127157509Y-86421869D02*
X126541853Y-86486577D01*
X125701921Y-86239688D02*
X125771606Y-86902703D01*
X125898891Y-85835935D02*
X126210346Y-86521420D01*
X126210346Y-86521420D02*
X125594689Y-86586128D01*
X216887921Y-64729619D02*
X216887921Y-63729619D01*
X216887921Y-63729619D02*
X216649826Y-63729619D01*
X216649826Y-63729619D02*
X216506969Y-63777238D01*
X216506969Y-63777238D02*
X216411731Y-63872476D01*
X216411731Y-63872476D02*
X216364112Y-63967714D01*
X216364112Y-63967714D02*
X216316493Y-64158190D01*
X216316493Y-64158190D02*
X216316493Y-64301047D01*
X216316493Y-64301047D02*
X216364112Y-64491523D01*
X216364112Y-64491523D02*
X216411731Y-64586761D01*
X216411731Y-64586761D02*
X216506969Y-64682000D01*
X216506969Y-64682000D02*
X216649826Y-64729619D01*
X216649826Y-64729619D02*
X216887921Y-64729619D01*
X215411731Y-63729619D02*
X215887921Y-63729619D01*
X215887921Y-63729619D02*
X215935540Y-64205809D01*
X215935540Y-64205809D02*
X215887921Y-64158190D01*
X215887921Y-64158190D02*
X215792683Y-64110571D01*
X215792683Y-64110571D02*
X215554588Y-64110571D01*
X215554588Y-64110571D02*
X215459350Y-64158190D01*
X215459350Y-64158190D02*
X215411731Y-64205809D01*
X215411731Y-64205809D02*
X215364112Y-64301047D01*
X215364112Y-64301047D02*
X215364112Y-64539142D01*
X215364112Y-64539142D02*
X215411731Y-64634380D01*
X215411731Y-64634380D02*
X215459350Y-64682000D01*
X215459350Y-64682000D02*
X215554588Y-64729619D01*
X215554588Y-64729619D02*
X215792683Y-64729619D01*
X215792683Y-64729619D02*
X215887921Y-64682000D01*
X215887921Y-64682000D02*
X215935540Y-64634380D01*
X214792683Y-64158190D02*
X214887921Y-64110571D01*
X214887921Y-64110571D02*
X214935540Y-64062952D01*
X214935540Y-64062952D02*
X214983159Y-63967714D01*
X214983159Y-63967714D02*
X214983159Y-63920095D01*
X214983159Y-63920095D02*
X214935540Y-63824857D01*
X214935540Y-63824857D02*
X214887921Y-63777238D01*
X214887921Y-63777238D02*
X214792683Y-63729619D01*
X214792683Y-63729619D02*
X214602207Y-63729619D01*
X214602207Y-63729619D02*
X214506969Y-63777238D01*
X214506969Y-63777238D02*
X214459350Y-63824857D01*
X214459350Y-63824857D02*
X214411731Y-63920095D01*
X214411731Y-63920095D02*
X214411731Y-63967714D01*
X214411731Y-63967714D02*
X214459350Y-64062952D01*
X214459350Y-64062952D02*
X214506969Y-64110571D01*
X214506969Y-64110571D02*
X214602207Y-64158190D01*
X214602207Y-64158190D02*
X214792683Y-64158190D01*
X214792683Y-64158190D02*
X214887921Y-64205809D01*
X214887921Y-64205809D02*
X214935540Y-64253428D01*
X214935540Y-64253428D02*
X214983159Y-64348666D01*
X214983159Y-64348666D02*
X214983159Y-64539142D01*
X214983159Y-64539142D02*
X214935540Y-64634380D01*
X214935540Y-64634380D02*
X214887921Y-64682000D01*
X214887921Y-64682000D02*
X214792683Y-64729619D01*
X214792683Y-64729619D02*
X214602207Y-64729619D01*
X214602207Y-64729619D02*
X214506969Y-64682000D01*
X214506969Y-64682000D02*
X214459350Y-64634380D01*
X214459350Y-64634380D02*
X214411731Y-64539142D01*
X214411731Y-64539142D02*
X214411731Y-64348666D01*
X214411731Y-64348666D02*
X214459350Y-64253428D01*
X214459350Y-64253428D02*
X214506969Y-64205809D01*
X214506969Y-64205809D02*
X214602207Y-64158190D01*
X156142460Y-145172703D02*
X156090124Y-144174074D01*
X156090124Y-144174074D02*
X155852355Y-144186535D01*
X155852355Y-144186535D02*
X155712185Y-144241565D01*
X155712185Y-144241565D02*
X155622062Y-144341657D01*
X155622062Y-144341657D02*
X155579493Y-144439257D01*
X155579493Y-144439257D02*
X155541908Y-144631964D01*
X155541908Y-144631964D02*
X155549384Y-144774626D01*
X155549384Y-144774626D02*
X155606907Y-144962349D01*
X155606907Y-144962349D02*
X155659445Y-145054964D01*
X155659445Y-145054964D02*
X155759537Y-145145087D01*
X155759537Y-145145087D02*
X155904691Y-145185164D01*
X155904691Y-145185164D02*
X156142460Y-145172703D01*
X154620738Y-145252453D02*
X155191384Y-145222547D01*
X154906061Y-145237500D02*
X154853725Y-144238871D01*
X154853725Y-144238871D02*
X154956309Y-144376548D01*
X154956309Y-144376548D02*
X155056401Y-144466671D01*
X155056401Y-144466671D02*
X155154001Y-144509240D01*
X153664880Y-144301176D02*
X154140418Y-144276254D01*
X154140418Y-144276254D02*
X154212894Y-144749299D01*
X154212894Y-144749299D02*
X154162848Y-144704238D01*
X154162848Y-144704238D02*
X154065248Y-144661668D01*
X154065248Y-144661668D02*
X153827479Y-144674129D01*
X153827479Y-144674129D02*
X153734864Y-144726667D01*
X153734864Y-144726667D02*
X153689802Y-144776713D01*
X153689802Y-144776713D02*
X153647233Y-144874313D01*
X153647233Y-144874313D02*
X153659694Y-145112082D01*
X153659694Y-145112082D02*
X153712232Y-145204697D01*
X153712232Y-145204697D02*
X153762278Y-145249759D01*
X153762278Y-145249759D02*
X153859878Y-145292328D01*
X153859878Y-145292328D02*
X154097647Y-145279868D01*
X154097647Y-145279868D02*
X154190262Y-145227329D01*
X154190262Y-145227329D02*
X154235324Y-145177283D01*
X295197012Y-64729619D02*
X295197012Y-63729619D01*
X295197012Y-63729619D02*
X294958917Y-63729619D01*
X294958917Y-63729619D02*
X294816060Y-63777238D01*
X294816060Y-63777238D02*
X294720822Y-63872476D01*
X294720822Y-63872476D02*
X294673203Y-63967714D01*
X294673203Y-63967714D02*
X294625584Y-64158190D01*
X294625584Y-64158190D02*
X294625584Y-64301047D01*
X294625584Y-64301047D02*
X294673203Y-64491523D01*
X294673203Y-64491523D02*
X294720822Y-64586761D01*
X294720822Y-64586761D02*
X294816060Y-64682000D01*
X294816060Y-64682000D02*
X294958917Y-64729619D01*
X294958917Y-64729619D02*
X295197012Y-64729619D01*
X293768441Y-63729619D02*
X293958917Y-63729619D01*
X293958917Y-63729619D02*
X294054155Y-63777238D01*
X294054155Y-63777238D02*
X294101774Y-63824857D01*
X294101774Y-63824857D02*
X294197012Y-63967714D01*
X294197012Y-63967714D02*
X294244631Y-64158190D01*
X294244631Y-64158190D02*
X294244631Y-64539142D01*
X294244631Y-64539142D02*
X294197012Y-64634380D01*
X294197012Y-64634380D02*
X294149393Y-64682000D01*
X294149393Y-64682000D02*
X294054155Y-64729619D01*
X294054155Y-64729619D02*
X293863679Y-64729619D01*
X293863679Y-64729619D02*
X293768441Y-64682000D01*
X293768441Y-64682000D02*
X293720822Y-64634380D01*
X293720822Y-64634380D02*
X293673203Y-64539142D01*
X293673203Y-64539142D02*
X293673203Y-64301047D01*
X293673203Y-64301047D02*
X293720822Y-64205809D01*
X293720822Y-64205809D02*
X293768441Y-64158190D01*
X293768441Y-64158190D02*
X293863679Y-64110571D01*
X293863679Y-64110571D02*
X294054155Y-64110571D01*
X294054155Y-64110571D02*
X294149393Y-64158190D01*
X294149393Y-64158190D02*
X294197012Y-64205809D01*
X294197012Y-64205809D02*
X294244631Y-64301047D01*
X293339869Y-63729619D02*
X292673203Y-63729619D01*
X292673203Y-63729619D02*
X293101774Y-64729619D01*
X275301557Y-144729619D02*
X275301557Y-143729619D01*
X275301557Y-143729619D02*
X275063462Y-143729619D01*
X275063462Y-143729619D02*
X274920605Y-143777238D01*
X274920605Y-143777238D02*
X274825367Y-143872476D01*
X274825367Y-143872476D02*
X274777748Y-143967714D01*
X274777748Y-143967714D02*
X274730129Y-144158190D01*
X274730129Y-144158190D02*
X274730129Y-144301047D01*
X274730129Y-144301047D02*
X274777748Y-144491523D01*
X274777748Y-144491523D02*
X274825367Y-144586761D01*
X274825367Y-144586761D02*
X274920605Y-144682000D01*
X274920605Y-144682000D02*
X275063462Y-144729619D01*
X275063462Y-144729619D02*
X275301557Y-144729619D01*
X273872986Y-143729619D02*
X274063462Y-143729619D01*
X274063462Y-143729619D02*
X274158700Y-143777238D01*
X274158700Y-143777238D02*
X274206319Y-143824857D01*
X274206319Y-143824857D02*
X274301557Y-143967714D01*
X274301557Y-143967714D02*
X274349176Y-144158190D01*
X274349176Y-144158190D02*
X274349176Y-144539142D01*
X274349176Y-144539142D02*
X274301557Y-144634380D01*
X274301557Y-144634380D02*
X274253938Y-144682000D01*
X274253938Y-144682000D02*
X274158700Y-144729619D01*
X274158700Y-144729619D02*
X273968224Y-144729619D01*
X273968224Y-144729619D02*
X273872986Y-144682000D01*
X273872986Y-144682000D02*
X273825367Y-144634380D01*
X273825367Y-144634380D02*
X273777748Y-144539142D01*
X273777748Y-144539142D02*
X273777748Y-144301047D01*
X273777748Y-144301047D02*
X273825367Y-144205809D01*
X273825367Y-144205809D02*
X273872986Y-144158190D01*
X273872986Y-144158190D02*
X273968224Y-144110571D01*
X273968224Y-144110571D02*
X274158700Y-144110571D01*
X274158700Y-144110571D02*
X274253938Y-144158190D01*
X274253938Y-144158190D02*
X274301557Y-144205809D01*
X274301557Y-144205809D02*
X274349176Y-144301047D01*
X272872986Y-143729619D02*
X273349176Y-143729619D01*
X273349176Y-143729619D02*
X273396795Y-144205809D01*
X273396795Y-144205809D02*
X273349176Y-144158190D01*
X273349176Y-144158190D02*
X273253938Y-144110571D01*
X273253938Y-144110571D02*
X273015843Y-144110571D01*
X273015843Y-144110571D02*
X272920605Y-144158190D01*
X272920605Y-144158190D02*
X272872986Y-144205809D01*
X272872986Y-144205809D02*
X272825367Y-144301047D01*
X272825367Y-144301047D02*
X272825367Y-144539142D01*
X272825367Y-144539142D02*
X272872986Y-144634380D01*
X272872986Y-144634380D02*
X272920605Y-144682000D01*
X272920605Y-144682000D02*
X273015843Y-144729619D01*
X273015843Y-144729619D02*
X273253938Y-144729619D01*
X273253938Y-144729619D02*
X273349176Y-144682000D01*
X273349176Y-144682000D02*
X273396795Y-144634380D01*
X216665194Y-144729619D02*
X216665194Y-143729619D01*
X216665194Y-143729619D02*
X216427099Y-143729619D01*
X216427099Y-143729619D02*
X216284242Y-143777238D01*
X216284242Y-143777238D02*
X216189004Y-143872476D01*
X216189004Y-143872476D02*
X216141385Y-143967714D01*
X216141385Y-143967714D02*
X216093766Y-144158190D01*
X216093766Y-144158190D02*
X216093766Y-144301047D01*
X216093766Y-144301047D02*
X216141385Y-144491523D01*
X216141385Y-144491523D02*
X216189004Y-144586761D01*
X216189004Y-144586761D02*
X216284242Y-144682000D01*
X216284242Y-144682000D02*
X216427099Y-144729619D01*
X216427099Y-144729619D02*
X216665194Y-144729619D01*
X215141385Y-144729619D02*
X215712813Y-144729619D01*
X215427099Y-144729619D02*
X215427099Y-143729619D01*
X215427099Y-143729619D02*
X215522337Y-143872476D01*
X215522337Y-143872476D02*
X215617575Y-143967714D01*
X215617575Y-143967714D02*
X215712813Y-144015333D01*
X214569956Y-144158190D02*
X214665194Y-144110571D01*
X214665194Y-144110571D02*
X214712813Y-144062952D01*
X214712813Y-144062952D02*
X214760432Y-143967714D01*
X214760432Y-143967714D02*
X214760432Y-143920095D01*
X214760432Y-143920095D02*
X214712813Y-143824857D01*
X214712813Y-143824857D02*
X214665194Y-143777238D01*
X214665194Y-143777238D02*
X214569956Y-143729619D01*
X214569956Y-143729619D02*
X214379480Y-143729619D01*
X214379480Y-143729619D02*
X214284242Y-143777238D01*
X214284242Y-143777238D02*
X214236623Y-143824857D01*
X214236623Y-143824857D02*
X214189004Y-143920095D01*
X214189004Y-143920095D02*
X214189004Y-143967714D01*
X214189004Y-143967714D02*
X214236623Y-144062952D01*
X214236623Y-144062952D02*
X214284242Y-144110571D01*
X214284242Y-144110571D02*
X214379480Y-144158190D01*
X214379480Y-144158190D02*
X214569956Y-144158190D01*
X214569956Y-144158190D02*
X214665194Y-144205809D01*
X214665194Y-144205809D02*
X214712813Y-144253428D01*
X214712813Y-144253428D02*
X214760432Y-144348666D01*
X214760432Y-144348666D02*
X214760432Y-144539142D01*
X214760432Y-144539142D02*
X214712813Y-144634380D01*
X214712813Y-144634380D02*
X214665194Y-144682000D01*
X214665194Y-144682000D02*
X214569956Y-144729619D01*
X214569956Y-144729619D02*
X214379480Y-144729619D01*
X214379480Y-144729619D02*
X214284242Y-144682000D01*
X214284242Y-144682000D02*
X214236623Y-144634380D01*
X214236623Y-144634380D02*
X214189004Y-144539142D01*
X214189004Y-144539142D02*
X214189004Y-144348666D01*
X214189004Y-144348666D02*
X214236623Y-144253428D01*
X214236623Y-144253428D02*
X214284242Y-144205809D01*
X214284242Y-144205809D02*
X214379480Y-144158190D01*
X132756334Y-126839026D02*
X132651805Y-125844504D01*
X132651805Y-125844504D02*
X132415014Y-125869391D01*
X132415014Y-125869391D02*
X132277917Y-125931682D01*
X132277917Y-125931682D02*
X132193156Y-126036354D01*
X132193156Y-126036354D02*
X132155753Y-126136048D01*
X132155753Y-126136048D02*
X132128305Y-126330458D01*
X132128305Y-126330458D02*
X132143238Y-126472532D01*
X132143238Y-126472532D02*
X132210506Y-126656988D01*
X132210506Y-126656988D02*
X132267819Y-126746726D01*
X132267819Y-126746726D02*
X132372491Y-126831488D01*
X132372491Y-126831488D02*
X132519543Y-126863913D01*
X132519543Y-126863913D02*
X132756334Y-126839026D01*
X131714597Y-126038771D02*
X131662261Y-125996390D01*
X131662261Y-125996390D02*
X131562567Y-125958987D01*
X131562567Y-125958987D02*
X131325776Y-125983875D01*
X131325776Y-125983875D02*
X131236037Y-126041188D01*
X131236037Y-126041188D02*
X131193657Y-126093524D01*
X131193657Y-126093524D02*
X131156254Y-126193218D01*
X131156254Y-126193218D02*
X131166209Y-126287934D01*
X131166209Y-126287934D02*
X131228500Y-126425031D01*
X131228500Y-126425031D02*
X131856528Y-126933599D01*
X131856528Y-126933599D02*
X131240872Y-126998307D01*
X130318739Y-126424888D02*
X130388424Y-127087903D01*
X130515709Y-126021135D02*
X130827164Y-126706620D01*
X130827164Y-126706620D02*
X130211507Y-126771328D01*
X88336583Y-134014737D02*
X88128672Y-133036590D01*
X88128672Y-133036590D02*
X87895779Y-133086093D01*
X87895779Y-133086093D02*
X87765945Y-133162373D01*
X87765945Y-133162373D02*
X87692589Y-133275331D01*
X87692589Y-133275331D02*
X87665811Y-133378388D01*
X87665811Y-133378388D02*
X87658835Y-133574603D01*
X87658835Y-133574603D02*
X87688537Y-133714338D01*
X87688537Y-133714338D02*
X87774718Y-133890751D01*
X87774718Y-133890751D02*
X87841097Y-133974008D01*
X87841097Y-133974008D02*
X87954055Y-134047363D01*
X87954055Y-134047363D02*
X88103691Y-134064240D01*
X88103691Y-134064240D02*
X88336583Y-134014737D01*
X87216904Y-133327758D02*
X87160425Y-133291080D01*
X87160425Y-133291080D02*
X87057367Y-133264303D01*
X87057367Y-133264303D02*
X86824475Y-133313805D01*
X86824475Y-133313805D02*
X86741219Y-133380185D01*
X86741219Y-133380185D02*
X86704541Y-133436664D01*
X86704541Y-133436664D02*
X86677763Y-133539721D01*
X86677763Y-133539721D02*
X86697564Y-133632878D01*
X86697564Y-133632878D02*
X86773845Y-133762713D01*
X86773845Y-133762713D02*
X87451593Y-134202848D01*
X87451593Y-134202848D02*
X86846073Y-134331555D01*
X86285334Y-133525769D02*
X86228855Y-133489091D01*
X86228855Y-133489091D02*
X86125798Y-133462314D01*
X86125798Y-133462314D02*
X85892906Y-133511817D01*
X85892906Y-133511817D02*
X85809649Y-133578196D01*
X85809649Y-133578196D02*
X85772971Y-133634675D01*
X85772971Y-133634675D02*
X85746194Y-133737733D01*
X85746194Y-133737733D02*
X85765995Y-133830890D01*
X85765995Y-133830890D02*
X85842275Y-133960724D01*
X85842275Y-133960724D02*
X86520024Y-134400859D01*
X86520024Y-134400859D02*
X85914504Y-134529566D01*
X197310648Y-64729619D02*
X197310648Y-63729619D01*
X197310648Y-63729619D02*
X197072553Y-63729619D01*
X197072553Y-63729619D02*
X196929696Y-63777238D01*
X196929696Y-63777238D02*
X196834458Y-63872476D01*
X196834458Y-63872476D02*
X196786839Y-63967714D01*
X196786839Y-63967714D02*
X196739220Y-64158190D01*
X196739220Y-64158190D02*
X196739220Y-64301047D01*
X196739220Y-64301047D02*
X196786839Y-64491523D01*
X196786839Y-64491523D02*
X196834458Y-64586761D01*
X196834458Y-64586761D02*
X196929696Y-64682000D01*
X196929696Y-64682000D02*
X197072553Y-64729619D01*
X197072553Y-64729619D02*
X197310648Y-64729619D01*
X195834458Y-63729619D02*
X196310648Y-63729619D01*
X196310648Y-63729619D02*
X196358267Y-64205809D01*
X196358267Y-64205809D02*
X196310648Y-64158190D01*
X196310648Y-64158190D02*
X196215410Y-64110571D01*
X196215410Y-64110571D02*
X195977315Y-64110571D01*
X195977315Y-64110571D02*
X195882077Y-64158190D01*
X195882077Y-64158190D02*
X195834458Y-64205809D01*
X195834458Y-64205809D02*
X195786839Y-64301047D01*
X195786839Y-64301047D02*
X195786839Y-64539142D01*
X195786839Y-64539142D02*
X195834458Y-64634380D01*
X195834458Y-64634380D02*
X195882077Y-64682000D01*
X195882077Y-64682000D02*
X195977315Y-64729619D01*
X195977315Y-64729619D02*
X196215410Y-64729619D01*
X196215410Y-64729619D02*
X196310648Y-64682000D01*
X196310648Y-64682000D02*
X196358267Y-64634380D01*
X195453505Y-63729619D02*
X194786839Y-63729619D01*
X194786839Y-63729619D02*
X195215410Y-64729619D01*
X177370821Y-163911619D02*
X177370821Y-162911619D01*
X177370821Y-162911619D02*
X177132726Y-162911619D01*
X177132726Y-162911619D02*
X176989869Y-162959238D01*
X176989869Y-162959238D02*
X176894631Y-163054476D01*
X176894631Y-163054476D02*
X176847012Y-163149714D01*
X176847012Y-163149714D02*
X176799393Y-163340190D01*
X176799393Y-163340190D02*
X176799393Y-163483047D01*
X176799393Y-163483047D02*
X176847012Y-163673523D01*
X176847012Y-163673523D02*
X176894631Y-163768761D01*
X176894631Y-163768761D02*
X176989869Y-163864000D01*
X176989869Y-163864000D02*
X177132726Y-163911619D01*
X177132726Y-163911619D02*
X177370821Y-163911619D01*
X175942250Y-162911619D02*
X176132726Y-162911619D01*
X176132726Y-162911619D02*
X176227964Y-162959238D01*
X176227964Y-162959238D02*
X176275583Y-163006857D01*
X176275583Y-163006857D02*
X176370821Y-163149714D01*
X176370821Y-163149714D02*
X176418440Y-163340190D01*
X176418440Y-163340190D02*
X176418440Y-163721142D01*
X176418440Y-163721142D02*
X176370821Y-163816380D01*
X176370821Y-163816380D02*
X176323202Y-163864000D01*
X176323202Y-163864000D02*
X176227964Y-163911619D01*
X176227964Y-163911619D02*
X176037488Y-163911619D01*
X176037488Y-163911619D02*
X175942250Y-163864000D01*
X175942250Y-163864000D02*
X175894631Y-163816380D01*
X175894631Y-163816380D02*
X175847012Y-163721142D01*
X175847012Y-163721142D02*
X175847012Y-163483047D01*
X175847012Y-163483047D02*
X175894631Y-163387809D01*
X175894631Y-163387809D02*
X175942250Y-163340190D01*
X175942250Y-163340190D02*
X176037488Y-163292571D01*
X176037488Y-163292571D02*
X176227964Y-163292571D01*
X176227964Y-163292571D02*
X176323202Y-163340190D01*
X176323202Y-163340190D02*
X176370821Y-163387809D01*
X176370821Y-163387809D02*
X176418440Y-163483047D01*
X66626544Y-139038923D02*
X66367725Y-138072997D01*
X66367725Y-138072997D02*
X66137743Y-138134620D01*
X66137743Y-138134620D02*
X66012078Y-138217591D01*
X66012078Y-138217591D02*
X65944735Y-138334233D01*
X65944735Y-138334233D02*
X65923388Y-138438551D01*
X65923388Y-138438551D02*
X65926690Y-138634862D01*
X65926690Y-138634862D02*
X65963664Y-138772851D01*
X65963664Y-138772851D02*
X66058960Y-138944512D01*
X66058960Y-138944512D02*
X66129605Y-139024180D01*
X66129605Y-139024180D02*
X66246248Y-139091524D01*
X66246248Y-139091524D02*
X66396562Y-139100546D01*
X66396562Y-139100546D02*
X66626544Y-139038923D01*
X65472445Y-138411484D02*
X65414124Y-138377812D01*
X65414124Y-138377812D02*
X65309807Y-138356465D01*
X65309807Y-138356465D02*
X65079824Y-138418089D01*
X65079824Y-138418089D02*
X65000156Y-138488735D01*
X65000156Y-138488735D02*
X64966484Y-138547056D01*
X64966484Y-138547056D02*
X64945137Y-138651374D01*
X64945137Y-138651374D02*
X64969787Y-138743367D01*
X64969787Y-138743367D02*
X65052757Y-138869031D01*
X65052757Y-138869031D02*
X65752611Y-139273092D01*
X65752611Y-139273092D02*
X65154657Y-139433314D01*
X64234728Y-139679808D02*
X64786686Y-139531911D01*
X64510707Y-139605860D02*
X64251888Y-138639934D01*
X64251888Y-138639934D02*
X64380855Y-138753274D01*
X64380855Y-138753274D02*
X64497497Y-138820617D01*
X64497497Y-138820617D02*
X64601815Y-138841964D01*
X177733376Y-64729619D02*
X177733376Y-63729619D01*
X177733376Y-63729619D02*
X177495281Y-63729619D01*
X177495281Y-63729619D02*
X177352424Y-63777238D01*
X177352424Y-63777238D02*
X177257186Y-63872476D01*
X177257186Y-63872476D02*
X177209567Y-63967714D01*
X177209567Y-63967714D02*
X177161948Y-64158190D01*
X177161948Y-64158190D02*
X177161948Y-64301047D01*
X177161948Y-64301047D02*
X177209567Y-64491523D01*
X177209567Y-64491523D02*
X177257186Y-64586761D01*
X177257186Y-64586761D02*
X177352424Y-64682000D01*
X177352424Y-64682000D02*
X177495281Y-64729619D01*
X177495281Y-64729619D02*
X177733376Y-64729619D01*
X176257186Y-63729619D02*
X176733376Y-63729619D01*
X176733376Y-63729619D02*
X176780995Y-64205809D01*
X176780995Y-64205809D02*
X176733376Y-64158190D01*
X176733376Y-64158190D02*
X176638138Y-64110571D01*
X176638138Y-64110571D02*
X176400043Y-64110571D01*
X176400043Y-64110571D02*
X176304805Y-64158190D01*
X176304805Y-64158190D02*
X176257186Y-64205809D01*
X176257186Y-64205809D02*
X176209567Y-64301047D01*
X176209567Y-64301047D02*
X176209567Y-64539142D01*
X176209567Y-64539142D02*
X176257186Y-64634380D01*
X176257186Y-64634380D02*
X176304805Y-64682000D01*
X176304805Y-64682000D02*
X176400043Y-64729619D01*
X176400043Y-64729619D02*
X176638138Y-64729619D01*
X176638138Y-64729619D02*
X176733376Y-64682000D01*
X176733376Y-64682000D02*
X176780995Y-64634380D01*
X175352424Y-63729619D02*
X175542900Y-63729619D01*
X175542900Y-63729619D02*
X175638138Y-63777238D01*
X175638138Y-63777238D02*
X175685757Y-63824857D01*
X175685757Y-63824857D02*
X175780995Y-63967714D01*
X175780995Y-63967714D02*
X175828614Y-64158190D01*
X175828614Y-64158190D02*
X175828614Y-64539142D01*
X175828614Y-64539142D02*
X175780995Y-64634380D01*
X175780995Y-64634380D02*
X175733376Y-64682000D01*
X175733376Y-64682000D02*
X175638138Y-64729619D01*
X175638138Y-64729619D02*
X175447662Y-64729619D01*
X175447662Y-64729619D02*
X175352424Y-64682000D01*
X175352424Y-64682000D02*
X175304805Y-64634380D01*
X175304805Y-64634380D02*
X175257186Y-64539142D01*
X175257186Y-64539142D02*
X175257186Y-64301047D01*
X175257186Y-64301047D02*
X175304805Y-64205809D01*
X175304805Y-64205809D02*
X175352424Y-64158190D01*
X175352424Y-64158190D02*
X175447662Y-64110571D01*
X175447662Y-64110571D02*
X175638138Y-64110571D01*
X175638138Y-64110571D02*
X175733376Y-64158190D01*
X175733376Y-64158190D02*
X175780995Y-64205809D01*
X175780995Y-64205809D02*
X175828614Y-64301047D01*
X255756103Y-144729619D02*
X255756103Y-143729619D01*
X255756103Y-143729619D02*
X255518008Y-143729619D01*
X255518008Y-143729619D02*
X255375151Y-143777238D01*
X255375151Y-143777238D02*
X255279913Y-143872476D01*
X255279913Y-143872476D02*
X255232294Y-143967714D01*
X255232294Y-143967714D02*
X255184675Y-144158190D01*
X255184675Y-144158190D02*
X255184675Y-144301047D01*
X255184675Y-144301047D02*
X255232294Y-144491523D01*
X255232294Y-144491523D02*
X255279913Y-144586761D01*
X255279913Y-144586761D02*
X255375151Y-144682000D01*
X255375151Y-144682000D02*
X255518008Y-144729619D01*
X255518008Y-144729619D02*
X255756103Y-144729619D01*
X254803722Y-143824857D02*
X254756103Y-143777238D01*
X254756103Y-143777238D02*
X254660865Y-143729619D01*
X254660865Y-143729619D02*
X254422770Y-143729619D01*
X254422770Y-143729619D02*
X254327532Y-143777238D01*
X254327532Y-143777238D02*
X254279913Y-143824857D01*
X254279913Y-143824857D02*
X254232294Y-143920095D01*
X254232294Y-143920095D02*
X254232294Y-144015333D01*
X254232294Y-144015333D02*
X254279913Y-144158190D01*
X254279913Y-144158190D02*
X254851341Y-144729619D01*
X254851341Y-144729619D02*
X254232294Y-144729619D01*
X253613246Y-143729619D02*
X253518008Y-143729619D01*
X253518008Y-143729619D02*
X253422770Y-143777238D01*
X253422770Y-143777238D02*
X253375151Y-143824857D01*
X253375151Y-143824857D02*
X253327532Y-143920095D01*
X253327532Y-143920095D02*
X253279913Y-144110571D01*
X253279913Y-144110571D02*
X253279913Y-144348666D01*
X253279913Y-144348666D02*
X253327532Y-144539142D01*
X253327532Y-144539142D02*
X253375151Y-144634380D01*
X253375151Y-144634380D02*
X253422770Y-144682000D01*
X253422770Y-144682000D02*
X253518008Y-144729619D01*
X253518008Y-144729619D02*
X253613246Y-144729619D01*
X253613246Y-144729619D02*
X253708484Y-144682000D01*
X253708484Y-144682000D02*
X253756103Y-144634380D01*
X253756103Y-144634380D02*
X253803722Y-144539142D01*
X253803722Y-144539142D02*
X253851341Y-144348666D01*
X253851341Y-144348666D02*
X253851341Y-144110571D01*
X253851341Y-144110571D02*
X253803722Y-143920095D01*
X253803722Y-143920095D02*
X253756103Y-143824857D01*
X253756103Y-143824857D02*
X253708484Y-143777238D01*
X253708484Y-143777238D02*
X253613246Y-143729619D01*
X216887921Y-104729619D02*
X216887921Y-103729619D01*
X216887921Y-103729619D02*
X216649826Y-103729619D01*
X216649826Y-103729619D02*
X216506969Y-103777238D01*
X216506969Y-103777238D02*
X216411731Y-103872476D01*
X216411731Y-103872476D02*
X216364112Y-103967714D01*
X216364112Y-103967714D02*
X216316493Y-104158190D01*
X216316493Y-104158190D02*
X216316493Y-104301047D01*
X216316493Y-104301047D02*
X216364112Y-104491523D01*
X216364112Y-104491523D02*
X216411731Y-104586761D01*
X216411731Y-104586761D02*
X216506969Y-104682000D01*
X216506969Y-104682000D02*
X216649826Y-104729619D01*
X216649826Y-104729619D02*
X216887921Y-104729619D01*
X215983159Y-103729619D02*
X215364112Y-103729619D01*
X215364112Y-103729619D02*
X215697445Y-104110571D01*
X215697445Y-104110571D02*
X215554588Y-104110571D01*
X215554588Y-104110571D02*
X215459350Y-104158190D01*
X215459350Y-104158190D02*
X215411731Y-104205809D01*
X215411731Y-104205809D02*
X215364112Y-104301047D01*
X215364112Y-104301047D02*
X215364112Y-104539142D01*
X215364112Y-104539142D02*
X215411731Y-104634380D01*
X215411731Y-104634380D02*
X215459350Y-104682000D01*
X215459350Y-104682000D02*
X215554588Y-104729619D01*
X215554588Y-104729619D02*
X215840302Y-104729619D01*
X215840302Y-104729619D02*
X215935540Y-104682000D01*
X215935540Y-104682000D02*
X215983159Y-104634380D01*
X214792683Y-104158190D02*
X214887921Y-104110571D01*
X214887921Y-104110571D02*
X214935540Y-104062952D01*
X214935540Y-104062952D02*
X214983159Y-103967714D01*
X214983159Y-103967714D02*
X214983159Y-103920095D01*
X214983159Y-103920095D02*
X214935540Y-103824857D01*
X214935540Y-103824857D02*
X214887921Y-103777238D01*
X214887921Y-103777238D02*
X214792683Y-103729619D01*
X214792683Y-103729619D02*
X214602207Y-103729619D01*
X214602207Y-103729619D02*
X214506969Y-103777238D01*
X214506969Y-103777238D02*
X214459350Y-103824857D01*
X214459350Y-103824857D02*
X214411731Y-103920095D01*
X214411731Y-103920095D02*
X214411731Y-103967714D01*
X214411731Y-103967714D02*
X214459350Y-104062952D01*
X214459350Y-104062952D02*
X214506969Y-104110571D01*
X214506969Y-104110571D02*
X214602207Y-104158190D01*
X214602207Y-104158190D02*
X214792683Y-104158190D01*
X214792683Y-104158190D02*
X214887921Y-104205809D01*
X214887921Y-104205809D02*
X214935540Y-104253428D01*
X214935540Y-104253428D02*
X214983159Y-104348666D01*
X214983159Y-104348666D02*
X214983159Y-104539142D01*
X214983159Y-104539142D02*
X214935540Y-104634380D01*
X214935540Y-104634380D02*
X214887921Y-104682000D01*
X214887921Y-104682000D02*
X214792683Y-104729619D01*
X214792683Y-104729619D02*
X214602207Y-104729619D01*
X214602207Y-104729619D02*
X214506969Y-104682000D01*
X214506969Y-104682000D02*
X214459350Y-104634380D01*
X214459350Y-104634380D02*
X214411731Y-104539142D01*
X214411731Y-104539142D02*
X214411731Y-104348666D01*
X214411731Y-104348666D02*
X214459350Y-104253428D01*
X214459350Y-104253428D02*
X214506969Y-104205809D01*
X214506969Y-104205809D02*
X214602207Y-104158190D01*
X153242005Y-84707503D02*
X153189669Y-83708874D01*
X153189669Y-83708874D02*
X152951900Y-83721335D01*
X152951900Y-83721335D02*
X152811730Y-83776365D01*
X152811730Y-83776365D02*
X152721607Y-83876457D01*
X152721607Y-83876457D02*
X152679038Y-83974057D01*
X152679038Y-83974057D02*
X152641453Y-84166764D01*
X152641453Y-84166764D02*
X152648929Y-84309426D01*
X152648929Y-84309426D02*
X152706452Y-84497149D01*
X152706452Y-84497149D02*
X152758990Y-84589764D01*
X152758990Y-84589764D02*
X152859082Y-84679887D01*
X152859082Y-84679887D02*
X153004236Y-84719964D01*
X153004236Y-84719964D02*
X153242005Y-84707503D01*
X151780500Y-84116516D02*
X151815391Y-84782269D01*
X151998332Y-83723625D02*
X152273483Y-84424471D01*
X152273483Y-84424471D02*
X151655284Y-84456869D01*
X150764425Y-83835976D02*
X151239963Y-83811054D01*
X151239963Y-83811054D02*
X151312439Y-84284099D01*
X151312439Y-84284099D02*
X151262393Y-84239038D01*
X151262393Y-84239038D02*
X151164793Y-84196468D01*
X151164793Y-84196468D02*
X150927024Y-84208929D01*
X150927024Y-84208929D02*
X150834409Y-84261467D01*
X150834409Y-84261467D02*
X150789347Y-84311513D01*
X150789347Y-84311513D02*
X150746778Y-84409113D01*
X150746778Y-84409113D02*
X150759239Y-84646882D01*
X150759239Y-84646882D02*
X150811777Y-84739497D01*
X150811777Y-84739497D02*
X150861823Y-84784559D01*
X150861823Y-84784559D02*
X150959423Y-84827128D01*
X150959423Y-84827128D02*
X151197192Y-84814668D01*
X151197192Y-84814668D02*
X151289807Y-84762129D01*
X151289807Y-84762129D02*
X151334869Y-84712083D01*
X295197012Y-104729619D02*
X295197012Y-103729619D01*
X295197012Y-103729619D02*
X294958917Y-103729619D01*
X294958917Y-103729619D02*
X294816060Y-103777238D01*
X294816060Y-103777238D02*
X294720822Y-103872476D01*
X294720822Y-103872476D02*
X294673203Y-103967714D01*
X294673203Y-103967714D02*
X294625584Y-104158190D01*
X294625584Y-104158190D02*
X294625584Y-104301047D01*
X294625584Y-104301047D02*
X294673203Y-104491523D01*
X294673203Y-104491523D02*
X294720822Y-104586761D01*
X294720822Y-104586761D02*
X294816060Y-104682000D01*
X294816060Y-104682000D02*
X294958917Y-104729619D01*
X294958917Y-104729619D02*
X295197012Y-104729619D01*
X293768441Y-103729619D02*
X293958917Y-103729619D01*
X293958917Y-103729619D02*
X294054155Y-103777238D01*
X294054155Y-103777238D02*
X294101774Y-103824857D01*
X294101774Y-103824857D02*
X294197012Y-103967714D01*
X294197012Y-103967714D02*
X294244631Y-104158190D01*
X294244631Y-104158190D02*
X294244631Y-104539142D01*
X294244631Y-104539142D02*
X294197012Y-104634380D01*
X294197012Y-104634380D02*
X294149393Y-104682000D01*
X294149393Y-104682000D02*
X294054155Y-104729619D01*
X294054155Y-104729619D02*
X293863679Y-104729619D01*
X293863679Y-104729619D02*
X293768441Y-104682000D01*
X293768441Y-104682000D02*
X293720822Y-104634380D01*
X293720822Y-104634380D02*
X293673203Y-104539142D01*
X293673203Y-104539142D02*
X293673203Y-104301047D01*
X293673203Y-104301047D02*
X293720822Y-104205809D01*
X293720822Y-104205809D02*
X293768441Y-104158190D01*
X293768441Y-104158190D02*
X293863679Y-104110571D01*
X293863679Y-104110571D02*
X294054155Y-104110571D01*
X294054155Y-104110571D02*
X294149393Y-104158190D01*
X294149393Y-104158190D02*
X294197012Y-104205809D01*
X294197012Y-104205809D02*
X294244631Y-104301047D01*
X293197012Y-104729619D02*
X293006536Y-104729619D01*
X293006536Y-104729619D02*
X292911298Y-104682000D01*
X292911298Y-104682000D02*
X292863679Y-104634380D01*
X292863679Y-104634380D02*
X292768441Y-104491523D01*
X292768441Y-104491523D02*
X292720822Y-104301047D01*
X292720822Y-104301047D02*
X292720822Y-103920095D01*
X292720822Y-103920095D02*
X292768441Y-103824857D01*
X292768441Y-103824857D02*
X292816060Y-103777238D01*
X292816060Y-103777238D02*
X292911298Y-103729619D01*
X292911298Y-103729619D02*
X293101774Y-103729619D01*
X293101774Y-103729619D02*
X293197012Y-103777238D01*
X293197012Y-103777238D02*
X293244631Y-103824857D01*
X293244631Y-103824857D02*
X293292250Y-103920095D01*
X293292250Y-103920095D02*
X293292250Y-104158190D01*
X293292250Y-104158190D02*
X293244631Y-104253428D01*
X293244631Y-104253428D02*
X293197012Y-104301047D01*
X293197012Y-104301047D02*
X293101774Y-104348666D01*
X293101774Y-104348666D02*
X292911298Y-104348666D01*
X292911298Y-104348666D02*
X292816060Y-104301047D01*
X292816060Y-104301047D02*
X292768441Y-104253428D01*
X292768441Y-104253428D02*
X292720822Y-104158190D01*
X236465194Y-64729619D02*
X236465194Y-63729619D01*
X236465194Y-63729619D02*
X236227099Y-63729619D01*
X236227099Y-63729619D02*
X236084242Y-63777238D01*
X236084242Y-63777238D02*
X235989004Y-63872476D01*
X235989004Y-63872476D02*
X235941385Y-63967714D01*
X235941385Y-63967714D02*
X235893766Y-64158190D01*
X235893766Y-64158190D02*
X235893766Y-64301047D01*
X235893766Y-64301047D02*
X235941385Y-64491523D01*
X235941385Y-64491523D02*
X235989004Y-64586761D01*
X235989004Y-64586761D02*
X236084242Y-64682000D01*
X236084242Y-64682000D02*
X236227099Y-64729619D01*
X236227099Y-64729619D02*
X236465194Y-64729619D01*
X234989004Y-63729619D02*
X235465194Y-63729619D01*
X235465194Y-63729619D02*
X235512813Y-64205809D01*
X235512813Y-64205809D02*
X235465194Y-64158190D01*
X235465194Y-64158190D02*
X235369956Y-64110571D01*
X235369956Y-64110571D02*
X235131861Y-64110571D01*
X235131861Y-64110571D02*
X235036623Y-64158190D01*
X235036623Y-64158190D02*
X234989004Y-64205809D01*
X234989004Y-64205809D02*
X234941385Y-64301047D01*
X234941385Y-64301047D02*
X234941385Y-64539142D01*
X234941385Y-64539142D02*
X234989004Y-64634380D01*
X234989004Y-64634380D02*
X235036623Y-64682000D01*
X235036623Y-64682000D02*
X235131861Y-64729619D01*
X235131861Y-64729619D02*
X235369956Y-64729619D01*
X235369956Y-64729619D02*
X235465194Y-64682000D01*
X235465194Y-64682000D02*
X235512813Y-64634380D01*
X234465194Y-64729619D02*
X234274718Y-64729619D01*
X234274718Y-64729619D02*
X234179480Y-64682000D01*
X234179480Y-64682000D02*
X234131861Y-64634380D01*
X234131861Y-64634380D02*
X234036623Y-64491523D01*
X234036623Y-64491523D02*
X233989004Y-64301047D01*
X233989004Y-64301047D02*
X233989004Y-63920095D01*
X233989004Y-63920095D02*
X234036623Y-63824857D01*
X234036623Y-63824857D02*
X234084242Y-63777238D01*
X234084242Y-63777238D02*
X234179480Y-63729619D01*
X234179480Y-63729619D02*
X234369956Y-63729619D01*
X234369956Y-63729619D02*
X234465194Y-63777238D01*
X234465194Y-63777238D02*
X234512813Y-63824857D01*
X234512813Y-63824857D02*
X234560432Y-63920095D01*
X234560432Y-63920095D02*
X234560432Y-64158190D01*
X234560432Y-64158190D02*
X234512813Y-64253428D01*
X234512813Y-64253428D02*
X234465194Y-64301047D01*
X234465194Y-64301047D02*
X234369956Y-64348666D01*
X234369956Y-64348666D02*
X234179480Y-64348666D01*
X234179480Y-64348666D02*
X234084242Y-64301047D01*
X234084242Y-64301047D02*
X234036623Y-64253428D01*
X234036623Y-64253428D02*
X233989004Y-64158190D01*
X100637543Y-70185604D02*
X100481108Y-69197915D01*
X100481108Y-69197915D02*
X100245944Y-69235162D01*
X100245944Y-69235162D02*
X100112295Y-69304542D01*
X100112295Y-69304542D02*
X100033128Y-69413506D01*
X100033128Y-69413506D02*
X100000994Y-69515021D01*
X100000994Y-69515021D02*
X99983758Y-69710602D01*
X99983758Y-69710602D02*
X100006106Y-69851700D01*
X100006106Y-69851700D02*
X100082936Y-70032382D01*
X100082936Y-70032382D02*
X100144867Y-70118998D01*
X100144867Y-70118998D02*
X100253831Y-70198165D01*
X100253831Y-70198165D02*
X100402379Y-70222850D01*
X100402379Y-70222850D02*
X100637543Y-70185604D01*
X99023092Y-69428843D02*
X99493420Y-69354350D01*
X99493420Y-69354350D02*
X99614945Y-69817228D01*
X99614945Y-69817228D02*
X99560463Y-69777645D01*
X99560463Y-69777645D02*
X99458948Y-69745511D01*
X99458948Y-69745511D02*
X99223785Y-69782757D01*
X99223785Y-69782757D02*
X99137168Y-69844688D01*
X99137168Y-69844688D02*
X99097585Y-69899170D01*
X99097585Y-69899170D02*
X99065451Y-70000685D01*
X99065451Y-70000685D02*
X99102697Y-70235849D01*
X99102697Y-70235849D02*
X99164628Y-70322465D01*
X99164628Y-70322465D02*
X99219110Y-70362049D01*
X99219110Y-70362049D02*
X99320625Y-70394183D01*
X99320625Y-70394183D02*
X99555789Y-70356937D01*
X99555789Y-70356937D02*
X99642405Y-70295006D01*
X99642405Y-70295006D02*
X99681989Y-70240523D01*
X98646830Y-69488437D02*
X98035404Y-69585277D01*
X98035404Y-69585277D02*
X98424227Y-69909394D01*
X98424227Y-69909394D02*
X98283129Y-69931742D01*
X98283129Y-69931742D02*
X98196513Y-69993674D01*
X98196513Y-69993674D02*
X98156929Y-70048156D01*
X98156929Y-70048156D02*
X98124795Y-70149670D01*
X98124795Y-70149670D02*
X98162041Y-70384834D01*
X98162041Y-70384834D02*
X98223973Y-70471451D01*
X98223973Y-70471451D02*
X98278455Y-70511034D01*
X98278455Y-70511034D02*
X98379969Y-70543168D01*
X98379969Y-70543168D02*
X98662166Y-70498473D01*
X98662166Y-70498473D02*
X98748782Y-70436541D01*
X98748782Y-70436541D02*
X98788366Y-70382059D01*
X61438988Y-119493025D02*
X61180169Y-118527099D01*
X61180169Y-118527099D02*
X60950187Y-118588722D01*
X60950187Y-118588722D02*
X60824522Y-118671693D01*
X60824522Y-118671693D02*
X60757179Y-118788335D01*
X60757179Y-118788335D02*
X60735832Y-118892653D01*
X60735832Y-118892653D02*
X60739134Y-119088964D01*
X60739134Y-119088964D02*
X60776108Y-119226953D01*
X60776108Y-119226953D02*
X60871404Y-119398614D01*
X60871404Y-119398614D02*
X60942049Y-119478282D01*
X60942049Y-119478282D02*
X61058692Y-119545626D01*
X61058692Y-119545626D02*
X61209006Y-119554648D01*
X61209006Y-119554648D02*
X61438988Y-119493025D01*
X60306236Y-118761268D02*
X59708282Y-118921490D01*
X59708282Y-118921490D02*
X60128855Y-119203189D01*
X60128855Y-119203189D02*
X59990866Y-119240163D01*
X59990866Y-119240163D02*
X59911198Y-119310809D01*
X59911198Y-119310809D02*
X59877526Y-119369130D01*
X59877526Y-119369130D02*
X59856179Y-119473447D01*
X59856179Y-119473447D02*
X59917802Y-119703430D01*
X59917802Y-119703430D02*
X59988448Y-119783098D01*
X59988448Y-119783098D02*
X60046770Y-119816770D01*
X60046770Y-119816770D02*
X60151087Y-119838117D01*
X60151087Y-119838117D02*
X60427066Y-119764168D01*
X60427066Y-119764168D02*
X60506734Y-119693523D01*
X60506734Y-119693523D02*
X60540406Y-119635201D01*
X59047172Y-120133910D02*
X59599130Y-119986013D01*
X59323151Y-120059962D02*
X59064332Y-119094036D01*
X59064332Y-119094036D02*
X59193299Y-119207376D01*
X59193299Y-119207376D02*
X59309941Y-119274719D01*
X59309941Y-119274719D02*
X59414259Y-119296066D01*
X217301557Y-124729619D02*
X217301557Y-123729619D01*
X217301557Y-123729619D02*
X217063462Y-123729619D01*
X217063462Y-123729619D02*
X216920605Y-123777238D01*
X216920605Y-123777238D02*
X216825367Y-123872476D01*
X216825367Y-123872476D02*
X216777748Y-123967714D01*
X216777748Y-123967714D02*
X216730129Y-124158190D01*
X216730129Y-124158190D02*
X216730129Y-124301047D01*
X216730129Y-124301047D02*
X216777748Y-124491523D01*
X216777748Y-124491523D02*
X216825367Y-124586761D01*
X216825367Y-124586761D02*
X216920605Y-124682000D01*
X216920605Y-124682000D02*
X217063462Y-124729619D01*
X217063462Y-124729619D02*
X217301557Y-124729619D01*
X216349176Y-123824857D02*
X216301557Y-123777238D01*
X216301557Y-123777238D02*
X216206319Y-123729619D01*
X216206319Y-123729619D02*
X215968224Y-123729619D01*
X215968224Y-123729619D02*
X215872986Y-123777238D01*
X215872986Y-123777238D02*
X215825367Y-123824857D01*
X215825367Y-123824857D02*
X215777748Y-123920095D01*
X215777748Y-123920095D02*
X215777748Y-124015333D01*
X215777748Y-124015333D02*
X215825367Y-124158190D01*
X215825367Y-124158190D02*
X216396795Y-124729619D01*
X216396795Y-124729619D02*
X215777748Y-124729619D01*
X215206319Y-124158190D02*
X215301557Y-124110571D01*
X215301557Y-124110571D02*
X215349176Y-124062952D01*
X215349176Y-124062952D02*
X215396795Y-123967714D01*
X215396795Y-123967714D02*
X215396795Y-123920095D01*
X215396795Y-123920095D02*
X215349176Y-123824857D01*
X215349176Y-123824857D02*
X215301557Y-123777238D01*
X215301557Y-123777238D02*
X215206319Y-123729619D01*
X215206319Y-123729619D02*
X215015843Y-123729619D01*
X215015843Y-123729619D02*
X214920605Y-123777238D01*
X214920605Y-123777238D02*
X214872986Y-123824857D01*
X214872986Y-123824857D02*
X214825367Y-123920095D01*
X214825367Y-123920095D02*
X214825367Y-123967714D01*
X214825367Y-123967714D02*
X214872986Y-124062952D01*
X214872986Y-124062952D02*
X214920605Y-124110571D01*
X214920605Y-124110571D02*
X215015843Y-124158190D01*
X215015843Y-124158190D02*
X215206319Y-124158190D01*
X215206319Y-124158190D02*
X215301557Y-124205809D01*
X215301557Y-124205809D02*
X215349176Y-124253428D01*
X215349176Y-124253428D02*
X215396795Y-124348666D01*
X215396795Y-124348666D02*
X215396795Y-124539142D01*
X215396795Y-124539142D02*
X215349176Y-124634380D01*
X215349176Y-124634380D02*
X215301557Y-124682000D01*
X215301557Y-124682000D02*
X215206319Y-124729619D01*
X215206319Y-124729619D02*
X215015843Y-124729619D01*
X215015843Y-124729619D02*
X214920605Y-124682000D01*
X214920605Y-124682000D02*
X214872986Y-124634380D01*
X214872986Y-124634380D02*
X214825367Y-124539142D01*
X214825367Y-124539142D02*
X214825367Y-124348666D01*
X214825367Y-124348666D02*
X214872986Y-124253428D01*
X214872986Y-124253428D02*
X214920605Y-124205809D01*
X214920605Y-124205809D02*
X215015843Y-124158190D01*
X75736583Y-75014737D02*
X75528672Y-74036590D01*
X75528672Y-74036590D02*
X75295779Y-74086093D01*
X75295779Y-74086093D02*
X75165945Y-74162373D01*
X75165945Y-74162373D02*
X75092589Y-74275331D01*
X75092589Y-74275331D02*
X75065811Y-74378388D01*
X75065811Y-74378388D02*
X75058835Y-74574603D01*
X75058835Y-74574603D02*
X75088537Y-74714338D01*
X75088537Y-74714338D02*
X75174718Y-74890751D01*
X75174718Y-74890751D02*
X75241097Y-74974008D01*
X75241097Y-74974008D02*
X75354055Y-75047363D01*
X75354055Y-75047363D02*
X75503691Y-75064240D01*
X75503691Y-75064240D02*
X75736583Y-75014737D01*
X74084740Y-74343507D02*
X74550524Y-74244502D01*
X74550524Y-74244502D02*
X74696108Y-74700386D01*
X74696108Y-74700386D02*
X74639629Y-74663708D01*
X74639629Y-74663708D02*
X74536572Y-74636930D01*
X74536572Y-74636930D02*
X74303679Y-74686433D01*
X74303679Y-74686433D02*
X74220423Y-74752813D01*
X74220423Y-74752813D02*
X74183745Y-74809292D01*
X74183745Y-74809292D02*
X74156968Y-74912349D01*
X74156968Y-74912349D02*
X74206471Y-75145241D01*
X74206471Y-75145241D02*
X74272850Y-75228498D01*
X74272850Y-75228498D02*
X74329329Y-75265176D01*
X74329329Y-75265176D02*
X74432387Y-75291953D01*
X74432387Y-75291953D02*
X74665279Y-75242450D01*
X74665279Y-75242450D02*
X74748535Y-75176071D01*
X74748535Y-75176071D02*
X74785213Y-75119592D01*
X73685334Y-74525769D02*
X73628855Y-74489091D01*
X73628855Y-74489091D02*
X73525798Y-74462314D01*
X73525798Y-74462314D02*
X73292906Y-74511817D01*
X73292906Y-74511817D02*
X73209649Y-74578196D01*
X73209649Y-74578196D02*
X73172971Y-74634675D01*
X73172971Y-74634675D02*
X73146194Y-74737733D01*
X73146194Y-74737733D02*
X73165995Y-74830890D01*
X73165995Y-74830890D02*
X73242275Y-74960724D01*
X73242275Y-74960724D02*
X73920024Y-75400859D01*
X73920024Y-75400859D02*
X73314504Y-75529566D01*
X76460604Y-177718940D02*
X76201785Y-176753014D01*
X76201785Y-176753014D02*
X75971803Y-176814638D01*
X75971803Y-176814638D02*
X75846138Y-176897608D01*
X75846138Y-176897608D02*
X75778795Y-177014251D01*
X75778795Y-177014251D02*
X75757448Y-177118568D01*
X75757448Y-177118568D02*
X75760750Y-177314879D01*
X75760750Y-177314879D02*
X75797724Y-177452868D01*
X75797724Y-177452868D02*
X75893019Y-177624530D01*
X75893019Y-177624530D02*
X75963665Y-177704198D01*
X75963665Y-177704198D02*
X76080308Y-177771541D01*
X76080308Y-177771541D02*
X76230622Y-177780564D01*
X76230622Y-177780564D02*
X76460604Y-177718940D01*
X74988717Y-178113331D02*
X75540675Y-177965434D01*
X75264696Y-178039383D02*
X75005877Y-177073457D01*
X75005877Y-177073457D02*
X75134844Y-177186797D01*
X75134844Y-177186797D02*
X75251486Y-177254140D01*
X75251486Y-177254140D02*
X75355804Y-177275487D01*
X275301557Y-84729619D02*
X275301557Y-83729619D01*
X275301557Y-83729619D02*
X275063462Y-83729619D01*
X275063462Y-83729619D02*
X274920605Y-83777238D01*
X274920605Y-83777238D02*
X274825367Y-83872476D01*
X274825367Y-83872476D02*
X274777748Y-83967714D01*
X274777748Y-83967714D02*
X274730129Y-84158190D01*
X274730129Y-84158190D02*
X274730129Y-84301047D01*
X274730129Y-84301047D02*
X274777748Y-84491523D01*
X274777748Y-84491523D02*
X274825367Y-84586761D01*
X274825367Y-84586761D02*
X274920605Y-84682000D01*
X274920605Y-84682000D02*
X275063462Y-84729619D01*
X275063462Y-84729619D02*
X275301557Y-84729619D01*
X273872986Y-83729619D02*
X274063462Y-83729619D01*
X274063462Y-83729619D02*
X274158700Y-83777238D01*
X274158700Y-83777238D02*
X274206319Y-83824857D01*
X274206319Y-83824857D02*
X274301557Y-83967714D01*
X274301557Y-83967714D02*
X274349176Y-84158190D01*
X274349176Y-84158190D02*
X274349176Y-84539142D01*
X274349176Y-84539142D02*
X274301557Y-84634380D01*
X274301557Y-84634380D02*
X274253938Y-84682000D01*
X274253938Y-84682000D02*
X274158700Y-84729619D01*
X274158700Y-84729619D02*
X273968224Y-84729619D01*
X273968224Y-84729619D02*
X273872986Y-84682000D01*
X273872986Y-84682000D02*
X273825367Y-84634380D01*
X273825367Y-84634380D02*
X273777748Y-84539142D01*
X273777748Y-84539142D02*
X273777748Y-84301047D01*
X273777748Y-84301047D02*
X273825367Y-84205809D01*
X273825367Y-84205809D02*
X273872986Y-84158190D01*
X273872986Y-84158190D02*
X273968224Y-84110571D01*
X273968224Y-84110571D02*
X274158700Y-84110571D01*
X274158700Y-84110571D02*
X274253938Y-84158190D01*
X274253938Y-84158190D02*
X274301557Y-84205809D01*
X274301557Y-84205809D02*
X274349176Y-84301047D01*
X273396795Y-83824857D02*
X273349176Y-83777238D01*
X273349176Y-83777238D02*
X273253938Y-83729619D01*
X273253938Y-83729619D02*
X273015843Y-83729619D01*
X273015843Y-83729619D02*
X272920605Y-83777238D01*
X272920605Y-83777238D02*
X272872986Y-83824857D01*
X272872986Y-83824857D02*
X272825367Y-83920095D01*
X272825367Y-83920095D02*
X272825367Y-84015333D01*
X272825367Y-84015333D02*
X272872986Y-84158190D01*
X272872986Y-84158190D02*
X273444414Y-84729619D01*
X273444414Y-84729619D02*
X272825367Y-84729619D01*
X256042467Y-104729619D02*
X256042467Y-103729619D01*
X256042467Y-103729619D02*
X255804372Y-103729619D01*
X255804372Y-103729619D02*
X255661515Y-103777238D01*
X255661515Y-103777238D02*
X255566277Y-103872476D01*
X255566277Y-103872476D02*
X255518658Y-103967714D01*
X255518658Y-103967714D02*
X255471039Y-104158190D01*
X255471039Y-104158190D02*
X255471039Y-104301047D01*
X255471039Y-104301047D02*
X255518658Y-104491523D01*
X255518658Y-104491523D02*
X255566277Y-104586761D01*
X255566277Y-104586761D02*
X255661515Y-104682000D01*
X255661515Y-104682000D02*
X255804372Y-104729619D01*
X255804372Y-104729619D02*
X256042467Y-104729619D01*
X254613896Y-104062952D02*
X254613896Y-104729619D01*
X254851991Y-103682000D02*
X255090086Y-104396285D01*
X255090086Y-104396285D02*
X254471039Y-104396285D01*
X253899610Y-103729619D02*
X253804372Y-103729619D01*
X253804372Y-103729619D02*
X253709134Y-103777238D01*
X253709134Y-103777238D02*
X253661515Y-103824857D01*
X253661515Y-103824857D02*
X253613896Y-103920095D01*
X253613896Y-103920095D02*
X253566277Y-104110571D01*
X253566277Y-104110571D02*
X253566277Y-104348666D01*
X253566277Y-104348666D02*
X253613896Y-104539142D01*
X253613896Y-104539142D02*
X253661515Y-104634380D01*
X253661515Y-104634380D02*
X253709134Y-104682000D01*
X253709134Y-104682000D02*
X253804372Y-104729619D01*
X253804372Y-104729619D02*
X253899610Y-104729619D01*
X253899610Y-104729619D02*
X253994848Y-104682000D01*
X253994848Y-104682000D02*
X254042467Y-104634380D01*
X254042467Y-104634380D02*
X254090086Y-104539142D01*
X254090086Y-104539142D02*
X254137705Y-104348666D01*
X254137705Y-104348666D02*
X254137705Y-104110571D01*
X254137705Y-104110571D02*
X254090086Y-103920095D01*
X254090086Y-103920095D02*
X254042467Y-103824857D01*
X254042467Y-103824857D02*
X253994848Y-103777238D01*
X253994848Y-103777238D02*
X253899610Y-103729619D01*
X84136583Y-114214737D02*
X83928672Y-113236590D01*
X83928672Y-113236590D02*
X83695779Y-113286093D01*
X83695779Y-113286093D02*
X83565945Y-113362373D01*
X83565945Y-113362373D02*
X83492589Y-113475331D01*
X83492589Y-113475331D02*
X83465811Y-113578388D01*
X83465811Y-113578388D02*
X83458835Y-113774603D01*
X83458835Y-113774603D02*
X83488537Y-113914338D01*
X83488537Y-113914338D02*
X83574718Y-114090751D01*
X83574718Y-114090751D02*
X83641097Y-114174008D01*
X83641097Y-114174008D02*
X83754055Y-114247363D01*
X83754055Y-114247363D02*
X83903691Y-114264240D01*
X83903691Y-114264240D02*
X84136583Y-114214737D01*
X83043681Y-113424700D02*
X82438161Y-113553408D01*
X82438161Y-113553408D02*
X82843415Y-113856731D01*
X82843415Y-113856731D02*
X82703679Y-113886433D01*
X82703679Y-113886433D02*
X82620423Y-113952813D01*
X82620423Y-113952813D02*
X82583745Y-114009292D01*
X82583745Y-114009292D02*
X82556968Y-114112349D01*
X82556968Y-114112349D02*
X82606471Y-114345241D01*
X82606471Y-114345241D02*
X82672850Y-114428498D01*
X82672850Y-114428498D02*
X82729329Y-114465176D01*
X82729329Y-114465176D02*
X82832387Y-114491953D01*
X82832387Y-114491953D02*
X83111857Y-114432550D01*
X83111857Y-114432550D02*
X83195114Y-114366170D01*
X83195114Y-114366170D02*
X83231792Y-114309691D01*
X82085334Y-113725769D02*
X82028855Y-113689091D01*
X82028855Y-113689091D02*
X81925798Y-113662314D01*
X81925798Y-113662314D02*
X81692906Y-113711817D01*
X81692906Y-113711817D02*
X81609649Y-113778196D01*
X81609649Y-113778196D02*
X81572971Y-113834675D01*
X81572971Y-113834675D02*
X81546194Y-113937733D01*
X81546194Y-113937733D02*
X81565995Y-114030890D01*
X81565995Y-114030890D02*
X81642275Y-114160724D01*
X81642275Y-114160724D02*
X82320024Y-114600859D01*
X82320024Y-114600859D02*
X81714504Y-114729566D01*
X130434970Y-106733826D02*
X130330441Y-105739304D01*
X130330441Y-105739304D02*
X130093650Y-105764191D01*
X130093650Y-105764191D02*
X129956553Y-105826482D01*
X129956553Y-105826482D02*
X129871792Y-105931154D01*
X129871792Y-105931154D02*
X129834389Y-106030848D01*
X129834389Y-106030848D02*
X129806941Y-106225258D01*
X129806941Y-106225258D02*
X129821874Y-106367332D01*
X129821874Y-106367332D02*
X129889142Y-106551788D01*
X129889142Y-106551788D02*
X129946455Y-106641526D01*
X129946455Y-106641526D02*
X130051127Y-106726288D01*
X130051127Y-106726288D02*
X130198179Y-106758713D01*
X130198179Y-106758713D02*
X130434970Y-106733826D01*
X129430636Y-105833877D02*
X128814979Y-105898585D01*
X128814979Y-105898585D02*
X129186307Y-106242608D01*
X129186307Y-106242608D02*
X129044233Y-106257540D01*
X129044233Y-106257540D02*
X128954494Y-106314854D01*
X128954494Y-106314854D02*
X128912113Y-106367189D01*
X128912113Y-106367189D02*
X128874710Y-106466883D01*
X128874710Y-106466883D02*
X128899598Y-106703674D01*
X128899598Y-106703674D02*
X128956911Y-106793413D01*
X128956911Y-106793413D02*
X129009247Y-106835794D01*
X129009247Y-106835794D02*
X129108941Y-106873197D01*
X129108941Y-106873197D02*
X129393090Y-106843332D01*
X129393090Y-106843332D02*
X129482829Y-106786018D01*
X129482829Y-106786018D02*
X129525209Y-106733683D01*
X127997375Y-106319688D02*
X128067060Y-106982703D01*
X128194345Y-105915935D02*
X128505800Y-106601420D01*
X128505800Y-106601420D02*
X127890143Y-106666128D01*
X197665194Y-124729619D02*
X197665194Y-123729619D01*
X197665194Y-123729619D02*
X197427099Y-123729619D01*
X197427099Y-123729619D02*
X197284242Y-123777238D01*
X197284242Y-123777238D02*
X197189004Y-123872476D01*
X197189004Y-123872476D02*
X197141385Y-123967714D01*
X197141385Y-123967714D02*
X197093766Y-124158190D01*
X197093766Y-124158190D02*
X197093766Y-124301047D01*
X197093766Y-124301047D02*
X197141385Y-124491523D01*
X197141385Y-124491523D02*
X197189004Y-124586761D01*
X197189004Y-124586761D02*
X197284242Y-124682000D01*
X197284242Y-124682000D02*
X197427099Y-124729619D01*
X197427099Y-124729619D02*
X197665194Y-124729619D01*
X196712813Y-123824857D02*
X196665194Y-123777238D01*
X196665194Y-123777238D02*
X196569956Y-123729619D01*
X196569956Y-123729619D02*
X196331861Y-123729619D01*
X196331861Y-123729619D02*
X196236623Y-123777238D01*
X196236623Y-123777238D02*
X196189004Y-123824857D01*
X196189004Y-123824857D02*
X196141385Y-123920095D01*
X196141385Y-123920095D02*
X196141385Y-124015333D01*
X196141385Y-124015333D02*
X196189004Y-124158190D01*
X196189004Y-124158190D02*
X196760432Y-124729619D01*
X196760432Y-124729619D02*
X196141385Y-124729619D01*
X195808051Y-123729619D02*
X195141385Y-123729619D01*
X195141385Y-123729619D02*
X195569956Y-124729619D01*
X113280699Y-149754111D02*
X113124264Y-148766422D01*
X113124264Y-148766422D02*
X112889100Y-148803669D01*
X112889100Y-148803669D02*
X112755451Y-148873049D01*
X112755451Y-148873049D02*
X112676284Y-148982013D01*
X112676284Y-148982013D02*
X112644150Y-149083528D01*
X112644150Y-149083528D02*
X112626914Y-149279109D01*
X112626914Y-149279109D02*
X112649262Y-149420207D01*
X112649262Y-149420207D02*
X112726092Y-149600889D01*
X112726092Y-149600889D02*
X112788023Y-149687505D01*
X112788023Y-149687505D02*
X112896987Y-149766672D01*
X112896987Y-149766672D02*
X113045535Y-149791357D01*
X113045535Y-149791357D02*
X113280699Y-149754111D01*
X111775650Y-149992487D02*
X112340043Y-149903096D01*
X112057847Y-149947792D02*
X111901412Y-148960103D01*
X111901412Y-148960103D02*
X112017825Y-149086303D01*
X112017825Y-149086303D02*
X112126789Y-149165470D01*
X112126789Y-149165470D02*
X112228304Y-149197604D01*
X111289986Y-149056944D02*
X110678560Y-149153784D01*
X110678560Y-149153784D02*
X111067383Y-149477901D01*
X111067383Y-149477901D02*
X110926285Y-149500249D01*
X110926285Y-149500249D02*
X110839669Y-149562181D01*
X110839669Y-149562181D02*
X110800085Y-149616663D01*
X110800085Y-149616663D02*
X110767951Y-149718177D01*
X110767951Y-149718177D02*
X110805197Y-149953341D01*
X110805197Y-149953341D02*
X110867129Y-150039958D01*
X110867129Y-150039958D02*
X110921611Y-150079541D01*
X110921611Y-150079541D02*
X111023125Y-150111675D01*
X111023125Y-150111675D02*
X111305322Y-150066980D01*
X111305322Y-150066980D02*
X111391938Y-150005048D01*
X111391938Y-150005048D02*
X111431522Y-149950566D01*
X197119739Y-84729619D02*
X197119739Y-83729619D01*
X197119739Y-83729619D02*
X196881644Y-83729619D01*
X196881644Y-83729619D02*
X196738787Y-83777238D01*
X196738787Y-83777238D02*
X196643549Y-83872476D01*
X196643549Y-83872476D02*
X196595930Y-83967714D01*
X196595930Y-83967714D02*
X196548311Y-84158190D01*
X196548311Y-84158190D02*
X196548311Y-84301047D01*
X196548311Y-84301047D02*
X196595930Y-84491523D01*
X196595930Y-84491523D02*
X196643549Y-84586761D01*
X196643549Y-84586761D02*
X196738787Y-84682000D01*
X196738787Y-84682000D02*
X196881644Y-84729619D01*
X196881644Y-84729619D02*
X197119739Y-84729619D01*
X195691168Y-84062952D02*
X195691168Y-84729619D01*
X195929263Y-83682000D02*
X196167358Y-84396285D01*
X196167358Y-84396285D02*
X195548311Y-84396285D01*
X195262596Y-83729619D02*
X194595930Y-83729619D01*
X194595930Y-83729619D02*
X195024501Y-84729619D01*
X236210648Y-84729619D02*
X236210648Y-83729619D01*
X236210648Y-83729619D02*
X235972553Y-83729619D01*
X235972553Y-83729619D02*
X235829696Y-83777238D01*
X235829696Y-83777238D02*
X235734458Y-83872476D01*
X235734458Y-83872476D02*
X235686839Y-83967714D01*
X235686839Y-83967714D02*
X235639220Y-84158190D01*
X235639220Y-84158190D02*
X235639220Y-84301047D01*
X235639220Y-84301047D02*
X235686839Y-84491523D01*
X235686839Y-84491523D02*
X235734458Y-84586761D01*
X235734458Y-84586761D02*
X235829696Y-84682000D01*
X235829696Y-84682000D02*
X235972553Y-84729619D01*
X235972553Y-84729619D02*
X236210648Y-84729619D01*
X234782077Y-84062952D02*
X234782077Y-84729619D01*
X235020172Y-83682000D02*
X235258267Y-84396285D01*
X235258267Y-84396285D02*
X234639220Y-84396285D01*
X234210648Y-84729619D02*
X234020172Y-84729619D01*
X234020172Y-84729619D02*
X233924934Y-84682000D01*
X233924934Y-84682000D02*
X233877315Y-84634380D01*
X233877315Y-84634380D02*
X233782077Y-84491523D01*
X233782077Y-84491523D02*
X233734458Y-84301047D01*
X233734458Y-84301047D02*
X233734458Y-83920095D01*
X233734458Y-83920095D02*
X233782077Y-83824857D01*
X233782077Y-83824857D02*
X233829696Y-83777238D01*
X233829696Y-83777238D02*
X233924934Y-83729619D01*
X233924934Y-83729619D02*
X234115410Y-83729619D01*
X234115410Y-83729619D02*
X234210648Y-83777238D01*
X234210648Y-83777238D02*
X234258267Y-83824857D01*
X234258267Y-83824857D02*
X234305886Y-83920095D01*
X234305886Y-83920095D02*
X234305886Y-84158190D01*
X234305886Y-84158190D02*
X234258267Y-84253428D01*
X234258267Y-84253428D02*
X234210648Y-84301047D01*
X234210648Y-84301047D02*
X234115410Y-84348666D01*
X234115410Y-84348666D02*
X233924934Y-84348666D01*
X233924934Y-84348666D02*
X233829696Y-84301047D01*
X233829696Y-84301047D02*
X233782077Y-84253428D01*
X233782077Y-84253428D02*
X233734458Y-84158190D01*
X154369278Y-104787503D02*
X154316942Y-103788874D01*
X154316942Y-103788874D02*
X154079173Y-103801335D01*
X154079173Y-103801335D02*
X153939003Y-103856365D01*
X153939003Y-103856365D02*
X153848880Y-103956457D01*
X153848880Y-103956457D02*
X153806311Y-104054057D01*
X153806311Y-104054057D02*
X153768726Y-104246764D01*
X153768726Y-104246764D02*
X153776202Y-104389426D01*
X153776202Y-104389426D02*
X153833725Y-104577149D01*
X153833725Y-104577149D02*
X153886263Y-104669764D01*
X153886263Y-104669764D02*
X153986355Y-104759887D01*
X153986355Y-104759887D02*
X154131509Y-104799964D01*
X154131509Y-104799964D02*
X154369278Y-104787503D01*
X153413420Y-103836225D02*
X152795220Y-103868624D01*
X152795220Y-103868624D02*
X153148034Y-104231609D01*
X153148034Y-104231609D02*
X153005373Y-104239085D01*
X153005373Y-104239085D02*
X152912758Y-104291624D01*
X152912758Y-104291624D02*
X152867696Y-104341670D01*
X152867696Y-104341670D02*
X152825127Y-104439269D01*
X152825127Y-104439269D02*
X152837588Y-104677038D01*
X152837588Y-104677038D02*
X152890126Y-104769654D01*
X152890126Y-104769654D02*
X152940172Y-104814715D01*
X152940172Y-104814715D02*
X153037771Y-104857285D01*
X153037771Y-104857285D02*
X153323094Y-104842332D01*
X153323094Y-104842332D02*
X153415710Y-104789793D01*
X153415710Y-104789793D02*
X153460771Y-104739747D01*
X151891698Y-103915976D02*
X152367236Y-103891054D01*
X152367236Y-103891054D02*
X152439712Y-104364099D01*
X152439712Y-104364099D02*
X152389666Y-104319038D01*
X152389666Y-104319038D02*
X152292066Y-104276468D01*
X152292066Y-104276468D02*
X152054297Y-104288929D01*
X152054297Y-104288929D02*
X151961682Y-104341467D01*
X151961682Y-104341467D02*
X151916620Y-104391513D01*
X151916620Y-104391513D02*
X151874051Y-104489113D01*
X151874051Y-104489113D02*
X151886512Y-104726882D01*
X151886512Y-104726882D02*
X151939050Y-104819497D01*
X151939050Y-104819497D02*
X151989096Y-104864559D01*
X151989096Y-104864559D02*
X152086696Y-104907128D01*
X152086696Y-104907128D02*
X152324465Y-104894668D01*
X152324465Y-104894668D02*
X152417080Y-104842129D01*
X152417080Y-104842129D02*
X152462142Y-104792083D01*
X256042467Y-64729619D02*
X256042467Y-63729619D01*
X256042467Y-63729619D02*
X255804372Y-63729619D01*
X255804372Y-63729619D02*
X255661515Y-63777238D01*
X255661515Y-63777238D02*
X255566277Y-63872476D01*
X255566277Y-63872476D02*
X255518658Y-63967714D01*
X255518658Y-63967714D02*
X255471039Y-64158190D01*
X255471039Y-64158190D02*
X255471039Y-64301047D01*
X255471039Y-64301047D02*
X255518658Y-64491523D01*
X255518658Y-64491523D02*
X255566277Y-64586761D01*
X255566277Y-64586761D02*
X255661515Y-64682000D01*
X255661515Y-64682000D02*
X255804372Y-64729619D01*
X255804372Y-64729619D02*
X256042467Y-64729619D01*
X254613896Y-63729619D02*
X254804372Y-63729619D01*
X254804372Y-63729619D02*
X254899610Y-63777238D01*
X254899610Y-63777238D02*
X254947229Y-63824857D01*
X254947229Y-63824857D02*
X255042467Y-63967714D01*
X255042467Y-63967714D02*
X255090086Y-64158190D01*
X255090086Y-64158190D02*
X255090086Y-64539142D01*
X255090086Y-64539142D02*
X255042467Y-64634380D01*
X255042467Y-64634380D02*
X254994848Y-64682000D01*
X254994848Y-64682000D02*
X254899610Y-64729619D01*
X254899610Y-64729619D02*
X254709134Y-64729619D01*
X254709134Y-64729619D02*
X254613896Y-64682000D01*
X254613896Y-64682000D02*
X254566277Y-64634380D01*
X254566277Y-64634380D02*
X254518658Y-64539142D01*
X254518658Y-64539142D02*
X254518658Y-64301047D01*
X254518658Y-64301047D02*
X254566277Y-64205809D01*
X254566277Y-64205809D02*
X254613896Y-64158190D01*
X254613896Y-64158190D02*
X254709134Y-64110571D01*
X254709134Y-64110571D02*
X254899610Y-64110571D01*
X254899610Y-64110571D02*
X254994848Y-64158190D01*
X254994848Y-64158190D02*
X255042467Y-64205809D01*
X255042467Y-64205809D02*
X255090086Y-64301047D01*
X253899610Y-63729619D02*
X253804372Y-63729619D01*
X253804372Y-63729619D02*
X253709134Y-63777238D01*
X253709134Y-63777238D02*
X253661515Y-63824857D01*
X253661515Y-63824857D02*
X253613896Y-63920095D01*
X253613896Y-63920095D02*
X253566277Y-64110571D01*
X253566277Y-64110571D02*
X253566277Y-64348666D01*
X253566277Y-64348666D02*
X253613896Y-64539142D01*
X253613896Y-64539142D02*
X253661515Y-64634380D01*
X253661515Y-64634380D02*
X253709134Y-64682000D01*
X253709134Y-64682000D02*
X253804372Y-64729619D01*
X253804372Y-64729619D02*
X253899610Y-64729619D01*
X253899610Y-64729619D02*
X253994848Y-64682000D01*
X253994848Y-64682000D02*
X254042467Y-64634380D01*
X254042467Y-64634380D02*
X254090086Y-64539142D01*
X254090086Y-64539142D02*
X254137705Y-64348666D01*
X254137705Y-64348666D02*
X254137705Y-64110571D01*
X254137705Y-64110571D02*
X254090086Y-63920095D01*
X254090086Y-63920095D02*
X254042467Y-63824857D01*
X254042467Y-63824857D02*
X253994848Y-63777238D01*
X253994848Y-63777238D02*
X253899610Y-63729619D01*
X116167214Y-169460097D02*
X116010780Y-168472408D01*
X116010780Y-168472408D02*
X115775616Y-168509654D01*
X115775616Y-168509654D02*
X115641967Y-168579035D01*
X115641967Y-168579035D02*
X115562800Y-168687999D01*
X115562800Y-168687999D02*
X115530666Y-168789514D01*
X115530666Y-168789514D02*
X115513430Y-168985094D01*
X115513430Y-168985094D02*
X115535778Y-169126193D01*
X115535778Y-169126193D02*
X115612608Y-169306874D01*
X115612608Y-169306874D02*
X115674539Y-169393491D01*
X115674539Y-169393491D02*
X115783503Y-169472658D01*
X115783503Y-169472658D02*
X115932051Y-169497343D01*
X115932051Y-169497343D02*
X116167214Y-169460097D01*
X115117157Y-168613944D02*
X114505731Y-168710784D01*
X114505731Y-168710784D02*
X114894555Y-169034902D01*
X114894555Y-169034902D02*
X114753456Y-169057250D01*
X114753456Y-169057250D02*
X114666840Y-169119181D01*
X114666840Y-169119181D02*
X114627256Y-169173663D01*
X114627256Y-169173663D02*
X114595122Y-169275178D01*
X114595122Y-169275178D02*
X114632369Y-169510342D01*
X114632369Y-169510342D02*
X114694300Y-169596958D01*
X114694300Y-169596958D02*
X114748782Y-169636542D01*
X114748782Y-169636542D02*
X114850297Y-169668676D01*
X114850297Y-169668676D02*
X115132493Y-169623980D01*
X115132493Y-169623980D02*
X115219110Y-169562049D01*
X115219110Y-169562049D02*
X115258693Y-169507567D01*
X177733376Y-104729619D02*
X177733376Y-103729619D01*
X177733376Y-103729619D02*
X177495281Y-103729619D01*
X177495281Y-103729619D02*
X177352424Y-103777238D01*
X177352424Y-103777238D02*
X177257186Y-103872476D01*
X177257186Y-103872476D02*
X177209567Y-103967714D01*
X177209567Y-103967714D02*
X177161948Y-104158190D01*
X177161948Y-104158190D02*
X177161948Y-104301047D01*
X177161948Y-104301047D02*
X177209567Y-104491523D01*
X177209567Y-104491523D02*
X177257186Y-104586761D01*
X177257186Y-104586761D02*
X177352424Y-104682000D01*
X177352424Y-104682000D02*
X177495281Y-104729619D01*
X177495281Y-104729619D02*
X177733376Y-104729619D01*
X176828614Y-103729619D02*
X176209567Y-103729619D01*
X176209567Y-103729619D02*
X176542900Y-104110571D01*
X176542900Y-104110571D02*
X176400043Y-104110571D01*
X176400043Y-104110571D02*
X176304805Y-104158190D01*
X176304805Y-104158190D02*
X176257186Y-104205809D01*
X176257186Y-104205809D02*
X176209567Y-104301047D01*
X176209567Y-104301047D02*
X176209567Y-104539142D01*
X176209567Y-104539142D02*
X176257186Y-104634380D01*
X176257186Y-104634380D02*
X176304805Y-104682000D01*
X176304805Y-104682000D02*
X176400043Y-104729619D01*
X176400043Y-104729619D02*
X176685757Y-104729619D01*
X176685757Y-104729619D02*
X176780995Y-104682000D01*
X176780995Y-104682000D02*
X176828614Y-104634380D01*
X175352424Y-103729619D02*
X175542900Y-103729619D01*
X175542900Y-103729619D02*
X175638138Y-103777238D01*
X175638138Y-103777238D02*
X175685757Y-103824857D01*
X175685757Y-103824857D02*
X175780995Y-103967714D01*
X175780995Y-103967714D02*
X175828614Y-104158190D01*
X175828614Y-104158190D02*
X175828614Y-104539142D01*
X175828614Y-104539142D02*
X175780995Y-104634380D01*
X175780995Y-104634380D02*
X175733376Y-104682000D01*
X175733376Y-104682000D02*
X175638138Y-104729619D01*
X175638138Y-104729619D02*
X175447662Y-104729619D01*
X175447662Y-104729619D02*
X175352424Y-104682000D01*
X175352424Y-104682000D02*
X175304805Y-104634380D01*
X175304805Y-104634380D02*
X175257186Y-104539142D01*
X175257186Y-104539142D02*
X175257186Y-104301047D01*
X175257186Y-104301047D02*
X175304805Y-104205809D01*
X175304805Y-104205809D02*
X175352424Y-104158190D01*
X175352424Y-104158190D02*
X175447662Y-104110571D01*
X175447662Y-104110571D02*
X175638138Y-104110571D01*
X175638138Y-104110571D02*
X175733376Y-104158190D01*
X175733376Y-104158190D02*
X175780995Y-104205809D01*
X175780995Y-104205809D02*
X175828614Y-104301047D01*
X236937921Y-124729619D02*
X236937921Y-123729619D01*
X236937921Y-123729619D02*
X236699826Y-123729619D01*
X236699826Y-123729619D02*
X236556969Y-123777238D01*
X236556969Y-123777238D02*
X236461731Y-123872476D01*
X236461731Y-123872476D02*
X236414112Y-123967714D01*
X236414112Y-123967714D02*
X236366493Y-124158190D01*
X236366493Y-124158190D02*
X236366493Y-124301047D01*
X236366493Y-124301047D02*
X236414112Y-124491523D01*
X236414112Y-124491523D02*
X236461731Y-124586761D01*
X236461731Y-124586761D02*
X236556969Y-124682000D01*
X236556969Y-124682000D02*
X236699826Y-124729619D01*
X236699826Y-124729619D02*
X236937921Y-124729619D01*
X235985540Y-123824857D02*
X235937921Y-123777238D01*
X235937921Y-123777238D02*
X235842683Y-123729619D01*
X235842683Y-123729619D02*
X235604588Y-123729619D01*
X235604588Y-123729619D02*
X235509350Y-123777238D01*
X235509350Y-123777238D02*
X235461731Y-123824857D01*
X235461731Y-123824857D02*
X235414112Y-123920095D01*
X235414112Y-123920095D02*
X235414112Y-124015333D01*
X235414112Y-124015333D02*
X235461731Y-124158190D01*
X235461731Y-124158190D02*
X236033159Y-124729619D01*
X236033159Y-124729619D02*
X235414112Y-124729619D01*
X234937921Y-124729619D02*
X234747445Y-124729619D01*
X234747445Y-124729619D02*
X234652207Y-124682000D01*
X234652207Y-124682000D02*
X234604588Y-124634380D01*
X234604588Y-124634380D02*
X234509350Y-124491523D01*
X234509350Y-124491523D02*
X234461731Y-124301047D01*
X234461731Y-124301047D02*
X234461731Y-123920095D01*
X234461731Y-123920095D02*
X234509350Y-123824857D01*
X234509350Y-123824857D02*
X234556969Y-123777238D01*
X234556969Y-123777238D02*
X234652207Y-123729619D01*
X234652207Y-123729619D02*
X234842683Y-123729619D01*
X234842683Y-123729619D02*
X234937921Y-123777238D01*
X234937921Y-123777238D02*
X234985540Y-123824857D01*
X234985540Y-123824857D02*
X235033159Y-123920095D01*
X235033159Y-123920095D02*
X235033159Y-124158190D01*
X235033159Y-124158190D02*
X234985540Y-124253428D01*
X234985540Y-124253428D02*
X234937921Y-124301047D01*
X234937921Y-124301047D02*
X234842683Y-124348666D01*
X234842683Y-124348666D02*
X234652207Y-124348666D01*
X234652207Y-124348666D02*
X234556969Y-124301047D01*
X234556969Y-124301047D02*
X234509350Y-124253428D01*
X234509350Y-124253428D02*
X234461731Y-124158190D01*
X236210648Y-144729619D02*
X236210648Y-143729619D01*
X236210648Y-143729619D02*
X235972553Y-143729619D01*
X235972553Y-143729619D02*
X235829696Y-143777238D01*
X235829696Y-143777238D02*
X235734458Y-143872476D01*
X235734458Y-143872476D02*
X235686839Y-143967714D01*
X235686839Y-143967714D02*
X235639220Y-144158190D01*
X235639220Y-144158190D02*
X235639220Y-144301047D01*
X235639220Y-144301047D02*
X235686839Y-144491523D01*
X235686839Y-144491523D02*
X235734458Y-144586761D01*
X235734458Y-144586761D02*
X235829696Y-144682000D01*
X235829696Y-144682000D02*
X235972553Y-144729619D01*
X235972553Y-144729619D02*
X236210648Y-144729619D01*
X234686839Y-144729619D02*
X235258267Y-144729619D01*
X234972553Y-144729619D02*
X234972553Y-143729619D01*
X234972553Y-143729619D02*
X235067791Y-143872476D01*
X235067791Y-143872476D02*
X235163029Y-143967714D01*
X235163029Y-143967714D02*
X235258267Y-144015333D01*
X234210648Y-144729619D02*
X234020172Y-144729619D01*
X234020172Y-144729619D02*
X233924934Y-144682000D01*
X233924934Y-144682000D02*
X233877315Y-144634380D01*
X233877315Y-144634380D02*
X233782077Y-144491523D01*
X233782077Y-144491523D02*
X233734458Y-144301047D01*
X233734458Y-144301047D02*
X233734458Y-143920095D01*
X233734458Y-143920095D02*
X233782077Y-143824857D01*
X233782077Y-143824857D02*
X233829696Y-143777238D01*
X233829696Y-143777238D02*
X233924934Y-143729619D01*
X233924934Y-143729619D02*
X234115410Y-143729619D01*
X234115410Y-143729619D02*
X234210648Y-143777238D01*
X234210648Y-143777238D02*
X234258267Y-143824857D01*
X234258267Y-143824857D02*
X234305886Y-143920095D01*
X234305886Y-143920095D02*
X234305886Y-144158190D01*
X234305886Y-144158190D02*
X234258267Y-144253428D01*
X234258267Y-144253428D02*
X234210648Y-144301047D01*
X234210648Y-144301047D02*
X234115410Y-144348666D01*
X234115410Y-144348666D02*
X233924934Y-144348666D01*
X233924934Y-144348666D02*
X233829696Y-144301047D01*
X233829696Y-144301047D02*
X233782077Y-144253428D01*
X233782077Y-144253428D02*
X233734458Y-144158190D01*
X275619739Y-64729619D02*
X275619739Y-63729619D01*
X275619739Y-63729619D02*
X275381644Y-63729619D01*
X275381644Y-63729619D02*
X275238787Y-63777238D01*
X275238787Y-63777238D02*
X275143549Y-63872476D01*
X275143549Y-63872476D02*
X275095930Y-63967714D01*
X275095930Y-63967714D02*
X275048311Y-64158190D01*
X275048311Y-64158190D02*
X275048311Y-64301047D01*
X275048311Y-64301047D02*
X275095930Y-64491523D01*
X275095930Y-64491523D02*
X275143549Y-64586761D01*
X275143549Y-64586761D02*
X275238787Y-64682000D01*
X275238787Y-64682000D02*
X275381644Y-64729619D01*
X275381644Y-64729619D02*
X275619739Y-64729619D01*
X274191168Y-63729619D02*
X274381644Y-63729619D01*
X274381644Y-63729619D02*
X274476882Y-63777238D01*
X274476882Y-63777238D02*
X274524501Y-63824857D01*
X274524501Y-63824857D02*
X274619739Y-63967714D01*
X274619739Y-63967714D02*
X274667358Y-64158190D01*
X274667358Y-64158190D02*
X274667358Y-64539142D01*
X274667358Y-64539142D02*
X274619739Y-64634380D01*
X274619739Y-64634380D02*
X274572120Y-64682000D01*
X274572120Y-64682000D02*
X274476882Y-64729619D01*
X274476882Y-64729619D02*
X274286406Y-64729619D01*
X274286406Y-64729619D02*
X274191168Y-64682000D01*
X274191168Y-64682000D02*
X274143549Y-64634380D01*
X274143549Y-64634380D02*
X274095930Y-64539142D01*
X274095930Y-64539142D02*
X274095930Y-64301047D01*
X274095930Y-64301047D02*
X274143549Y-64205809D01*
X274143549Y-64205809D02*
X274191168Y-64158190D01*
X274191168Y-64158190D02*
X274286406Y-64110571D01*
X274286406Y-64110571D02*
X274476882Y-64110571D01*
X274476882Y-64110571D02*
X274572120Y-64158190D01*
X274572120Y-64158190D02*
X274619739Y-64205809D01*
X274619739Y-64205809D02*
X274667358Y-64301047D01*
X273143549Y-64729619D02*
X273714977Y-64729619D01*
X273429263Y-64729619D02*
X273429263Y-63729619D01*
X273429263Y-63729619D02*
X273524501Y-63872476D01*
X273524501Y-63872476D02*
X273619739Y-63967714D01*
X273619739Y-63967714D02*
X273714977Y-64015333D01*
X177574285Y-84729619D02*
X177574285Y-83729619D01*
X177574285Y-83729619D02*
X177336190Y-83729619D01*
X177336190Y-83729619D02*
X177193333Y-83777238D01*
X177193333Y-83777238D02*
X177098095Y-83872476D01*
X177098095Y-83872476D02*
X177050476Y-83967714D01*
X177050476Y-83967714D02*
X177002857Y-84158190D01*
X177002857Y-84158190D02*
X177002857Y-84301047D01*
X177002857Y-84301047D02*
X177050476Y-84491523D01*
X177050476Y-84491523D02*
X177098095Y-84586761D01*
X177098095Y-84586761D02*
X177193333Y-84682000D01*
X177193333Y-84682000D02*
X177336190Y-84729619D01*
X177336190Y-84729619D02*
X177574285Y-84729619D01*
X176145714Y-84062952D02*
X176145714Y-84729619D01*
X176383809Y-83682000D02*
X176621904Y-84396285D01*
X176621904Y-84396285D02*
X176002857Y-84396285D01*
X175193333Y-83729619D02*
X175383809Y-83729619D01*
X175383809Y-83729619D02*
X175479047Y-83777238D01*
X175479047Y-83777238D02*
X175526666Y-83824857D01*
X175526666Y-83824857D02*
X175621904Y-83967714D01*
X175621904Y-83967714D02*
X175669523Y-84158190D01*
X175669523Y-84158190D02*
X175669523Y-84539142D01*
X175669523Y-84539142D02*
X175621904Y-84634380D01*
X175621904Y-84634380D02*
X175574285Y-84682000D01*
X175574285Y-84682000D02*
X175479047Y-84729619D01*
X175479047Y-84729619D02*
X175288571Y-84729619D01*
X175288571Y-84729619D02*
X175193333Y-84682000D01*
X175193333Y-84682000D02*
X175145714Y-84634380D01*
X175145714Y-84634380D02*
X175098095Y-84539142D01*
X175098095Y-84539142D02*
X175098095Y-84301047D01*
X175098095Y-84301047D02*
X175145714Y-84205809D01*
X175145714Y-84205809D02*
X175193333Y-84158190D01*
X175193333Y-84158190D02*
X175288571Y-84110571D01*
X175288571Y-84110571D02*
X175479047Y-84110571D01*
X175479047Y-84110571D02*
X175574285Y-84158190D01*
X175574285Y-84158190D02*
X175621904Y-84205809D01*
X175621904Y-84205809D02*
X175669523Y-84301047D01*
X276210648Y-124729619D02*
X276210648Y-123729619D01*
X276210648Y-123729619D02*
X275972553Y-123729619D01*
X275972553Y-123729619D02*
X275829696Y-123777238D01*
X275829696Y-123777238D02*
X275734458Y-123872476D01*
X275734458Y-123872476D02*
X275686839Y-123967714D01*
X275686839Y-123967714D02*
X275639220Y-124158190D01*
X275639220Y-124158190D02*
X275639220Y-124301047D01*
X275639220Y-124301047D02*
X275686839Y-124491523D01*
X275686839Y-124491523D02*
X275734458Y-124586761D01*
X275734458Y-124586761D02*
X275829696Y-124682000D01*
X275829696Y-124682000D02*
X275972553Y-124729619D01*
X275972553Y-124729619D02*
X276210648Y-124729619D01*
X274782077Y-123729619D02*
X274972553Y-123729619D01*
X274972553Y-123729619D02*
X275067791Y-123777238D01*
X275067791Y-123777238D02*
X275115410Y-123824857D01*
X275115410Y-123824857D02*
X275210648Y-123967714D01*
X275210648Y-123967714D02*
X275258267Y-124158190D01*
X275258267Y-124158190D02*
X275258267Y-124539142D01*
X275258267Y-124539142D02*
X275210648Y-124634380D01*
X275210648Y-124634380D02*
X275163029Y-124682000D01*
X275163029Y-124682000D02*
X275067791Y-124729619D01*
X275067791Y-124729619D02*
X274877315Y-124729619D01*
X274877315Y-124729619D02*
X274782077Y-124682000D01*
X274782077Y-124682000D02*
X274734458Y-124634380D01*
X274734458Y-124634380D02*
X274686839Y-124539142D01*
X274686839Y-124539142D02*
X274686839Y-124301047D01*
X274686839Y-124301047D02*
X274734458Y-124205809D01*
X274734458Y-124205809D02*
X274782077Y-124158190D01*
X274782077Y-124158190D02*
X274877315Y-124110571D01*
X274877315Y-124110571D02*
X275067791Y-124110571D01*
X275067791Y-124110571D02*
X275163029Y-124158190D01*
X275163029Y-124158190D02*
X275210648Y-124205809D01*
X275210648Y-124205809D02*
X275258267Y-124301047D01*
X273829696Y-124062952D02*
X273829696Y-124729619D01*
X274067791Y-123682000D02*
X274305886Y-124396285D01*
X274305886Y-124396285D02*
X273686839Y-124396285D01*
X155506097Y-125092703D02*
X155453761Y-124094074D01*
X155453761Y-124094074D02*
X155215992Y-124106535D01*
X155215992Y-124106535D02*
X155075822Y-124161565D01*
X155075822Y-124161565D02*
X154985699Y-124261657D01*
X154985699Y-124261657D02*
X154943130Y-124359257D01*
X154943130Y-124359257D02*
X154905545Y-124551964D01*
X154905545Y-124551964D02*
X154913021Y-124694626D01*
X154913021Y-124694626D02*
X154970544Y-124882349D01*
X154970544Y-124882349D02*
X155023082Y-124974964D01*
X155023082Y-124974964D02*
X155123174Y-125065087D01*
X155123174Y-125065087D02*
X155268328Y-125105164D01*
X155268328Y-125105164D02*
X155506097Y-125092703D01*
X154507669Y-124239025D02*
X154457623Y-124193964D01*
X154457623Y-124193964D02*
X154360023Y-124151394D01*
X154360023Y-124151394D02*
X154122255Y-124163855D01*
X154122255Y-124163855D02*
X154029639Y-124216393D01*
X154029639Y-124216393D02*
X153984578Y-124266439D01*
X153984578Y-124266439D02*
X153942008Y-124364039D01*
X153942008Y-124364039D02*
X153946992Y-124459147D01*
X153946992Y-124459147D02*
X154002023Y-124599316D01*
X154002023Y-124599316D02*
X154602575Y-125140055D01*
X154602575Y-125140055D02*
X153984375Y-125172453D01*
X153028517Y-124221176D02*
X153504055Y-124196254D01*
X153504055Y-124196254D02*
X153576531Y-124669299D01*
X153576531Y-124669299D02*
X153526485Y-124624238D01*
X153526485Y-124624238D02*
X153428885Y-124581668D01*
X153428885Y-124581668D02*
X153191116Y-124594129D01*
X153191116Y-124594129D02*
X153098501Y-124646667D01*
X153098501Y-124646667D02*
X153053439Y-124696713D01*
X153053439Y-124696713D02*
X153010870Y-124794313D01*
X153010870Y-124794313D02*
X153023331Y-125032082D01*
X153023331Y-125032082D02*
X153075869Y-125124697D01*
X153075869Y-125124697D02*
X153125915Y-125169759D01*
X153125915Y-125169759D02*
X153223515Y-125212328D01*
X153223515Y-125212328D02*
X153461284Y-125199868D01*
X153461284Y-125199868D02*
X153553899Y-125147329D01*
X153553899Y-125147329D02*
X153598961Y-125097283D01*
X294847012Y-84729619D02*
X294847012Y-83729619D01*
X294847012Y-83729619D02*
X294608917Y-83729619D01*
X294608917Y-83729619D02*
X294466060Y-83777238D01*
X294466060Y-83777238D02*
X294370822Y-83872476D01*
X294370822Y-83872476D02*
X294323203Y-83967714D01*
X294323203Y-83967714D02*
X294275584Y-84158190D01*
X294275584Y-84158190D02*
X294275584Y-84301047D01*
X294275584Y-84301047D02*
X294323203Y-84491523D01*
X294323203Y-84491523D02*
X294370822Y-84586761D01*
X294370822Y-84586761D02*
X294466060Y-84682000D01*
X294466060Y-84682000D02*
X294608917Y-84729619D01*
X294608917Y-84729619D02*
X294847012Y-84729619D01*
X293418441Y-83729619D02*
X293608917Y-83729619D01*
X293608917Y-83729619D02*
X293704155Y-83777238D01*
X293704155Y-83777238D02*
X293751774Y-83824857D01*
X293751774Y-83824857D02*
X293847012Y-83967714D01*
X293847012Y-83967714D02*
X293894631Y-84158190D01*
X293894631Y-84158190D02*
X293894631Y-84539142D01*
X293894631Y-84539142D02*
X293847012Y-84634380D01*
X293847012Y-84634380D02*
X293799393Y-84682000D01*
X293799393Y-84682000D02*
X293704155Y-84729619D01*
X293704155Y-84729619D02*
X293513679Y-84729619D01*
X293513679Y-84729619D02*
X293418441Y-84682000D01*
X293418441Y-84682000D02*
X293370822Y-84634380D01*
X293370822Y-84634380D02*
X293323203Y-84539142D01*
X293323203Y-84539142D02*
X293323203Y-84301047D01*
X293323203Y-84301047D02*
X293370822Y-84205809D01*
X293370822Y-84205809D02*
X293418441Y-84158190D01*
X293418441Y-84158190D02*
X293513679Y-84110571D01*
X293513679Y-84110571D02*
X293704155Y-84110571D01*
X293704155Y-84110571D02*
X293799393Y-84158190D01*
X293799393Y-84158190D02*
X293847012Y-84205809D01*
X293847012Y-84205809D02*
X293894631Y-84301047D01*
X292751774Y-84158190D02*
X292847012Y-84110571D01*
X292847012Y-84110571D02*
X292894631Y-84062952D01*
X292894631Y-84062952D02*
X292942250Y-83967714D01*
X292942250Y-83967714D02*
X292942250Y-83920095D01*
X292942250Y-83920095D02*
X292894631Y-83824857D01*
X292894631Y-83824857D02*
X292847012Y-83777238D01*
X292847012Y-83777238D02*
X292751774Y-83729619D01*
X292751774Y-83729619D02*
X292561298Y-83729619D01*
X292561298Y-83729619D02*
X292466060Y-83777238D01*
X292466060Y-83777238D02*
X292418441Y-83824857D01*
X292418441Y-83824857D02*
X292370822Y-83920095D01*
X292370822Y-83920095D02*
X292370822Y-83967714D01*
X292370822Y-83967714D02*
X292418441Y-84062952D01*
X292418441Y-84062952D02*
X292466060Y-84110571D01*
X292466060Y-84110571D02*
X292561298Y-84158190D01*
X292561298Y-84158190D02*
X292751774Y-84158190D01*
X292751774Y-84158190D02*
X292847012Y-84205809D01*
X292847012Y-84205809D02*
X292894631Y-84253428D01*
X292894631Y-84253428D02*
X292942250Y-84348666D01*
X292942250Y-84348666D02*
X292942250Y-84539142D01*
X292942250Y-84539142D02*
X292894631Y-84634380D01*
X292894631Y-84634380D02*
X292847012Y-84682000D01*
X292847012Y-84682000D02*
X292751774Y-84729619D01*
X292751774Y-84729619D02*
X292561298Y-84729619D01*
X292561298Y-84729619D02*
X292466060Y-84682000D01*
X292466060Y-84682000D02*
X292418441Y-84634380D01*
X292418441Y-84634380D02*
X292370822Y-84539142D01*
X292370822Y-84539142D02*
X292370822Y-84348666D01*
X292370822Y-84348666D02*
X292418441Y-84253428D01*
X292418441Y-84253428D02*
X292466060Y-84205809D01*
X292466060Y-84205809D02*
X292561298Y-84158190D01*
X294847012Y-144729619D02*
X294847012Y-143729619D01*
X294847012Y-143729619D02*
X294608917Y-143729619D01*
X294608917Y-143729619D02*
X294466060Y-143777238D01*
X294466060Y-143777238D02*
X294370822Y-143872476D01*
X294370822Y-143872476D02*
X294323203Y-143967714D01*
X294323203Y-143967714D02*
X294275584Y-144158190D01*
X294275584Y-144158190D02*
X294275584Y-144301047D01*
X294275584Y-144301047D02*
X294323203Y-144491523D01*
X294323203Y-144491523D02*
X294370822Y-144586761D01*
X294370822Y-144586761D02*
X294466060Y-144682000D01*
X294466060Y-144682000D02*
X294608917Y-144729619D01*
X294608917Y-144729619D02*
X294847012Y-144729619D01*
X293942250Y-143729619D02*
X293275584Y-143729619D01*
X293275584Y-143729619D02*
X293704155Y-144729619D01*
X292370822Y-144729619D02*
X292942250Y-144729619D01*
X292656536Y-144729619D02*
X292656536Y-143729619D01*
X292656536Y-143729619D02*
X292751774Y-143872476D01*
X292751774Y-143872476D02*
X292847012Y-143967714D01*
X292847012Y-143967714D02*
X292942250Y-144015333D01*
X82518009Y-119867033D02*
X82686319Y-120658867D01*
X82686319Y-120658867D02*
X82659541Y-120761924D01*
X82659541Y-120761924D02*
X82622864Y-120818403D01*
X82622864Y-120818403D02*
X82539607Y-120884783D01*
X82539607Y-120884783D02*
X82353293Y-120924385D01*
X82353293Y-120924385D02*
X82250236Y-120897608D01*
X82250236Y-120897608D02*
X82193757Y-120860930D01*
X82193757Y-120860930D02*
X82127377Y-120777674D01*
X82127377Y-120777674D02*
X81959068Y-119985840D01*
X81188832Y-121171899D02*
X81747773Y-121053092D01*
X81468303Y-121112496D02*
X81260391Y-120134348D01*
X81260391Y-120134348D02*
X81383250Y-120254282D01*
X81383250Y-120254282D02*
X81496208Y-120327638D01*
X81496208Y-120327638D02*
X81599265Y-120354416D01*
X92336583Y-153614737D02*
X92128672Y-152636590D01*
X92128672Y-152636590D02*
X91895779Y-152686093D01*
X91895779Y-152686093D02*
X91765945Y-152762373D01*
X91765945Y-152762373D02*
X91692589Y-152875331D01*
X91692589Y-152875331D02*
X91665811Y-152978388D01*
X91665811Y-152978388D02*
X91658835Y-153174603D01*
X91658835Y-153174603D02*
X91688537Y-153314338D01*
X91688537Y-153314338D02*
X91774718Y-153490751D01*
X91774718Y-153490751D02*
X91841097Y-153574008D01*
X91841097Y-153574008D02*
X91954055Y-153647363D01*
X91954055Y-153647363D02*
X92103691Y-153664240D01*
X92103691Y-153664240D02*
X92336583Y-153614737D01*
X90846073Y-153931555D02*
X91405014Y-153812749D01*
X91125544Y-153872152D02*
X90917632Y-152894004D01*
X90917632Y-152894004D02*
X91040490Y-153013939D01*
X91040490Y-153013939D02*
X91153448Y-153087294D01*
X91153448Y-153087294D02*
X91256506Y-153114072D01*
X90285334Y-153125769D02*
X90228855Y-153089091D01*
X90228855Y-153089091D02*
X90125798Y-153062314D01*
X90125798Y-153062314D02*
X89892906Y-153111817D01*
X89892906Y-153111817D02*
X89809649Y-153178196D01*
X89809649Y-153178196D02*
X89772971Y-153234675D01*
X89772971Y-153234675D02*
X89746194Y-153337733D01*
X89746194Y-153337733D02*
X89765995Y-153430890D01*
X89765995Y-153430890D02*
X89842275Y-153560724D01*
X89842275Y-153560724D02*
X90520024Y-154000859D01*
X90520024Y-154000859D02*
X89914504Y-154129566D01*
X103637543Y-89985604D02*
X103481108Y-88997915D01*
X103481108Y-88997915D02*
X103245944Y-89035162D01*
X103245944Y-89035162D02*
X103112295Y-89104542D01*
X103112295Y-89104542D02*
X103033128Y-89213506D01*
X103033128Y-89213506D02*
X103000994Y-89315021D01*
X103000994Y-89315021D02*
X102983758Y-89510602D01*
X102983758Y-89510602D02*
X103006106Y-89651700D01*
X103006106Y-89651700D02*
X103082936Y-89832382D01*
X103082936Y-89832382D02*
X103144867Y-89918998D01*
X103144867Y-89918998D02*
X103253831Y-89998165D01*
X103253831Y-89998165D02*
X103402379Y-90022850D01*
X103402379Y-90022850D02*
X103637543Y-89985604D01*
X102122270Y-89550623D02*
X102226559Y-90209082D01*
X102297840Y-89137114D02*
X102644742Y-89805360D01*
X102644742Y-89805360D02*
X102033316Y-89902200D01*
X101646830Y-89288437D02*
X101035404Y-89385277D01*
X101035404Y-89385277D02*
X101424227Y-89709394D01*
X101424227Y-89709394D02*
X101283129Y-89731742D01*
X101283129Y-89731742D02*
X101196513Y-89793674D01*
X101196513Y-89793674D02*
X101156929Y-89848156D01*
X101156929Y-89848156D02*
X101124795Y-89949670D01*
X101124795Y-89949670D02*
X101162041Y-90184834D01*
X101162041Y-90184834D02*
X101223973Y-90271451D01*
X101223973Y-90271451D02*
X101278455Y-90311034D01*
X101278455Y-90311034D02*
X101379969Y-90343168D01*
X101379969Y-90343168D02*
X101662166Y-90298473D01*
X101662166Y-90298473D02*
X101748782Y-90236541D01*
X101748782Y-90236541D02*
X101788366Y-90182059D01*
X197310648Y-104729619D02*
X197310648Y-103729619D01*
X197310648Y-103729619D02*
X197072553Y-103729619D01*
X197072553Y-103729619D02*
X196929696Y-103777238D01*
X196929696Y-103777238D02*
X196834458Y-103872476D01*
X196834458Y-103872476D02*
X196786839Y-103967714D01*
X196786839Y-103967714D02*
X196739220Y-104158190D01*
X196739220Y-104158190D02*
X196739220Y-104301047D01*
X196739220Y-104301047D02*
X196786839Y-104491523D01*
X196786839Y-104491523D02*
X196834458Y-104586761D01*
X196834458Y-104586761D02*
X196929696Y-104682000D01*
X196929696Y-104682000D02*
X197072553Y-104729619D01*
X197072553Y-104729619D02*
X197310648Y-104729619D01*
X196405886Y-103729619D02*
X195786839Y-103729619D01*
X195786839Y-103729619D02*
X196120172Y-104110571D01*
X196120172Y-104110571D02*
X195977315Y-104110571D01*
X195977315Y-104110571D02*
X195882077Y-104158190D01*
X195882077Y-104158190D02*
X195834458Y-104205809D01*
X195834458Y-104205809D02*
X195786839Y-104301047D01*
X195786839Y-104301047D02*
X195786839Y-104539142D01*
X195786839Y-104539142D02*
X195834458Y-104634380D01*
X195834458Y-104634380D02*
X195882077Y-104682000D01*
X195882077Y-104682000D02*
X195977315Y-104729619D01*
X195977315Y-104729619D02*
X196263029Y-104729619D01*
X196263029Y-104729619D02*
X196358267Y-104682000D01*
X196358267Y-104682000D02*
X196405886Y-104634380D01*
X195453505Y-103729619D02*
X194786839Y-103729619D01*
X194786839Y-103729619D02*
X195215410Y-104729619D01*
X134603607Y-146919026D02*
X134499078Y-145924504D01*
X134499078Y-145924504D02*
X134262287Y-145949391D01*
X134262287Y-145949391D02*
X134125190Y-146011682D01*
X134125190Y-146011682D02*
X134040429Y-146116354D01*
X134040429Y-146116354D02*
X134003026Y-146216048D01*
X134003026Y-146216048D02*
X133975578Y-146410458D01*
X133975578Y-146410458D02*
X133990511Y-146552532D01*
X133990511Y-146552532D02*
X134057779Y-146736988D01*
X134057779Y-146736988D02*
X134115092Y-146826726D01*
X134115092Y-146826726D02*
X134219764Y-146911488D01*
X134219764Y-146911488D02*
X134366816Y-146943913D01*
X134366816Y-146943913D02*
X134603607Y-146919026D01*
X133088145Y-147078307D02*
X133656443Y-147018576D01*
X133372294Y-147048442D02*
X133267766Y-146053920D01*
X133267766Y-146053920D02*
X133377415Y-146186039D01*
X133377415Y-146186039D02*
X133482086Y-146270801D01*
X133482086Y-146270801D02*
X133581780Y-146308204D01*
X132166012Y-146504888D02*
X132235697Y-147167903D01*
X132362982Y-146101135D02*
X132674437Y-146786620D01*
X132674437Y-146786620D02*
X132058780Y-146851328D01*
X56226544Y-100238923D02*
X55967725Y-99272997D01*
X55967725Y-99272997D02*
X55737743Y-99334620D01*
X55737743Y-99334620D02*
X55612078Y-99417591D01*
X55612078Y-99417591D02*
X55544735Y-99534233D01*
X55544735Y-99534233D02*
X55523388Y-99638551D01*
X55523388Y-99638551D02*
X55526690Y-99834862D01*
X55526690Y-99834862D02*
X55563664Y-99972851D01*
X55563664Y-99972851D02*
X55658960Y-100144512D01*
X55658960Y-100144512D02*
X55729605Y-100224180D01*
X55729605Y-100224180D02*
X55846248Y-100291524D01*
X55846248Y-100291524D02*
X55996562Y-100300546D01*
X55996562Y-100300546D02*
X56226544Y-100238923D01*
X54674104Y-99964714D02*
X54846650Y-100608664D01*
X54805489Y-99535118D02*
X55220342Y-100163442D01*
X55220342Y-100163442D02*
X54622388Y-100323663D01*
X53834728Y-100879808D02*
X54386686Y-100731911D01*
X54110707Y-100805860D02*
X53851888Y-99839934D01*
X53851888Y-99839934D02*
X53980855Y-99953274D01*
X53980855Y-99953274D02*
X54097497Y-100020617D01*
X54097497Y-100020617D02*
X54201815Y-100041964D01*
X152169278Y-64707503D02*
X152116942Y-63708874D01*
X152116942Y-63708874D02*
X151879173Y-63721335D01*
X151879173Y-63721335D02*
X151739003Y-63776365D01*
X151739003Y-63776365D02*
X151648880Y-63876457D01*
X151648880Y-63876457D02*
X151606311Y-63974057D01*
X151606311Y-63974057D02*
X151568726Y-64166764D01*
X151568726Y-64166764D02*
X151576202Y-64309426D01*
X151576202Y-64309426D02*
X151633725Y-64497149D01*
X151633725Y-64497149D02*
X151686263Y-64589764D01*
X151686263Y-64589764D02*
X151786355Y-64679887D01*
X151786355Y-64679887D02*
X151931509Y-64719964D01*
X151931509Y-64719964D02*
X152169278Y-64707503D01*
X150642774Y-63786132D02*
X151118312Y-63761210D01*
X151118312Y-63761210D02*
X151190788Y-64234256D01*
X151190788Y-64234256D02*
X151140742Y-64189194D01*
X151140742Y-64189194D02*
X151043142Y-64146625D01*
X151043142Y-64146625D02*
X150805373Y-64159085D01*
X150805373Y-64159085D02*
X150712758Y-64211624D01*
X150712758Y-64211624D02*
X150667696Y-64261670D01*
X150667696Y-64261670D02*
X150625127Y-64359269D01*
X150625127Y-64359269D02*
X150637588Y-64597038D01*
X150637588Y-64597038D02*
X150690126Y-64689654D01*
X150690126Y-64689654D02*
X150740172Y-64734715D01*
X150740172Y-64734715D02*
X150837771Y-64777285D01*
X150837771Y-64777285D02*
X151075540Y-64764824D01*
X151075540Y-64764824D02*
X151168156Y-64712286D01*
X151168156Y-64712286D02*
X151213217Y-64662240D01*
X149691698Y-63835976D02*
X150167236Y-63811054D01*
X150167236Y-63811054D02*
X150239712Y-64284099D01*
X150239712Y-64284099D02*
X150189666Y-64239038D01*
X150189666Y-64239038D02*
X150092066Y-64196468D01*
X150092066Y-64196468D02*
X149854297Y-64208929D01*
X149854297Y-64208929D02*
X149761682Y-64261467D01*
X149761682Y-64261467D02*
X149716620Y-64311513D01*
X149716620Y-64311513D02*
X149674051Y-64409113D01*
X149674051Y-64409113D02*
X149686512Y-64646882D01*
X149686512Y-64646882D02*
X149739050Y-64739497D01*
X149739050Y-64739497D02*
X149789096Y-64784559D01*
X149789096Y-64784559D02*
X149886696Y-64827128D01*
X149886696Y-64827128D02*
X150124465Y-64814668D01*
X150124465Y-64814668D02*
X150217080Y-64762129D01*
X150217080Y-64762129D02*
X150262142Y-64712083D01*
X197119739Y-144729619D02*
X197119739Y-143729619D01*
X197119739Y-143729619D02*
X196881644Y-143729619D01*
X196881644Y-143729619D02*
X196738787Y-143777238D01*
X196738787Y-143777238D02*
X196643549Y-143872476D01*
X196643549Y-143872476D02*
X196595930Y-143967714D01*
X196595930Y-143967714D02*
X196548311Y-144158190D01*
X196548311Y-144158190D02*
X196548311Y-144301047D01*
X196548311Y-144301047D02*
X196595930Y-144491523D01*
X196595930Y-144491523D02*
X196643549Y-144586761D01*
X196643549Y-144586761D02*
X196738787Y-144682000D01*
X196738787Y-144682000D02*
X196881644Y-144729619D01*
X196881644Y-144729619D02*
X197119739Y-144729619D01*
X195595930Y-144729619D02*
X196167358Y-144729619D01*
X195881644Y-144729619D02*
X195881644Y-143729619D01*
X195881644Y-143729619D02*
X195976882Y-143872476D01*
X195976882Y-143872476D02*
X196072120Y-143967714D01*
X196072120Y-143967714D02*
X196167358Y-144015333D01*
X195262596Y-143729619D02*
X194595930Y-143729619D01*
X194595930Y-143729619D02*
X195024501Y-144729619D01*
X110237543Y-129785604D02*
X110081108Y-128797915D01*
X110081108Y-128797915D02*
X109845944Y-128835162D01*
X109845944Y-128835162D02*
X109712295Y-128904542D01*
X109712295Y-128904542D02*
X109633128Y-129013506D01*
X109633128Y-129013506D02*
X109600994Y-129115021D01*
X109600994Y-129115021D02*
X109583758Y-129310602D01*
X109583758Y-129310602D02*
X109606106Y-129451700D01*
X109606106Y-129451700D02*
X109682936Y-129632382D01*
X109682936Y-129632382D02*
X109744867Y-129718998D01*
X109744867Y-129718998D02*
X109853831Y-129798165D01*
X109853831Y-129798165D02*
X110002379Y-129822850D01*
X110002379Y-129822850D02*
X110237543Y-129785604D01*
X109155351Y-129040966D02*
X109100869Y-129001383D01*
X109100869Y-129001383D02*
X108999354Y-128969248D01*
X108999354Y-128969248D02*
X108764191Y-129006495D01*
X108764191Y-129006495D02*
X108677574Y-129068426D01*
X108677574Y-129068426D02*
X108637991Y-129122908D01*
X108637991Y-129122908D02*
X108605856Y-129224423D01*
X108605856Y-129224423D02*
X108620755Y-129318488D01*
X108620755Y-129318488D02*
X108690136Y-129452138D01*
X108690136Y-129452138D02*
X109343920Y-129927140D01*
X109343920Y-129927140D02*
X108732494Y-130023980D01*
X108246830Y-129088437D02*
X107635404Y-129185277D01*
X107635404Y-129185277D02*
X108024227Y-129509394D01*
X108024227Y-129509394D02*
X107883129Y-129531742D01*
X107883129Y-129531742D02*
X107796513Y-129593674D01*
X107796513Y-129593674D02*
X107756929Y-129648156D01*
X107756929Y-129648156D02*
X107724795Y-129749670D01*
X107724795Y-129749670D02*
X107762041Y-129984834D01*
X107762041Y-129984834D02*
X107823973Y-130071451D01*
X107823973Y-130071451D02*
X107878455Y-130111034D01*
X107878455Y-130111034D02*
X107979969Y-130143168D01*
X107979969Y-130143168D02*
X108262166Y-130098473D01*
X108262166Y-130098473D02*
X108348782Y-130036541D01*
X108348782Y-130036541D02*
X108388366Y-129982059D01*
X295847012Y-124729619D02*
X295847012Y-123729619D01*
X295847012Y-123729619D02*
X295608917Y-123729619D01*
X295608917Y-123729619D02*
X295466060Y-123777238D01*
X295466060Y-123777238D02*
X295370822Y-123872476D01*
X295370822Y-123872476D02*
X295323203Y-123967714D01*
X295323203Y-123967714D02*
X295275584Y-124158190D01*
X295275584Y-124158190D02*
X295275584Y-124301047D01*
X295275584Y-124301047D02*
X295323203Y-124491523D01*
X295323203Y-124491523D02*
X295370822Y-124586761D01*
X295370822Y-124586761D02*
X295466060Y-124682000D01*
X295466060Y-124682000D02*
X295608917Y-124729619D01*
X295608917Y-124729619D02*
X295847012Y-124729619D01*
X294942250Y-123729619D02*
X294275584Y-123729619D01*
X294275584Y-123729619D02*
X294704155Y-124729619D01*
X293704155Y-123729619D02*
X293608917Y-123729619D01*
X293608917Y-123729619D02*
X293513679Y-123777238D01*
X293513679Y-123777238D02*
X293466060Y-123824857D01*
X293466060Y-123824857D02*
X293418441Y-123920095D01*
X293418441Y-123920095D02*
X293370822Y-124110571D01*
X293370822Y-124110571D02*
X293370822Y-124348666D01*
X293370822Y-124348666D02*
X293418441Y-124539142D01*
X293418441Y-124539142D02*
X293466060Y-124634380D01*
X293466060Y-124634380D02*
X293513679Y-124682000D01*
X293513679Y-124682000D02*
X293608917Y-124729619D01*
X293608917Y-124729619D02*
X293704155Y-124729619D01*
X293704155Y-124729619D02*
X293799393Y-124682000D01*
X293799393Y-124682000D02*
X293847012Y-124634380D01*
X293847012Y-124634380D02*
X293894631Y-124539142D01*
X293894631Y-124539142D02*
X293942250Y-124348666D01*
X293942250Y-124348666D02*
X293942250Y-124110571D01*
X293942250Y-124110571D02*
X293894631Y-123920095D01*
X293894631Y-123920095D02*
X293847012Y-123824857D01*
X293847012Y-123824857D02*
X293799393Y-123777238D01*
X293799393Y-123777238D02*
X293704155Y-123729619D01*
X136456113Y-166000828D02*
X136351585Y-165006306D01*
X136351585Y-165006306D02*
X136114794Y-165031194D01*
X136114794Y-165031194D02*
X135977697Y-165093485D01*
X135977697Y-165093485D02*
X135892936Y-165198156D01*
X135892936Y-165198156D02*
X135855533Y-165297850D01*
X135855533Y-165297850D02*
X135828085Y-165492260D01*
X135828085Y-165492260D02*
X135843017Y-165634335D01*
X135843017Y-165634335D02*
X135910286Y-165818790D01*
X135910286Y-165818790D02*
X135967599Y-165908529D01*
X135967599Y-165908529D02*
X136072270Y-165993290D01*
X136072270Y-165993290D02*
X136219323Y-166025716D01*
X136219323Y-166025716D02*
X136456113Y-166000828D01*
X134965682Y-165487140D02*
X135035368Y-166150154D01*
X135162653Y-165083387D02*
X135474107Y-165768872D01*
X135474107Y-165768872D02*
X134858450Y-165833580D01*
D11*
%TO.C,D11*%
X67479877Y-156026917D02*
X71353240Y-154989053D01*
X67997515Y-157958769D02*
X67479877Y-156026917D01*
X67997515Y-157958769D02*
X71870878Y-156920904D01*
%TO.C,D50*%
X252181818Y-81274800D02*
X256191818Y-81274800D01*
X252181818Y-83274800D02*
X252181818Y-81274800D01*
X252181818Y-83274800D02*
X256191818Y-83274800D01*
%TO.C,D54*%
X122119138Y-63591547D02*
X126107171Y-63172388D01*
X122328195Y-65580591D02*
X122119138Y-63591547D01*
X122328195Y-65580591D02*
X126316228Y-65161432D01*
%TO.C,D30*%
X253000000Y-121274800D02*
X257010000Y-121274800D01*
X253000000Y-123274800D02*
X253000000Y-121274800D01*
X253000000Y-123274800D02*
X257010000Y-123274800D01*
%TO.C,D51*%
X46679877Y-78426917D02*
X50553240Y-77389053D01*
X47197515Y-80358769D02*
X46679877Y-78426917D01*
X47197515Y-80358769D02*
X51070878Y-79320904D01*
%TO.C,D16*%
X174000000Y-141274800D02*
X178010000Y-141274800D01*
X174000000Y-143274800D02*
X174000000Y-141274800D01*
X174000000Y-143274800D02*
X178010000Y-143274800D01*
%TO.C,D5*%
X153810443Y-161091683D02*
X157814948Y-160881816D01*
X153915115Y-163088942D02*
X153810443Y-161091683D01*
X153915115Y-163088942D02*
X157919620Y-162879075D01*
%TO.C,D48*%
X213090909Y-81274800D02*
X217100909Y-81274800D01*
X213090909Y-83274800D02*
X213090909Y-81274800D01*
X213090909Y-83274800D02*
X217100909Y-83274800D01*
%TO.C,D26*%
X174454545Y-121274800D02*
X178464545Y-121274800D01*
X174454545Y-123274800D02*
X174454545Y-121274800D01*
X174454545Y-123274800D02*
X178464545Y-123274800D01*
%TO.C,D42*%
X75722107Y-91978551D02*
X79644479Y-91144825D01*
X76137930Y-93934846D02*
X75722107Y-91978551D01*
X76137930Y-93934846D02*
X80060302Y-93101120D01*
%TO.C,D2*%
X92322107Y-170378551D02*
X96244479Y-169544825D01*
X92737930Y-172334846D02*
X92322107Y-170378551D01*
X92737930Y-172334846D02*
X96660302Y-171501120D01*
%TO.C,D63*%
X272045454Y-101274800D02*
X276055454Y-101274800D01*
X272045454Y-103274800D02*
X272045454Y-101274800D01*
X272045454Y-103274800D02*
X276055454Y-103274800D01*
%TO.C,D33*%
X102966810Y-107132461D02*
X106927440Y-106505159D01*
X103279679Y-109107838D02*
X102966810Y-107132461D01*
X103279679Y-109107838D02*
X107240309Y-108480534D01*
%TO.C,D39*%
X232890909Y-101274800D02*
X236900909Y-101274800D01*
X232890909Y-103274800D02*
X232890909Y-101274800D01*
X232890909Y-103274800D02*
X236900909Y-103274800D01*
%TO.C,D44*%
X124223684Y-83591547D02*
X128211717Y-83172388D01*
X124432741Y-85580591D02*
X124223684Y-83591547D01*
X124432741Y-85580591D02*
X128420774Y-85161432D01*
%TO.C,D58*%
X213313636Y-61274800D02*
X217323636Y-61274800D01*
X213313636Y-63274800D02*
X213313636Y-61274800D01*
X213313636Y-63274800D02*
X217323636Y-63274800D01*
%TO.C,D15*%
X152392261Y-141909683D02*
X156396766Y-141699816D01*
X152496933Y-143906942D02*
X152392261Y-141909683D01*
X152496933Y-143906942D02*
X156501438Y-143697075D01*
%TO.C,D67*%
X291622727Y-61274800D02*
X295632727Y-61274800D01*
X291622727Y-63274800D02*
X291622727Y-61274800D01*
X291622727Y-63274800D02*
X295632727Y-63274800D01*
%TO.C,D65*%
X271727272Y-141274800D02*
X275737272Y-141274800D01*
X271727272Y-143274800D02*
X271727272Y-141274800D01*
X271727272Y-143274800D02*
X275737272Y-143274800D01*
%TO.C,D18*%
X213090909Y-141274800D02*
X217100909Y-141274800D01*
X213090909Y-143274800D02*
X213090909Y-141274800D01*
X213090909Y-143274800D02*
X217100909Y-143274800D01*
%TO.C,D24*%
X128840502Y-123776747D02*
X132828535Y-123357588D01*
X129049559Y-125765791D02*
X128840502Y-123776747D01*
X129049559Y-125765791D02*
X133037592Y-125346632D01*
%TO.C,D22*%
X84122107Y-131378551D02*
X88044479Y-130544825D01*
X84537930Y-133334846D02*
X84122107Y-131378551D01*
X84537930Y-133334846D02*
X88460302Y-132501120D01*
%TO.C,D57*%
X193736363Y-61274800D02*
X197746363Y-61274800D01*
X193736363Y-63274800D02*
X193736363Y-61274800D01*
X193736363Y-63274800D02*
X197746363Y-63274800D01*
%TO.C,D6*%
X174272727Y-160456800D02*
X178282727Y-160456800D01*
X174272727Y-162456800D02*
X174272727Y-160456800D01*
X174272727Y-162456800D02*
X178282727Y-162456800D01*
%TO.C,D21*%
X62279877Y-136626917D02*
X66153240Y-135589053D01*
X62797515Y-138558769D02*
X62279877Y-136626917D01*
X62797515Y-138558769D02*
X66670878Y-137520904D01*
%TO.C,D56*%
X174159091Y-61274800D02*
X178169091Y-61274800D01*
X174159091Y-63274800D02*
X174159091Y-61274800D01*
X174159091Y-63274800D02*
X178169091Y-63274800D01*
%TO.C,D20*%
X252181818Y-141274800D02*
X256191818Y-141274800D01*
X252181818Y-143274800D02*
X252181818Y-141274800D01*
X252181818Y-143274800D02*
X256191818Y-143274800D01*
%TO.C,D38*%
X213313636Y-101274800D02*
X217323636Y-101274800D01*
X213313636Y-103274800D02*
X213313636Y-101274800D01*
X213313636Y-103274800D02*
X217323636Y-103274800D01*
%TO.C,D45*%
X149491806Y-81444483D02*
X153496311Y-81234616D01*
X149596478Y-83441742D02*
X149491806Y-81444483D01*
X149596478Y-83441742D02*
X153600983Y-83231875D01*
%TO.C,D69*%
X291622727Y-101274800D02*
X295632727Y-101274800D01*
X291622727Y-103274800D02*
X291622727Y-101274800D01*
X291622727Y-103274800D02*
X295632727Y-103274800D01*
%TO.C,D59*%
X232890909Y-61274800D02*
X236900909Y-61274800D01*
X232890909Y-63274800D02*
X232890909Y-61274800D01*
X232890909Y-63274800D02*
X236900909Y-63274800D01*
%TO.C,D53*%
X96566810Y-67332461D02*
X100527440Y-66705159D01*
X96879679Y-69307838D02*
X96566810Y-67332461D01*
X96879679Y-69307838D02*
X100840309Y-68680534D01*
%TO.C,D31*%
X57092321Y-117081019D02*
X60965684Y-116043155D01*
X57609959Y-119012871D02*
X57092321Y-117081019D01*
X57609959Y-119012871D02*
X61483322Y-117975006D01*
%TO.C,D28*%
X213727272Y-121274800D02*
X217737272Y-121274800D01*
X213727272Y-123274800D02*
X213727272Y-121274800D01*
X213727272Y-123274800D02*
X217737272Y-123274800D01*
%TO.C,D52*%
X71522107Y-72378551D02*
X75444479Y-71544825D01*
X71937930Y-74334846D02*
X71522107Y-72378551D01*
X71937930Y-74334846D02*
X75860302Y-73501120D01*
%TO.C,D1*%
X72573902Y-175183687D02*
X76447265Y-174145823D01*
X73091540Y-177115539D02*
X72573902Y-175183687D01*
X73091540Y-177115539D02*
X76964903Y-176077674D01*
%TO.C,D62*%
X271727272Y-81274800D02*
X275737272Y-81274800D01*
X271727272Y-83274800D02*
X271727272Y-81274800D01*
X271727272Y-83274800D02*
X275737272Y-83274800D01*
%TO.C,D40*%
X252468182Y-101274800D02*
X256478182Y-101274800D01*
X252468182Y-103274800D02*
X252468182Y-101274800D01*
X252468182Y-103274800D02*
X256478182Y-103274800D01*
%TO.C,D32*%
X79922107Y-111578551D02*
X83844479Y-110744825D01*
X80337930Y-113534846D02*
X79922107Y-111578551D01*
X80337930Y-113534846D02*
X84260302Y-112701120D01*
%TO.C,D34*%
X126519138Y-103671547D02*
X130507171Y-103252388D01*
X126728195Y-105660591D02*
X126519138Y-103671547D01*
X126728195Y-105660591D02*
X130716228Y-105241432D01*
%TO.C,D27*%
X194090909Y-121274800D02*
X198100909Y-121274800D01*
X194090909Y-123274800D02*
X194090909Y-121274800D01*
X194090909Y-123274800D02*
X198100909Y-123274800D01*
%TO.C,D13*%
X109209966Y-146900968D02*
X113170596Y-146273666D01*
X109522835Y-148876345D02*
X109209966Y-146900968D01*
X109522835Y-148876345D02*
X113483465Y-148249041D01*
%TO.C,D47*%
X193545454Y-81274800D02*
X197555454Y-81274800D01*
X193545454Y-83274800D02*
X193545454Y-81274800D01*
X193545454Y-83274800D02*
X197555454Y-83274800D01*
%TO.C,D49*%
X232636363Y-81274800D02*
X236646363Y-81274800D01*
X232636363Y-83274800D02*
X232636363Y-81274800D01*
X232636363Y-83274800D02*
X236646363Y-83274800D01*
%TO.C,D35*%
X150619079Y-101524483D02*
X154623584Y-101314616D01*
X150723751Y-103521742D02*
X150619079Y-101524483D01*
X150723751Y-103521742D02*
X154728256Y-103311875D01*
%TO.C,D60*%
X252468182Y-61274800D02*
X256478182Y-61274800D01*
X252468182Y-63274800D02*
X252468182Y-61274800D01*
X252468182Y-63274800D02*
X256478182Y-63274800D01*
%TO.C,D3*%
X112566810Y-166532461D02*
X116527440Y-165905159D01*
X112879679Y-168507838D02*
X112566810Y-166532461D01*
X112879679Y-168507838D02*
X116840309Y-167880534D01*
%TO.C,D36*%
X174159091Y-101274800D02*
X178169091Y-101274800D01*
X174159091Y-103274800D02*
X174159091Y-101274800D01*
X174159091Y-103274800D02*
X178169091Y-103274800D01*
%TO.C,D29*%
X233363636Y-121274800D02*
X237373636Y-121274800D01*
X233363636Y-123274800D02*
X233363636Y-121274800D01*
X233363636Y-123274800D02*
X237373636Y-123274800D01*
%TO.C,D19*%
X232636363Y-141274800D02*
X236646363Y-141274800D01*
X232636363Y-143274800D02*
X232636363Y-141274800D01*
X232636363Y-143274800D02*
X236646363Y-143274800D01*
%TO.C,D61*%
X272045454Y-61274800D02*
X276055454Y-61274800D01*
X272045454Y-63274800D02*
X272045454Y-61274800D01*
X272045454Y-63274800D02*
X276055454Y-63274800D01*
%TO.C,D46*%
X174000000Y-81274800D02*
X178010000Y-81274800D01*
X174000000Y-83274800D02*
X174000000Y-81274800D01*
X174000000Y-83274800D02*
X178010000Y-83274800D01*
%TO.C,D64*%
X272636363Y-121274800D02*
X276646363Y-121274800D01*
X272636363Y-123274800D02*
X272636363Y-121274800D01*
X272636363Y-123274800D02*
X276646363Y-123274800D01*
%TO.C,D25*%
X151755898Y-121829683D02*
X155760403Y-121619816D01*
X151860570Y-123826942D02*
X151755898Y-121829683D01*
X151860570Y-123826942D02*
X155865075Y-123617075D01*
%TO.C,D68*%
X291272727Y-81274800D02*
X295282727Y-81274800D01*
X291272727Y-83274800D02*
X291272727Y-81274800D01*
X291272727Y-83274800D02*
X295282727Y-83274800D01*
%TO.C,D71*%
X291272727Y-141274800D02*
X295282727Y-141274800D01*
X291272727Y-143274800D02*
X291272727Y-141274800D01*
X291272727Y-143274800D02*
X295282727Y-143274800D01*
D12*
%TO.C,U1*%
X57538267Y-59719877D02*
X70582648Y-121088858D01*
X70582648Y-121088858D02*
X97677336Y-115329704D01*
X84626719Y-53931379D02*
X57538267Y-59719877D01*
X97683573Y-115359048D02*
X84639192Y-53990068D01*
D13*
X69398189Y-119932646D02*
G75*
G02*
X69198187Y-119932646I-100001J0D01*
G01*
X69198187Y-119932646D02*
G75*
G02*
X69398189Y-119932646I100001J0D01*
G01*
D11*
%TO.C,D12*%
X88122107Y-150978551D02*
X92044479Y-150144825D01*
X88537930Y-152934846D02*
X88122107Y-150978551D01*
X88537930Y-152934846D02*
X92460302Y-152101120D01*
%TO.C,D43*%
X99566810Y-87132461D02*
X103527440Y-86505159D01*
X99879679Y-89107838D02*
X99566810Y-87132461D01*
X99879679Y-89107838D02*
X103840309Y-88480534D01*
%TO.C,D37*%
X193736363Y-101274800D02*
X197746363Y-101274800D01*
X193736363Y-103274800D02*
X193736363Y-101274800D01*
X193736363Y-103274800D02*
X197746363Y-103274800D01*
%TO.C,D14*%
X130687775Y-143856747D02*
X134675808Y-143437588D01*
X130896832Y-145845791D02*
X130687775Y-143856747D01*
X130896832Y-145845791D02*
X134884865Y-145426632D01*
%TO.C,D41*%
X51879877Y-97826917D02*
X55753240Y-96789053D01*
X52397515Y-99758769D02*
X51879877Y-97826917D01*
X52397515Y-99758769D02*
X56270878Y-98720904D01*
%TO.C,D55*%
X148419079Y-61444483D02*
X152423584Y-61234616D01*
X148523751Y-63441742D02*
X148419079Y-61444483D01*
X148523751Y-63441742D02*
X152528256Y-63231875D01*
%TO.C,D17*%
X193545454Y-141274800D02*
X197555454Y-141274800D01*
X193545454Y-143274800D02*
X193545454Y-141274800D01*
X193545454Y-143274800D02*
X197555454Y-143274800D01*
%TO.C,D23*%
X106166810Y-126932461D02*
X110127440Y-126305159D01*
X106479679Y-128907838D02*
X106166810Y-126932461D01*
X106479679Y-128907838D02*
X110440309Y-128280534D01*
%TO.C,D70*%
X292272727Y-121274800D02*
X296282727Y-121274800D01*
X292272727Y-123274800D02*
X292272727Y-121274800D01*
X292272727Y-123274800D02*
X296282727Y-123274800D01*
%TO.C,D4*%
X133013864Y-162888774D02*
X137001897Y-162469615D01*
X133222921Y-164877818D02*
X133013864Y-162888774D01*
X133222921Y-164877818D02*
X137210954Y-164458659D01*
%TD*%
M02*
