%TF.GenerationSoftware,KiCad,Pcbnew,9.0.2*%
%TF.CreationDate,2025-07-31T22:53:19+02:00*%
%TF.ProjectId,multiboard_RIGHT,6d756c74-6962-46f6-9172-645f52494748,1.0*%
%TF.SameCoordinates,Original*%
%TF.FileFunction,Copper,L1,Top*%
%TF.FilePolarity,Positive*%
%FSLAX46Y46*%
G04 Gerber Fmt 4.6, Leading zero omitted, Abs format (unit mm)*
G04 Created by KiCad (PCBNEW 9.0.2) date 2025-07-31 22:53:19*
%MOMM*%
%LPD*%
G01*
G04 APERTURE LIST*
G04 Aperture macros list*
%AMRotRect*
0 Rectangle, with rotation*
0 The origin of the aperture is its center*
0 $1 length*
0 $2 width*
0 $3 Rotation angle, in degrees counterclockwise*
0 Add horizontal line*
21,1,$1,$2,0,0,$3*%
G04 Aperture macros list end*
%TA.AperFunction,ComponentPad*%
%ADD10RotRect,1.700000X1.700000X11.000000*%
%TD*%
%TA.AperFunction,ComponentPad*%
%ADD11C,1.700000*%
%TD*%
%TA.AperFunction,SMDPad,CuDef*%
%ADD12RotRect,1.200000X2.500000X15.000000*%
%TD*%
%TA.AperFunction,ComponentPad*%
%ADD13RotRect,1.530000X1.530000X12.000000*%
%TD*%
%TA.AperFunction,ComponentPad*%
%ADD14C,1.530000*%
%TD*%
%TA.AperFunction,ViaPad*%
%ADD15C,0.600000*%
%TD*%
%TA.AperFunction,Conductor*%
%ADD16C,0.200000*%
%TD*%
G04 APERTURE END LIST*
D10*
%TO.P,J1,1,Pin_1*%
%TO.N,GND*%
X83515345Y-38506667D03*
D11*
%TO.P,J1,2,Pin_2*%
%TO.N,+3V3*%
X84000000Y-41000000D03*
%TO.P,J1,3,Pin_3*%
%TO.N,SCL*%
X84484655Y-43493333D03*
%TO.P,J1,4,Pin_4*%
%TO.N,SDA*%
X84969310Y-45986666D03*
%TD*%
D12*
%TO.P,J2,1*%
%TO.N,GND*%
X42810642Y-53928714D03*
%TO.P,J2,2*%
%TO.N,TX*%
X40065800Y-47934897D03*
%TO.P,J2,3*%
%TO.N,+3V3*%
X36202097Y-48970173D03*
%TO.P,J2,4*%
%TO.N,RX*%
X33304319Y-49746630D03*
%TD*%
D13*
%TO.P,U1,J1_1,3V3*%
%TO.N,+3V3*%
X71533819Y-119455403D03*
D14*
%TO.P,U1,J1_2,3V3*%
X71005722Y-116970910D03*
%TO.P,U1,J1_3,RST*%
%TO.N,unconnected-(U1-RST-PadJ1_3)*%
X70477627Y-114486413D03*
%TO.P,U1,J1_4,GPIO4*%
%TO.N,ROW1*%
X69949531Y-112001918D03*
%TO.P,U1,J1_5,GPIO5*%
%TO.N,ROW2*%
X69421435Y-109517423D03*
%TO.P,U1,J1_6,GPIO6*%
%TO.N,ROW3*%
X68893340Y-107032928D03*
%TO.P,U1,J1_7,GPIO7*%
%TO.N,ROW4*%
X68365245Y-104548434D03*
%TO.P,U1,J1_8,GPIO15*%
%TO.N,ROW12*%
X67837148Y-102063939D03*
%TO.P,U1,J1_9,GPIO16*%
%TO.N,COL1*%
X67309053Y-99579444D03*
%TO.P,U1,J1_10,GPIO17*%
%TO.N,COL2*%
X66780957Y-97094949D03*
%TO.P,U1,J1_11,GPIO18*%
%TO.N,COL3*%
X66252861Y-94610454D03*
%TO.P,U1,J1_12,GPIO8*%
%TO.N,ROW5*%
X65724765Y-92125959D03*
%TO.P,U1,J1_13,GPIO3*%
%TO.N,unconnected-(U1-GPIO3-PadJ1_13)*%
X65196670Y-89641464D03*
%TO.P,U1,J1_14,GPIO46*%
%TO.N,unconnected-(U1-GPIO46-PadJ1_14)*%
X64668575Y-87156969D03*
%TO.P,U1,J1_15,GPIO9*%
%TO.N,ROW6*%
X64140478Y-84672474D03*
%TO.P,U1,J1_16,GPIO10*%
%TO.N,ROW7*%
X63612383Y-82187979D03*
%TO.P,U1,J1_17,GPIO11*%
%TO.N,ROW8*%
X63084287Y-79703484D03*
%TO.P,U1,J1_18,GPIO12*%
%TO.N,ROW9*%
X62556191Y-77218990D03*
%TO.P,U1,J1_19,GPIO13*%
%TO.N,ROW10*%
X62028096Y-74734495D03*
%TO.P,U1,J1_20,GPIO14*%
%TO.N,ROW11*%
X61500000Y-72250000D03*
%TO.P,U1,J1_21,5V0*%
%TO.N,unconnected-(U1-5V0-PadJ1_21)*%
X60971904Y-69765505D03*
%TO.P,U1,J1_22,GND*%
%TO.N,GND*%
X60443809Y-67281010D03*
%TO.P,U1,J3_1,GND*%
X96016853Y-114251374D03*
%TO.P,U1,J3_2,U0TXD/GPIO43*%
%TO.N,TX*%
X95488755Y-111766879D03*
%TO.P,U1,J3_3,U0RXD/GPIO44*%
%TO.N,RX*%
X94960660Y-109282384D03*
%TO.P,U1,J3_4,GPIO1*%
%TO.N,unconnected-(U1-GPIO1-PadJ3_4)*%
X94432565Y-106797890D03*
%TO.P,U1,J3_5,GPIO2*%
%TO.N,unconnected-(U1-GPIO2-PadJ3_5)*%
X93904468Y-104313395D03*
%TO.P,U1,J3_6,MTMS/GPIO42*%
%TO.N,unconnected-(U1-MTMS{slash}GPIO42-PadJ3_6)*%
X93376374Y-101828900D03*
%TO.P,U1,J3_7,MTDI/GPIO41*%
%TO.N,unconnected-(U1-MTDI{slash}GPIO41-PadJ3_7)*%
X92848278Y-99344404D03*
%TO.P,U1,J3_8,MTDO/GPIO40*%
%TO.N,unconnected-(U1-MTDO{slash}GPIO40-PadJ3_8)*%
X92320182Y-96859909D03*
%TO.P,U1,J3_9,MTCK/GPIO39*%
%TO.N,unconnected-(U1-MTCK{slash}GPIO39-PadJ3_9)*%
X91792086Y-94375415D03*
%TO.P,U1,J3_10,GPIO38*%
%TO.N,SCL*%
X91263991Y-91890920D03*
%TO.P,U1,J3_11,GPIO37*%
%TO.N,SDA*%
X90735895Y-89406425D03*
%TO.P,U1,J3_12,GPIO36*%
%TO.N,COL5*%
X90207798Y-86921930D03*
%TO.P,U1,J3_13,GPIO35*%
%TO.N,COL6*%
X89679703Y-84437435D03*
%TO.P,U1,J3_14,GPIO0*%
%TO.N,unconnected-(U1-GPIO0-PadJ3_14)*%
X89151608Y-81952940D03*
%TO.P,U1,J3_15,GPIO45*%
%TO.N,unconnected-(U1-GPIO45-PadJ3_15)*%
X88623512Y-79468446D03*
%TO.P,U1,J3_16,GPIO48*%
%TO.N,unconnected-(U1-GPIO48-PadJ3_16)*%
X88095417Y-76983951D03*
%TO.P,U1,J3_17,GPIO47*%
%TO.N,unconnected-(U1-GPIO47-PadJ3_17)*%
X87567323Y-74499456D03*
%TO.P,U1,J3_18,GPIO21*%
%TO.N,COL4*%
X87039225Y-72014960D03*
%TO.P,U1,J3_19,USB_D+/GPIO20*%
%TO.N,unconnected-(U1-USB_D+{slash}GPIO20-PadJ3_19)*%
X86511129Y-69530466D03*
%TO.P,U1,J3_20,USB_D-/GPIO19*%
%TO.N,unconnected-(U1-USB_D-{slash}GPIO19-PadJ3_20)*%
X85983034Y-67045971D03*
%TO.P,U1,J3_21,GND*%
%TO.N,GND*%
X85454938Y-64561476D03*
%TO.P,U1,J3_22,GND*%
X84926842Y-62076981D03*
%TD*%
D15*
%TO.N,ROW1*%
X65500000Y-165750000D03*
X56000000Y-127250000D03*
X60500000Y-145250000D03*
X42500000Y-77750000D03*
X65500000Y-116750000D03*
X51000000Y-107250000D03*
X46000000Y-88750000D03*
%TO.N,COL1*%
X106000000Y-165750000D03*
X91500000Y-106000000D03*
%TO.N,COL2*%
X98000000Y-153250000D03*
X88000000Y-96750000D03*
%TO.N,ROW2*%
X78000000Y-130250000D03*
X71500000Y-90250000D03*
X68500000Y-80250000D03*
X74707449Y-107750000D03*
X81500000Y-147250000D03*
X75000000Y-123000000D03*
X84500000Y-159750000D03*
%TO.N,ROW3*%
X103500000Y-146250000D03*
X93750000Y-83500000D03*
X96500000Y-98250000D03*
X90500000Y-64658044D03*
X101000000Y-123750000D03*
X105500000Y-156750000D03*
X103000000Y-166250000D03*
X67800000Y-116250000D03*
%TO.N,ROW4*%
X110000000Y-49250000D03*
X119000000Y-97750000D03*
X124000000Y-132250000D03*
X118000000Y-61750000D03*
X122500000Y-113250000D03*
X118000000Y-79750000D03*
X127500000Y-154000000D03*
%TO.N,ROW5*%
X130500000Y-81250000D03*
X142500000Y-79250000D03*
X139500000Y-64250000D03*
X144500000Y-109750000D03*
X86500000Y-86250000D03*
X112500000Y-82250000D03*
X143500000Y-97250000D03*
X108500000Y-82250000D03*
X146000000Y-130750000D03*
X146500000Y-150750000D03*
X81500000Y-89750000D03*
%TO.N,ROW6*%
X165500000Y-58250000D03*
X167500000Y-70750000D03*
X95500000Y-89750000D03*
X167500000Y-110750000D03*
X157500000Y-99750000D03*
X118000000Y-87250000D03*
X167500000Y-130250000D03*
X111000000Y-86250000D03*
X137000000Y-90250000D03*
X167000000Y-90750000D03*
X167000000Y-151250000D03*
X74000000Y-94250000D03*
X83200000Y-95250000D03*
%TO.N,COL3*%
X51500000Y-103250000D03*
X58500000Y-99250000D03*
%TO.N,COL4*%
X94500000Y-95450000D03*
%TO.N,ROW7*%
X187500000Y-56750000D03*
X178500000Y-66250000D03*
X187000000Y-130750000D03*
X84500000Y-73750000D03*
X187500000Y-90750000D03*
X187500000Y-110250000D03*
X187500000Y-71250000D03*
%TO.N,ROW8*%
X207500000Y-110250000D03*
X81500000Y-75250000D03*
X207000000Y-130750000D03*
X207500000Y-90750000D03*
X207500000Y-58750000D03*
X207500000Y-71250000D03*
X202500000Y-67250000D03*
%TO.N,ROW9*%
X227000000Y-110250000D03*
X227000000Y-90750000D03*
X226500000Y-130750000D03*
X124500000Y-50250000D03*
X227000000Y-58750000D03*
X227000000Y-71250000D03*
%TO.N,ROW10*%
X245750000Y-110250000D03*
X247000000Y-51750000D03*
X246000000Y-90750000D03*
X246000000Y-71250000D03*
X245500000Y-130750000D03*
%TO.N,GND*%
X46000000Y-54600000D03*
%TO.N,TX*%
X76000000Y-114000000D03*
X46000000Y-49000000D03*
X84000000Y-115000000D03*
X67000000Y-81000000D03*
X92000000Y-111000000D03*
X71000000Y-100000000D03*
%TO.N,RX*%
X96000000Y-121000000D03*
X57000000Y-140000000D03*
X84000000Y-138000000D03*
%TO.N,ROW11*%
X266000000Y-90750000D03*
X119000000Y-48250000D03*
X265000000Y-59250000D03*
X266000000Y-71250000D03*
X265500000Y-130750000D03*
X266000000Y-110250000D03*
%TO.N,ROW12*%
X285000000Y-109750000D03*
X286125000Y-71375000D03*
X285064545Y-89814545D03*
X285500000Y-130750000D03*
X285750000Y-51000000D03*
%TO.N,SDA*%
X97500000Y-89250000D03*
X108500000Y-56750000D03*
%TO.N,SCL*%
X111000000Y-56750000D03*
X97000000Y-91250000D03*
%TD*%
D16*
%TO.N,ROW1*%
X57000000Y-114750000D02*
X62500000Y-114750000D01*
X59000000Y-143750000D02*
X59000000Y-139250000D01*
X48500000Y-115750000D02*
X48500000Y-104250000D01*
X54000000Y-121250000D02*
X49000000Y-116250000D01*
X54000000Y-125250000D02*
X54000000Y-124250000D01*
X54000000Y-124250000D02*
X54000000Y-122750000D01*
X59000000Y-152250000D02*
X59000000Y-143750000D01*
X65500000Y-165750000D02*
X65500000Y-158750000D01*
X61500000Y-154750000D02*
X59000000Y-152250000D01*
X43500000Y-87750000D02*
X43500000Y-85750000D01*
X59000000Y-137750000D02*
X55000000Y-133750000D01*
X60500000Y-145250000D02*
X59000000Y-143750000D01*
X43500000Y-94250000D02*
X43500000Y-87750000D01*
X43500000Y-86250000D02*
X43500000Y-85750000D01*
X54000000Y-122750000D02*
X54000000Y-121250000D01*
X62500000Y-114750000D02*
X63500000Y-114750000D01*
X46000000Y-88750000D02*
X43500000Y-86250000D01*
X51000000Y-107250000D02*
X48500000Y-104750000D01*
X54000000Y-117750000D02*
X56500000Y-115250000D01*
X55000000Y-133750000D02*
X54000000Y-132750000D01*
X63500000Y-114750000D02*
X65500000Y-116750000D01*
X65500000Y-158750000D02*
X61500000Y-154750000D01*
X43500000Y-78750000D02*
X42500000Y-77750000D01*
X48500000Y-104750000D02*
X48500000Y-104250000D01*
X56000000Y-127250000D02*
X54000000Y-125250000D01*
X54000000Y-132750000D02*
X54000000Y-124250000D01*
X54000000Y-121250000D02*
X54000000Y-117750000D01*
X49000000Y-116250000D02*
X48500000Y-115750000D01*
X48500000Y-99250000D02*
X43500000Y-94250000D01*
X43500000Y-85750000D02*
X43500000Y-78750000D01*
X48500000Y-104250000D02*
X48500000Y-99250000D01*
X59000000Y-139250000D02*
X59000000Y-137750000D01*
X56500000Y-115250000D02*
X57000000Y-114750000D01*
%TO.N,COL1*%
X103000000Y-162750000D02*
X106000000Y-165750000D01*
X98000000Y-118989395D02*
X98000000Y-129750000D01*
X90000000Y-108909045D02*
X90000000Y-110989395D01*
X103000000Y-155750000D02*
X103000000Y-162750000D01*
X100000000Y-152750000D02*
X103000000Y-155750000D01*
X98000000Y-129750000D02*
X100000000Y-131750000D01*
X91500000Y-106000000D02*
X91500000Y-107409045D01*
X90000000Y-110989395D02*
X98000000Y-118989395D01*
X91500000Y-107409045D02*
X90000000Y-108909045D01*
X100000000Y-131750000D02*
X100000000Y-152750000D01*
%TO.N,COL2*%
X98000000Y-153250000D02*
X99000000Y-152250000D01*
X90000000Y-106000000D02*
X90000000Y-97750000D01*
X90000000Y-97750000D02*
X89000000Y-96750000D01*
X99000000Y-137750000D02*
X97000000Y-135750000D01*
X88000000Y-108000000D02*
X90000000Y-106000000D01*
X88000000Y-111000000D02*
X88000000Y-108000000D01*
X89000000Y-96750000D02*
X88000000Y-96750000D01*
X97000000Y-135750000D02*
X97000000Y-120000000D01*
X97000000Y-120000000D02*
X88000000Y-111000000D01*
X99000000Y-152250000D02*
X99000000Y-137750000D01*
%TO.N,ROW2*%
X78000000Y-130250000D02*
X81500000Y-133750000D01*
X79500000Y-149250000D02*
X79500000Y-149750000D01*
X68250000Y-82000000D02*
X68250000Y-88500000D01*
X68500000Y-80250000D02*
X68500000Y-81750000D01*
X68250000Y-88500000D02*
X69000000Y-89250000D01*
X69000000Y-89250000D02*
X69000000Y-93250000D01*
X74000000Y-108750000D02*
X72000000Y-106750000D01*
X71500000Y-93750000D02*
X72000000Y-94250000D01*
X84500000Y-159750000D02*
X79500000Y-154750000D01*
X75000000Y-115750000D02*
X74000000Y-114750000D01*
X72000000Y-107034673D02*
X69517250Y-109517423D01*
X72000000Y-96250000D02*
X72000000Y-106750000D01*
X74707449Y-110042551D02*
X74000000Y-110750000D01*
X72000000Y-106750000D02*
X72000000Y-107034673D01*
X69000000Y-93250000D02*
X72000000Y-96250000D01*
X75000000Y-123000000D02*
X75000000Y-115750000D01*
X68500000Y-81750000D02*
X68250000Y-82000000D01*
X69517250Y-109517423D02*
X69421435Y-109517423D01*
X79500000Y-144500000D02*
X79500000Y-149750000D01*
X81500000Y-133750000D02*
X81500000Y-142500000D01*
X72000000Y-94250000D02*
X72000000Y-96250000D01*
X71500000Y-90250000D02*
X71500000Y-93750000D01*
X79500000Y-154750000D02*
X79500000Y-149750000D01*
X81500000Y-142500000D02*
X79500000Y-144500000D01*
X81500000Y-147250000D02*
X79500000Y-149250000D01*
X74000000Y-114750000D02*
X74000000Y-108750000D01*
X74707449Y-107750000D02*
X74707449Y-110042551D01*
%TO.N,ROW3*%
X67800000Y-116250000D02*
X67800000Y-117550000D01*
X100500000Y-168750000D02*
X103000000Y-166250000D01*
X95700000Y-97050000D02*
X95500000Y-97250000D01*
X95700000Y-94450000D02*
X95700000Y-97050000D01*
X78000000Y-142500000D02*
X78000000Y-156250000D01*
X92750000Y-78500000D02*
X91100000Y-76850000D01*
X87500000Y-168750000D02*
X100500000Y-168750000D01*
X83000000Y-164250000D02*
X87500000Y-168750000D01*
X73500000Y-138000000D02*
X78000000Y-142500000D01*
X95500000Y-103250000D02*
X99000000Y-106750000D01*
X101000000Y-126250000D02*
X101000000Y-150250000D01*
X94500000Y-93250000D02*
X95700000Y-94450000D01*
X67800000Y-117550000D02*
X70325484Y-120075484D01*
X83000000Y-161250000D02*
X83000000Y-164250000D01*
X91100000Y-65258044D02*
X90500000Y-64658044D01*
X96500000Y-98250000D02*
X95500000Y-97250000D01*
X93300000Y-85450000D02*
X93300000Y-87050000D01*
X70913738Y-120663738D02*
X73500000Y-123250000D01*
X73500000Y-123250000D02*
X73500000Y-138000000D01*
X92750000Y-84500000D02*
X92750000Y-84825735D01*
X92750000Y-84825735D02*
X92750000Y-78500000D01*
X101000000Y-148750000D02*
X101000000Y-150250000D01*
X99000000Y-124250000D02*
X101000000Y-126250000D01*
X70325484Y-120075484D02*
X70325484Y-120169312D01*
X99000000Y-106750000D02*
X99000000Y-124250000D01*
X92750000Y-84900000D02*
X93300000Y-85450000D01*
X70325484Y-120169312D02*
X70819910Y-120663738D01*
X93300000Y-87050000D02*
X94500000Y-88250000D01*
X95500000Y-97250000D02*
X95500000Y-103250000D01*
X92750000Y-84500000D02*
X92750000Y-84900000D01*
X93750000Y-83500000D02*
X92750000Y-84500000D01*
X101000000Y-123750000D02*
X101000000Y-126250000D01*
X70819910Y-120663738D02*
X70913738Y-120663738D01*
X103500000Y-146250000D02*
X101000000Y-148750000D01*
X101000000Y-150250000D02*
X101000000Y-152250000D01*
X101000000Y-152250000D02*
X105500000Y-156750000D01*
X91100000Y-76850000D02*
X91100000Y-65258044D01*
X94500000Y-88250000D02*
X94500000Y-93250000D01*
X78000000Y-156250000D02*
X83000000Y-161250000D01*
%TO.N,ROW4*%
X118000000Y-61750000D02*
X119000000Y-62750000D01*
X122500000Y-122250000D02*
X121500000Y-121250000D01*
X122500000Y-113250000D02*
X122500000Y-110000000D01*
X119000000Y-71750000D02*
X116500000Y-74250000D01*
X119000000Y-97750000D02*
X118000000Y-98750000D01*
X127500000Y-144750000D02*
X122500000Y-139750000D01*
X120500000Y-104750000D02*
X118000000Y-102250000D01*
X57000000Y-79785223D02*
X62000000Y-84785223D01*
X122500000Y-130750000D02*
X122500000Y-129250000D01*
X121500000Y-121250000D02*
X121500000Y-109000000D01*
X119000000Y-66750000D02*
X119000000Y-71750000D01*
X127500000Y-154000000D02*
X127500000Y-144750000D01*
X116500000Y-81250000D02*
X116500000Y-81750000D01*
X118000000Y-79750000D02*
X116500000Y-81250000D01*
X121500000Y-109000000D02*
X122500000Y-110000000D01*
X118000000Y-102250000D02*
X118000000Y-98750000D01*
X62000000Y-98750000D02*
X67798434Y-104548434D01*
X120500000Y-108000000D02*
X120500000Y-104750000D01*
X122500000Y-129250000D02*
X122500000Y-122250000D01*
X70000000Y-49250000D02*
X57000000Y-62250000D01*
X67798434Y-104548434D02*
X68365245Y-104548434D01*
X116500000Y-92750000D02*
X118000000Y-94250000D01*
X122500000Y-139750000D02*
X122500000Y-129250000D01*
X116500000Y-74250000D02*
X116500000Y-81750000D01*
X124000000Y-132250000D02*
X122500000Y-130750000D01*
X119000000Y-62750000D02*
X119000000Y-66750000D01*
X57000000Y-62250000D02*
X57000000Y-79785223D01*
X121500000Y-109000000D02*
X120500000Y-108000000D01*
X116500000Y-81750000D02*
X116500000Y-92750000D01*
X110000000Y-49250000D02*
X70000000Y-49250000D01*
X62000000Y-84785223D02*
X62000000Y-98750000D01*
X118000000Y-94250000D02*
X118000000Y-98750000D01*
%TO.N,ROW5*%
X130500000Y-81250000D02*
X131500000Y-80250000D01*
X143500000Y-97250000D02*
X143500000Y-99750000D01*
X146000000Y-130750000D02*
X144500000Y-129250000D01*
X137500000Y-80250000D02*
X139500000Y-78250000D01*
X144500000Y-109750000D02*
X141500000Y-106750000D01*
X141500000Y-82750000D02*
X141500000Y-101750000D01*
X144500000Y-148750000D02*
X146500000Y-150750000D01*
X83000000Y-89750000D02*
X81500000Y-89750000D01*
X141500000Y-106750000D02*
X141500000Y-118750000D01*
X139500000Y-80750000D02*
X141500000Y-82750000D01*
X131500000Y-80250000D02*
X137500000Y-80250000D01*
X142500000Y-79250000D02*
X141500000Y-80250000D01*
X108500000Y-82250000D02*
X112500000Y-82250000D01*
X144500000Y-121750000D02*
X144500000Y-126750000D01*
X139500000Y-64250000D02*
X139500000Y-78250000D01*
X141500000Y-101750000D02*
X141500000Y-106750000D01*
X144500000Y-129250000D02*
X144500000Y-126750000D01*
X141500000Y-80250000D02*
X141500000Y-82750000D01*
X139500000Y-78250000D02*
X139500000Y-80750000D01*
X143500000Y-99750000D02*
X141500000Y-101750000D01*
X141500000Y-118750000D02*
X144500000Y-121750000D01*
X144500000Y-126750000D02*
X144500000Y-148750000D01*
X86500000Y-86250000D02*
X83000000Y-89750000D01*
%TO.N,ROW6*%
X163000000Y-99750000D02*
X165500000Y-102250000D01*
X165500000Y-107750000D02*
X165500000Y-127250000D01*
X167000000Y-90750000D02*
X165500000Y-89250000D01*
X165500000Y-58250000D02*
X165500000Y-67750000D01*
X165500000Y-68750000D02*
X165500000Y-67750000D01*
X165500000Y-102250000D02*
X165500000Y-107750000D01*
X74000000Y-94250000D02*
X75000000Y-95250000D01*
X157500000Y-99750000D02*
X163000000Y-99750000D01*
X95500000Y-89750000D02*
X99000000Y-86250000D01*
X165500000Y-67750000D02*
X165500000Y-85250000D01*
X75000000Y-95250000D02*
X83200000Y-95250000D01*
X99000000Y-86250000D02*
X111000000Y-86250000D01*
X165500000Y-149750000D02*
X167000000Y-151250000D01*
X165500000Y-87750000D02*
X165500000Y-102250000D01*
X165500000Y-108750000D02*
X165500000Y-107750000D01*
X165500000Y-85250000D02*
X165500000Y-87750000D01*
X118000000Y-87250000D02*
X134000000Y-87250000D01*
X167500000Y-110750000D02*
X165500000Y-108750000D01*
X167500000Y-70750000D02*
X165500000Y-68750000D01*
X165500000Y-89250000D02*
X165500000Y-87750000D01*
X165500000Y-128250000D02*
X165500000Y-127250000D01*
X134000000Y-87250000D02*
X137000000Y-90250000D01*
X167500000Y-130250000D02*
X165500000Y-128250000D01*
X165500000Y-127250000D02*
X165500000Y-149750000D01*
%TO.N,COL3*%
X58500000Y-99250000D02*
X54500000Y-103250000D01*
X54500000Y-103250000D02*
X51500000Y-103250000D01*
%TO.N,COL4*%
X89264960Y-72014960D02*
X87039225Y-72014960D01*
X90300000Y-73050000D02*
X89264960Y-72014960D01*
X93500000Y-88894419D02*
X92100000Y-87494419D01*
X94500000Y-95450000D02*
X93500000Y-94450000D01*
X92100000Y-87494419D02*
X92100000Y-78850000D01*
X93500000Y-94450000D02*
X93500000Y-88894419D01*
X90300000Y-77050000D02*
X90300000Y-73050000D01*
X92100000Y-78850000D02*
X90300000Y-77050000D01*
%TO.N,ROW7*%
X186000000Y-122000000D02*
X183500000Y-124500000D01*
X182875000Y-68000000D02*
X184625000Y-69750000D01*
X184625000Y-69750000D02*
X186000000Y-69750000D01*
X187500000Y-59244249D02*
X187500000Y-56750000D01*
X179750000Y-66250000D02*
X180494249Y-66250000D01*
X183500000Y-124500000D02*
X183500000Y-127250000D01*
X186000000Y-89250000D02*
X186000000Y-87750000D01*
X183500000Y-127250000D02*
X187000000Y-130750000D01*
X68050362Y-77750000D02*
X63612383Y-82187979D01*
X186000000Y-108750000D02*
X186000000Y-108250000D01*
X186000000Y-69750000D02*
X186000000Y-87750000D01*
X187500000Y-110250000D02*
X186000000Y-108750000D01*
X179750000Y-66250000D02*
X181500000Y-68000000D01*
X181500000Y-68000000D02*
X182875000Y-68000000D01*
X186000000Y-87750000D02*
X186000000Y-108250000D01*
X178500000Y-66250000D02*
X179750000Y-66250000D01*
X187500000Y-90750000D02*
X186000000Y-89250000D01*
X80500000Y-77750000D02*
X68050362Y-77750000D01*
X180494249Y-66250000D02*
X187500000Y-59244249D01*
X187500000Y-71250000D02*
X186000000Y-69750000D01*
X186000000Y-108250000D02*
X186000000Y-122000000D01*
X84500000Y-73750000D02*
X80500000Y-77750000D01*
%TO.N,ROW8*%
X204750000Y-68000000D02*
X203250000Y-68000000D01*
X203250000Y-68000000D02*
X202500000Y-67250000D01*
X206000000Y-65750000D02*
X205000000Y-66750000D01*
X205000000Y-68250000D02*
X205000000Y-66750000D01*
X207500000Y-71250000D02*
X206000000Y-69750000D01*
X206000000Y-89250000D02*
X206000000Y-87750000D01*
X206000000Y-60250000D02*
X206000000Y-65750000D01*
X206000000Y-69750000D02*
X206000000Y-87750000D01*
X207500000Y-110250000D02*
X206000000Y-108750000D01*
X205000000Y-68250000D02*
X204750000Y-68000000D01*
X80500000Y-75250000D02*
X79500000Y-76250000D01*
X206000000Y-87750000D02*
X206000000Y-108250000D01*
X81500000Y-75250000D02*
X80500000Y-75250000D01*
X206000000Y-69250000D02*
X205000000Y-68250000D01*
X206000000Y-108250000D02*
X206000000Y-129750000D01*
X207500000Y-58750000D02*
X206000000Y-60250000D01*
X206000000Y-129750000D02*
X207000000Y-130750000D01*
X206000000Y-69750000D02*
X206000000Y-69250000D01*
X207500000Y-90750000D02*
X206000000Y-89250000D01*
X66537771Y-76250000D02*
X63084287Y-79703484D01*
X206000000Y-108750000D02*
X206000000Y-108250000D01*
X79500000Y-76250000D02*
X66537771Y-76250000D01*
%TO.N,ROW9*%
X225500000Y-108750000D02*
X225500000Y-108250000D01*
X227000000Y-58750000D02*
X225500000Y-60250000D01*
X225500000Y-108250000D02*
X225500000Y-129750000D01*
X227000000Y-110250000D02*
X225500000Y-108750000D01*
X119500000Y-50250000D02*
X116000000Y-53750000D01*
X87000000Y-53750000D02*
X82500000Y-58250000D01*
X124500000Y-50250000D02*
X119500000Y-50250000D01*
X225500000Y-129750000D02*
X226500000Y-130750000D01*
X225500000Y-87750000D02*
X225500000Y-108250000D01*
X77500000Y-74750000D02*
X65025181Y-74750000D01*
X227000000Y-71250000D02*
X225500000Y-69750000D01*
X225500000Y-69750000D02*
X225500000Y-87750000D01*
X225500000Y-89250000D02*
X225500000Y-87750000D01*
X82500000Y-69750000D02*
X77500000Y-74750000D01*
X225500000Y-60250000D02*
X225500000Y-69750000D01*
X82500000Y-58250000D02*
X82500000Y-69750000D01*
X227000000Y-90750000D02*
X225500000Y-89250000D01*
X116000000Y-53750000D02*
X87000000Y-53750000D01*
X65025181Y-74750000D02*
X62556191Y-77218990D01*
%TO.N,ROW10*%
X119000000Y-49250000D02*
X115500000Y-52750000D01*
X66012591Y-70750000D02*
X62028096Y-74734495D01*
X115500000Y-52750000D02*
X86500000Y-52750000D01*
X246000000Y-90750000D02*
X244500000Y-89250000D01*
X244500000Y-65250000D02*
X244500000Y-69750000D01*
X245000000Y-49750000D02*
X245000000Y-51750000D01*
X242500000Y-103500000D02*
X242500000Y-107000000D01*
X137500000Y-49250000D02*
X119000000Y-49250000D01*
X245000000Y-49750000D02*
X244000000Y-48750000D01*
X244500000Y-69750000D02*
X244500000Y-87750000D01*
X81500000Y-67750000D02*
X78500000Y-70750000D01*
X138000000Y-48750000D02*
X137500000Y-49250000D01*
X78500000Y-70750000D02*
X66012591Y-70750000D01*
X242500000Y-107000000D02*
X244500000Y-109000000D01*
X245000000Y-51750000D02*
X245000000Y-64750000D01*
X244500000Y-110000000D02*
X244500000Y-129750000D01*
X246000000Y-71250000D02*
X244500000Y-69750000D01*
X244500000Y-89250000D02*
X244500000Y-101500000D01*
X81500000Y-57750000D02*
X81500000Y-67750000D01*
X245750000Y-110250000D02*
X244500000Y-109000000D01*
X244500000Y-109000000D02*
X244500000Y-110000000D01*
X86500000Y-52750000D02*
X81500000Y-57750000D01*
X244500000Y-129750000D02*
X245500000Y-130750000D01*
X244500000Y-101500000D02*
X242500000Y-103500000D01*
X244500000Y-89250000D02*
X244500000Y-87750000D01*
X245000000Y-64750000D02*
X244500000Y-65250000D01*
X247000000Y-51750000D02*
X245000000Y-49750000D01*
X244000000Y-48750000D02*
X138000000Y-48750000D01*
%TO.N,GND*%
X45328714Y-53928714D02*
X46000000Y-54600000D01*
X42810642Y-53928714D02*
X45328714Y-53928714D01*
%TO.N,TX*%
X92766879Y-111766879D02*
X95488755Y-111766879D01*
X46000000Y-49000000D02*
X43000000Y-46000000D01*
X69000000Y-96000000D02*
X68000000Y-95000000D01*
X67000000Y-88000000D02*
X67000000Y-81000000D01*
X71000000Y-100000000D02*
X71000000Y-98000000D01*
X92000000Y-111000000D02*
X92766879Y-111766879D01*
X68000000Y-95000000D02*
X68000000Y-92000000D01*
X71000000Y-98000000D02*
X69000000Y-96000000D01*
X84000000Y-115000000D02*
X77000000Y-115000000D01*
X68000000Y-89000000D02*
X67000000Y-88000000D01*
X43000000Y-46000000D02*
X42000000Y-46000000D01*
X42000000Y-46000000D02*
X42000000Y-46000697D01*
X68000000Y-92000000D02*
X68000000Y-89000000D01*
X42000000Y-46000697D02*
X40065800Y-47934897D01*
X77000000Y-115000000D02*
X76000000Y-114000000D01*
%TO.N,RX*%
X33304319Y-49746630D02*
X36000000Y-52442311D01*
X36000000Y-52442311D02*
X36000000Y-60000000D01*
X86000000Y-138000000D02*
X95000000Y-129000000D01*
X47000000Y-101000000D02*
X47000000Y-102000000D01*
X95000000Y-123000000D02*
X96000000Y-122000000D01*
X47000000Y-102000000D02*
X47000000Y-116000000D01*
X46000000Y-100000000D02*
X47000000Y-101000000D01*
X41000000Y-80000000D02*
X41000000Y-87000000D01*
X36000000Y-75000000D02*
X39000000Y-78000000D01*
X96000000Y-122000000D02*
X96000000Y-121000000D01*
X41000000Y-95000000D02*
X46000000Y-100000000D01*
X41000000Y-87000000D02*
X41000000Y-95000000D01*
X52000000Y-127000000D02*
X52000000Y-135000000D01*
X84000000Y-138000000D02*
X86000000Y-138000000D01*
X39000000Y-78000000D02*
X41000000Y-80000000D01*
X52000000Y-135000000D02*
X57000000Y-140000000D01*
X95000000Y-129000000D02*
X95000000Y-123000000D01*
X52000000Y-121000000D02*
X52000000Y-127000000D01*
X36000000Y-60000000D02*
X36000000Y-75000000D01*
X49000000Y-118000000D02*
X52000000Y-121000000D01*
X47000000Y-116000000D02*
X49000000Y-118000000D01*
%TO.N,ROW11*%
X81500000Y-56250000D02*
X67000000Y-56250000D01*
X264500000Y-67250000D02*
X264500000Y-69750000D01*
X119000000Y-48250000D02*
X115500000Y-51750000D01*
X115500000Y-51750000D02*
X86000000Y-51750000D01*
X264500000Y-87750000D02*
X264500000Y-108250000D01*
X266000000Y-110250000D02*
X264500000Y-108750000D01*
X64000000Y-69750000D02*
X61500000Y-72250000D01*
X265000000Y-66750000D02*
X264500000Y-67250000D01*
X264500000Y-129750000D02*
X265500000Y-130750000D01*
X264500000Y-69750000D02*
X264500000Y-87750000D01*
X264500000Y-89250000D02*
X264500000Y-87750000D01*
X266000000Y-90750000D02*
X264500000Y-89250000D01*
X67000000Y-56250000D02*
X64000000Y-59250000D01*
X86000000Y-51750000D02*
X81500000Y-56250000D01*
X266000000Y-71250000D02*
X264500000Y-69750000D01*
X264500000Y-108250000D02*
X264500000Y-129750000D01*
X64000000Y-59250000D02*
X64000000Y-69750000D01*
X264500000Y-108750000D02*
X264500000Y-108250000D01*
X265000000Y-59250000D02*
X265000000Y-66750000D01*
%TO.N,ROW12*%
X283500000Y-88250000D02*
X283500000Y-107750000D01*
X283000000Y-70500000D02*
X283000000Y-71000000D01*
X282500000Y-47750000D02*
X283500000Y-48750000D01*
X281000000Y-125500000D02*
X281000000Y-127500000D01*
X286125000Y-71375000D02*
X285250000Y-70500000D01*
X115000000Y-50750000D02*
X118500000Y-47250000D01*
X283500000Y-108250000D02*
X283500000Y-107750000D01*
X283500000Y-88250000D02*
X285064545Y-89814545D01*
X283000000Y-70500000D02*
X283000000Y-69500000D01*
X285250000Y-70500000D02*
X284000000Y-70500000D01*
X62500000Y-96726791D02*
X62500000Y-84250000D01*
X281000000Y-67500000D02*
X281000000Y-65000000D01*
X285000000Y-109750000D02*
X283500000Y-108250000D01*
X118500000Y-47250000D02*
X142500000Y-47250000D01*
X283500000Y-62500000D02*
X283500000Y-48750000D01*
X283500000Y-123000000D02*
X281000000Y-125500000D01*
X281000000Y-127500000D02*
X284250000Y-130750000D01*
X285750000Y-51000000D02*
X283500000Y-48750000D01*
X283000000Y-69500000D02*
X281000000Y-67500000D01*
X58044235Y-62705765D02*
X70000000Y-50750000D01*
X70000000Y-50750000D02*
X115000000Y-50750000D01*
X283500000Y-71500000D02*
X283500000Y-88250000D01*
X284250000Y-130750000D02*
X285500000Y-130750000D01*
X281000000Y-65000000D02*
X283500000Y-62500000D01*
X283000000Y-71000000D02*
X283500000Y-71500000D01*
X142500000Y-47250000D02*
X143000000Y-47750000D01*
X143000000Y-47750000D02*
X282500000Y-47750000D01*
X67837148Y-102063939D02*
X62500000Y-96726791D01*
X58044235Y-79794235D02*
X58044235Y-62705765D01*
X284000000Y-70500000D02*
X283000000Y-69500000D01*
X62500000Y-84250000D02*
X58044235Y-79794235D01*
X283500000Y-107750000D02*
X283500000Y-123000000D01*
%TO.N,+3V3*%
X36202097Y-48970173D02*
X36202097Y-45997903D01*
X61000000Y-99250000D02*
X61000000Y-85250000D01*
X84000000Y-41000000D02*
X74750000Y-41000000D01*
X67000000Y-105250000D02*
X61000000Y-99250000D01*
X61000000Y-85250000D02*
X56000000Y-80250000D01*
X56000000Y-80250000D02*
X56000000Y-59750000D01*
X37600000Y-44600000D02*
X51600000Y-44600000D01*
X71533819Y-117499007D02*
X71005722Y-116970910D01*
X55200000Y-41000000D02*
X74750000Y-41000000D01*
X71005722Y-116970910D02*
X67000000Y-112965188D01*
X71533819Y-119455403D02*
X71533819Y-117499007D01*
X36202097Y-45997903D02*
X37600000Y-44600000D01*
X74750000Y-41000000D02*
X56000000Y-59750000D01*
X67000000Y-112965188D02*
X67000000Y-105250000D01*
X51600000Y-44600000D02*
X55200000Y-41000000D01*
%TO.N,SDA*%
X112000000Y-89750000D02*
X114000000Y-87750000D01*
X114000000Y-63250000D02*
X108500000Y-57750000D01*
X98000000Y-89750000D02*
X112000000Y-89750000D01*
X97500000Y-89250000D02*
X98000000Y-89750000D01*
X108500000Y-57750000D02*
X108500000Y-56750000D01*
X114000000Y-87750000D02*
X114000000Y-63250000D01*
%TO.N,SCL*%
X111000000Y-56750000D02*
X111000000Y-58750000D01*
X111000000Y-58750000D02*
X115500000Y-63250000D01*
X115500000Y-89750000D02*
X114000000Y-91250000D01*
X114000000Y-91250000D02*
X97000000Y-91250000D01*
X115500000Y-63250000D02*
X115500000Y-89750000D01*
%TD*%
M02*
