%TF.GenerationSoftware,KiCad,Pcbnew,9.0.2*%
%TF.CreationDate,2025-07-31T22:53:19+02:00*%
%TF.ProjectId,multiboard_RIGHT,6d756c74-6962-46f6-9172-645f52494748,1.0*%
%TF.SameCoordinates,Original*%
%TF.FileFunction,Soldermask,Bot*%
%TF.FilePolarity,Negative*%
%FSLAX46Y46*%
G04 Gerber Fmt 4.6, Leading zero omitted, Abs format (unit mm)*
G04 Created by KiCad (PCBNEW 9.0.2) date 2025-07-31 22:53:19*
%MOMM*%
%LPD*%
G01*
G04 APERTURE LIST*
G04 Aperture macros list*
%AMRoundRect*
0 Rectangle with rounded corners*
0 $1 Rounding radius*
0 $2 $3 $4 $5 $6 $7 $8 $9 X,Y pos of 4 corners*
0 Add a 4 corners polygon primitive as box body*
4,1,4,$2,$3,$4,$5,$6,$7,$8,$9,$2,$3,0*
0 Add four circle primitives for the rounded corners*
1,1,$1+$1,$2,$3*
1,1,$1+$1,$4,$5*
1,1,$1+$1,$6,$7*
1,1,$1+$1,$8,$9*
0 Add four rect primitives between the rounded corners*
20,1,$1+$1,$2,$3,$4,$5,0*
20,1,$1+$1,$4,$5,$6,$7,0*
20,1,$1+$1,$6,$7,$8,$9,0*
20,1,$1+$1,$8,$9,$2,$3,0*%
%AMRotRect*
0 Rectangle, with rotation*
0 The origin of the aperture is its center*
0 $1 length*
0 $2 width*
0 $3 Rotation angle, in degrees counterclockwise*
0 Add horizontal line*
21,1,$1,$2,0,0,$3*%
G04 Aperture macros list end*
%ADD10RotRect,1.700000X1.700000X11.000000*%
%ADD11C,1.700000*%
%ADD12C,1.000000*%
%ADD13RoundRect,0.225000X-0.120276X-0.420456X0.314390X-0.303988X0.120276X0.420456X-0.314390X0.303988X0*%
%ADD14RoundRect,0.225000X-0.225000X-0.375000X0.225000X-0.375000X0.225000X0.375000X-0.225000X0.375000X0*%
%ADD15RoundRect,0.225000X-0.184569X-0.396465X0.262966X-0.349427X0.184569X0.396465X-0.262966X0.349427X0*%
%ADD16C,1.701800*%
%ADD17C,3.000000*%
%ADD18C,3.987800*%
%ADD19RoundRect,0.200000X0.766610X1.292453X-1.310130X0.735992X-0.766610X-1.292453X1.310130X-0.735992X0*%
%ADD20RoundRect,0.200000X1.075000X1.050000X-1.075000X1.050000X-1.075000X-1.050000X1.075000X-1.050000X0*%
%ADD21RoundRect,0.225000X-0.205066X-0.386262X0.244318X-0.362710X0.205066X0.386262X-0.244318X0.362710X0*%
%ADD22RoundRect,0.225000X-0.142116X-0.413585X0.298050X-0.320025X0.142116X0.413585X-0.298050X0.320025X0*%
%ADD23RoundRect,0.200000X0.897509X1.205240X-1.226021X0.868906X-0.897509X-1.205240X1.226021X-0.868906X0*%
%ADD24RoundRect,0.200000X1.018574X1.104822X-1.128480X0.992300X-1.018574X-1.104822X1.128480X-0.992300X0*%
%ADD25RoundRect,0.225000X-0.163567X-0.405581X0.280893X-0.335185X0.163567X0.405581X-0.280893X0.335185X0*%
%ADD26RoundRect,0.200000X0.959356X1.156616X-1.178866X0.931880X-0.959356X-1.156616X1.178866X-0.931880X0*%
%ADD27RoundRect,0.200000X0.833201X1.250560X-1.269816X0.803550X-0.833201X-1.250560X1.269816X-0.803550X0*%
%ADD28RoundRect,0.102000X-0.589230X-0.907335X0.907335X-0.589230X0.589230X0.907335X-0.907335X0.589230X0*%
%ADD29C,1.734000*%
G04 APERTURE END LIST*
D10*
%TO.C,J1*%
X83515345Y-38506667D03*
D11*
X84000000Y-41000000D03*
X84484655Y-43493333D03*
X84969310Y-45986666D03*
%TD*%
D12*
%TO.C,J2*%
X32600000Y-53300000D03*
X39361480Y-51488266D03*
%TD*%
D13*
%TO.C,D11*%
X68424502Y-156809082D03*
X71612060Y-155954978D03*
%TD*%
D14*
%TO.C,D50*%
X252891818Y-82274800D03*
X256191818Y-82274800D03*
%TD*%
D15*
%TO.C,D54*%
X122929777Y-64511854D03*
X126211699Y-64166910D03*
%TD*%
D14*
%TO.C,D30*%
X253710000Y-122274800D03*
X257010000Y-122274800D03*
%TD*%
D16*
%TO.C,SW13*%
X74738366Y-148957229D03*
D17*
X70970114Y-144707726D03*
D18*
X69831463Y-150272030D03*
D17*
X65493885Y-148804679D03*
D16*
X64924560Y-151586831D03*
D19*
X62330478Y-149652311D03*
X74159601Y-143853106D03*
%TD*%
D13*
%TO.C,D51*%
X47624502Y-79209082D03*
X50812060Y-78354978D03*
%TD*%
D14*
%TO.C,D16*%
X174710000Y-142274800D03*
X178010000Y-142274800D03*
%TD*%
D16*
%TO.C,SW42*%
X259943636Y-96450000D03*
D17*
X257403636Y-91370000D03*
D18*
X254863636Y-96450000D03*
D17*
X251053636Y-93910000D03*
D16*
X249783636Y-96450000D03*
D20*
X247778636Y-93910000D03*
X260705636Y-91370000D03*
%TD*%
D16*
%TO.C,SW64*%
X279447273Y-76530000D03*
D17*
X276907273Y-71450000D03*
D18*
X274367273Y-76530000D03*
D17*
X270557273Y-73990000D03*
D16*
X269287273Y-76530000D03*
D20*
X267282273Y-73990000D03*
X280209273Y-71450000D03*
%TD*%
D21*
%TO.C,D5*%
X154571806Y-162053154D03*
X157867284Y-161880446D03*
%TD*%
D16*
%TO.C,SW21*%
X240554091Y-136064800D03*
D17*
X238014091Y-130984800D03*
D18*
X235474091Y-136064800D03*
D17*
X231664091Y-133524800D03*
D16*
X230394091Y-136064800D03*
D20*
X228389091Y-133524800D03*
X241316091Y-130984800D03*
%TD*%
D14*
%TO.C,D48*%
X213800909Y-82274800D03*
X217100909Y-82274800D03*
%TD*%
%TO.C,D26*%
X175164545Y-122274800D03*
X178464545Y-122274800D03*
%TD*%
D16*
%TO.C,SW32*%
X260021363Y-116144800D03*
D17*
X257481363Y-111064800D03*
D18*
X254941363Y-116144800D03*
D17*
X251131363Y-113604800D03*
D16*
X249861363Y-116144800D03*
D20*
X247856363Y-113604800D03*
X260783363Y-111064800D03*
%TD*%
D22*
%TO.C,D42*%
X76624503Y-92809082D03*
X79852391Y-92122972D03*
%TD*%
D16*
%TO.C,SW55*%
X103638010Y-61411477D03*
D17*
X100334594Y-56791364D03*
D18*
X98620553Y-62206164D03*
D17*
X94460117Y-60293451D03*
D16*
X93603096Y-63000851D03*
D23*
X91225438Y-60805774D03*
X103595941Y-56274817D03*
%TD*%
D16*
%TO.C,SW60*%
X220936364Y-56530000D03*
D17*
X218396364Y-51450000D03*
D18*
X215856364Y-56530000D03*
D17*
X212046364Y-53990000D03*
D16*
X210776364Y-56530000D03*
D20*
X208771364Y-53990000D03*
X221698364Y-51450000D03*
%TD*%
D22*
%TO.C,D2*%
X93224503Y-171209082D03*
X96452391Y-170522972D03*
%TD*%
D16*
%TO.C,SW17*%
X159505765Y-136308933D03*
D17*
X156703379Y-131368829D03*
D18*
X154432727Y-136574800D03*
D17*
X150495015Y-134237681D03*
D16*
X149359689Y-136840667D03*
D24*
X147224503Y-134409081D03*
X160000854Y-131196015D03*
%TD*%
D16*
%TO.C,SW52*%
X259943636Y-76530000D03*
D17*
X257403636Y-71450000D03*
D18*
X254863636Y-76530000D03*
D17*
X251053636Y-73990000D03*
D16*
X249783636Y-76530000D03*
D20*
X247778636Y-73990000D03*
X260705636Y-71450000D03*
%TD*%
D16*
%TO.C,SW27*%
X158505765Y-116308933D03*
D17*
X155703379Y-111368829D03*
D18*
X153432727Y-116574800D03*
D17*
X149495015Y-114237681D03*
D16*
X148359689Y-116840667D03*
D24*
X146224503Y-114409081D03*
X159000854Y-111196015D03*
%TD*%
D14*
%TO.C,D63*%
X272755454Y-102274800D03*
X276055454Y-102274800D03*
%TD*%
D25*
%TO.C,D33*%
X103824503Y-108009081D03*
X107083875Y-107492847D03*
%TD*%
D16*
%TO.C,SW25*%
X113212101Y-120726277D03*
D17*
X109908685Y-116106164D03*
D18*
X108194644Y-121520964D03*
D17*
X104034208Y-119608251D03*
D16*
X103177187Y-122315651D03*
D23*
X100799529Y-120120574D03*
X113170032Y-115589617D03*
%TD*%
D14*
%TO.C,D39*%
X233600909Y-102274800D03*
X236900909Y-102274800D03*
%TD*%
D16*
%TO.C,SW6*%
X140150817Y-157713604D03*
D17*
X137093727Y-152926935D03*
D18*
X135098646Y-158244609D03*
D17*
X131044015Y-156116777D03*
D16*
X130046475Y-158775614D03*
D26*
X127786956Y-156459108D03*
X140377638Y-152581781D03*
%TD*%
D16*
%TO.C,SW20*%
X221086819Y-136064800D03*
D17*
X218546819Y-130984800D03*
D18*
X216006819Y-136064800D03*
D17*
X212196819Y-133524800D03*
D16*
X210926819Y-136064800D03*
D20*
X208921819Y-133524800D03*
X221848819Y-130984800D03*
%TD*%
D16*
%TO.C,SW26*%
X135788364Y-117863577D03*
D17*
X132731274Y-113076908D03*
D18*
X130736193Y-118394582D03*
D17*
X126681562Y-116266750D03*
D16*
X125684022Y-118925587D03*
D26*
X123424503Y-116609081D03*
X136015185Y-112731754D03*
%TD*%
D16*
%TO.C,SW39*%
X201432727Y-96450000D03*
D17*
X198892727Y-91370000D03*
D18*
X196352727Y-96450000D03*
D17*
X192542727Y-93910000D03*
D16*
X191272727Y-96450000D03*
D20*
X189267727Y-93910000D03*
X202194727Y-91370000D03*
%TD*%
D16*
%TO.C,SW18*%
X181145909Y-136064800D03*
D17*
X178605909Y-130984800D03*
D18*
X176065909Y-136064800D03*
D17*
X172255909Y-133524800D03*
D16*
X170985909Y-136064800D03*
D20*
X168980909Y-133524800D03*
X181907909Y-130984800D03*
%TD*%
D16*
%TO.C,SW49*%
X201432727Y-76530000D03*
D17*
X198892727Y-71450000D03*
D18*
X196352727Y-76530000D03*
D17*
X192542727Y-73990000D03*
D16*
X191272727Y-76530000D03*
D20*
X189267727Y-73990000D03*
X202194727Y-71450000D03*
%TD*%
D16*
%TO.C,SW48*%
X181002727Y-76530000D03*
D17*
X178462727Y-71450000D03*
D18*
X175922727Y-76530000D03*
D17*
X172112727Y-73990000D03*
D16*
X170842727Y-76530000D03*
D20*
X168837727Y-73990000D03*
X181764727Y-71450000D03*
%TD*%
D16*
%TO.C,SW24*%
X91324255Y-124779836D03*
D17*
X87783569Y-120338941D03*
D18*
X86355265Y-125836027D03*
D17*
X82100427Y-124143676D03*
D16*
X81386275Y-126892218D03*
D27*
X78896996Y-124824586D03*
X91013412Y-119652417D03*
%TD*%
D16*
%TO.C,SW53*%
X53853366Y-71822429D03*
D17*
X50085114Y-67572926D03*
D18*
X48946463Y-73137230D03*
D17*
X44608885Y-71669879D03*
D16*
X44039560Y-74452031D03*
D19*
X41445478Y-72517511D03*
X53274601Y-66718306D03*
%TD*%
D16*
%TO.C,SW62*%
X259943636Y-56530000D03*
D17*
X257403636Y-51450000D03*
D18*
X254863636Y-56530000D03*
D17*
X251053636Y-53990000D03*
D16*
X249783636Y-56530000D03*
D20*
X247778636Y-53990000D03*
X260705636Y-51450000D03*
%TD*%
D16*
%TO.C,SW29*%
X201539545Y-116144800D03*
D17*
X198999545Y-111064800D03*
D18*
X196459545Y-116144800D03*
D17*
X192649545Y-113604800D03*
D16*
X191379545Y-116144800D03*
D20*
X189374545Y-113604800D03*
X202301545Y-111064800D03*
%TD*%
D15*
%TO.C,D44*%
X125034323Y-84511854D03*
X128316245Y-84166910D03*
%TD*%
D14*
%TO.C,D58*%
X214023636Y-62274800D03*
X217323636Y-62274800D03*
%TD*%
D21*
%TO.C,D15*%
X153153624Y-142871154D03*
X156449102Y-142698446D03*
%TD*%
D16*
%TO.C,SW71*%
X298950909Y-96450000D03*
D17*
X296410909Y-91370000D03*
D18*
X293870909Y-96450000D03*
D17*
X290060909Y-93910000D03*
D16*
X288790909Y-96450000D03*
D20*
X286785909Y-93910000D03*
X299712909Y-91370000D03*
%TD*%
D14*
%TO.C,D67*%
X292332727Y-62274800D03*
X295632727Y-62274800D03*
%TD*%
D16*
%TO.C,SW47*%
X156505765Y-76308933D03*
D17*
X153703379Y-71368829D03*
D18*
X151432727Y-76574800D03*
D17*
X147495015Y-74237681D03*
D16*
X146359689Y-76840667D03*
D24*
X144224503Y-74409081D03*
X157000854Y-71196015D03*
%TD*%
D14*
%TO.C,D65*%
X272437272Y-142274800D03*
X275737272Y-142274800D03*
%TD*%
D16*
%TO.C,SW19*%
X201539545Y-136064800D03*
D17*
X198999545Y-130984800D03*
D18*
X196459545Y-136064800D03*
D17*
X192649545Y-133524800D03*
D16*
X191379545Y-136064800D03*
D20*
X189374545Y-133524800D03*
X202301545Y-130984800D03*
%TD*%
D14*
%TO.C,D18*%
X213800909Y-142274800D03*
X217100909Y-142274800D03*
%TD*%
D15*
%TO.C,D24*%
X129651141Y-124697054D03*
X132933063Y-124352110D03*
%TD*%
D16*
%TO.C,SW40*%
X220936364Y-96450000D03*
D17*
X218396364Y-91370000D03*
D18*
X215856364Y-96450000D03*
D17*
X212046364Y-93910000D03*
D16*
X210776364Y-96450000D03*
D20*
X208771364Y-93910000D03*
X221698364Y-91370000D03*
%TD*%
D22*
%TO.C,D22*%
X85024503Y-132209082D03*
X88252391Y-131522972D03*
%TD*%
D16*
%TO.C,SW46*%
X131388364Y-78063577D03*
D17*
X128331274Y-73276908D03*
D18*
X126336193Y-78594582D03*
D17*
X122281562Y-76466750D03*
D16*
X121284022Y-79125587D03*
D26*
X119024503Y-76809081D03*
X131615185Y-72931754D03*
%TD*%
D16*
%TO.C,SW45*%
X106792555Y-81211477D03*
D17*
X103489139Y-76591364D03*
D18*
X101775098Y-82006164D03*
D17*
X97614662Y-80093451D03*
D16*
X96757641Y-82800851D03*
D23*
X94379983Y-80605774D03*
X106750486Y-76074817D03*
%TD*%
D16*
%TO.C,SW51*%
X240440000Y-76530000D03*
D17*
X237900000Y-71450000D03*
D18*
X235360000Y-76530000D03*
D17*
X231550000Y-73990000D03*
D16*
X230280000Y-76530000D03*
D20*
X228275000Y-73990000D03*
X241202000Y-71450000D03*
%TD*%
D14*
%TO.C,D57*%
X194446363Y-62274800D03*
X197746363Y-62274800D03*
%TD*%
%TO.C,D6*%
X174982727Y-161456800D03*
X178282727Y-161456800D03*
%TD*%
D16*
%TO.C,SW43*%
X59053366Y-91222429D03*
D17*
X55285114Y-86972926D03*
D18*
X54146463Y-92537230D03*
D17*
X49808885Y-91069879D03*
D16*
X49239560Y-93852031D03*
D19*
X46645478Y-91917511D03*
X58474601Y-86118306D03*
%TD*%
D13*
%TO.C,D21*%
X63224502Y-137409082D03*
X66412060Y-136554978D03*
%TD*%
D14*
%TO.C,D56*%
X174869091Y-62274800D03*
X178169091Y-62274800D03*
%TD*%
D16*
%TO.C,SW31*%
X240554091Y-116144800D03*
D17*
X238014091Y-111064800D03*
D18*
X235474091Y-116144800D03*
D17*
X231664091Y-113604800D03*
D16*
X230394091Y-116144800D03*
D20*
X228389091Y-113604800D03*
X241316091Y-111064800D03*
%TD*%
D16*
%TO.C,SW73*%
X299115909Y-136064800D03*
D17*
X296575909Y-130984800D03*
D18*
X294035909Y-136064800D03*
D17*
X290225909Y-133524800D03*
D16*
X288955909Y-136064800D03*
D20*
X286950909Y-133524800D03*
X299877909Y-130984800D03*
%TD*%
D16*
%TO.C,SW8*%
X181145909Y-156064800D03*
D17*
X178605909Y-150984800D03*
D18*
X176065909Y-156064800D03*
D17*
X172255909Y-153524800D03*
D16*
X170985909Y-156064800D03*
D20*
X168980909Y-153524800D03*
X181907909Y-150984800D03*
%TD*%
D14*
%TO.C,D20*%
X252891818Y-142274800D03*
X256191818Y-142274800D03*
%TD*%
%TO.C,D38*%
X214023636Y-102274800D03*
X217323636Y-102274800D03*
%TD*%
D21*
%TO.C,D45*%
X150253169Y-82405954D03*
X153548647Y-82233246D03*
%TD*%
D14*
%TO.C,D69*%
X292332727Y-102274800D03*
X295632727Y-102274800D03*
%TD*%
D16*
%TO.C,SW3*%
X79832391Y-168113999D03*
D17*
X76064139Y-163864496D03*
D18*
X74925488Y-169428800D03*
D17*
X70587910Y-167961449D03*
D16*
X70018585Y-170743601D03*
D19*
X67424503Y-168809081D03*
X79253626Y-163009876D03*
%TD*%
D14*
%TO.C,D59*%
X233600909Y-62274800D03*
X236900909Y-62274800D03*
%TD*%
D25*
%TO.C,D53*%
X97424503Y-68209081D03*
X100683875Y-67692847D03*
%TD*%
D13*
%TO.C,D31*%
X58036946Y-117863184D03*
X61224504Y-117009080D03*
%TD*%
D16*
%TO.C,SW14*%
X95495164Y-144299836D03*
D17*
X91954478Y-139858941D03*
D18*
X90526174Y-145356027D03*
D17*
X86271336Y-143663676D03*
D16*
X85557184Y-146412218D03*
D27*
X83067905Y-144344586D03*
X95184321Y-139172417D03*
%TD*%
D14*
%TO.C,D28*%
X214437272Y-122274800D03*
X217737272Y-122274800D03*
%TD*%
D16*
%TO.C,SW41*%
X240440000Y-96450000D03*
D17*
X237900000Y-91370000D03*
D18*
X235360000Y-96450000D03*
D17*
X231550000Y-93910000D03*
D16*
X230280000Y-96450000D03*
D20*
X228275000Y-93910000D03*
X241202000Y-91370000D03*
%TD*%
D16*
%TO.C,SW67*%
X279568637Y-136064800D03*
D17*
X277028637Y-130984800D03*
D18*
X274488637Y-136064800D03*
D17*
X270678637Y-133524800D03*
D16*
X269408637Y-136064800D03*
D20*
X267403637Y-133524800D03*
X280330637Y-130984800D03*
%TD*%
D22*
%TO.C,D52*%
X72424503Y-73209082D03*
X75652391Y-72522972D03*
%TD*%
D13*
%TO.C,D1*%
X73518527Y-175965852D03*
X76706085Y-175111748D03*
%TD*%
D16*
%TO.C,SW56*%
X129188364Y-58063577D03*
D17*
X126131274Y-53276908D03*
D18*
X124136193Y-58594582D03*
D17*
X120081562Y-56466750D03*
D16*
X119084022Y-59125587D03*
D26*
X116824503Y-56809081D03*
X129415185Y-52931754D03*
%TD*%
D16*
%TO.C,SW36*%
X133588364Y-98063577D03*
D17*
X130531274Y-93276908D03*
D18*
X128536193Y-98594582D03*
D17*
X124481562Y-96466750D03*
D16*
X123484022Y-99125587D03*
D26*
X121224503Y-96809081D03*
X133815185Y-92931754D03*
%TD*%
D14*
%TO.C,D62*%
X272437272Y-82274800D03*
X275737272Y-82274800D03*
%TD*%
D16*
%TO.C,SW72*%
X299035909Y-116144800D03*
D17*
X296495909Y-111064800D03*
D18*
X293955909Y-116144800D03*
D17*
X290145909Y-113604800D03*
D16*
X288875909Y-116144800D03*
D20*
X286870909Y-113604800D03*
X299797909Y-111064800D03*
%TD*%
D16*
%TO.C,SW66*%
X279568637Y-116144800D03*
D17*
X277028637Y-111064800D03*
D18*
X274488637Y-116144800D03*
D17*
X270678637Y-113604800D03*
D16*
X269408637Y-116144800D03*
D20*
X267403637Y-113604800D03*
X280330637Y-111064800D03*
%TD*%
D14*
%TO.C,D40*%
X253178182Y-102274800D03*
X256478182Y-102274800D03*
%TD*%
D16*
%TO.C,SW30*%
X221006819Y-116144800D03*
D17*
X218466819Y-111064800D03*
D18*
X215926819Y-116144800D03*
D17*
X212116819Y-113604800D03*
D16*
X210846819Y-116144800D03*
D20*
X208841819Y-113604800D03*
X221768819Y-111064800D03*
%TD*%
D22*
%TO.C,D32*%
X80824503Y-112409082D03*
X84052391Y-111722972D03*
%TD*%
D15*
%TO.C,D34*%
X127329777Y-104591854D03*
X130611699Y-104246910D03*
%TD*%
D14*
%TO.C,D27*%
X194800909Y-122274800D03*
X198100909Y-122274800D03*
%TD*%
D25*
%TO.C,D13*%
X110067659Y-147777588D03*
X113327031Y-147261354D03*
%TD*%
D14*
%TO.C,D47*%
X194255454Y-82274800D03*
X197555454Y-82274800D03*
%TD*%
D16*
%TO.C,SW35*%
X110038010Y-101131477D03*
D17*
X106734594Y-96511364D03*
D18*
X105020553Y-101926164D03*
D17*
X100860117Y-100013451D03*
D16*
X100003096Y-102720851D03*
D23*
X97625438Y-100525774D03*
X109995941Y-95994817D03*
%TD*%
D16*
%TO.C,SW4*%
X99560619Y-163699836D03*
D17*
X96019933Y-159258941D03*
D18*
X94591629Y-164756027D03*
D17*
X90336791Y-163063676D03*
D16*
X89622639Y-165812218D03*
D27*
X87133360Y-163744586D03*
X99249776Y-158572417D03*
%TD*%
D16*
%TO.C,SW16*%
X137988364Y-137863577D03*
D17*
X134931274Y-133076908D03*
D18*
X132936193Y-138394582D03*
D17*
X128881562Y-136266750D03*
D16*
X127884022Y-138925587D03*
D26*
X125624503Y-136609081D03*
X138215185Y-132731754D03*
%TD*%
D16*
%TO.C,SW54*%
X78734710Y-66165036D03*
D17*
X75194024Y-61724141D03*
D18*
X73765720Y-67221227D03*
D17*
X69510882Y-65528876D03*
D16*
X68796730Y-68277418D03*
D27*
X66307451Y-66209786D03*
X78423867Y-61037617D03*
%TD*%
D14*
%TO.C,D49*%
X233346363Y-82274800D03*
X236646363Y-82274800D03*
%TD*%
D16*
%TO.C,SW5*%
X119684828Y-160246277D03*
D17*
X116381412Y-155626164D03*
D18*
X114667371Y-161040964D03*
D17*
X110506935Y-159128251D03*
D16*
X109649914Y-161835651D03*
D23*
X107272256Y-159640574D03*
X119642759Y-155109617D03*
%TD*%
D21*
%TO.C,D35*%
X151380442Y-102485954D03*
X154675920Y-102313246D03*
%TD*%
D16*
%TO.C,SW69*%
X298950909Y-56530000D03*
D17*
X296410909Y-51450000D03*
D18*
X293870909Y-56530000D03*
D17*
X290060909Y-53990000D03*
D16*
X288790909Y-56530000D03*
D20*
X286785909Y-53990000D03*
X299712909Y-51450000D03*
%TD*%
D16*
%TO.C,SW63*%
X279447273Y-56530000D03*
D17*
X276907273Y-51450000D03*
D18*
X274367273Y-56530000D03*
D17*
X270557273Y-53990000D03*
D16*
X269287273Y-56530000D03*
D20*
X267282273Y-53990000D03*
X280209273Y-51450000D03*
%TD*%
D14*
%TO.C,D60*%
X253178182Y-62274800D03*
X256478182Y-62274800D03*
%TD*%
D25*
%TO.C,D3*%
X113424503Y-167409081D03*
X116683875Y-166892847D03*
%TD*%
D16*
%TO.C,SW23*%
X69538366Y-129637229D03*
D17*
X65770114Y-125387726D03*
D18*
X64631463Y-130952030D03*
D17*
X60293885Y-129484679D03*
D16*
X59724560Y-132266831D03*
D19*
X57130478Y-130332311D03*
X68959601Y-124533106D03*
%TD*%
D14*
%TO.C,D36*%
X174869091Y-102274800D03*
X178169091Y-102274800D03*
%TD*%
%TO.C,D29*%
X234073636Y-122274800D03*
X237373636Y-122274800D03*
%TD*%
D16*
%TO.C,SW61*%
X240440000Y-56530000D03*
D17*
X237900000Y-51450000D03*
D18*
X235360000Y-56530000D03*
D17*
X231550000Y-53990000D03*
D16*
X230280000Y-56530000D03*
D20*
X228275000Y-53990000D03*
X241202000Y-51450000D03*
%TD*%
D16*
%TO.C,SW44*%
X82966528Y-85765036D03*
D17*
X79425842Y-81324141D03*
D18*
X77997538Y-86821227D03*
D17*
X73742700Y-85128876D03*
D16*
X73028548Y-87877418D03*
D27*
X70539269Y-85809786D03*
X82655685Y-80637617D03*
%TD*%
D14*
%TO.C,D19*%
X233346363Y-142274800D03*
X236646363Y-142274800D03*
%TD*%
%TO.C,D61*%
X272755454Y-62274800D03*
X276055454Y-62274800D03*
%TD*%
%TO.C,D46*%
X174710000Y-82274800D03*
X178010000Y-82274800D03*
%TD*%
D16*
%TO.C,SW33*%
X64265810Y-110396531D03*
D17*
X60497558Y-106147028D03*
D18*
X59358907Y-111711332D03*
D17*
X55021329Y-110243981D03*
D16*
X54452004Y-113026133D03*
D19*
X51857922Y-111091613D03*
X63687045Y-105292408D03*
%TD*%
D16*
%TO.C,SW7*%
X160705765Y-156308933D03*
D17*
X157903379Y-151368829D03*
D18*
X155632727Y-156574800D03*
D17*
X151695015Y-154237681D03*
D16*
X150559689Y-156840667D03*
D24*
X148424503Y-154409081D03*
X161200854Y-151196015D03*
%TD*%
D16*
%TO.C,SW28*%
X181065909Y-116144800D03*
D17*
X178525909Y-111064800D03*
D18*
X175985909Y-116144800D03*
D17*
X172175909Y-113604800D03*
D16*
X170905909Y-116144800D03*
D20*
X168900909Y-113604800D03*
X181827909Y-111064800D03*
%TD*%
D14*
%TO.C,D64*%
X273346363Y-122274800D03*
X276646363Y-122274800D03*
%TD*%
D21*
%TO.C,D25*%
X152517261Y-122791154D03*
X155812739Y-122618446D03*
%TD*%
D14*
%TO.C,D68*%
X291982727Y-82274800D03*
X295282727Y-82274800D03*
%TD*%
%TO.C,D71*%
X291982727Y-142274800D03*
X295282727Y-142274800D03*
%TD*%
D16*
%TO.C,SW59*%
X201432727Y-56530000D03*
D17*
X198892727Y-51450000D03*
D18*
X196352727Y-56530000D03*
D17*
X192542727Y-53990000D03*
D16*
X191272727Y-56530000D03*
D20*
X189267727Y-53990000D03*
X202194727Y-51450000D03*
%TD*%
D28*
%TO.C,U1*%
X71533819Y-119455403D03*
D29*
X71005722Y-116970910D03*
X70477627Y-114486413D03*
X69949531Y-112001918D03*
X69421435Y-109517423D03*
X68893340Y-107032928D03*
X68365245Y-104548434D03*
X67837148Y-102063939D03*
X67309053Y-99579444D03*
X66780957Y-97094949D03*
X66252861Y-94610454D03*
X65724765Y-92125959D03*
X65196670Y-89641464D03*
X64668575Y-87156969D03*
X64140478Y-84672474D03*
X63612383Y-82187979D03*
X63084287Y-79703484D03*
X62556191Y-77218990D03*
X62028096Y-74734495D03*
X61500000Y-72250000D03*
X60971904Y-69765505D03*
X60443809Y-67281010D03*
X96016853Y-114251374D03*
X95488755Y-111766879D03*
X94960660Y-109282384D03*
X94432565Y-106797890D03*
X93904468Y-104313395D03*
X93376374Y-101828900D03*
X92848278Y-99344404D03*
X92320182Y-96859909D03*
X91792086Y-94375415D03*
X91263991Y-91890920D03*
X90735895Y-89406425D03*
X90207798Y-86921930D03*
X89679703Y-84437435D03*
X89151608Y-81952940D03*
X88623512Y-79468446D03*
X88095417Y-76983951D03*
X87567323Y-74499456D03*
X87039225Y-72014960D03*
X86511129Y-69530466D03*
X85983034Y-67045971D03*
X85454938Y-64561476D03*
X84926842Y-62076981D03*
%TD*%
D16*
%TO.C,SW70*%
X298950909Y-76530000D03*
D17*
X296410909Y-71450000D03*
D18*
X293870909Y-76530000D03*
D17*
X290060909Y-73990000D03*
D16*
X288790909Y-76530000D03*
D20*
X286785909Y-73990000D03*
X299712909Y-71450000D03*
%TD*%
D22*
%TO.C,D12*%
X89024503Y-151809082D03*
X92252391Y-151122972D03*
%TD*%
D25*
%TO.C,D43*%
X100424503Y-88009081D03*
X103683875Y-87492847D03*
%TD*%
D16*
%TO.C,SW65*%
X279447273Y-96450000D03*
D17*
X276907273Y-91370000D03*
D18*
X274367273Y-96450000D03*
D17*
X270557273Y-93910000D03*
D16*
X269287273Y-96450000D03*
D20*
X267282273Y-93910000D03*
X280209273Y-91370000D03*
%TD*%
D14*
%TO.C,D37*%
X194446363Y-102274800D03*
X197746363Y-102274800D03*
%TD*%
D16*
%TO.C,SW50*%
X220936364Y-76530000D03*
D17*
X218396364Y-71450000D03*
D18*
X215856364Y-76530000D03*
D17*
X212046364Y-73990000D03*
D16*
X210776364Y-76530000D03*
D20*
X208771364Y-73990000D03*
X221698364Y-71450000D03*
%TD*%
D15*
%TO.C,D14*%
X131498414Y-144777054D03*
X134780336Y-144432110D03*
%TD*%
D16*
%TO.C,SW38*%
X181002727Y-96450000D03*
D17*
X178462727Y-91370000D03*
D18*
X175922727Y-96450000D03*
D17*
X172112727Y-93910000D03*
D16*
X170842727Y-96450000D03*
D20*
X168837727Y-93910000D03*
X181764727Y-91370000D03*
%TD*%
D13*
%TO.C,D41*%
X52824502Y-98609082D03*
X56012060Y-97754978D03*
%TD*%
D16*
%TO.C,SW34*%
X87134710Y-105285036D03*
D17*
X83594024Y-100844141D03*
D18*
X82165720Y-106341227D03*
D17*
X77910882Y-104648876D03*
D16*
X77196730Y-107397418D03*
D27*
X74707451Y-105329786D03*
X86823867Y-100157617D03*
%TD*%
D21*
%TO.C,D55*%
X149180442Y-62405954D03*
X152475920Y-62233246D03*
%TD*%
D14*
%TO.C,D17*%
X194255454Y-142274800D03*
X197555454Y-142274800D03*
%TD*%
D16*
%TO.C,SW58*%
X181002727Y-56530000D03*
D17*
X178462727Y-51450000D03*
D18*
X175922727Y-56530000D03*
D17*
X172112727Y-53990000D03*
D16*
X170842727Y-56530000D03*
D20*
X168837727Y-53990000D03*
X181764727Y-51450000D03*
%TD*%
D25*
%TO.C,D23*%
X107024503Y-127809081D03*
X110283875Y-127292847D03*
%TD*%
D16*
%TO.C,SW15*%
X116437075Y-140614784D03*
D17*
X113133659Y-135994671D03*
D18*
X111419618Y-141409471D03*
D17*
X107259182Y-139496758D03*
D16*
X106402161Y-142204158D03*
D23*
X104024503Y-140009081D03*
X116395006Y-135478124D03*
%TD*%
D16*
%TO.C,SW57*%
X155305765Y-56308933D03*
D17*
X152503379Y-51368829D03*
D18*
X150232727Y-56574800D03*
D17*
X146295015Y-54237681D03*
D16*
X145159689Y-56840667D03*
D24*
X143024503Y-54409081D03*
X155800854Y-51196015D03*
%TD*%
D16*
%TO.C,SW22*%
X260101363Y-136064800D03*
D17*
X257561363Y-130984800D03*
D18*
X255021363Y-136064800D03*
D17*
X251211363Y-133524800D03*
D16*
X249941363Y-136064800D03*
D20*
X247936363Y-133524800D03*
X260863363Y-130984800D03*
%TD*%
D14*
%TO.C,D70*%
X292982727Y-122274800D03*
X296282727Y-122274800D03*
%TD*%
D16*
%TO.C,SW37*%
X157505765Y-96308933D03*
D17*
X154703379Y-91368829D03*
D18*
X152432727Y-96574800D03*
D17*
X148495015Y-94237681D03*
D16*
X147359689Y-96840667D03*
D24*
X145224503Y-94409081D03*
X158000854Y-91196015D03*
%TD*%
D15*
%TO.C,D4*%
X133824503Y-163809081D03*
X137106425Y-163464137D03*
%TD*%
M02*
