M48
; DRILL file {KiCad 9.0.2} date 2025-07-31T22:53:22+0200
; FORMAT={-:-/ absolute / inch / decimal}
; #@! TF.CreationDate,2025-07-31T22:53:22+02:00
; #@! TF.GenerationSoftware,Kicad,Pcbnew,9.0.2
; #@! TF.FileFunction,NonPlated,1,2,NPTH
FMAT,2
INCH
; #@! TA.AperFunction,NonPlated,NPTH,ComponentDrill
T1C0.0394
; #@! TA.AperFunction,NonPlated,NPTH,ComponentDrill
T2C0.0670
; #@! TA.AperFunction,NonPlated,NPTH,ComponentDrill
T3C0.1181
; #@! TA.AperFunction,NonPlated,NPTH,ComponentDrill
T4C0.1570
%
G90
G05
T1
X1.2835Y-2.0984
X1.5497Y-2.0271
T2
X1.7338Y-2.9312
X1.9386Y-3.695
X2.1202Y-2.8277
X2.1438Y-4.4498
X2.3249Y-3.5914
X2.3514Y-5.2074
X2.5301Y-4.3463
X2.5561Y-5.968
X2.7085Y-2.6881
X2.7377Y-5.1038
X2.7566Y-6.7222
X2.8751Y-3.4597
X2.9425Y-5.8645
X3.0392Y-4.2282
X3.0998Y-2.6049
X3.143Y-6.6187
X3.2042Y-4.9958
X3.2664Y-3.3766
X3.3684Y-5.7643
X3.4305Y-4.1451
X3.5285Y-6.528
X3.5954Y-4.9126
X3.6852Y-2.4803
X3.7597Y-5.6811
X3.8094Y-3.2599
X3.9197Y-6.4449
X3.9371Y-4.0441
X4.0621Y-4.8156
X4.0802Y-2.4178
X4.1891Y-5.5986
X4.2044Y-3.1973
X4.3169Y-6.3715
X4.3322Y-3.9816
X4.4572Y-4.753
X4.5841Y-5.536
X4.6883Y-2.3278
X4.712Y-6.3089
X4.775Y-3.1152
X4.8616Y-3.9026
X4.9482Y-4.6821
X5.0348Y-5.4695
X5.0862Y-2.286
X5.1199Y-6.251
X5.1728Y-3.0734
X5.2594Y-3.8608
X5.346Y-4.6403
X5.4326Y-5.4277
X5.5177Y-6.2092
X5.7149Y-2.2378
X5.7622Y-3.0252
X5.8016Y-3.8126
X5.8409Y-4.6
X5.8803Y-5.3874
X5.9275Y-6.1748
X6.1144Y-2.2169
X6.1616Y-3.0043
X6.201Y-3.7917
X6.2404Y-4.5791
X6.2798Y-5.3665
X6.327Y-6.1539
X6.7261Y-2.2256
X6.7261Y-3.013
X6.7261Y-3.7972
X6.7286Y-4.5726
X6.7317Y-5.3569
X6.7317Y-6.1443
X7.1261Y-2.2256
X7.1261Y-3.013
X7.1261Y-3.7972
X7.1286Y-4.5726
X7.1317Y-5.3569
X7.1317Y-6.1443
X7.5304Y-2.2256
X7.5304Y-3.013
X7.5304Y-3.7972
X7.5346Y-4.5726
X7.5346Y-5.3569
X7.9304Y-2.2256
X7.9304Y-3.013
X7.9304Y-3.7972
X7.9346Y-4.5726
X7.9346Y-5.3569
X8.2983Y-2.2256
X8.2983Y-3.013
X8.2983Y-3.7972
X8.3011Y-4.5726
X8.3042Y-5.3569
X8.6983Y-2.2256
X8.6983Y-3.013
X8.6983Y-3.7972
X8.7011Y-4.5726
X8.7042Y-5.3569
X9.0661Y-2.2256
X9.0661Y-3.013
X9.0661Y-3.7972
X9.0706Y-4.5726
X9.0706Y-5.3569
X9.4661Y-2.2256
X9.4661Y-3.013
X9.4661Y-3.7972
X9.4706Y-4.5726
X9.4706Y-5.3569
X9.834Y-2.2256
X9.834Y-3.013
X9.834Y-3.7972
X9.8371Y-4.5726
X9.8402Y-5.3569
X10.234Y-2.2256
X10.234Y-3.013
X10.234Y-3.7972
X10.2371Y-4.5726
X10.2402Y-5.3569
X10.6019Y-2.2256
X10.6019Y-3.013
X10.6019Y-3.7972
X10.6066Y-4.5726
X10.6066Y-5.3569
X11.0019Y-2.2256
X11.0019Y-3.013
X11.0019Y-3.7972
X11.0066Y-4.5726
X11.0066Y-5.3569
X11.3697Y-2.2256
X11.3697Y-3.013
X11.3697Y-3.7972
X11.3731Y-4.5726
X11.3762Y-5.3569
X11.7697Y-2.2256
X11.7697Y-3.013
X11.7697Y-3.7972
X11.7731Y-4.5726
X11.7762Y-5.3569
T3
X1.7563Y-2.8216
X1.961Y-3.5854
X1.9719Y-2.6604
X2.1662Y-4.3403
X2.1766Y-3.4241
X2.3738Y-5.0978
X2.3818Y-4.179
X2.5785Y-5.8585
X2.5894Y-4.9365
X2.7366Y-2.5799
X2.7791Y-6.6127
X2.7941Y-5.6972
X2.9033Y-3.3515
X2.9604Y-2.4301
X2.9947Y-6.4514
X3.0674Y-4.12
X3.127Y-3.2017
X3.2323Y-4.8875
X3.2911Y-3.9702
X3.3965Y-5.6561
X3.456Y-4.7378
X3.5566Y-6.4198
X3.6203Y-5.5063
X3.7189Y-2.3738
X3.7803Y-6.27
X3.8431Y-3.1533
X3.9502Y-2.2359
X3.9709Y-3.9375
X4.0744Y-3.0154
X4.0958Y-4.709
X4.2021Y-3.7997
X4.2228Y-5.492
X4.3271Y-4.5711
X4.3507Y-6.2649
X4.4541Y-5.3541
X4.5819Y-6.127
X4.7276Y-2.2231
X4.8142Y-3.0105
X4.9008Y-3.7979
X4.9658Y-2.0975
X4.9875Y-4.5774
X5.0524Y-2.8849
X5.0741Y-5.3648
X5.139Y-3.6723
X5.1592Y-6.1463
X5.2256Y-4.4518
X5.3123Y-5.2392
X5.3974Y-6.0207
X5.7596Y-2.1353
X5.8069Y-2.9227
X5.8463Y-3.7101
X5.8856Y-4.4975
X5.925Y-5.2849
X5.9722Y-6.0723
X6.0041Y-2.0224
X6.0513Y-2.8098
X6.0907Y-3.5972
X6.1301Y-4.3846
X6.1694Y-5.172
X6.2167Y-5.9594
X6.7761Y-2.1256
X6.7761Y-2.913
X6.7761Y-3.6972
X6.7786Y-4.4726
X6.7817Y-5.2569
X6.7817Y-6.0443
X7.0261Y-2.0256
X7.0261Y-2.813
X7.0261Y-3.5972
X7.0286Y-4.3726
X7.0317Y-5.1569
X7.0317Y-5.9443
X7.5804Y-2.1256
X7.5804Y-2.913
X7.5804Y-3.6972
X7.5846Y-4.4726
X7.5846Y-5.2569
X7.8304Y-2.0256
X7.8304Y-2.813
X7.8304Y-3.5972
X7.8346Y-4.3726
X7.8346Y-5.1569
X8.3483Y-2.1256
X8.3483Y-2.913
X8.3483Y-3.6972
X8.3511Y-4.4726
X8.3542Y-5.2569
X8.5983Y-2.0256
X8.5983Y-2.813
X8.5983Y-3.5972
X8.6011Y-4.3726
X8.6042Y-5.1569
X9.1161Y-2.1256
X9.1161Y-2.913
X9.1161Y-3.6972
X9.1206Y-4.4726
X9.1206Y-5.2569
X9.3661Y-2.0256
X9.3661Y-2.813
X9.3661Y-3.5972
X9.3706Y-4.3726
X9.3706Y-5.1569
X9.884Y-2.1256
X9.884Y-2.913
X9.884Y-3.6972
X9.8871Y-4.4726
X9.8902Y-5.2569
X10.134Y-2.0256
X10.134Y-2.813
X10.134Y-3.5972
X10.1371Y-4.3726
X10.1402Y-5.1569
X10.6519Y-2.1256
X10.6519Y-2.913
X10.6519Y-3.6972
X10.6566Y-4.4726
X10.6566Y-5.2569
X10.9019Y-2.0256
X10.9019Y-2.813
X10.9019Y-3.5972
X10.9066Y-4.3726
X10.9066Y-5.1569
X11.4197Y-2.1256
X11.4197Y-2.913
X11.4197Y-3.6972
X11.4231Y-4.4726
X11.4262Y-5.2569
X11.6697Y-2.0256
X11.6697Y-2.813
X11.6697Y-3.5972
X11.6731Y-4.3726
X11.6762Y-5.1569
T4
X1.927Y-2.8794
X2.1318Y-3.6432
X2.337Y-4.3981
X2.5445Y-5.1556
X2.7493Y-5.9162
X2.9042Y-2.6465
X2.9498Y-6.6704
X3.0708Y-3.4182
X3.2349Y-4.1867
X3.3998Y-4.9542
X3.564Y-5.7227
X3.7241Y-6.4865
X3.8827Y-2.4491
X4.0069Y-3.2286
X4.1347Y-4.0128
X4.2596Y-4.7843
X4.3866Y-5.5673
X4.5145Y-6.3402
X4.8873Y-2.3069
X4.9739Y-3.0943
X5.0605Y-3.8817
X5.1471Y-4.6612
X5.2337Y-5.4486
X5.3188Y-6.2301
X5.9147Y-2.2274
X5.9619Y-3.0148
X6.0013Y-3.8022
X6.0407Y-4.5896
X6.08Y-5.377
X6.1273Y-6.1644
X6.9261Y-2.2256
X6.9261Y-3.013
X6.9261Y-3.7972
X6.9286Y-4.5726
X6.9317Y-5.3569
X6.9317Y-6.1443
X7.7304Y-2.2256
X7.7304Y-3.013
X7.7304Y-3.7972
X7.7346Y-4.5726
X7.7346Y-5.3569
X8.4983Y-2.2256
X8.4983Y-3.013
X8.4983Y-3.7972
X8.5011Y-4.5726
X8.5042Y-5.3569
X9.2661Y-2.2256
X9.2661Y-3.013
X9.2661Y-3.7972
X9.2706Y-4.5726
X9.2706Y-5.3569
X10.034Y-2.2256
X10.034Y-3.013
X10.034Y-3.7972
X10.0371Y-4.5726
X10.0402Y-5.3569
X10.8019Y-2.2256
X10.8019Y-3.013
X10.8019Y-3.7972
X10.8066Y-4.5726
X10.8066Y-5.3569
X11.5697Y-2.2256
X11.5697Y-3.013
X11.5697Y-3.7972
X11.5731Y-4.5726
X11.5762Y-5.3569
M30
