%TF.GenerationSoftware,KiCad,Pcbnew,9.0.2*%
%TF.CreationDate,2025-07-31T22:53:19+02:00*%
%TF.ProjectId,multiboard_RIGHT,6d756c74-6962-46f6-9172-645f52494748,1.0*%
%TF.SameCoordinates,Original*%
%TF.FileFunction,Soldermask,Top*%
%TF.FilePolarity,Negative*%
%FSLAX46Y46*%
G04 Gerber Fmt 4.6, Leading zero omitted, Abs format (unit mm)*
G04 Created by KiCad (PCBNEW 9.0.2) date 2025-07-31 22:53:19*
%MOMM*%
%LPD*%
G01*
G04 APERTURE LIST*
G04 Aperture macros list*
%AMRoundRect*
0 Rectangle with rounded corners*
0 $1 Rounding radius*
0 $2 $3 $4 $5 $6 $7 $8 $9 X,Y pos of 4 corners*
0 Add a 4 corners polygon primitive as box body*
4,1,4,$2,$3,$4,$5,$6,$7,$8,$9,$2,$3,0*
0 Add four circle primitives for the rounded corners*
1,1,$1+$1,$2,$3*
1,1,$1+$1,$4,$5*
1,1,$1+$1,$6,$7*
1,1,$1+$1,$8,$9*
0 Add four rect primitives between the rounded corners*
20,1,$1+$1,$2,$3,$4,$5,0*
20,1,$1+$1,$4,$5,$6,$7,0*
20,1,$1+$1,$6,$7,$8,$9,0*
20,1,$1+$1,$8,$9,$2,$3,0*%
%AMRotRect*
0 Rectangle, with rotation*
0 The origin of the aperture is its center*
0 $1 length*
0 $2 width*
0 $3 Rotation angle, in degrees counterclockwise*
0 Add horizontal line*
21,1,$1,$2,0,0,$3*%
G04 Aperture macros list end*
%ADD10RotRect,1.700000X1.700000X11.000000*%
%ADD11C,1.700000*%
%ADD12C,1.000000*%
%ADD13RoundRect,0.102000X-0.256032X-1.362699X0.903079X-1.052116X0.256032X1.362699X-0.903079X1.052116X0*%
%ADD14C,1.701800*%
%ADD15C,3.000000*%
%ADD16C,3.987800*%
%ADD17RoundRect,0.102000X-0.589230X-0.907335X0.907335X-0.589230X0.589230X0.907335X-0.907335X0.589230X0*%
%ADD18C,1.734000*%
G04 APERTURE END LIST*
D10*
%TO.C,J1*%
X83515345Y-38506667D03*
D11*
X84000000Y-41000000D03*
X84484655Y-43493333D03*
X84969310Y-45986666D03*
%TD*%
D12*
%TO.C,J2*%
X32600000Y-53300000D03*
X39361480Y-51488266D03*
D13*
X42810642Y-53928714D03*
X40065800Y-47934897D03*
X36202097Y-48970173D03*
X33304319Y-49746630D03*
%TD*%
D14*
%TO.C,SW13*%
X74738366Y-148957229D03*
D15*
X70970114Y-144707726D03*
D16*
X69831463Y-150272030D03*
D15*
X65493885Y-148804679D03*
D14*
X64924560Y-151586831D03*
%TD*%
%TO.C,SW42*%
X259943636Y-96450000D03*
D15*
X257403636Y-91370000D03*
D16*
X254863636Y-96450000D03*
D15*
X251053636Y-93910000D03*
D14*
X249783636Y-96450000D03*
%TD*%
%TO.C,SW64*%
X279447273Y-76530000D03*
D15*
X276907273Y-71450000D03*
D16*
X274367273Y-76530000D03*
D15*
X270557273Y-73990000D03*
D14*
X269287273Y-76530000D03*
%TD*%
%TO.C,SW21*%
X240554091Y-136064800D03*
D15*
X238014091Y-130984800D03*
D16*
X235474091Y-136064800D03*
D15*
X231664091Y-133524800D03*
D14*
X230394091Y-136064800D03*
%TD*%
%TO.C,SW32*%
X260021363Y-116144800D03*
D15*
X257481363Y-111064800D03*
D16*
X254941363Y-116144800D03*
D15*
X251131363Y-113604800D03*
D14*
X249861363Y-116144800D03*
%TD*%
%TO.C,SW55*%
X103638010Y-61411477D03*
D15*
X100334594Y-56791364D03*
D16*
X98620553Y-62206164D03*
D15*
X94460117Y-60293451D03*
D14*
X93603096Y-63000851D03*
%TD*%
%TO.C,SW60*%
X220936364Y-56530000D03*
D15*
X218396364Y-51450000D03*
D16*
X215856364Y-56530000D03*
D15*
X212046364Y-53990000D03*
D14*
X210776364Y-56530000D03*
%TD*%
%TO.C,SW17*%
X159505765Y-136308933D03*
D15*
X156703379Y-131368829D03*
D16*
X154432727Y-136574800D03*
D15*
X150495015Y-134237681D03*
D14*
X149359689Y-136840667D03*
%TD*%
%TO.C,SW52*%
X259943636Y-76530000D03*
D15*
X257403636Y-71450000D03*
D16*
X254863636Y-76530000D03*
D15*
X251053636Y-73990000D03*
D14*
X249783636Y-76530000D03*
%TD*%
%TO.C,SW27*%
X158505765Y-116308933D03*
D15*
X155703379Y-111368829D03*
D16*
X153432727Y-116574800D03*
D15*
X149495015Y-114237681D03*
D14*
X148359689Y-116840667D03*
%TD*%
%TO.C,SW25*%
X113212101Y-120726277D03*
D15*
X109908685Y-116106164D03*
D16*
X108194644Y-121520964D03*
D15*
X104034208Y-119608251D03*
D14*
X103177187Y-122315651D03*
%TD*%
%TO.C,SW6*%
X140150817Y-157713604D03*
D15*
X137093727Y-152926935D03*
D16*
X135098646Y-158244609D03*
D15*
X131044015Y-156116777D03*
D14*
X130046475Y-158775614D03*
%TD*%
%TO.C,SW20*%
X221086819Y-136064800D03*
D15*
X218546819Y-130984800D03*
D16*
X216006819Y-136064800D03*
D15*
X212196819Y-133524800D03*
D14*
X210926819Y-136064800D03*
%TD*%
%TO.C,SW26*%
X135788364Y-117863577D03*
D15*
X132731274Y-113076908D03*
D16*
X130736193Y-118394582D03*
D15*
X126681562Y-116266750D03*
D14*
X125684022Y-118925587D03*
%TD*%
%TO.C,SW39*%
X201432727Y-96450000D03*
D15*
X198892727Y-91370000D03*
D16*
X196352727Y-96450000D03*
D15*
X192542727Y-93910000D03*
D14*
X191272727Y-96450000D03*
%TD*%
%TO.C,SW18*%
X181145909Y-136064800D03*
D15*
X178605909Y-130984800D03*
D16*
X176065909Y-136064800D03*
D15*
X172255909Y-133524800D03*
D14*
X170985909Y-136064800D03*
%TD*%
%TO.C,SW49*%
X201432727Y-76530000D03*
D15*
X198892727Y-71450000D03*
D16*
X196352727Y-76530000D03*
D15*
X192542727Y-73990000D03*
D14*
X191272727Y-76530000D03*
%TD*%
%TO.C,SW48*%
X181002727Y-76530000D03*
D15*
X178462727Y-71450000D03*
D16*
X175922727Y-76530000D03*
D15*
X172112727Y-73990000D03*
D14*
X170842727Y-76530000D03*
%TD*%
%TO.C,SW24*%
X91324255Y-124779836D03*
D15*
X87783569Y-120338941D03*
D16*
X86355265Y-125836027D03*
D15*
X82100427Y-124143676D03*
D14*
X81386275Y-126892218D03*
%TD*%
%TO.C,SW53*%
X53853366Y-71822429D03*
D15*
X50085114Y-67572926D03*
D16*
X48946463Y-73137230D03*
D15*
X44608885Y-71669879D03*
D14*
X44039560Y-74452031D03*
%TD*%
%TO.C,SW62*%
X259943636Y-56530000D03*
D15*
X257403636Y-51450000D03*
D16*
X254863636Y-56530000D03*
D15*
X251053636Y-53990000D03*
D14*
X249783636Y-56530000D03*
%TD*%
%TO.C,SW29*%
X201539545Y-116144800D03*
D15*
X198999545Y-111064800D03*
D16*
X196459545Y-116144800D03*
D15*
X192649545Y-113604800D03*
D14*
X191379545Y-116144800D03*
%TD*%
%TO.C,SW71*%
X298950909Y-96450000D03*
D15*
X296410909Y-91370000D03*
D16*
X293870909Y-96450000D03*
D15*
X290060909Y-93910000D03*
D14*
X288790909Y-96450000D03*
%TD*%
%TO.C,SW47*%
X156505765Y-76308933D03*
D15*
X153703379Y-71368829D03*
D16*
X151432727Y-76574800D03*
D15*
X147495015Y-74237681D03*
D14*
X146359689Y-76840667D03*
%TD*%
%TO.C,SW19*%
X201539545Y-136064800D03*
D15*
X198999545Y-130984800D03*
D16*
X196459545Y-136064800D03*
D15*
X192649545Y-133524800D03*
D14*
X191379545Y-136064800D03*
%TD*%
%TO.C,SW40*%
X220936364Y-96450000D03*
D15*
X218396364Y-91370000D03*
D16*
X215856364Y-96450000D03*
D15*
X212046364Y-93910000D03*
D14*
X210776364Y-96450000D03*
%TD*%
%TO.C,SW46*%
X131388364Y-78063577D03*
D15*
X128331274Y-73276908D03*
D16*
X126336193Y-78594582D03*
D15*
X122281562Y-76466750D03*
D14*
X121284022Y-79125587D03*
%TD*%
%TO.C,SW45*%
X106792555Y-81211477D03*
D15*
X103489139Y-76591364D03*
D16*
X101775098Y-82006164D03*
D15*
X97614662Y-80093451D03*
D14*
X96757641Y-82800851D03*
%TD*%
%TO.C,SW51*%
X240440000Y-76530000D03*
D15*
X237900000Y-71450000D03*
D16*
X235360000Y-76530000D03*
D15*
X231550000Y-73990000D03*
D14*
X230280000Y-76530000D03*
%TD*%
%TO.C,SW43*%
X59053366Y-91222429D03*
D15*
X55285114Y-86972926D03*
D16*
X54146463Y-92537230D03*
D15*
X49808885Y-91069879D03*
D14*
X49239560Y-93852031D03*
%TD*%
%TO.C,SW31*%
X240554091Y-116144800D03*
D15*
X238014091Y-111064800D03*
D16*
X235474091Y-116144800D03*
D15*
X231664091Y-113604800D03*
D14*
X230394091Y-116144800D03*
%TD*%
%TO.C,SW73*%
X299115909Y-136064800D03*
D15*
X296575909Y-130984800D03*
D16*
X294035909Y-136064800D03*
D15*
X290225909Y-133524800D03*
D14*
X288955909Y-136064800D03*
%TD*%
%TO.C,SW8*%
X181145909Y-156064800D03*
D15*
X178605909Y-150984800D03*
D16*
X176065909Y-156064800D03*
D15*
X172255909Y-153524800D03*
D14*
X170985909Y-156064800D03*
%TD*%
%TO.C,SW3*%
X79832391Y-168113999D03*
D15*
X76064139Y-163864496D03*
D16*
X74925488Y-169428800D03*
D15*
X70587910Y-167961449D03*
D14*
X70018585Y-170743601D03*
%TD*%
%TO.C,SW14*%
X95495164Y-144299836D03*
D15*
X91954478Y-139858941D03*
D16*
X90526174Y-145356027D03*
D15*
X86271336Y-143663676D03*
D14*
X85557184Y-146412218D03*
%TD*%
%TO.C,SW41*%
X240440000Y-96450000D03*
D15*
X237900000Y-91370000D03*
D16*
X235360000Y-96450000D03*
D15*
X231550000Y-93910000D03*
D14*
X230280000Y-96450000D03*
%TD*%
%TO.C,SW67*%
X279568637Y-136064800D03*
D15*
X277028637Y-130984800D03*
D16*
X274488637Y-136064800D03*
D15*
X270678637Y-133524800D03*
D14*
X269408637Y-136064800D03*
%TD*%
%TO.C,SW56*%
X129188364Y-58063577D03*
D15*
X126131274Y-53276908D03*
D16*
X124136193Y-58594582D03*
D15*
X120081562Y-56466750D03*
D14*
X119084022Y-59125587D03*
%TD*%
%TO.C,SW36*%
X133588364Y-98063577D03*
D15*
X130531274Y-93276908D03*
D16*
X128536193Y-98594582D03*
D15*
X124481562Y-96466750D03*
D14*
X123484022Y-99125587D03*
%TD*%
%TO.C,SW72*%
X299035909Y-116144800D03*
D15*
X296495909Y-111064800D03*
D16*
X293955909Y-116144800D03*
D15*
X290145909Y-113604800D03*
D14*
X288875909Y-116144800D03*
%TD*%
%TO.C,SW66*%
X279568637Y-116144800D03*
D15*
X277028637Y-111064800D03*
D16*
X274488637Y-116144800D03*
D15*
X270678637Y-113604800D03*
D14*
X269408637Y-116144800D03*
%TD*%
%TO.C,SW30*%
X221006819Y-116144800D03*
D15*
X218466819Y-111064800D03*
D16*
X215926819Y-116144800D03*
D15*
X212116819Y-113604800D03*
D14*
X210846819Y-116144800D03*
%TD*%
%TO.C,SW35*%
X110038010Y-101131477D03*
D15*
X106734594Y-96511364D03*
D16*
X105020553Y-101926164D03*
D15*
X100860117Y-100013451D03*
D14*
X100003096Y-102720851D03*
%TD*%
%TO.C,SW4*%
X99560619Y-163699836D03*
D15*
X96019933Y-159258941D03*
D16*
X94591629Y-164756027D03*
D15*
X90336791Y-163063676D03*
D14*
X89622639Y-165812218D03*
%TD*%
%TO.C,SW16*%
X137988364Y-137863577D03*
D15*
X134931274Y-133076908D03*
D16*
X132936193Y-138394582D03*
D15*
X128881562Y-136266750D03*
D14*
X127884022Y-138925587D03*
%TD*%
%TO.C,SW54*%
X78734710Y-66165036D03*
D15*
X75194024Y-61724141D03*
D16*
X73765720Y-67221227D03*
D15*
X69510882Y-65528876D03*
D14*
X68796730Y-68277418D03*
%TD*%
%TO.C,SW5*%
X119684828Y-160246277D03*
D15*
X116381412Y-155626164D03*
D16*
X114667371Y-161040964D03*
D15*
X110506935Y-159128251D03*
D14*
X109649914Y-161835651D03*
%TD*%
%TO.C,SW69*%
X298950909Y-56530000D03*
D15*
X296410909Y-51450000D03*
D16*
X293870909Y-56530000D03*
D15*
X290060909Y-53990000D03*
D14*
X288790909Y-56530000D03*
%TD*%
%TO.C,SW63*%
X279447273Y-56530000D03*
D15*
X276907273Y-51450000D03*
D16*
X274367273Y-56530000D03*
D15*
X270557273Y-53990000D03*
D14*
X269287273Y-56530000D03*
%TD*%
%TO.C,SW23*%
X69538366Y-129637229D03*
D15*
X65770114Y-125387726D03*
D16*
X64631463Y-130952030D03*
D15*
X60293885Y-129484679D03*
D14*
X59724560Y-132266831D03*
%TD*%
%TO.C,SW61*%
X240440000Y-56530000D03*
D15*
X237900000Y-51450000D03*
D16*
X235360000Y-56530000D03*
D15*
X231550000Y-53990000D03*
D14*
X230280000Y-56530000D03*
%TD*%
%TO.C,SW44*%
X82966528Y-85765036D03*
D15*
X79425842Y-81324141D03*
D16*
X77997538Y-86821227D03*
D15*
X73742700Y-85128876D03*
D14*
X73028548Y-87877418D03*
%TD*%
%TO.C,SW33*%
X64265810Y-110396531D03*
D15*
X60497558Y-106147028D03*
D16*
X59358907Y-111711332D03*
D15*
X55021329Y-110243981D03*
D14*
X54452004Y-113026133D03*
%TD*%
%TO.C,SW7*%
X160705765Y-156308933D03*
D15*
X157903379Y-151368829D03*
D16*
X155632727Y-156574800D03*
D15*
X151695015Y-154237681D03*
D14*
X150559689Y-156840667D03*
%TD*%
%TO.C,SW28*%
X181065909Y-116144800D03*
D15*
X178525909Y-111064800D03*
D16*
X175985909Y-116144800D03*
D15*
X172175909Y-113604800D03*
D14*
X170905909Y-116144800D03*
%TD*%
%TO.C,SW59*%
X201432727Y-56530000D03*
D15*
X198892727Y-51450000D03*
D16*
X196352727Y-56530000D03*
D15*
X192542727Y-53990000D03*
D14*
X191272727Y-56530000D03*
%TD*%
D17*
%TO.C,U1*%
X71533819Y-119455403D03*
D18*
X71005722Y-116970910D03*
X70477627Y-114486413D03*
X69949531Y-112001918D03*
X69421435Y-109517423D03*
X68893340Y-107032928D03*
X68365245Y-104548434D03*
X67837148Y-102063939D03*
X67309053Y-99579444D03*
X66780957Y-97094949D03*
X66252861Y-94610454D03*
X65724765Y-92125959D03*
X65196670Y-89641464D03*
X64668575Y-87156969D03*
X64140478Y-84672474D03*
X63612383Y-82187979D03*
X63084287Y-79703484D03*
X62556191Y-77218990D03*
X62028096Y-74734495D03*
X61500000Y-72250000D03*
X60971904Y-69765505D03*
X60443809Y-67281010D03*
X96016853Y-114251374D03*
X95488755Y-111766879D03*
X94960660Y-109282384D03*
X94432565Y-106797890D03*
X93904468Y-104313395D03*
X93376374Y-101828900D03*
X92848278Y-99344404D03*
X92320182Y-96859909D03*
X91792086Y-94375415D03*
X91263991Y-91890920D03*
X90735895Y-89406425D03*
X90207798Y-86921930D03*
X89679703Y-84437435D03*
X89151608Y-81952940D03*
X88623512Y-79468446D03*
X88095417Y-76983951D03*
X87567323Y-74499456D03*
X87039225Y-72014960D03*
X86511129Y-69530466D03*
X85983034Y-67045971D03*
X85454938Y-64561476D03*
X84926842Y-62076981D03*
%TD*%
D14*
%TO.C,SW70*%
X298950909Y-76530000D03*
D15*
X296410909Y-71450000D03*
D16*
X293870909Y-76530000D03*
D15*
X290060909Y-73990000D03*
D14*
X288790909Y-76530000D03*
%TD*%
%TO.C,SW65*%
X279447273Y-96450000D03*
D15*
X276907273Y-91370000D03*
D16*
X274367273Y-96450000D03*
D15*
X270557273Y-93910000D03*
D14*
X269287273Y-96450000D03*
%TD*%
%TO.C,SW50*%
X220936364Y-76530000D03*
D15*
X218396364Y-71450000D03*
D16*
X215856364Y-76530000D03*
D15*
X212046364Y-73990000D03*
D14*
X210776364Y-76530000D03*
%TD*%
%TO.C,SW38*%
X181002727Y-96450000D03*
D15*
X178462727Y-91370000D03*
D16*
X175922727Y-96450000D03*
D15*
X172112727Y-93910000D03*
D14*
X170842727Y-96450000D03*
%TD*%
%TO.C,SW34*%
X87134710Y-105285036D03*
D15*
X83594024Y-100844141D03*
D16*
X82165720Y-106341227D03*
D15*
X77910882Y-104648876D03*
D14*
X77196730Y-107397418D03*
%TD*%
%TO.C,SW58*%
X181002727Y-56530000D03*
D15*
X178462727Y-51450000D03*
D16*
X175922727Y-56530000D03*
D15*
X172112727Y-53990000D03*
D14*
X170842727Y-56530000D03*
%TD*%
%TO.C,SW15*%
X116437075Y-140614784D03*
D15*
X113133659Y-135994671D03*
D16*
X111419618Y-141409471D03*
D15*
X107259182Y-139496758D03*
D14*
X106402161Y-142204158D03*
%TD*%
%TO.C,SW57*%
X155305765Y-56308933D03*
D15*
X152503379Y-51368829D03*
D16*
X150232727Y-56574800D03*
D15*
X146295015Y-54237681D03*
D14*
X145159689Y-56840667D03*
%TD*%
%TO.C,SW22*%
X260101363Y-136064800D03*
D15*
X257561363Y-130984800D03*
D16*
X255021363Y-136064800D03*
D15*
X251211363Y-133524800D03*
D14*
X249941363Y-136064800D03*
%TD*%
%TO.C,SW37*%
X157505765Y-96308933D03*
D15*
X154703379Y-91368829D03*
D16*
X152432727Y-96574800D03*
D15*
X148495015Y-94237681D03*
D14*
X147359689Y-96840667D03*
%TD*%
M02*
