%TF.GenerationSoftware,KiCad,Pcbnew,9.0.2*%
%TF.CreationDate,2025-07-31T22:52:32+02:00*%
%TF.ProjectId,multiboard_LEFT,6d756c74-6962-46f6-9172-645f4c454654,1.0*%
%TF.SameCoordinates,Original*%
%TF.FileFunction,Profile,NP*%
%FSLAX46Y46*%
G04 Gerber Fmt 4.6, Leading zero omitted, Abs format (unit mm)*
G04 Created by KiCad (PCBNEW 9.0.2) date 2025-07-31 22:52:32*
%MOMM*%
%LPD*%
G01*
G04 APERTURE LIST*
%TA.AperFunction,Profile*%
%ADD10C,0.050000*%
%TD*%
G04 APERTURE END LIST*
D10*
X42000000Y-17000000D02*
G75*
G02*
X45000000Y-14000000I3000000J0D01*
G01*
X144400000Y-144000000D02*
X45000000Y-144000000D01*
X192000000Y-83000000D02*
G75*
G02*
X189000000Y-83000000I-1500000J0D01*
G01*
X189000000Y-83000000D02*
G75*
G02*
X192000000Y-83000000I1500000J0D01*
G01*
X248571429Y-28280000D02*
X254221191Y-29446423D01*
X200200000Y-149800000D02*
X144400000Y-144000000D01*
X277146426Y-38048807D02*
X278491511Y-32054954D01*
X45000000Y-14000000D02*
X147000000Y-14500000D01*
X126000000Y-119500000D02*
G75*
G02*
X123000000Y-119500000I-1500000J0D01*
G01*
X123000000Y-119500000D02*
G75*
G02*
X126000000Y-119500000I1500000J0D01*
G01*
X126000000Y-79500000D02*
G75*
G02*
X123000000Y-79500000I-1500000J0D01*
G01*
X123000000Y-79500000D02*
G75*
G02*
X126000000Y-79500000I1500000J0D01*
G01*
X66000000Y-79500000D02*
G75*
G02*
X63000000Y-79500000I-1500000J0D01*
G01*
X63000000Y-79500000D02*
G75*
G02*
X66000000Y-79500000I1500000J0D01*
G01*
X45000000Y-144000000D02*
G75*
G02*
X42000000Y-141000000I0J3000000D01*
G01*
X276345085Y-27843868D02*
G75*
G02*
X278491466Y-32054939I-999985J-3162232D01*
G01*
X42000000Y-141000000D02*
X42000000Y-17000000D01*
X244000000Y-158000000D02*
G75*
G02*
X240999999Y-160162278I-3000000J1000000D01*
G01*
X258427034Y-27316426D02*
G75*
G02*
X254221191Y-29446424I-3157034J1016426D01*
G01*
X262691186Y-25020367D02*
X276345085Y-27843869D01*
X126000000Y-39000000D02*
G75*
G02*
X123000000Y-39000000I-1500000J0D01*
G01*
X123000000Y-39000000D02*
G75*
G02*
X126000000Y-39000000I1500000J0D01*
G01*
X172500000Y-42500000D02*
G75*
G02*
X169500000Y-42500000I-1500000J0D01*
G01*
X169500000Y-42500000D02*
G75*
G02*
X172500000Y-42500000I1500000J0D01*
G01*
X258427033Y-27316430D02*
X258478914Y-27166427D01*
X258478914Y-27166426D02*
G75*
G02*
X262690009Y-25019973I3162286J-999974D01*
G01*
X147000000Y-14500000D02*
X202000000Y-18500000D01*
X244000000Y-158000000D02*
X277146426Y-38048809D01*
X227000000Y-130000000D02*
G75*
G02*
X224000000Y-130000000I-1500000J0D01*
G01*
X224000000Y-130000000D02*
G75*
G02*
X227000000Y-130000000I1500000J0D01*
G01*
X253300000Y-34500000D02*
G75*
G02*
X250300000Y-34500000I-1500000J0D01*
G01*
X250300000Y-34500000D02*
G75*
G02*
X253300000Y-34500000I1500000J0D01*
G01*
X240999999Y-160162278D02*
X200200000Y-149800000D01*
X202000000Y-18500000D02*
X248571429Y-28280000D01*
X187000000Y-122500000D02*
G75*
G02*
X184000000Y-122500000I-1500000J0D01*
G01*
X184000000Y-122500000D02*
G75*
G02*
X187000000Y-122500000I1500000J0D01*
G01*
X75500000Y-43000000D02*
G75*
G02*
X72500000Y-43000000I-1500000J0D01*
G01*
X72500000Y-43000000D02*
G75*
G02*
X75500000Y-43000000I1500000J0D01*
G01*
X66000000Y-119500000D02*
G75*
G02*
X63000000Y-119500000I-1500000J0D01*
G01*
X63000000Y-119500000D02*
G75*
G02*
X66000000Y-119500000I1500000J0D01*
G01*
M02*
