M48
; DRILL file {KiCad 9.0.2} date 2025-07-31T22:52:35+0200
; FORMAT={-:-/ absolute / inch / decimal}
; #@! TF.CreationDate,2025-07-31T22:52:35+02:00
; #@! TF.GenerationSoftware,Kicad,Pcbnew,9.0.2
; #@! TF.FileFunction,NonPlated,1,2,NPTH
FMAT,2
INCH
; #@! TA.AperFunction,NonPlated,NPTH,ComponentDrill
T1C0.0394
; #@! TA.AperFunction,NonPlated,NPTH,ComponentDrill
T2C0.0670
; #@! TA.AperFunction,NonPlated,NPTH,ComponentDrill
T3C0.1181
; #@! TA.AperFunction,NonPlated,NPTH,ComponentDrill
T4C0.1570
%
G90
G05
T1
X10.5089Y-1.3066
X10.7751Y-1.378
T2
X1.95Y-2.7318
X1.95Y-3.516
X1.95Y-4.3034
X1.95Y-5.0889
X2.35Y-2.7318
X2.35Y-3.516
X2.35Y-4.3034
X2.35Y-5.0889
X2.7257Y-2.7318
X2.7257Y-4.3034
X2.726Y-5.0889
X2.7271Y-3.516
X3.1257Y-2.7318
X3.1257Y-4.3034
X3.126Y-5.0889
X3.1271Y-3.516
X3.5124Y-5.0908
X3.5128Y-3.516
X3.5131Y-2.7318
X3.5131Y-4.3034
X3.9124Y-5.0908
X3.9128Y-3.516
X3.9131Y-2.7318
X3.9131Y-4.3034
X4.3005Y-5.0908
X4.3016Y-2.7318
X4.3016Y-4.3034
X4.3026Y-1.1538
X4.3026Y-1.9444
X4.3026Y-3.516
X4.7005Y-5.0908
X4.7016Y-2.7318
X4.7016Y-4.3034
X4.7026Y-1.1538
X4.7026Y-1.9444
X4.7026Y-3.516
X5.0879Y-5.0889
X5.0886Y-3.5172
X5.0893Y-2.7298
X5.0893Y-4.3015
X5.0902Y-1.1519
X5.0902Y-1.9424
X5.4879Y-5.0889
X5.4886Y-3.5172
X5.4893Y-2.7298
X5.4893Y-4.3015
X5.4902Y-1.1519
X5.4902Y-1.9424
X5.8771Y-5.0972
X5.9182Y-4.3166
X5.9583Y-3.5371
X5.9966Y-2.7497
X6.0359Y-1.9701
X6.0764Y-1.1906
X6.2765Y-5.1181
X6.3176Y-4.3375
X6.3577Y-3.558
X6.396Y-2.7706
X6.4354Y-1.9911
X6.4758Y-1.2115
X6.6555Y-5.1466
X6.7378Y-4.369
X6.8199Y-3.5959
X6.8965Y-2.8164
X6.9814Y-2.0368
X7.0533Y-5.1884
X7.0602Y-1.2573
X7.1356Y-4.4108
X7.2177Y-3.6377
X7.2944Y-2.8582
X7.3792Y-2.0786
X7.4362Y-5.243
X7.458Y-1.2991
X7.5601Y-4.4654
X7.6844Y-3.6938
X7.8025Y-2.9221
X7.8313Y-5.3056
X7.9285Y-2.1505
X7.9552Y-4.528
X8.0466Y-1.371
X8.0794Y-3.7564
X8.1976Y-2.9847
X8.2088Y-5.3777
X8.3235Y-2.2131
X8.3714Y-4.6103
X8.4416Y-1.4335
X8.5367Y-3.8386
X8.6001Y-5.4609
X8.7021Y-3.0749
X8.7626Y-4.6935
X8.8674Y-2.3111
X8.928Y-3.9218
X8.9733Y-5.5504
X9.0328Y-1.5473
X9.0933Y-3.158
X9.1763Y-4.7942
X9.2587Y-2.3942
X9.3597Y-5.654
X9.3811Y-4.0304
X9.4241Y-1.6305
X9.5627Y-4.8977
X9.5779Y-3.2745
X9.7674Y-4.1339
X9.7826Y-2.5186
X9.9643Y-3.378
X9.9874Y-1.7706
X10.169Y-2.6221
X10.3737Y-1.8741
T3
X2.0Y-2.6318
X2.0Y-3.416
X2.0Y-4.2034
X2.0Y-4.9889
X2.25Y-2.5318
X2.25Y-3.316
X2.25Y-4.1034
X2.25Y-4.8889
X2.7757Y-2.6318
X2.7757Y-4.2034
X2.776Y-4.9889
X2.7771Y-3.416
X3.0257Y-2.5318
X3.0257Y-4.1034
X3.026Y-4.8889
X3.0271Y-3.316
X3.5624Y-4.9908
X3.5628Y-3.416
X3.5631Y-2.6318
X3.5631Y-4.2034
X3.8124Y-4.8908
X3.8128Y-3.316
X3.8131Y-2.5318
X3.8131Y-4.1034
X4.3505Y-4.9908
X4.3516Y-2.6318
X4.3516Y-4.2034
X4.3526Y-1.0538
X4.3526Y-1.8444
X4.3526Y-3.416
X4.6005Y-4.8908
X4.6016Y-2.5318
X4.6016Y-4.1034
X4.6026Y-0.9538
X4.6026Y-1.7444
X4.6026Y-3.316
X5.1379Y-4.9889
X5.1386Y-3.4172
X5.1393Y-2.6298
X5.1393Y-4.2015
X5.1402Y-1.0519
X5.1402Y-1.8424
X5.3879Y-4.8889
X5.3886Y-3.3172
X5.3893Y-2.5298
X5.3893Y-4.1015
X5.3902Y-0.9519
X5.3902Y-1.7424
X5.9322Y-4.9999
X5.9734Y-4.2193
X6.0134Y-3.4398
X6.0517Y-2.6524
X6.0911Y-1.8729
X6.1315Y-1.0934
X6.1871Y-4.9132
X6.2282Y-4.1326
X6.2683Y-3.353
X6.3066Y-2.5656
X6.346Y-1.7861
X6.3864Y-1.0066
X6.7156Y-5.0523
X6.798Y-4.2747
X6.8801Y-3.5017
X6.9567Y-2.7221
X6.9747Y-4.979
X7.0416Y-1.9426
X7.0571Y-4.2014
X7.1204Y-1.1631
X7.1392Y-3.4283
X7.2158Y-2.6488
X7.3007Y-1.8693
X7.3794Y-1.0898
X7.5013Y-5.1521
X7.6251Y-4.3745
X7.7494Y-3.6028
X7.7638Y-5.0924
X7.8675Y-2.8312
X7.8877Y-4.3148
X7.9935Y-2.0595
X8.012Y-3.5432
X8.1116Y-1.28
X8.1301Y-2.7715
X8.2561Y-1.9999
X8.2785Y-5.2903
X8.3742Y-1.2204
X8.4411Y-4.5229
X8.5439Y-5.2445
X8.6064Y-3.7512
X8.7064Y-4.477
X8.7718Y-2.9874
X8.8718Y-3.7054
X8.9371Y-2.2237
X9.0371Y-2.9416
X9.0475Y-5.4668
X9.1025Y-1.4599
X9.2025Y-2.1778
X9.2505Y-4.7105
X9.3149Y-5.4349
X9.3678Y-1.414
X9.4553Y-3.9468
X9.5179Y-4.6786
X9.6521Y-3.1909
X9.7226Y-3.9149
X9.8568Y-2.4349
X9.9195Y-3.159
X10.0616Y-1.6869
X10.1242Y-2.4031
X10.3289Y-1.655
T4
X2.15Y-2.7318
X2.15Y-3.516
X2.15Y-4.3034
X2.15Y-5.0889
X2.9257Y-2.7318
X2.9257Y-4.3034
X2.926Y-5.0889
X2.9271Y-3.516
X3.7124Y-5.0908
X3.7128Y-3.516
X3.7131Y-2.7318
X3.7131Y-4.3034
X4.5005Y-5.0908
X4.5016Y-2.7318
X4.5016Y-4.3034
X4.5026Y-1.1538
X4.5026Y-1.9444
X4.5026Y-3.516
X5.2879Y-5.0889
X5.2886Y-3.5172
X5.2893Y-2.7298
X5.2893Y-4.3015
X5.2902Y-1.1519
X5.2902Y-1.9424
X6.0768Y-5.1077
X6.1179Y-4.3271
X6.158Y-3.5475
X6.1963Y-2.7601
X6.2357Y-1.9806
X6.2761Y-1.2011
X6.8544Y-5.1675
X6.9367Y-4.3899
X7.0188Y-3.6168
X7.0954Y-2.8373
X7.1803Y-2.0577
X7.2591Y-1.2782
X7.6338Y-5.2743
X7.7576Y-4.4967
X7.8819Y-3.7251
X8.0Y-2.9534
X8.126Y-2.1818
X8.2441Y-1.4022
X8.4045Y-5.4193
X8.567Y-4.6519
X8.7324Y-3.8802
X8.8977Y-3.1164
X9.0631Y-2.3527
X9.1665Y-5.6022
X9.2284Y-1.5889
X9.3695Y-4.846
X9.5743Y-4.0822
X9.7711Y-3.3263
X9.9758Y-2.5704
X10.1806Y-1.8223
M30
