%TF.GenerationSoftware,KiCad,Pcbnew,9.0.2*%
%TF.CreationDate,2025-07-31T22:52:32+02:00*%
%TF.ProjectId,multiboard_LEFT,6d756c74-6962-46f6-9172-645f4c454654,1.0*%
%TF.SameCoordinates,Original*%
%TF.FileFunction,Legend,Bot*%
%TF.FilePolarity,Positive*%
%FSLAX46Y46*%
G04 Gerber Fmt 4.6, Leading zero omitted, Abs format (unit mm)*
G04 Created by KiCad (PCBNEW 9.0.2) date 2025-07-31 22:52:32*
%MOMM*%
%LPD*%
G01*
G04 APERTURE LIST*
%ADD10C,0.150000*%
%ADD11C,0.120000*%
%ADD12C,0.127000*%
%ADD13C,0.200000*%
G04 APERTURE END LIST*
D10*
X75772539Y-97098749D02*
X75772539Y-96098749D01*
X75772539Y-96098749D02*
X75534444Y-96098749D01*
X75534444Y-96098749D02*
X75391587Y-96146368D01*
X75391587Y-96146368D02*
X75296349Y-96241606D01*
X75296349Y-96241606D02*
X75248730Y-96336844D01*
X75248730Y-96336844D02*
X75201111Y-96527320D01*
X75201111Y-96527320D02*
X75201111Y-96670177D01*
X75201111Y-96670177D02*
X75248730Y-96860653D01*
X75248730Y-96860653D02*
X75296349Y-96955891D01*
X75296349Y-96955891D02*
X75391587Y-97051130D01*
X75391587Y-97051130D02*
X75534444Y-97098749D01*
X75534444Y-97098749D02*
X75772539Y-97098749D01*
X74820158Y-96193987D02*
X74772539Y-96146368D01*
X74772539Y-96146368D02*
X74677301Y-96098749D01*
X74677301Y-96098749D02*
X74439206Y-96098749D01*
X74439206Y-96098749D02*
X74343968Y-96146368D01*
X74343968Y-96146368D02*
X74296349Y-96193987D01*
X74296349Y-96193987D02*
X74248730Y-96289225D01*
X74248730Y-96289225D02*
X74248730Y-96384463D01*
X74248730Y-96384463D02*
X74296349Y-96527320D01*
X74296349Y-96527320D02*
X74867777Y-97098749D01*
X74867777Y-97098749D02*
X74248730Y-97098749D01*
X73867777Y-96193987D02*
X73820158Y-96146368D01*
X73820158Y-96146368D02*
X73724920Y-96098749D01*
X73724920Y-96098749D02*
X73486825Y-96098749D01*
X73486825Y-96098749D02*
X73391587Y-96146368D01*
X73391587Y-96146368D02*
X73343968Y-96193987D01*
X73343968Y-96193987D02*
X73296349Y-96289225D01*
X73296349Y-96289225D02*
X73296349Y-96384463D01*
X73296349Y-96384463D02*
X73343968Y-96527320D01*
X73343968Y-96527320D02*
X73915396Y-97098749D01*
X73915396Y-97098749D02*
X73296349Y-97098749D01*
X115772539Y-57288549D02*
X115772539Y-56288549D01*
X115772539Y-56288549D02*
X115534444Y-56288549D01*
X115534444Y-56288549D02*
X115391587Y-56336168D01*
X115391587Y-56336168D02*
X115296349Y-56431406D01*
X115296349Y-56431406D02*
X115248730Y-56526644D01*
X115248730Y-56526644D02*
X115201111Y-56717120D01*
X115201111Y-56717120D02*
X115201111Y-56859977D01*
X115201111Y-56859977D02*
X115248730Y-57050453D01*
X115248730Y-57050453D02*
X115296349Y-57145691D01*
X115296349Y-57145691D02*
X115391587Y-57240930D01*
X115391587Y-57240930D02*
X115534444Y-57288549D01*
X115534444Y-57288549D02*
X115772539Y-57288549D01*
X114343968Y-56621882D02*
X114343968Y-57288549D01*
X114582063Y-56240930D02*
X114820158Y-56955215D01*
X114820158Y-56955215D02*
X114201111Y-56955215D01*
X113391587Y-56621882D02*
X113391587Y-57288549D01*
X113629682Y-56240930D02*
X113867777Y-56955215D01*
X113867777Y-56955215D02*
X113248730Y-56955215D01*
X115422539Y-37781949D02*
X115422539Y-36781949D01*
X115422539Y-36781949D02*
X115184444Y-36781949D01*
X115184444Y-36781949D02*
X115041587Y-36829568D01*
X115041587Y-36829568D02*
X114946349Y-36924806D01*
X114946349Y-36924806D02*
X114898730Y-37020044D01*
X114898730Y-37020044D02*
X114851111Y-37210520D01*
X114851111Y-37210520D02*
X114851111Y-37353377D01*
X114851111Y-37353377D02*
X114898730Y-37543853D01*
X114898730Y-37543853D02*
X114946349Y-37639091D01*
X114946349Y-37639091D02*
X115041587Y-37734330D01*
X115041587Y-37734330D02*
X115184444Y-37781949D01*
X115184444Y-37781949D02*
X115422539Y-37781949D01*
X113946349Y-36781949D02*
X114422539Y-36781949D01*
X114422539Y-36781949D02*
X114470158Y-37258139D01*
X114470158Y-37258139D02*
X114422539Y-37210520D01*
X114422539Y-37210520D02*
X114327301Y-37162901D01*
X114327301Y-37162901D02*
X114089206Y-37162901D01*
X114089206Y-37162901D02*
X113993968Y-37210520D01*
X113993968Y-37210520D02*
X113946349Y-37258139D01*
X113946349Y-37258139D02*
X113898730Y-37353377D01*
X113898730Y-37353377D02*
X113898730Y-37591472D01*
X113898730Y-37591472D02*
X113946349Y-37686710D01*
X113946349Y-37686710D02*
X113993968Y-37734330D01*
X113993968Y-37734330D02*
X114089206Y-37781949D01*
X114089206Y-37781949D02*
X114327301Y-37781949D01*
X114327301Y-37781949D02*
X114422539Y-37734330D01*
X114422539Y-37734330D02*
X114470158Y-37686710D01*
X113041587Y-37115282D02*
X113041587Y-37781949D01*
X113279682Y-36734330D02*
X113517777Y-37448615D01*
X113517777Y-37448615D02*
X112898730Y-37448615D01*
X198113650Y-122901619D02*
X198270084Y-121913931D01*
X198270084Y-121913931D02*
X198034921Y-121876684D01*
X198034921Y-121876684D02*
X197886373Y-121901369D01*
X197886373Y-121901369D02*
X197777409Y-121980537D01*
X197777409Y-121980537D02*
X197715478Y-122067153D01*
X197715478Y-122067153D02*
X197638648Y-122247835D01*
X197638648Y-122247835D02*
X197616300Y-122388933D01*
X197616300Y-122388933D02*
X197633536Y-122584513D01*
X197633536Y-122584513D02*
X197665670Y-122686028D01*
X197665670Y-122686028D02*
X197744837Y-122794992D01*
X197744837Y-122794992D02*
X197878486Y-122864373D01*
X197878486Y-122864373D02*
X198113650Y-122901619D01*
X196608601Y-122663243D02*
X197172994Y-122752634D01*
X196890798Y-122707938D02*
X197047232Y-121720250D01*
X197047232Y-121720250D02*
X197118950Y-121876247D01*
X197118950Y-121876247D02*
X197198117Y-121985211D01*
X197198117Y-121985211D02*
X197284733Y-122047142D01*
X196133599Y-122009458D02*
X196235114Y-121977324D01*
X196235114Y-121977324D02*
X196289596Y-121937741D01*
X196289596Y-121937741D02*
X196351527Y-121851124D01*
X196351527Y-121851124D02*
X196358976Y-121804091D01*
X196358976Y-121804091D02*
X196326842Y-121702577D01*
X196326842Y-121702577D02*
X196287258Y-121648095D01*
X196287258Y-121648095D02*
X196200642Y-121586163D01*
X196200642Y-121586163D02*
X196012511Y-121556366D01*
X196012511Y-121556366D02*
X195910996Y-121588501D01*
X195910996Y-121588501D02*
X195856514Y-121628084D01*
X195856514Y-121628084D02*
X195794583Y-121714700D01*
X195794583Y-121714700D02*
X195787134Y-121761733D01*
X195787134Y-121761733D02*
X195819268Y-121863248D01*
X195819268Y-121863248D02*
X195858851Y-121917730D01*
X195858851Y-121917730D02*
X195945468Y-121979661D01*
X195945468Y-121979661D02*
X196133599Y-122009458D01*
X196133599Y-122009458D02*
X196220215Y-122071390D01*
X196220215Y-122071390D02*
X196259799Y-122125872D01*
X196259799Y-122125872D02*
X196291933Y-122227386D01*
X196291933Y-122227386D02*
X196262136Y-122415518D01*
X196262136Y-122415518D02*
X196200205Y-122502134D01*
X196200205Y-122502134D02*
X196145723Y-122541717D01*
X196145723Y-122541717D02*
X196044208Y-122573852D01*
X196044208Y-122573852D02*
X195856077Y-122544055D01*
X195856077Y-122544055D02*
X195769460Y-122482123D01*
X195769460Y-122482123D02*
X195729877Y-122427641D01*
X195729877Y-122427641D02*
X195697743Y-122326126D01*
X195697743Y-122326126D02*
X195727540Y-122137995D01*
X195727540Y-122137995D02*
X195789471Y-122051379D01*
X195789471Y-122051379D02*
X195843953Y-122011796D01*
X195843953Y-122011796D02*
X195945468Y-121979661D01*
X55772539Y-97098749D02*
X55772539Y-96098749D01*
X55772539Y-96098749D02*
X55534444Y-96098749D01*
X55534444Y-96098749D02*
X55391587Y-96146368D01*
X55391587Y-96146368D02*
X55296349Y-96241606D01*
X55296349Y-96241606D02*
X55248730Y-96336844D01*
X55248730Y-96336844D02*
X55201111Y-96527320D01*
X55201111Y-96527320D02*
X55201111Y-96670177D01*
X55201111Y-96670177D02*
X55248730Y-96860653D01*
X55248730Y-96860653D02*
X55296349Y-96955891D01*
X55296349Y-96955891D02*
X55391587Y-97051130D01*
X55391587Y-97051130D02*
X55534444Y-97098749D01*
X55534444Y-97098749D02*
X55772539Y-97098749D01*
X54820158Y-96193987D02*
X54772539Y-96146368D01*
X54772539Y-96146368D02*
X54677301Y-96098749D01*
X54677301Y-96098749D02*
X54439206Y-96098749D01*
X54439206Y-96098749D02*
X54343968Y-96146368D01*
X54343968Y-96146368D02*
X54296349Y-96193987D01*
X54296349Y-96193987D02*
X54248730Y-96289225D01*
X54248730Y-96289225D02*
X54248730Y-96384463D01*
X54248730Y-96384463D02*
X54296349Y-96527320D01*
X54296349Y-96527320D02*
X54867777Y-97098749D01*
X54867777Y-97098749D02*
X54248730Y-97098749D01*
X53296349Y-97098749D02*
X53867777Y-97098749D01*
X53582063Y-97098749D02*
X53582063Y-96098749D01*
X53582063Y-96098749D02*
X53677301Y-96241606D01*
X53677301Y-96241606D02*
X53772539Y-96336844D01*
X53772539Y-96336844D02*
X53867777Y-96384463D01*
X244159073Y-111759438D02*
X244417892Y-110793512D01*
X244417892Y-110793512D02*
X244187909Y-110731889D01*
X244187909Y-110731889D02*
X244037595Y-110740911D01*
X244037595Y-110740911D02*
X243920953Y-110808255D01*
X243920953Y-110808255D02*
X243850307Y-110887923D01*
X243850307Y-110887923D02*
X243755012Y-111059584D01*
X243755012Y-111059584D02*
X243718037Y-111197573D01*
X243718037Y-111197573D02*
X243714735Y-111393884D01*
X243714735Y-111393884D02*
X243736082Y-111498202D01*
X243736082Y-111498202D02*
X243803426Y-111614844D01*
X243803426Y-111614844D02*
X243929090Y-111697815D01*
X243929090Y-111697815D02*
X244159073Y-111759438D01*
X243543959Y-110559343D02*
X242946005Y-110399121D01*
X242946005Y-110399121D02*
X243169382Y-110853366D01*
X243169382Y-110853366D02*
X243031393Y-110816392D01*
X243031393Y-110816392D02*
X242927075Y-110837739D01*
X242927075Y-110837739D02*
X242868754Y-110871411D01*
X242868754Y-110871411D02*
X242798108Y-110951079D01*
X242798108Y-110951079D02*
X242736485Y-111181061D01*
X242736485Y-111181061D02*
X242757832Y-111285379D01*
X242757832Y-111285379D02*
X242791503Y-111343700D01*
X242791503Y-111343700D02*
X242871172Y-111414346D01*
X242871172Y-111414346D02*
X243147150Y-111488294D01*
X243147150Y-111488294D02*
X243251468Y-111466947D01*
X243251468Y-111466947D02*
X243309789Y-111433276D01*
X242348051Y-110238900D02*
X242256058Y-110214251D01*
X242256058Y-110214251D02*
X242151740Y-110235598D01*
X242151740Y-110235598D02*
X242093419Y-110269270D01*
X242093419Y-110269270D02*
X242022773Y-110348938D01*
X242022773Y-110348938D02*
X241927478Y-110520599D01*
X241927478Y-110520599D02*
X241865854Y-110750581D01*
X241865854Y-110750581D02*
X241862552Y-110946892D01*
X241862552Y-110946892D02*
X241883899Y-111051209D01*
X241883899Y-111051209D02*
X241917570Y-111109531D01*
X241917570Y-111109531D02*
X241997239Y-111180177D01*
X241997239Y-111180177D02*
X242089232Y-111204826D01*
X242089232Y-111204826D02*
X242193549Y-111183479D01*
X242193549Y-111183479D02*
X242251870Y-111149807D01*
X242251870Y-111149807D02*
X242322516Y-111070139D01*
X242322516Y-111070139D02*
X242417812Y-110898478D01*
X242417812Y-110898478D02*
X242479435Y-110668495D01*
X242479435Y-110668495D02*
X242482738Y-110472185D01*
X242482738Y-110472185D02*
X242461391Y-110367867D01*
X242461391Y-110367867D02*
X242427719Y-110309546D01*
X242427719Y-110309546D02*
X242348051Y-110238900D01*
X237098214Y-131096084D02*
X237357033Y-130130158D01*
X237357033Y-130130158D02*
X237127050Y-130068535D01*
X237127050Y-130068535D02*
X236976736Y-130077557D01*
X236976736Y-130077557D02*
X236860094Y-130144901D01*
X236860094Y-130144901D02*
X236789448Y-130224569D01*
X236789448Y-130224569D02*
X236694153Y-130396230D01*
X236694153Y-130396230D02*
X236657178Y-130534219D01*
X236657178Y-130534219D02*
X236653876Y-130730530D01*
X236653876Y-130730530D02*
X236675223Y-130834848D01*
X236675223Y-130834848D02*
X236742567Y-130951490D01*
X236742567Y-130951490D02*
X236868231Y-131034461D01*
X236868231Y-131034461D02*
X237098214Y-131096084D01*
X236412454Y-129975657D02*
X236378782Y-129917336D01*
X236378782Y-129917336D02*
X236299114Y-129846690D01*
X236299114Y-129846690D02*
X236069132Y-129785066D01*
X236069132Y-129785066D02*
X235964814Y-129806413D01*
X235964814Y-129806413D02*
X235906493Y-129840085D01*
X235906493Y-129840085D02*
X235835847Y-129919753D01*
X235835847Y-129919753D02*
X235811197Y-130011746D01*
X235811197Y-130011746D02*
X235820220Y-130162060D01*
X235820220Y-130162060D02*
X236224281Y-130861915D01*
X236224281Y-130861915D02*
X235626327Y-130701693D01*
X235287192Y-129575546D02*
X235195199Y-129550897D01*
X235195199Y-129550897D02*
X235090881Y-129572244D01*
X235090881Y-129572244D02*
X235032560Y-129605916D01*
X235032560Y-129605916D02*
X234961914Y-129685584D01*
X234961914Y-129685584D02*
X234866619Y-129857245D01*
X234866619Y-129857245D02*
X234804995Y-130087227D01*
X234804995Y-130087227D02*
X234801693Y-130283538D01*
X234801693Y-130283538D02*
X234823040Y-130387855D01*
X234823040Y-130387855D02*
X234856711Y-130446177D01*
X234856711Y-130446177D02*
X234936380Y-130516823D01*
X234936380Y-130516823D02*
X235028373Y-130541472D01*
X235028373Y-130541472D02*
X235132690Y-130520125D01*
X235132690Y-130520125D02*
X235191011Y-130486453D01*
X235191011Y-130486453D02*
X235261657Y-130406785D01*
X235261657Y-130406785D02*
X235356953Y-130235124D01*
X235356953Y-130235124D02*
X235418576Y-130005141D01*
X235418576Y-130005141D02*
X235421879Y-129808831D01*
X235421879Y-129808831D02*
X235400532Y-129704513D01*
X235400532Y-129704513D02*
X235366860Y-129646192D01*
X235366860Y-129646192D02*
X235287192Y-129575546D01*
X181390736Y-80026968D02*
X181495264Y-79032447D01*
X181495264Y-79032447D02*
X181258473Y-79007559D01*
X181258473Y-79007559D02*
X181111421Y-79039984D01*
X181111421Y-79039984D02*
X181006750Y-79124746D01*
X181006750Y-79124746D02*
X180949436Y-79214484D01*
X180949436Y-79214484D02*
X180882168Y-79398940D01*
X180882168Y-79398940D02*
X180867235Y-79541014D01*
X180867235Y-79541014D02*
X180894683Y-79735424D01*
X180894683Y-79735424D02*
X180932087Y-79835118D01*
X180932087Y-79835118D02*
X181016848Y-79939790D01*
X181016848Y-79939790D02*
X181153945Y-80002081D01*
X181153945Y-80002081D02*
X181390736Y-80026968D01*
X180595459Y-78937873D02*
X179979802Y-78873165D01*
X179979802Y-78873165D02*
X180271489Y-79286873D01*
X180271489Y-79286873D02*
X180129415Y-79271941D01*
X180129415Y-79271941D02*
X180029721Y-79309344D01*
X180029721Y-79309344D02*
X179977385Y-79351724D01*
X179977385Y-79351724D02*
X179920072Y-79441463D01*
X179920072Y-79441463D02*
X179895184Y-79678254D01*
X179895184Y-79678254D02*
X179932587Y-79777948D01*
X179932587Y-79777948D02*
X179974968Y-79830284D01*
X179974968Y-79830284D02*
X180064707Y-79887597D01*
X180064707Y-79887597D02*
X180348856Y-79917462D01*
X180348856Y-79917462D02*
X180448550Y-79880059D01*
X180448550Y-79880059D02*
X180500885Y-79837679D01*
X179648295Y-78838322D02*
X178985280Y-78768637D01*
X178985280Y-78768637D02*
X179306976Y-79807956D01*
X115772539Y-117781949D02*
X115772539Y-116781949D01*
X115772539Y-116781949D02*
X115534444Y-116781949D01*
X115534444Y-116781949D02*
X115391587Y-116829568D01*
X115391587Y-116829568D02*
X115296349Y-116924806D01*
X115296349Y-116924806D02*
X115248730Y-117020044D01*
X115248730Y-117020044D02*
X115201111Y-117210520D01*
X115201111Y-117210520D02*
X115201111Y-117353377D01*
X115201111Y-117353377D02*
X115248730Y-117543853D01*
X115248730Y-117543853D02*
X115296349Y-117639091D01*
X115296349Y-117639091D02*
X115391587Y-117734330D01*
X115391587Y-117734330D02*
X115534444Y-117781949D01*
X115534444Y-117781949D02*
X115772539Y-117781949D01*
X114248730Y-117781949D02*
X114820158Y-117781949D01*
X114534444Y-117781949D02*
X114534444Y-116781949D01*
X114534444Y-116781949D02*
X114629682Y-116924806D01*
X114629682Y-116924806D02*
X114724920Y-117020044D01*
X114724920Y-117020044D02*
X114820158Y-117067663D01*
X113391587Y-117115282D02*
X113391587Y-117781949D01*
X113629682Y-116734330D02*
X113867777Y-117448615D01*
X113867777Y-117448615D02*
X113248730Y-117448615D01*
X183592053Y-60331568D02*
X183696581Y-59337047D01*
X183696581Y-59337047D02*
X183459790Y-59312159D01*
X183459790Y-59312159D02*
X183312738Y-59344584D01*
X183312738Y-59344584D02*
X183208067Y-59429346D01*
X183208067Y-59429346D02*
X183150753Y-59519084D01*
X183150753Y-59519084D02*
X183083485Y-59703540D01*
X183083485Y-59703540D02*
X183068552Y-59845614D01*
X183068552Y-59845614D02*
X183096000Y-60040024D01*
X183096000Y-60040024D02*
X183133404Y-60139718D01*
X183133404Y-60139718D02*
X183218165Y-60244390D01*
X183218165Y-60244390D02*
X183355262Y-60306681D01*
X183355262Y-60306681D02*
X183592053Y-60331568D01*
X182240993Y-59519227D02*
X182171307Y-60182242D01*
X182517604Y-59165250D02*
X182679732Y-59900510D01*
X182679732Y-59900510D02*
X182064075Y-59835802D01*
X181849612Y-59142922D02*
X181186597Y-59073237D01*
X181186597Y-59073237D02*
X181508293Y-60112556D01*
X201261078Y-102618419D02*
X201417512Y-101630731D01*
X201417512Y-101630731D02*
X201182349Y-101593484D01*
X201182349Y-101593484D02*
X201033801Y-101618169D01*
X201033801Y-101618169D02*
X200924837Y-101697337D01*
X200924837Y-101697337D02*
X200862906Y-101783953D01*
X200862906Y-101783953D02*
X200786076Y-101964635D01*
X200786076Y-101964635D02*
X200763728Y-102105733D01*
X200763728Y-102105733D02*
X200780964Y-102301313D01*
X200780964Y-102301313D02*
X200813098Y-102402828D01*
X200813098Y-102402828D02*
X200892265Y-102511792D01*
X200892265Y-102511792D02*
X201025914Y-102581173D01*
X201025914Y-102581173D02*
X201261078Y-102618419D01*
X200461958Y-101575811D02*
X200422375Y-101521329D01*
X200422375Y-101521329D02*
X200335759Y-101459398D01*
X200335759Y-101459398D02*
X200100595Y-101422151D01*
X200100595Y-101422151D02*
X199999080Y-101454286D01*
X199999080Y-101454286D02*
X199944598Y-101493869D01*
X199944598Y-101493869D02*
X199882667Y-101580486D01*
X199882667Y-101580486D02*
X199867768Y-101674551D01*
X199867768Y-101674551D02*
X199892453Y-101823099D01*
X199892453Y-101823099D02*
X200367455Y-102476883D01*
X200367455Y-102476883D02*
X199756029Y-102380043D01*
X199281027Y-101726258D02*
X199382542Y-101694124D01*
X199382542Y-101694124D02*
X199437024Y-101654541D01*
X199437024Y-101654541D02*
X199498955Y-101567924D01*
X199498955Y-101567924D02*
X199506404Y-101520891D01*
X199506404Y-101520891D02*
X199474270Y-101419377D01*
X199474270Y-101419377D02*
X199434686Y-101364895D01*
X199434686Y-101364895D02*
X199348070Y-101302963D01*
X199348070Y-101302963D02*
X199159939Y-101273166D01*
X199159939Y-101273166D02*
X199058424Y-101305301D01*
X199058424Y-101305301D02*
X199003942Y-101344884D01*
X199003942Y-101344884D02*
X198942011Y-101431500D01*
X198942011Y-101431500D02*
X198934562Y-101478533D01*
X198934562Y-101478533D02*
X198966696Y-101580048D01*
X198966696Y-101580048D02*
X199006279Y-101634530D01*
X199006279Y-101634530D02*
X199092896Y-101696461D01*
X199092896Y-101696461D02*
X199281027Y-101726258D01*
X199281027Y-101726258D02*
X199367643Y-101788190D01*
X199367643Y-101788190D02*
X199407227Y-101842672D01*
X199407227Y-101842672D02*
X199439361Y-101944186D01*
X199439361Y-101944186D02*
X199409564Y-102132318D01*
X199409564Y-102132318D02*
X199347633Y-102218934D01*
X199347633Y-102218934D02*
X199293151Y-102258517D01*
X199293151Y-102258517D02*
X199191636Y-102290652D01*
X199191636Y-102290652D02*
X199003505Y-102260855D01*
X199003505Y-102260855D02*
X198916888Y-102198923D01*
X198916888Y-102198923D02*
X198877305Y-102144441D01*
X198877305Y-102144441D02*
X198845171Y-102042926D01*
X198845171Y-102042926D02*
X198874968Y-101854795D01*
X198874968Y-101854795D02*
X198936899Y-101768179D01*
X198936899Y-101768179D02*
X198991381Y-101728596D01*
X198991381Y-101728596D02*
X199092896Y-101696461D01*
X95694761Y-77183949D02*
X95694761Y-76183949D01*
X95694761Y-76183949D02*
X95456666Y-76183949D01*
X95456666Y-76183949D02*
X95313809Y-76231568D01*
X95313809Y-76231568D02*
X95218571Y-76326806D01*
X95218571Y-76326806D02*
X95170952Y-76422044D01*
X95170952Y-76422044D02*
X95123333Y-76612520D01*
X95123333Y-76612520D02*
X95123333Y-76755377D01*
X95123333Y-76755377D02*
X95170952Y-76945853D01*
X95170952Y-76945853D02*
X95218571Y-77041091D01*
X95218571Y-77041091D02*
X95313809Y-77136330D01*
X95313809Y-77136330D02*
X95456666Y-77183949D01*
X95456666Y-77183949D02*
X95694761Y-77183949D01*
X94789999Y-76183949D02*
X94170952Y-76183949D01*
X94170952Y-76183949D02*
X94504285Y-76564901D01*
X94504285Y-76564901D02*
X94361428Y-76564901D01*
X94361428Y-76564901D02*
X94266190Y-76612520D01*
X94266190Y-76612520D02*
X94218571Y-76660139D01*
X94218571Y-76660139D02*
X94170952Y-76755377D01*
X94170952Y-76755377D02*
X94170952Y-76993472D01*
X94170952Y-76993472D02*
X94218571Y-77088710D01*
X94218571Y-77088710D02*
X94266190Y-77136330D01*
X94266190Y-77136330D02*
X94361428Y-77183949D01*
X94361428Y-77183949D02*
X94647142Y-77183949D01*
X94647142Y-77183949D02*
X94742380Y-77136330D01*
X94742380Y-77136330D02*
X94789999Y-77088710D01*
X93837618Y-76183949D02*
X93218571Y-76183949D01*
X93218571Y-76183949D02*
X93551904Y-76564901D01*
X93551904Y-76564901D02*
X93409047Y-76564901D01*
X93409047Y-76564901D02*
X93313809Y-76612520D01*
X93313809Y-76612520D02*
X93266190Y-76660139D01*
X93266190Y-76660139D02*
X93218571Y-76755377D01*
X93218571Y-76755377D02*
X93218571Y-76993472D01*
X93218571Y-76993472D02*
X93266190Y-77088710D01*
X93266190Y-77088710D02*
X93313809Y-77136330D01*
X93313809Y-77136330D02*
X93409047Y-77183949D01*
X93409047Y-77183949D02*
X93694761Y-77183949D01*
X93694761Y-77183949D02*
X93789999Y-77136330D01*
X93789999Y-77136330D02*
X93837618Y-77088710D01*
X55772539Y-77183949D02*
X55772539Y-76183949D01*
X55772539Y-76183949D02*
X55534444Y-76183949D01*
X55534444Y-76183949D02*
X55391587Y-76231568D01*
X55391587Y-76231568D02*
X55296349Y-76326806D01*
X55296349Y-76326806D02*
X55248730Y-76422044D01*
X55248730Y-76422044D02*
X55201111Y-76612520D01*
X55201111Y-76612520D02*
X55201111Y-76755377D01*
X55201111Y-76755377D02*
X55248730Y-76945853D01*
X55248730Y-76945853D02*
X55296349Y-77041091D01*
X55296349Y-77041091D02*
X55391587Y-77136330D01*
X55391587Y-77136330D02*
X55534444Y-77183949D01*
X55534444Y-77183949D02*
X55772539Y-77183949D01*
X54867777Y-76183949D02*
X54248730Y-76183949D01*
X54248730Y-76183949D02*
X54582063Y-76564901D01*
X54582063Y-76564901D02*
X54439206Y-76564901D01*
X54439206Y-76564901D02*
X54343968Y-76612520D01*
X54343968Y-76612520D02*
X54296349Y-76660139D01*
X54296349Y-76660139D02*
X54248730Y-76755377D01*
X54248730Y-76755377D02*
X54248730Y-76993472D01*
X54248730Y-76993472D02*
X54296349Y-77088710D01*
X54296349Y-77088710D02*
X54343968Y-77136330D01*
X54343968Y-77136330D02*
X54439206Y-77183949D01*
X54439206Y-77183949D02*
X54724920Y-77183949D01*
X54724920Y-77183949D02*
X54820158Y-77136330D01*
X54820158Y-77136330D02*
X54867777Y-77088710D01*
X53296349Y-77183949D02*
X53867777Y-77183949D01*
X53582063Y-77183949D02*
X53582063Y-76183949D01*
X53582063Y-76183949D02*
X53677301Y-76326806D01*
X53677301Y-76326806D02*
X53772539Y-76422044D01*
X53772539Y-76422044D02*
X53867777Y-76469663D01*
X115096348Y-137781949D02*
X115096348Y-136781949D01*
X115096348Y-136781949D02*
X114858253Y-136781949D01*
X114858253Y-136781949D02*
X114715396Y-136829568D01*
X114715396Y-136829568D02*
X114620158Y-136924806D01*
X114620158Y-136924806D02*
X114572539Y-137020044D01*
X114572539Y-137020044D02*
X114524920Y-137210520D01*
X114524920Y-137210520D02*
X114524920Y-137353377D01*
X114524920Y-137353377D02*
X114572539Y-137543853D01*
X114572539Y-137543853D02*
X114620158Y-137639091D01*
X114620158Y-137639091D02*
X114715396Y-137734330D01*
X114715396Y-137734330D02*
X114858253Y-137781949D01*
X114858253Y-137781949D02*
X115096348Y-137781949D01*
X113667777Y-137115282D02*
X113667777Y-137781949D01*
X113905872Y-136734330D02*
X114143967Y-137448615D01*
X114143967Y-137448615D02*
X113524920Y-137448615D01*
X213805622Y-146275006D02*
X214013534Y-145296859D01*
X214013534Y-145296859D02*
X213780641Y-145247356D01*
X213780641Y-145247356D02*
X213631005Y-145264233D01*
X213631005Y-145264233D02*
X213518047Y-145337588D01*
X213518047Y-145337588D02*
X213451668Y-145420845D01*
X213451668Y-145420845D02*
X213365487Y-145597258D01*
X213365487Y-145597258D02*
X213335785Y-145736993D01*
X213335785Y-145736993D02*
X213342762Y-145933208D01*
X213342762Y-145933208D02*
X213369539Y-146036265D01*
X213369539Y-146036265D02*
X213442895Y-146149223D01*
X213442895Y-146149223D02*
X213572730Y-146225503D01*
X213572730Y-146225503D02*
X213805622Y-146275006D01*
X212780896Y-146057194D02*
X212594582Y-146017592D01*
X212594582Y-146017592D02*
X212511326Y-145951212D01*
X212511326Y-145951212D02*
X212474648Y-145894733D01*
X212474648Y-145894733D02*
X212411193Y-145735197D01*
X212411193Y-145735197D02*
X212404216Y-145538982D01*
X212404216Y-145538982D02*
X212483421Y-145166355D01*
X212483421Y-145166355D02*
X212549800Y-145083098D01*
X212549800Y-145083098D02*
X212606279Y-145046420D01*
X212606279Y-145046420D02*
X212709337Y-145019643D01*
X212709337Y-145019643D02*
X212895651Y-145059245D01*
X212895651Y-145059245D02*
X212978907Y-145125625D01*
X212978907Y-145125625D02*
X213015585Y-145182104D01*
X213015585Y-145182104D02*
X213042362Y-145285161D01*
X213042362Y-145285161D02*
X212992859Y-145518054D01*
X212992859Y-145518054D02*
X212926480Y-145601310D01*
X212926480Y-145601310D02*
X212870001Y-145637988D01*
X212870001Y-145637988D02*
X212766943Y-145664765D01*
X212766943Y-145664765D02*
X212580630Y-145625163D01*
X212580630Y-145625163D02*
X212497373Y-145558783D01*
X212497373Y-145558783D02*
X212460695Y-145502304D01*
X212460695Y-145502304D02*
X212433918Y-145399247D01*
X218529222Y-126881188D02*
X218737134Y-125903040D01*
X218737134Y-125903040D02*
X218504241Y-125853537D01*
X218504241Y-125853537D02*
X218354605Y-125870414D01*
X218354605Y-125870414D02*
X218241647Y-125943770D01*
X218241647Y-125943770D02*
X218175268Y-126027026D01*
X218175268Y-126027026D02*
X218089087Y-126203440D01*
X218089087Y-126203440D02*
X218059386Y-126343175D01*
X218059386Y-126343175D02*
X218066362Y-126539389D01*
X218066362Y-126539389D02*
X218093139Y-126642447D01*
X218093139Y-126642447D02*
X218166495Y-126755405D01*
X218166495Y-126755405D02*
X218296330Y-126831685D01*
X218296330Y-126831685D02*
X218529222Y-126881188D01*
X217038711Y-126564370D02*
X217597653Y-126683177D01*
X217318182Y-126623773D02*
X217526094Y-125645626D01*
X217526094Y-125645626D02*
X217589549Y-125805162D01*
X217589549Y-125805162D02*
X217662905Y-125918120D01*
X217662905Y-125918120D02*
X217746161Y-125984500D01*
X216572927Y-126465364D02*
X216386613Y-126425762D01*
X216386613Y-126425762D02*
X216303357Y-126359383D01*
X216303357Y-126359383D02*
X216266679Y-126302904D01*
X216266679Y-126302904D02*
X216203223Y-126143367D01*
X216203223Y-126143367D02*
X216196247Y-125947153D01*
X216196247Y-125947153D02*
X216275452Y-125574525D01*
X216275452Y-125574525D02*
X216341831Y-125491269D01*
X216341831Y-125491269D02*
X216398310Y-125454591D01*
X216398310Y-125454591D02*
X216501368Y-125427814D01*
X216501368Y-125427814D02*
X216687682Y-125467416D01*
X216687682Y-125467416D02*
X216770938Y-125533795D01*
X216770938Y-125533795D02*
X216807616Y-125590274D01*
X216807616Y-125590274D02*
X216834393Y-125693332D01*
X216834393Y-125693332D02*
X216784890Y-125926224D01*
X216784890Y-125926224D02*
X216718511Y-126009480D01*
X216718511Y-126009480D02*
X216662032Y-126046158D01*
X216662032Y-126046158D02*
X216558974Y-126072936D01*
X216558974Y-126072936D02*
X216372660Y-126033333D01*
X216372660Y-126033333D02*
X216289404Y-125966954D01*
X216289404Y-125966954D02*
X216252726Y-125910475D01*
X216252726Y-125910475D02*
X216225949Y-125807417D01*
X135714206Y-57288549D02*
X135714206Y-56288549D01*
X135714206Y-56288549D02*
X135476111Y-56288549D01*
X135476111Y-56288549D02*
X135333254Y-56336168D01*
X135333254Y-56336168D02*
X135238016Y-56431406D01*
X135238016Y-56431406D02*
X135190397Y-56526644D01*
X135190397Y-56526644D02*
X135142778Y-56717120D01*
X135142778Y-56717120D02*
X135142778Y-56859977D01*
X135142778Y-56859977D02*
X135190397Y-57050453D01*
X135190397Y-57050453D02*
X135238016Y-57145691D01*
X135238016Y-57145691D02*
X135333254Y-57240930D01*
X135333254Y-57240930D02*
X135476111Y-57288549D01*
X135476111Y-57288549D02*
X135714206Y-57288549D01*
X134285635Y-56621882D02*
X134285635Y-57288549D01*
X134523730Y-56240930D02*
X134761825Y-56955215D01*
X134761825Y-56955215D02*
X134142778Y-56955215D01*
X133285635Y-56288549D02*
X133761825Y-56288549D01*
X133761825Y-56288549D02*
X133809444Y-56764739D01*
X133809444Y-56764739D02*
X133761825Y-56717120D01*
X133761825Y-56717120D02*
X133666587Y-56669501D01*
X133666587Y-56669501D02*
X133428492Y-56669501D01*
X133428492Y-56669501D02*
X133333254Y-56717120D01*
X133333254Y-56717120D02*
X133285635Y-56764739D01*
X133285635Y-56764739D02*
X133238016Y-56859977D01*
X133238016Y-56859977D02*
X133238016Y-57098072D01*
X133238016Y-57098072D02*
X133285635Y-57193310D01*
X133285635Y-57193310D02*
X133333254Y-57240930D01*
X133333254Y-57240930D02*
X133428492Y-57288549D01*
X133428492Y-57288549D02*
X133666587Y-57288549D01*
X133666587Y-57288549D02*
X133761825Y-57240930D01*
X133761825Y-57240930D02*
X133809444Y-57193310D01*
X160680090Y-39097524D02*
X160732426Y-38098895D01*
X160732426Y-38098895D02*
X160494657Y-38086434D01*
X160494657Y-38086434D02*
X160349503Y-38126511D01*
X160349503Y-38126511D02*
X160249411Y-38216634D01*
X160249411Y-38216634D02*
X160196873Y-38309249D01*
X160196873Y-38309249D02*
X160139351Y-38496972D01*
X160139351Y-38496972D02*
X160131874Y-38639634D01*
X160131874Y-38639634D02*
X160169459Y-38832341D01*
X160169459Y-38832341D02*
X160212028Y-38929941D01*
X160212028Y-38929941D02*
X160302152Y-39030033D01*
X160302152Y-39030033D02*
X160442321Y-39085063D01*
X160442321Y-39085063D02*
X160680090Y-39097524D01*
X159258258Y-38021637D02*
X159733796Y-38046559D01*
X159733796Y-38046559D02*
X159756428Y-38524589D01*
X159756428Y-38524589D02*
X159711366Y-38474543D01*
X159711366Y-38474543D02*
X159618751Y-38422004D01*
X159618751Y-38422004D02*
X159380982Y-38409544D01*
X159380982Y-38409544D02*
X159283382Y-38452113D01*
X159283382Y-38452113D02*
X159233336Y-38497175D01*
X159233336Y-38497175D02*
X159180798Y-38589790D01*
X159180798Y-38589790D02*
X159168337Y-38827559D01*
X159168337Y-38827559D02*
X159210907Y-38925159D01*
X159210907Y-38925159D02*
X159255968Y-38975205D01*
X159255968Y-38975205D02*
X159348584Y-39027743D01*
X159348584Y-39027743D02*
X159586353Y-39040204D01*
X159586353Y-39040204D02*
X159683952Y-38997634D01*
X159683952Y-38997634D02*
X159733998Y-38952573D01*
X158354736Y-37974285D02*
X158544951Y-37984254D01*
X158544951Y-37984254D02*
X158637567Y-38036792D01*
X158637567Y-38036792D02*
X158682628Y-38086838D01*
X158682628Y-38086838D02*
X158770259Y-38234484D01*
X158770259Y-38234484D02*
X158807844Y-38427191D01*
X158807844Y-38427191D02*
X158787907Y-38807621D01*
X158787907Y-38807621D02*
X158735369Y-38900237D01*
X158735369Y-38900237D02*
X158685323Y-38945298D01*
X158685323Y-38945298D02*
X158587723Y-38987868D01*
X158587723Y-38987868D02*
X158397508Y-38977899D01*
X158397508Y-38977899D02*
X158304893Y-38925361D01*
X158304893Y-38925361D02*
X158259831Y-38875315D01*
X158259831Y-38875315D02*
X158217261Y-38777715D01*
X158217261Y-38777715D02*
X158229722Y-38539946D01*
X158229722Y-38539946D02*
X158282261Y-38447331D01*
X158282261Y-38447331D02*
X158332307Y-38402269D01*
X158332307Y-38402269D02*
X158429906Y-38359700D01*
X158429906Y-38359700D02*
X158620121Y-38369669D01*
X158620121Y-38369669D02*
X158712737Y-38422207D01*
X158712737Y-38422207D02*
X158757798Y-38472253D01*
X158757798Y-38472253D02*
X158800368Y-38569852D01*
X135772539Y-117781949D02*
X135772539Y-116781949D01*
X135772539Y-116781949D02*
X135534444Y-116781949D01*
X135534444Y-116781949D02*
X135391587Y-116829568D01*
X135391587Y-116829568D02*
X135296349Y-116924806D01*
X135296349Y-116924806D02*
X135248730Y-117020044D01*
X135248730Y-117020044D02*
X135201111Y-117210520D01*
X135201111Y-117210520D02*
X135201111Y-117353377D01*
X135201111Y-117353377D02*
X135248730Y-117543853D01*
X135248730Y-117543853D02*
X135296349Y-117639091D01*
X135296349Y-117639091D02*
X135391587Y-117734330D01*
X135391587Y-117734330D02*
X135534444Y-117781949D01*
X135534444Y-117781949D02*
X135772539Y-117781949D01*
X134248730Y-117781949D02*
X134820158Y-117781949D01*
X134534444Y-117781949D02*
X134534444Y-116781949D01*
X134534444Y-116781949D02*
X134629682Y-116924806D01*
X134629682Y-116924806D02*
X134724920Y-117020044D01*
X134724920Y-117020044D02*
X134820158Y-117067663D01*
X133343968Y-116781949D02*
X133820158Y-116781949D01*
X133820158Y-116781949D02*
X133867777Y-117258139D01*
X133867777Y-117258139D02*
X133820158Y-117210520D01*
X133820158Y-117210520D02*
X133724920Y-117162901D01*
X133724920Y-117162901D02*
X133486825Y-117162901D01*
X133486825Y-117162901D02*
X133391587Y-117210520D01*
X133391587Y-117210520D02*
X133343968Y-117258139D01*
X133343968Y-117258139D02*
X133296349Y-117353377D01*
X133296349Y-117353377D02*
X133296349Y-117591472D01*
X133296349Y-117591472D02*
X133343968Y-117686710D01*
X133343968Y-117686710D02*
X133391587Y-117734330D01*
X133391587Y-117734330D02*
X133486825Y-117781949D01*
X133486825Y-117781949D02*
X133724920Y-117781949D01*
X133724920Y-117781949D02*
X133820158Y-117734330D01*
X133820158Y-117734330D02*
X133867777Y-117686710D01*
X135422539Y-97098749D02*
X135422539Y-96098749D01*
X135422539Y-96098749D02*
X135184444Y-96098749D01*
X135184444Y-96098749D02*
X135041587Y-96146368D01*
X135041587Y-96146368D02*
X134946349Y-96241606D01*
X134946349Y-96241606D02*
X134898730Y-96336844D01*
X134898730Y-96336844D02*
X134851111Y-96527320D01*
X134851111Y-96527320D02*
X134851111Y-96670177D01*
X134851111Y-96670177D02*
X134898730Y-96860653D01*
X134898730Y-96860653D02*
X134946349Y-96955891D01*
X134946349Y-96955891D02*
X135041587Y-97051130D01*
X135041587Y-97051130D02*
X135184444Y-97098749D01*
X135184444Y-97098749D02*
X135422539Y-97098749D01*
X134470158Y-96193987D02*
X134422539Y-96146368D01*
X134422539Y-96146368D02*
X134327301Y-96098749D01*
X134327301Y-96098749D02*
X134089206Y-96098749D01*
X134089206Y-96098749D02*
X133993968Y-96146368D01*
X133993968Y-96146368D02*
X133946349Y-96193987D01*
X133946349Y-96193987D02*
X133898730Y-96289225D01*
X133898730Y-96289225D02*
X133898730Y-96384463D01*
X133898730Y-96384463D02*
X133946349Y-96527320D01*
X133946349Y-96527320D02*
X134517777Y-97098749D01*
X134517777Y-97098749D02*
X133898730Y-97098749D01*
X132993968Y-96098749D02*
X133470158Y-96098749D01*
X133470158Y-96098749D02*
X133517777Y-96574939D01*
X133517777Y-96574939D02*
X133470158Y-96527320D01*
X133470158Y-96527320D02*
X133374920Y-96479701D01*
X133374920Y-96479701D02*
X133136825Y-96479701D01*
X133136825Y-96479701D02*
X133041587Y-96527320D01*
X133041587Y-96527320D02*
X132993968Y-96574939D01*
X132993968Y-96574939D02*
X132946349Y-96670177D01*
X132946349Y-96670177D02*
X132946349Y-96908272D01*
X132946349Y-96908272D02*
X132993968Y-97003510D01*
X132993968Y-97003510D02*
X133041587Y-97051130D01*
X133041587Y-97051130D02*
X133136825Y-97098749D01*
X133136825Y-97098749D02*
X133374920Y-97098749D01*
X133374920Y-97098749D02*
X133470158Y-97051130D01*
X133470158Y-97051130D02*
X133517777Y-97003510D01*
X115655872Y-77183949D02*
X115655872Y-76183949D01*
X115655872Y-76183949D02*
X115417777Y-76183949D01*
X115417777Y-76183949D02*
X115274920Y-76231568D01*
X115274920Y-76231568D02*
X115179682Y-76326806D01*
X115179682Y-76326806D02*
X115132063Y-76422044D01*
X115132063Y-76422044D02*
X115084444Y-76612520D01*
X115084444Y-76612520D02*
X115084444Y-76755377D01*
X115084444Y-76755377D02*
X115132063Y-76945853D01*
X115132063Y-76945853D02*
X115179682Y-77041091D01*
X115179682Y-77041091D02*
X115274920Y-77136330D01*
X115274920Y-77136330D02*
X115417777Y-77183949D01*
X115417777Y-77183949D02*
X115655872Y-77183949D01*
X114751110Y-76183949D02*
X114132063Y-76183949D01*
X114132063Y-76183949D02*
X114465396Y-76564901D01*
X114465396Y-76564901D02*
X114322539Y-76564901D01*
X114322539Y-76564901D02*
X114227301Y-76612520D01*
X114227301Y-76612520D02*
X114179682Y-76660139D01*
X114179682Y-76660139D02*
X114132063Y-76755377D01*
X114132063Y-76755377D02*
X114132063Y-76993472D01*
X114132063Y-76993472D02*
X114179682Y-77088710D01*
X114179682Y-77088710D02*
X114227301Y-77136330D01*
X114227301Y-77136330D02*
X114322539Y-77183949D01*
X114322539Y-77183949D02*
X114608253Y-77183949D01*
X114608253Y-77183949D02*
X114703491Y-77136330D01*
X114703491Y-77136330D02*
X114751110Y-77088710D01*
X113274920Y-76517282D02*
X113274920Y-77183949D01*
X113513015Y-76136330D02*
X113751110Y-76850615D01*
X113751110Y-76850615D02*
X113132063Y-76850615D01*
X115772539Y-97098749D02*
X115772539Y-96098749D01*
X115772539Y-96098749D02*
X115534444Y-96098749D01*
X115534444Y-96098749D02*
X115391587Y-96146368D01*
X115391587Y-96146368D02*
X115296349Y-96241606D01*
X115296349Y-96241606D02*
X115248730Y-96336844D01*
X115248730Y-96336844D02*
X115201111Y-96527320D01*
X115201111Y-96527320D02*
X115201111Y-96670177D01*
X115201111Y-96670177D02*
X115248730Y-96860653D01*
X115248730Y-96860653D02*
X115296349Y-96955891D01*
X115296349Y-96955891D02*
X115391587Y-97051130D01*
X115391587Y-97051130D02*
X115534444Y-97098749D01*
X115534444Y-97098749D02*
X115772539Y-97098749D01*
X114820158Y-96193987D02*
X114772539Y-96146368D01*
X114772539Y-96146368D02*
X114677301Y-96098749D01*
X114677301Y-96098749D02*
X114439206Y-96098749D01*
X114439206Y-96098749D02*
X114343968Y-96146368D01*
X114343968Y-96146368D02*
X114296349Y-96193987D01*
X114296349Y-96193987D02*
X114248730Y-96289225D01*
X114248730Y-96289225D02*
X114248730Y-96384463D01*
X114248730Y-96384463D02*
X114296349Y-96527320D01*
X114296349Y-96527320D02*
X114867777Y-97098749D01*
X114867777Y-97098749D02*
X114248730Y-97098749D01*
X113391587Y-96432082D02*
X113391587Y-97098749D01*
X113629682Y-96051130D02*
X113867777Y-96765415D01*
X113867777Y-96765415D02*
X113248730Y-96765415D01*
X135422539Y-37781949D02*
X135422539Y-36781949D01*
X135422539Y-36781949D02*
X135184444Y-36781949D01*
X135184444Y-36781949D02*
X135041587Y-36829568D01*
X135041587Y-36829568D02*
X134946349Y-36924806D01*
X134946349Y-36924806D02*
X134898730Y-37020044D01*
X134898730Y-37020044D02*
X134851111Y-37210520D01*
X134851111Y-37210520D02*
X134851111Y-37353377D01*
X134851111Y-37353377D02*
X134898730Y-37543853D01*
X134898730Y-37543853D02*
X134946349Y-37639091D01*
X134946349Y-37639091D02*
X135041587Y-37734330D01*
X135041587Y-37734330D02*
X135184444Y-37781949D01*
X135184444Y-37781949D02*
X135422539Y-37781949D01*
X133946349Y-36781949D02*
X134422539Y-36781949D01*
X134422539Y-36781949D02*
X134470158Y-37258139D01*
X134470158Y-37258139D02*
X134422539Y-37210520D01*
X134422539Y-37210520D02*
X134327301Y-37162901D01*
X134327301Y-37162901D02*
X134089206Y-37162901D01*
X134089206Y-37162901D02*
X133993968Y-37210520D01*
X133993968Y-37210520D02*
X133946349Y-37258139D01*
X133946349Y-37258139D02*
X133898730Y-37353377D01*
X133898730Y-37353377D02*
X133898730Y-37591472D01*
X133898730Y-37591472D02*
X133946349Y-37686710D01*
X133946349Y-37686710D02*
X133993968Y-37734330D01*
X133993968Y-37734330D02*
X134089206Y-37781949D01*
X134089206Y-37781949D02*
X134327301Y-37781949D01*
X134327301Y-37781949D02*
X134422539Y-37734330D01*
X134422539Y-37734330D02*
X134470158Y-37686710D01*
X132993968Y-36781949D02*
X133470158Y-36781949D01*
X133470158Y-36781949D02*
X133517777Y-37258139D01*
X133517777Y-37258139D02*
X133470158Y-37210520D01*
X133470158Y-37210520D02*
X133374920Y-37162901D01*
X133374920Y-37162901D02*
X133136825Y-37162901D01*
X133136825Y-37162901D02*
X133041587Y-37210520D01*
X133041587Y-37210520D02*
X132993968Y-37258139D01*
X132993968Y-37258139D02*
X132946349Y-37353377D01*
X132946349Y-37353377D02*
X132946349Y-37591472D01*
X132946349Y-37591472D02*
X132993968Y-37686710D01*
X132993968Y-37686710D02*
X133041587Y-37734330D01*
X133041587Y-37734330D02*
X133136825Y-37781949D01*
X133136825Y-37781949D02*
X133374920Y-37781949D01*
X133374920Y-37781949D02*
X133470158Y-37734330D01*
X133470158Y-37734330D02*
X133517777Y-37686710D01*
X179353757Y-99821768D02*
X179458285Y-98827247D01*
X179458285Y-98827247D02*
X179221494Y-98802359D01*
X179221494Y-98802359D02*
X179074442Y-98834784D01*
X179074442Y-98834784D02*
X178969771Y-98919546D01*
X178969771Y-98919546D02*
X178912457Y-99009284D01*
X178912457Y-99009284D02*
X178845189Y-99193740D01*
X178845189Y-99193740D02*
X178830256Y-99335814D01*
X178830256Y-99335814D02*
X178857704Y-99530224D01*
X178857704Y-99530224D02*
X178895108Y-99629918D01*
X178895108Y-99629918D02*
X178979869Y-99734590D01*
X178979869Y-99734590D02*
X179116966Y-99796881D01*
X179116966Y-99796881D02*
X179353757Y-99821768D01*
X178501166Y-98822412D02*
X178458786Y-98770076D01*
X178458786Y-98770076D02*
X178369047Y-98712763D01*
X178369047Y-98712763D02*
X178132256Y-98687875D01*
X178132256Y-98687875D02*
X178032562Y-98725278D01*
X178032562Y-98725278D02*
X177980226Y-98767659D01*
X177980226Y-98767659D02*
X177922913Y-98857398D01*
X177922913Y-98857398D02*
X177912958Y-98952114D01*
X177912958Y-98952114D02*
X177945384Y-99099166D01*
X177945384Y-99099166D02*
X178453951Y-99727195D01*
X178453951Y-99727195D02*
X177838295Y-99662487D01*
X177611316Y-98633122D02*
X176948301Y-98563437D01*
X176948301Y-98563437D02*
X177269997Y-99602756D01*
X157680090Y-98014324D02*
X157732426Y-97015695D01*
X157732426Y-97015695D02*
X157494657Y-97003234D01*
X157494657Y-97003234D02*
X157349503Y-97043311D01*
X157349503Y-97043311D02*
X157249411Y-97133434D01*
X157249411Y-97133434D02*
X157196873Y-97226049D01*
X157196873Y-97226049D02*
X157139351Y-97413772D01*
X157139351Y-97413772D02*
X157131874Y-97556434D01*
X157131874Y-97556434D02*
X157169459Y-97749141D01*
X157169459Y-97749141D02*
X157212028Y-97846741D01*
X157212028Y-97846741D02*
X157302152Y-97946833D01*
X157302152Y-97946833D02*
X157442321Y-98001863D01*
X157442321Y-98001863D02*
X157680090Y-98014324D01*
X156776366Y-97060958D02*
X156731304Y-97010912D01*
X156731304Y-97010912D02*
X156638689Y-96958374D01*
X156638689Y-96958374D02*
X156400920Y-96945913D01*
X156400920Y-96945913D02*
X156303320Y-96988483D01*
X156303320Y-96988483D02*
X156253274Y-97033544D01*
X156253274Y-97033544D02*
X156200736Y-97126160D01*
X156200736Y-97126160D02*
X156195751Y-97221267D01*
X156195751Y-97221267D02*
X156235829Y-97366421D01*
X156235829Y-97366421D02*
X156776568Y-97966972D01*
X156776568Y-97966972D02*
X156158369Y-97934574D01*
X155354736Y-96891085D02*
X155544951Y-96901054D01*
X155544951Y-96901054D02*
X155637567Y-96953592D01*
X155637567Y-96953592D02*
X155682628Y-97003638D01*
X155682628Y-97003638D02*
X155770259Y-97151284D01*
X155770259Y-97151284D02*
X155807844Y-97343991D01*
X155807844Y-97343991D02*
X155787907Y-97724421D01*
X155787907Y-97724421D02*
X155735369Y-97817037D01*
X155735369Y-97817037D02*
X155685323Y-97862098D01*
X155685323Y-97862098D02*
X155587723Y-97904668D01*
X155587723Y-97904668D02*
X155397508Y-97894699D01*
X155397508Y-97894699D02*
X155304893Y-97842161D01*
X155304893Y-97842161D02*
X155259831Y-97792115D01*
X155259831Y-97792115D02*
X155217261Y-97694515D01*
X155217261Y-97694515D02*
X155229722Y-97456746D01*
X155229722Y-97456746D02*
X155282261Y-97364131D01*
X155282261Y-97364131D02*
X155332307Y-97319069D01*
X155332307Y-97319069D02*
X155429906Y-97276500D01*
X155429906Y-97276500D02*
X155620121Y-97286469D01*
X155620121Y-97286469D02*
X155712737Y-97339007D01*
X155712737Y-97339007D02*
X155757798Y-97389053D01*
X155757798Y-97389053D02*
X155800368Y-97486652D01*
X222764778Y-106597988D02*
X222972690Y-105619840D01*
X222972690Y-105619840D02*
X222739797Y-105570337D01*
X222739797Y-105570337D02*
X222590161Y-105587214D01*
X222590161Y-105587214D02*
X222477203Y-105660570D01*
X222477203Y-105660570D02*
X222410824Y-105743826D01*
X222410824Y-105743826D02*
X222324643Y-105920240D01*
X222324643Y-105920240D02*
X222294942Y-106059975D01*
X222294942Y-106059975D02*
X222301918Y-106256189D01*
X222301918Y-106256189D02*
X222328695Y-106359247D01*
X222328695Y-106359247D02*
X222402051Y-106472205D01*
X222402051Y-106472205D02*
X222531886Y-106548485D01*
X222531886Y-106548485D02*
X222764778Y-106597988D01*
X222021319Y-105514986D02*
X221984642Y-105458507D01*
X221984642Y-105458507D02*
X221901385Y-105392127D01*
X221901385Y-105392127D02*
X221668493Y-105342625D01*
X221668493Y-105342625D02*
X221565435Y-105369402D01*
X221565435Y-105369402D02*
X221508956Y-105406080D01*
X221508956Y-105406080D02*
X221442577Y-105489336D01*
X221442577Y-105489336D02*
X221422776Y-105582493D01*
X221422776Y-105582493D02*
X221439653Y-105732129D01*
X221439653Y-105732129D02*
X221879787Y-106409877D01*
X221879787Y-106409877D02*
X221274267Y-106281170D01*
X220808483Y-106182164D02*
X220622169Y-106142562D01*
X220622169Y-106142562D02*
X220538913Y-106076183D01*
X220538913Y-106076183D02*
X220502235Y-106019704D01*
X220502235Y-106019704D02*
X220438779Y-105860167D01*
X220438779Y-105860167D02*
X220431803Y-105663953D01*
X220431803Y-105663953D02*
X220511008Y-105291325D01*
X220511008Y-105291325D02*
X220577387Y-105208069D01*
X220577387Y-105208069D02*
X220633866Y-105171391D01*
X220633866Y-105171391D02*
X220736924Y-105144614D01*
X220736924Y-105144614D02*
X220923238Y-105184216D01*
X220923238Y-105184216D02*
X221006494Y-105250595D01*
X221006494Y-105250595D02*
X221043172Y-105307074D01*
X221043172Y-105307074D02*
X221069949Y-105410132D01*
X221069949Y-105410132D02*
X221020446Y-105643024D01*
X221020446Y-105643024D02*
X220954067Y-105726280D01*
X220954067Y-105726280D02*
X220897588Y-105762958D01*
X220897588Y-105762958D02*
X220794530Y-105789736D01*
X220794530Y-105789736D02*
X220608216Y-105750133D01*
X220608216Y-105750133D02*
X220524960Y-105683754D01*
X220524960Y-105683754D02*
X220488282Y-105627275D01*
X220488282Y-105627275D02*
X220461505Y-105524217D01*
X247632518Y-92459689D02*
X247891337Y-91493763D01*
X247891337Y-91493763D02*
X247661354Y-91432140D01*
X247661354Y-91432140D02*
X247511040Y-91441162D01*
X247511040Y-91441162D02*
X247394398Y-91508506D01*
X247394398Y-91508506D02*
X247323752Y-91588174D01*
X247323752Y-91588174D02*
X247228457Y-91759835D01*
X247228457Y-91759835D02*
X247191482Y-91897824D01*
X247191482Y-91897824D02*
X247188180Y-92094135D01*
X247188180Y-92094135D02*
X247209527Y-92198453D01*
X247209527Y-92198453D02*
X247276871Y-92315095D01*
X247276871Y-92315095D02*
X247402535Y-92398066D01*
X247402535Y-92398066D02*
X247632518Y-92459689D01*
X246425170Y-91445997D02*
X246252624Y-92089948D01*
X246753750Y-91139649D02*
X246798861Y-91891220D01*
X246798861Y-91891220D02*
X246200907Y-91730998D01*
X245821496Y-90939151D02*
X245729503Y-90914502D01*
X245729503Y-90914502D02*
X245625185Y-90935849D01*
X245625185Y-90935849D02*
X245566864Y-90969521D01*
X245566864Y-90969521D02*
X245496218Y-91049189D01*
X245496218Y-91049189D02*
X245400923Y-91220850D01*
X245400923Y-91220850D02*
X245339299Y-91450832D01*
X245339299Y-91450832D02*
X245335997Y-91647143D01*
X245335997Y-91647143D02*
X245357344Y-91751460D01*
X245357344Y-91751460D02*
X245391015Y-91809782D01*
X245391015Y-91809782D02*
X245470684Y-91880428D01*
X245470684Y-91880428D02*
X245562677Y-91905077D01*
X245562677Y-91905077D02*
X245666994Y-91883730D01*
X245666994Y-91883730D02*
X245725315Y-91850058D01*
X245725315Y-91850058D02*
X245795961Y-91770390D01*
X245795961Y-91770390D02*
X245891257Y-91598729D01*
X245891257Y-91598729D02*
X245952880Y-91368746D01*
X245952880Y-91368746D02*
X245956183Y-91172436D01*
X245956183Y-91172436D02*
X245934836Y-91068118D01*
X245934836Y-91068118D02*
X245901164Y-91009797D01*
X245901164Y-91009797D02*
X245821496Y-90939151D01*
X158476631Y-78019524D02*
X158528967Y-77020895D01*
X158528967Y-77020895D02*
X158291198Y-77008434D01*
X158291198Y-77008434D02*
X158146044Y-77048511D01*
X158146044Y-77048511D02*
X158045952Y-77138634D01*
X158045952Y-77138634D02*
X157993414Y-77231249D01*
X157993414Y-77231249D02*
X157935892Y-77418972D01*
X157935892Y-77418972D02*
X157928415Y-77561634D01*
X157928415Y-77561634D02*
X157966000Y-77754341D01*
X157966000Y-77754341D02*
X158008569Y-77851941D01*
X158008569Y-77851941D02*
X158098693Y-77952033D01*
X158098693Y-77952033D02*
X158238862Y-78007063D01*
X158238862Y-78007063D02*
X158476631Y-78019524D01*
X157625445Y-76973543D02*
X157007245Y-76941144D01*
X157007245Y-76941144D02*
X157320185Y-77339020D01*
X157320185Y-77339020D02*
X157177523Y-77331544D01*
X157177523Y-77331544D02*
X157079923Y-77374113D01*
X157079923Y-77374113D02*
X157029877Y-77419175D01*
X157029877Y-77419175D02*
X156977339Y-77511790D01*
X156977339Y-77511790D02*
X156964878Y-77749559D01*
X156964878Y-77749559D02*
X157007448Y-77847159D01*
X157007448Y-77847159D02*
X157052509Y-77897205D01*
X157052509Y-77897205D02*
X157145125Y-77949743D01*
X157145125Y-77949743D02*
X157430447Y-77964696D01*
X157430447Y-77964696D02*
X157528047Y-77922126D01*
X157528047Y-77922126D02*
X157578093Y-77877065D01*
X156151277Y-76896285D02*
X156341492Y-76906254D01*
X156341492Y-76906254D02*
X156434108Y-76958792D01*
X156434108Y-76958792D02*
X156479169Y-77008838D01*
X156479169Y-77008838D02*
X156566800Y-77156484D01*
X156566800Y-77156484D02*
X156604385Y-77349191D01*
X156604385Y-77349191D02*
X156584448Y-77729621D01*
X156584448Y-77729621D02*
X156531910Y-77822237D01*
X156531910Y-77822237D02*
X156481864Y-77867298D01*
X156481864Y-77867298D02*
X156384264Y-77909868D01*
X156384264Y-77909868D02*
X156194049Y-77899899D01*
X156194049Y-77899899D02*
X156101434Y-77847361D01*
X156101434Y-77847361D02*
X156056372Y-77797315D01*
X156056372Y-77797315D02*
X156013802Y-77699715D01*
X156013802Y-77699715D02*
X156026263Y-77461946D01*
X156026263Y-77461946D02*
X156078802Y-77369331D01*
X156078802Y-77369331D02*
X156128848Y-77324269D01*
X156128848Y-77324269D02*
X156226447Y-77281700D01*
X156226447Y-77281700D02*
X156416662Y-77291669D01*
X156416662Y-77291669D02*
X156509278Y-77344207D01*
X156509278Y-77344207D02*
X156554339Y-77394253D01*
X156554339Y-77394253D02*
X156596909Y-77491852D01*
X135616983Y-77183949D02*
X135616983Y-76183949D01*
X135616983Y-76183949D02*
X135378888Y-76183949D01*
X135378888Y-76183949D02*
X135236031Y-76231568D01*
X135236031Y-76231568D02*
X135140793Y-76326806D01*
X135140793Y-76326806D02*
X135093174Y-76422044D01*
X135093174Y-76422044D02*
X135045555Y-76612520D01*
X135045555Y-76612520D02*
X135045555Y-76755377D01*
X135045555Y-76755377D02*
X135093174Y-76945853D01*
X135093174Y-76945853D02*
X135140793Y-77041091D01*
X135140793Y-77041091D02*
X135236031Y-77136330D01*
X135236031Y-77136330D02*
X135378888Y-77183949D01*
X135378888Y-77183949D02*
X135616983Y-77183949D01*
X134712221Y-76183949D02*
X134093174Y-76183949D01*
X134093174Y-76183949D02*
X134426507Y-76564901D01*
X134426507Y-76564901D02*
X134283650Y-76564901D01*
X134283650Y-76564901D02*
X134188412Y-76612520D01*
X134188412Y-76612520D02*
X134140793Y-76660139D01*
X134140793Y-76660139D02*
X134093174Y-76755377D01*
X134093174Y-76755377D02*
X134093174Y-76993472D01*
X134093174Y-76993472D02*
X134140793Y-77088710D01*
X134140793Y-77088710D02*
X134188412Y-77136330D01*
X134188412Y-77136330D02*
X134283650Y-77183949D01*
X134283650Y-77183949D02*
X134569364Y-77183949D01*
X134569364Y-77183949D02*
X134664602Y-77136330D01*
X134664602Y-77136330D02*
X134712221Y-77088710D01*
X133188412Y-76183949D02*
X133664602Y-76183949D01*
X133664602Y-76183949D02*
X133712221Y-76660139D01*
X133712221Y-76660139D02*
X133664602Y-76612520D01*
X133664602Y-76612520D02*
X133569364Y-76564901D01*
X133569364Y-76564901D02*
X133331269Y-76564901D01*
X133331269Y-76564901D02*
X133236031Y-76612520D01*
X133236031Y-76612520D02*
X133188412Y-76660139D01*
X133188412Y-76660139D02*
X133140793Y-76755377D01*
X133140793Y-76755377D02*
X133140793Y-76993472D01*
X133140793Y-76993472D02*
X133188412Y-77088710D01*
X133188412Y-77088710D02*
X133236031Y-77136330D01*
X133236031Y-77136330D02*
X133331269Y-77183949D01*
X133331269Y-77183949D02*
X133569364Y-77183949D01*
X133569364Y-77183949D02*
X133664602Y-77136330D01*
X133664602Y-77136330D02*
X133712221Y-77088710D01*
X226618111Y-87203188D02*
X226826023Y-86225040D01*
X226826023Y-86225040D02*
X226593130Y-86175537D01*
X226593130Y-86175537D02*
X226443494Y-86192414D01*
X226443494Y-86192414D02*
X226330536Y-86265770D01*
X226330536Y-86265770D02*
X226264157Y-86349026D01*
X226264157Y-86349026D02*
X226177976Y-86525440D01*
X226177976Y-86525440D02*
X226148275Y-86665175D01*
X226148275Y-86665175D02*
X226155251Y-86861389D01*
X226155251Y-86861389D02*
X226182028Y-86964447D01*
X226182028Y-86964447D02*
X226255384Y-87077405D01*
X226255384Y-87077405D02*
X226385219Y-87153685D01*
X226385219Y-87153685D02*
X226618111Y-87203188D01*
X225941032Y-86036930D02*
X225335512Y-85908222D01*
X225335512Y-85908222D02*
X225582357Y-86350154D01*
X225582357Y-86350154D02*
X225442621Y-86320452D01*
X225442621Y-86320452D02*
X225339564Y-86347230D01*
X225339564Y-86347230D02*
X225283085Y-86383908D01*
X225283085Y-86383908D02*
X225216705Y-86467164D01*
X225216705Y-86467164D02*
X225167203Y-86700056D01*
X225167203Y-86700056D02*
X225193980Y-86803114D01*
X225193980Y-86803114D02*
X225230658Y-86859593D01*
X225230658Y-86859593D02*
X225313914Y-86925972D01*
X225313914Y-86925972D02*
X225593385Y-86985376D01*
X225593385Y-86985376D02*
X225696442Y-86958598D01*
X225696442Y-86958598D02*
X225752921Y-86921920D01*
X224661816Y-86787364D02*
X224475502Y-86747762D01*
X224475502Y-86747762D02*
X224392246Y-86681383D01*
X224392246Y-86681383D02*
X224355568Y-86624904D01*
X224355568Y-86624904D02*
X224292112Y-86465367D01*
X224292112Y-86465367D02*
X224285136Y-86269153D01*
X224285136Y-86269153D02*
X224364341Y-85896525D01*
X224364341Y-85896525D02*
X224430720Y-85813269D01*
X224430720Y-85813269D02*
X224487199Y-85776591D01*
X224487199Y-85776591D02*
X224590257Y-85749814D01*
X224590257Y-85749814D02*
X224776571Y-85789416D01*
X224776571Y-85789416D02*
X224859827Y-85855795D01*
X224859827Y-85855795D02*
X224896505Y-85912274D01*
X224896505Y-85912274D02*
X224923282Y-86015332D01*
X224923282Y-86015332D02*
X224873779Y-86248224D01*
X224873779Y-86248224D02*
X224807400Y-86331480D01*
X224807400Y-86331480D02*
X224750921Y-86368158D01*
X224750921Y-86368158D02*
X224647863Y-86394936D01*
X224647863Y-86394936D02*
X224461549Y-86355333D01*
X224461549Y-86355333D02*
X224378293Y-86288954D01*
X224378293Y-86288954D02*
X224341615Y-86232475D01*
X224341615Y-86232475D02*
X224314838Y-86129417D01*
X55572539Y-117781949D02*
X55572539Y-116781949D01*
X55572539Y-116781949D02*
X55334444Y-116781949D01*
X55334444Y-116781949D02*
X55191587Y-116829568D01*
X55191587Y-116829568D02*
X55096349Y-116924806D01*
X55096349Y-116924806D02*
X55048730Y-117020044D01*
X55048730Y-117020044D02*
X55001111Y-117210520D01*
X55001111Y-117210520D02*
X55001111Y-117353377D01*
X55001111Y-117353377D02*
X55048730Y-117543853D01*
X55048730Y-117543853D02*
X55096349Y-117639091D01*
X55096349Y-117639091D02*
X55191587Y-117734330D01*
X55191587Y-117734330D02*
X55334444Y-117781949D01*
X55334444Y-117781949D02*
X55572539Y-117781949D01*
X54048730Y-117781949D02*
X54620158Y-117781949D01*
X54334444Y-117781949D02*
X54334444Y-116781949D01*
X54334444Y-116781949D02*
X54429682Y-116924806D01*
X54429682Y-116924806D02*
X54524920Y-117020044D01*
X54524920Y-117020044D02*
X54620158Y-117067663D01*
X53096349Y-117781949D02*
X53667777Y-117781949D01*
X53382063Y-117781949D02*
X53382063Y-116781949D01*
X53382063Y-116781949D02*
X53477301Y-116924806D01*
X53477301Y-116924806D02*
X53572539Y-117020044D01*
X53572539Y-117020044D02*
X53667777Y-117067663D01*
X95772539Y-97098749D02*
X95772539Y-96098749D01*
X95772539Y-96098749D02*
X95534444Y-96098749D01*
X95534444Y-96098749D02*
X95391587Y-96146368D01*
X95391587Y-96146368D02*
X95296349Y-96241606D01*
X95296349Y-96241606D02*
X95248730Y-96336844D01*
X95248730Y-96336844D02*
X95201111Y-96527320D01*
X95201111Y-96527320D02*
X95201111Y-96670177D01*
X95201111Y-96670177D02*
X95248730Y-96860653D01*
X95248730Y-96860653D02*
X95296349Y-96955891D01*
X95296349Y-96955891D02*
X95391587Y-97051130D01*
X95391587Y-97051130D02*
X95534444Y-97098749D01*
X95534444Y-97098749D02*
X95772539Y-97098749D01*
X94820158Y-96193987D02*
X94772539Y-96146368D01*
X94772539Y-96146368D02*
X94677301Y-96098749D01*
X94677301Y-96098749D02*
X94439206Y-96098749D01*
X94439206Y-96098749D02*
X94343968Y-96146368D01*
X94343968Y-96146368D02*
X94296349Y-96193987D01*
X94296349Y-96193987D02*
X94248730Y-96289225D01*
X94248730Y-96289225D02*
X94248730Y-96384463D01*
X94248730Y-96384463D02*
X94296349Y-96527320D01*
X94296349Y-96527320D02*
X94867777Y-97098749D01*
X94867777Y-97098749D02*
X94248730Y-97098749D01*
X93915396Y-96098749D02*
X93296349Y-96098749D01*
X93296349Y-96098749D02*
X93629682Y-96479701D01*
X93629682Y-96479701D02*
X93486825Y-96479701D01*
X93486825Y-96479701D02*
X93391587Y-96527320D01*
X93391587Y-96527320D02*
X93343968Y-96574939D01*
X93343968Y-96574939D02*
X93296349Y-96670177D01*
X93296349Y-96670177D02*
X93296349Y-96908272D01*
X93296349Y-96908272D02*
X93343968Y-97003510D01*
X93343968Y-97003510D02*
X93391587Y-97051130D01*
X93391587Y-97051130D02*
X93486825Y-97098749D01*
X93486825Y-97098749D02*
X93772539Y-97098749D01*
X93772539Y-97098749D02*
X93867777Y-97051130D01*
X93867777Y-97051130D02*
X93915396Y-97003510D01*
X203997745Y-83023619D02*
X204154179Y-82035931D01*
X204154179Y-82035931D02*
X203919016Y-81998684D01*
X203919016Y-81998684D02*
X203770468Y-82023369D01*
X203770468Y-82023369D02*
X203661504Y-82102537D01*
X203661504Y-82102537D02*
X203599573Y-82189153D01*
X203599573Y-82189153D02*
X203522743Y-82369835D01*
X203522743Y-82369835D02*
X203500395Y-82510933D01*
X203500395Y-82510933D02*
X203517631Y-82706513D01*
X203517631Y-82706513D02*
X203549765Y-82808028D01*
X203549765Y-82808028D02*
X203628932Y-82916992D01*
X203628932Y-82916992D02*
X203762581Y-82986373D01*
X203762581Y-82986373D02*
X203997745Y-83023619D01*
X203260557Y-81894395D02*
X202649131Y-81797554D01*
X202649131Y-81797554D02*
X202918766Y-82225961D01*
X202918766Y-82225961D02*
X202777668Y-82203614D01*
X202777668Y-82203614D02*
X202676153Y-82235748D01*
X202676153Y-82235748D02*
X202621671Y-82275331D01*
X202621671Y-82275331D02*
X202559739Y-82361948D01*
X202559739Y-82361948D02*
X202522493Y-82597112D01*
X202522493Y-82597112D02*
X202554627Y-82698626D01*
X202554627Y-82698626D02*
X202594211Y-82753109D01*
X202594211Y-82753109D02*
X202680827Y-82815040D01*
X202680827Y-82815040D02*
X202963024Y-82859735D01*
X202963024Y-82859735D02*
X203064539Y-82827601D01*
X203064539Y-82827601D02*
X203119021Y-82788018D01*
X202017694Y-82131458D02*
X202119209Y-82099324D01*
X202119209Y-82099324D02*
X202173691Y-82059741D01*
X202173691Y-82059741D02*
X202235622Y-81973124D01*
X202235622Y-81973124D02*
X202243071Y-81926091D01*
X202243071Y-81926091D02*
X202210937Y-81824577D01*
X202210937Y-81824577D02*
X202171353Y-81770095D01*
X202171353Y-81770095D02*
X202084737Y-81708163D01*
X202084737Y-81708163D02*
X201896606Y-81678366D01*
X201896606Y-81678366D02*
X201795091Y-81710501D01*
X201795091Y-81710501D02*
X201740609Y-81750084D01*
X201740609Y-81750084D02*
X201678678Y-81836700D01*
X201678678Y-81836700D02*
X201671229Y-81883733D01*
X201671229Y-81883733D02*
X201703363Y-81985248D01*
X201703363Y-81985248D02*
X201742946Y-82039730D01*
X201742946Y-82039730D02*
X201829563Y-82101661D01*
X201829563Y-82101661D02*
X202017694Y-82131458D01*
X202017694Y-82131458D02*
X202104310Y-82193390D01*
X202104310Y-82193390D02*
X202143894Y-82247872D01*
X202143894Y-82247872D02*
X202176028Y-82349386D01*
X202176028Y-82349386D02*
X202146231Y-82537518D01*
X202146231Y-82537518D02*
X202084300Y-82624134D01*
X202084300Y-82624134D02*
X202029818Y-82663717D01*
X202029818Y-82663717D02*
X201928303Y-82695852D01*
X201928303Y-82695852D02*
X201740172Y-82666055D01*
X201740172Y-82666055D02*
X201653555Y-82604123D01*
X201653555Y-82604123D02*
X201613972Y-82549641D01*
X201613972Y-82549641D02*
X201581838Y-82448126D01*
X201581838Y-82448126D02*
X201611635Y-82259995D01*
X201611635Y-82259995D02*
X201673566Y-82173379D01*
X201673566Y-82173379D02*
X201728048Y-82133796D01*
X201728048Y-82133796D02*
X201829563Y-82101661D01*
X75733650Y-77183949D02*
X75733650Y-76183949D01*
X75733650Y-76183949D02*
X75495555Y-76183949D01*
X75495555Y-76183949D02*
X75352698Y-76231568D01*
X75352698Y-76231568D02*
X75257460Y-76326806D01*
X75257460Y-76326806D02*
X75209841Y-76422044D01*
X75209841Y-76422044D02*
X75162222Y-76612520D01*
X75162222Y-76612520D02*
X75162222Y-76755377D01*
X75162222Y-76755377D02*
X75209841Y-76945853D01*
X75209841Y-76945853D02*
X75257460Y-77041091D01*
X75257460Y-77041091D02*
X75352698Y-77136330D01*
X75352698Y-77136330D02*
X75495555Y-77183949D01*
X75495555Y-77183949D02*
X75733650Y-77183949D01*
X74828888Y-76183949D02*
X74209841Y-76183949D01*
X74209841Y-76183949D02*
X74543174Y-76564901D01*
X74543174Y-76564901D02*
X74400317Y-76564901D01*
X74400317Y-76564901D02*
X74305079Y-76612520D01*
X74305079Y-76612520D02*
X74257460Y-76660139D01*
X74257460Y-76660139D02*
X74209841Y-76755377D01*
X74209841Y-76755377D02*
X74209841Y-76993472D01*
X74209841Y-76993472D02*
X74257460Y-77088710D01*
X74257460Y-77088710D02*
X74305079Y-77136330D01*
X74305079Y-77136330D02*
X74400317Y-77183949D01*
X74400317Y-77183949D02*
X74686031Y-77183949D01*
X74686031Y-77183949D02*
X74781269Y-77136330D01*
X74781269Y-77136330D02*
X74828888Y-77088710D01*
X73828888Y-76279187D02*
X73781269Y-76231568D01*
X73781269Y-76231568D02*
X73686031Y-76183949D01*
X73686031Y-76183949D02*
X73447936Y-76183949D01*
X73447936Y-76183949D02*
X73352698Y-76231568D01*
X73352698Y-76231568D02*
X73305079Y-76279187D01*
X73305079Y-76279187D02*
X73257460Y-76374425D01*
X73257460Y-76374425D02*
X73257460Y-76469663D01*
X73257460Y-76469663D02*
X73305079Y-76612520D01*
X73305079Y-76612520D02*
X73876507Y-77183949D01*
X73876507Y-77183949D02*
X73257460Y-77183949D01*
X155004551Y-138299732D02*
X155056887Y-137301103D01*
X155056887Y-137301103D02*
X154819118Y-137288642D01*
X154819118Y-137288642D02*
X154673965Y-137328719D01*
X154673965Y-137328719D02*
X154573873Y-137418842D01*
X154573873Y-137418842D02*
X154521335Y-137511457D01*
X154521335Y-137511457D02*
X154463812Y-137699180D01*
X154463812Y-137699180D02*
X154456336Y-137841842D01*
X154456336Y-137841842D02*
X154493921Y-138034549D01*
X154493921Y-138034549D02*
X154536490Y-138132149D01*
X154536490Y-138132149D02*
X154626613Y-138232241D01*
X154626613Y-138232241D02*
X154766782Y-138287271D01*
X154766782Y-138287271D02*
X155004551Y-138299732D01*
X153630274Y-137226337D02*
X153820489Y-137236306D01*
X153820489Y-137236306D02*
X153913104Y-137288844D01*
X153913104Y-137288844D02*
X153958166Y-137338890D01*
X153958166Y-137338890D02*
X154045797Y-137486536D01*
X154045797Y-137486536D02*
X154083382Y-137679243D01*
X154083382Y-137679243D02*
X154063444Y-138059673D01*
X154063444Y-138059673D02*
X154010906Y-138152289D01*
X154010906Y-138152289D02*
X153960860Y-138197350D01*
X153960860Y-138197350D02*
X153863260Y-138239920D01*
X153863260Y-138239920D02*
X153673045Y-138229951D01*
X153673045Y-138229951D02*
X153580430Y-138177413D01*
X153580430Y-138177413D02*
X153535368Y-138127367D01*
X153535368Y-138127367D02*
X153492799Y-138029767D01*
X153492799Y-138029767D02*
X153505260Y-137791998D01*
X153505260Y-137791998D02*
X153557798Y-137699383D01*
X153557798Y-137699383D02*
X153607844Y-137654321D01*
X153607844Y-137654321D02*
X153705444Y-137611752D01*
X153705444Y-137611752D02*
X153895659Y-137621720D01*
X153895659Y-137621720D02*
X153988274Y-137674259D01*
X153988274Y-137674259D02*
X154033336Y-137724305D01*
X154033336Y-137724305D02*
X154075905Y-137821904D01*
X252931334Y-73312504D02*
X253190153Y-72346578D01*
X253190153Y-72346578D02*
X252960170Y-72284955D01*
X252960170Y-72284955D02*
X252809856Y-72293977D01*
X252809856Y-72293977D02*
X252693214Y-72361321D01*
X252693214Y-72361321D02*
X252622568Y-72440989D01*
X252622568Y-72440989D02*
X252527273Y-72612650D01*
X252527273Y-72612650D02*
X252490298Y-72750639D01*
X252490298Y-72750639D02*
X252486996Y-72946950D01*
X252486996Y-72946950D02*
X252508343Y-73051268D01*
X252508343Y-73051268D02*
X252575687Y-73167910D01*
X252575687Y-73167910D02*
X252701351Y-73250881D01*
X252701351Y-73250881D02*
X252931334Y-73312504D01*
X251764262Y-71964512D02*
X252224227Y-72087759D01*
X252224227Y-72087759D02*
X252146976Y-72560049D01*
X252146976Y-72560049D02*
X252113304Y-72501728D01*
X252113304Y-72501728D02*
X252033636Y-72431082D01*
X252033636Y-72431082D02*
X251803654Y-72369458D01*
X251803654Y-72369458D02*
X251699336Y-72390805D01*
X251699336Y-72390805D02*
X251641015Y-72424477D01*
X251641015Y-72424477D02*
X251570369Y-72504145D01*
X251570369Y-72504145D02*
X251508746Y-72734127D01*
X251508746Y-72734127D02*
X251530093Y-72838445D01*
X251530093Y-72838445D02*
X251563764Y-72896766D01*
X251563764Y-72896766D02*
X251643433Y-72967412D01*
X251643433Y-72967412D02*
X251873415Y-73029036D01*
X251873415Y-73029036D02*
X251977733Y-73007689D01*
X251977733Y-73007689D02*
X252036054Y-72974017D01*
X251120312Y-71791966D02*
X251028319Y-71767317D01*
X251028319Y-71767317D02*
X250924001Y-71788664D01*
X250924001Y-71788664D02*
X250865680Y-71822336D01*
X250865680Y-71822336D02*
X250795034Y-71902004D01*
X250795034Y-71902004D02*
X250699739Y-72073665D01*
X250699739Y-72073665D02*
X250638115Y-72303647D01*
X250638115Y-72303647D02*
X250634813Y-72499958D01*
X250634813Y-72499958D02*
X250656160Y-72604275D01*
X250656160Y-72604275D02*
X250689831Y-72662597D01*
X250689831Y-72662597D02*
X250769500Y-72733243D01*
X250769500Y-72733243D02*
X250861493Y-72757892D01*
X250861493Y-72757892D02*
X250965810Y-72736545D01*
X250965810Y-72736545D02*
X251024131Y-72702873D01*
X251024131Y-72702873D02*
X251094777Y-72623205D01*
X251094777Y-72623205D02*
X251190073Y-72451544D01*
X251190073Y-72451544D02*
X251251696Y-72221561D01*
X251251696Y-72221561D02*
X251254999Y-72025251D01*
X251254999Y-72025251D02*
X251233652Y-71920933D01*
X251233652Y-71920933D02*
X251199980Y-71862612D01*
X251199980Y-71862612D02*
X251120312Y-71791966D01*
X194358986Y-142577945D02*
X194515420Y-141590257D01*
X194515420Y-141590257D02*
X194280256Y-141553011D01*
X194280256Y-141553011D02*
X194131709Y-141577696D01*
X194131709Y-141577696D02*
X194022745Y-141656863D01*
X194022745Y-141656863D02*
X193960813Y-141743479D01*
X193960813Y-141743479D02*
X193883984Y-141924161D01*
X193883984Y-141924161D02*
X193861636Y-142065259D01*
X193861636Y-142065259D02*
X193878871Y-142260840D01*
X193878871Y-142260840D02*
X193911006Y-142362354D01*
X193911006Y-142362354D02*
X193990173Y-142471319D01*
X193990173Y-142471319D02*
X194123822Y-142540699D01*
X194123822Y-142540699D02*
X194358986Y-142577945D01*
X193319590Y-141834770D02*
X193421105Y-141802636D01*
X193421105Y-141802636D02*
X193475587Y-141763052D01*
X193475587Y-141763052D02*
X193537518Y-141676436D01*
X193537518Y-141676436D02*
X193544968Y-141629403D01*
X193544968Y-141629403D02*
X193512833Y-141527888D01*
X193512833Y-141527888D02*
X193473250Y-141473406D01*
X193473250Y-141473406D02*
X193386634Y-141411475D01*
X193386634Y-141411475D02*
X193198502Y-141381678D01*
X193198502Y-141381678D02*
X193096988Y-141413812D01*
X193096988Y-141413812D02*
X193042506Y-141453396D01*
X193042506Y-141453396D02*
X192980574Y-141540012D01*
X192980574Y-141540012D02*
X192973125Y-141587045D01*
X192973125Y-141587045D02*
X193005259Y-141688559D01*
X193005259Y-141688559D02*
X193044843Y-141743042D01*
X193044843Y-141743042D02*
X193131459Y-141804973D01*
X193131459Y-141804973D02*
X193319590Y-141834770D01*
X193319590Y-141834770D02*
X193406206Y-141896701D01*
X193406206Y-141896701D02*
X193445790Y-141951183D01*
X193445790Y-141951183D02*
X193477924Y-142052698D01*
X193477924Y-142052698D02*
X193448127Y-142240829D01*
X193448127Y-142240829D02*
X193386196Y-142327445D01*
X193386196Y-142327445D02*
X193331714Y-142367029D01*
X193331714Y-142367029D02*
X193230199Y-142399163D01*
X193230199Y-142399163D02*
X193042068Y-142369366D01*
X193042068Y-142369366D02*
X192955452Y-142307435D01*
X192955452Y-142307435D02*
X192915868Y-142252953D01*
X192915868Y-142252953D02*
X192883734Y-142151438D01*
X192883734Y-142151438D02*
X192913531Y-141963307D01*
X192913531Y-141963307D02*
X192975462Y-141876691D01*
X192975462Y-141876691D02*
X193029944Y-141837107D01*
X193029944Y-141837107D02*
X193131459Y-141804973D01*
X177591996Y-120140770D02*
X177696524Y-119146249D01*
X177696524Y-119146249D02*
X177459733Y-119121361D01*
X177459733Y-119121361D02*
X177312681Y-119153786D01*
X177312681Y-119153786D02*
X177208010Y-119238548D01*
X177208010Y-119238548D02*
X177150696Y-119328286D01*
X177150696Y-119328286D02*
X177083428Y-119512742D01*
X177083428Y-119512742D02*
X177068495Y-119654816D01*
X177068495Y-119654816D02*
X177095943Y-119849226D01*
X177095943Y-119849226D02*
X177133347Y-119948920D01*
X177133347Y-119948920D02*
X177218108Y-120053592D01*
X177218108Y-120053592D02*
X177355205Y-120115883D01*
X177355205Y-120115883D02*
X177591996Y-120140770D01*
X176076534Y-119981489D02*
X176644832Y-120041220D01*
X176360683Y-120011354D02*
X176465211Y-119016832D01*
X176465211Y-119016832D02*
X176544995Y-119168862D01*
X176544995Y-119168862D02*
X176629756Y-119273533D01*
X176629756Y-119273533D02*
X176719495Y-119330847D01*
X175849555Y-118952124D02*
X175186540Y-118882439D01*
X175186540Y-118882439D02*
X175508236Y-119921758D01*
X54946348Y-137681949D02*
X54946348Y-136681949D01*
X54946348Y-136681949D02*
X54708253Y-136681949D01*
X54708253Y-136681949D02*
X54565396Y-136729568D01*
X54565396Y-136729568D02*
X54470158Y-136824806D01*
X54470158Y-136824806D02*
X54422539Y-136920044D01*
X54422539Y-136920044D02*
X54374920Y-137110520D01*
X54374920Y-137110520D02*
X54374920Y-137253377D01*
X54374920Y-137253377D02*
X54422539Y-137443853D01*
X54422539Y-137443853D02*
X54470158Y-137539091D01*
X54470158Y-137539091D02*
X54565396Y-137634330D01*
X54565396Y-137634330D02*
X54708253Y-137681949D01*
X54708253Y-137681949D02*
X54946348Y-137681949D01*
X53422539Y-137681949D02*
X53993967Y-137681949D01*
X53708253Y-137681949D02*
X53708253Y-136681949D01*
X53708253Y-136681949D02*
X53803491Y-136824806D01*
X53803491Y-136824806D02*
X53898729Y-136920044D01*
X53898729Y-136920044D02*
X53993967Y-136967663D01*
X159536630Y-58324124D02*
X159588966Y-57325495D01*
X159588966Y-57325495D02*
X159351197Y-57313034D01*
X159351197Y-57313034D02*
X159206043Y-57353111D01*
X159206043Y-57353111D02*
X159105951Y-57443234D01*
X159105951Y-57443234D02*
X159053413Y-57535849D01*
X159053413Y-57535849D02*
X158995891Y-57723572D01*
X158995891Y-57723572D02*
X158988414Y-57866234D01*
X158988414Y-57866234D02*
X159025999Y-58058941D01*
X159025999Y-58058941D02*
X159068568Y-58156541D01*
X159068568Y-58156541D02*
X159158692Y-58256633D01*
X159158692Y-58256633D02*
X159298861Y-58311663D01*
X159298861Y-58311663D02*
X159536630Y-58324124D01*
X158144907Y-57583605D02*
X158110016Y-58249358D01*
X158402613Y-57215636D02*
X158602999Y-57941404D01*
X158602999Y-57941404D02*
X157984800Y-57909005D01*
X157211276Y-57200885D02*
X157401491Y-57210854D01*
X157401491Y-57210854D02*
X157494107Y-57263392D01*
X157494107Y-57263392D02*
X157539168Y-57313438D01*
X157539168Y-57313438D02*
X157626799Y-57461084D01*
X157626799Y-57461084D02*
X157664384Y-57653791D01*
X157664384Y-57653791D02*
X157644447Y-58034221D01*
X157644447Y-58034221D02*
X157591909Y-58126837D01*
X157591909Y-58126837D02*
X157541863Y-58171898D01*
X157541863Y-58171898D02*
X157444263Y-58214468D01*
X157444263Y-58214468D02*
X157254048Y-58204499D01*
X157254048Y-58204499D02*
X157161433Y-58151961D01*
X157161433Y-58151961D02*
X157116371Y-58101915D01*
X157116371Y-58101915D02*
X157073801Y-58004315D01*
X157073801Y-58004315D02*
X157086262Y-57766546D01*
X157086262Y-57766546D02*
X157138801Y-57673931D01*
X157138801Y-57673931D02*
X157188847Y-57628869D01*
X157188847Y-57628869D02*
X157286446Y-57586300D01*
X157286446Y-57586300D02*
X157476661Y-57596269D01*
X157476661Y-57596269D02*
X157569277Y-57648807D01*
X157569277Y-57648807D02*
X157614338Y-57698853D01*
X157614338Y-57698853D02*
X157656908Y-57796452D01*
X94946348Y-137781949D02*
X94946348Y-136781949D01*
X94946348Y-136781949D02*
X94708253Y-136781949D01*
X94708253Y-136781949D02*
X94565396Y-136829568D01*
X94565396Y-136829568D02*
X94470158Y-136924806D01*
X94470158Y-136924806D02*
X94422539Y-137020044D01*
X94422539Y-137020044D02*
X94374920Y-137210520D01*
X94374920Y-137210520D02*
X94374920Y-137353377D01*
X94374920Y-137353377D02*
X94422539Y-137543853D01*
X94422539Y-137543853D02*
X94470158Y-137639091D01*
X94470158Y-137639091D02*
X94565396Y-137734330D01*
X94565396Y-137734330D02*
X94708253Y-137781949D01*
X94708253Y-137781949D02*
X94946348Y-137781949D01*
X94041586Y-136781949D02*
X93422539Y-136781949D01*
X93422539Y-136781949D02*
X93755872Y-137162901D01*
X93755872Y-137162901D02*
X93613015Y-137162901D01*
X93613015Y-137162901D02*
X93517777Y-137210520D01*
X93517777Y-137210520D02*
X93470158Y-137258139D01*
X93470158Y-137258139D02*
X93422539Y-137353377D01*
X93422539Y-137353377D02*
X93422539Y-137591472D01*
X93422539Y-137591472D02*
X93470158Y-137686710D01*
X93470158Y-137686710D02*
X93517777Y-137734330D01*
X93517777Y-137734330D02*
X93613015Y-137781949D01*
X93613015Y-137781949D02*
X93898729Y-137781949D01*
X93898729Y-137781949D02*
X93993967Y-137734330D01*
X93993967Y-137734330D02*
X94041586Y-137686710D01*
X135096348Y-137781949D02*
X135096348Y-136781949D01*
X135096348Y-136781949D02*
X134858253Y-136781949D01*
X134858253Y-136781949D02*
X134715396Y-136829568D01*
X134715396Y-136829568D02*
X134620158Y-136924806D01*
X134620158Y-136924806D02*
X134572539Y-137020044D01*
X134572539Y-137020044D02*
X134524920Y-137210520D01*
X134524920Y-137210520D02*
X134524920Y-137353377D01*
X134524920Y-137353377D02*
X134572539Y-137543853D01*
X134572539Y-137543853D02*
X134620158Y-137639091D01*
X134620158Y-137639091D02*
X134715396Y-137734330D01*
X134715396Y-137734330D02*
X134858253Y-137781949D01*
X134858253Y-137781949D02*
X135096348Y-137781949D01*
X133620158Y-136781949D02*
X134096348Y-136781949D01*
X134096348Y-136781949D02*
X134143967Y-137258139D01*
X134143967Y-137258139D02*
X134096348Y-137210520D01*
X134096348Y-137210520D02*
X134001110Y-137162901D01*
X134001110Y-137162901D02*
X133763015Y-137162901D01*
X133763015Y-137162901D02*
X133667777Y-137210520D01*
X133667777Y-137210520D02*
X133620158Y-137258139D01*
X133620158Y-137258139D02*
X133572539Y-137353377D01*
X133572539Y-137353377D02*
X133572539Y-137591472D01*
X133572539Y-137591472D02*
X133620158Y-137686710D01*
X133620158Y-137686710D02*
X133667777Y-137734330D01*
X133667777Y-137734330D02*
X133763015Y-137781949D01*
X133763015Y-137781949D02*
X134001110Y-137781949D01*
X134001110Y-137781949D02*
X134096348Y-137734330D01*
X134096348Y-137734330D02*
X134143967Y-137686710D01*
X210461078Y-44301619D02*
X210617512Y-43313931D01*
X210617512Y-43313931D02*
X210382349Y-43276684D01*
X210382349Y-43276684D02*
X210233801Y-43301369D01*
X210233801Y-43301369D02*
X210124837Y-43380537D01*
X210124837Y-43380537D02*
X210062906Y-43467153D01*
X210062906Y-43467153D02*
X209986076Y-43647835D01*
X209986076Y-43647835D02*
X209963728Y-43788933D01*
X209963728Y-43788933D02*
X209980964Y-43984513D01*
X209980964Y-43984513D02*
X210013098Y-44086028D01*
X210013098Y-44086028D02*
X210092265Y-44194992D01*
X210092265Y-44194992D02*
X210225914Y-44264373D01*
X210225914Y-44264373D02*
X210461078Y-44301619D01*
X209159496Y-43083004D02*
X209629824Y-43157496D01*
X209629824Y-43157496D02*
X209602364Y-43635273D01*
X209602364Y-43635273D02*
X209562781Y-43580791D01*
X209562781Y-43580791D02*
X209476165Y-43518860D01*
X209476165Y-43518860D02*
X209241001Y-43481614D01*
X209241001Y-43481614D02*
X209139486Y-43513748D01*
X209139486Y-43513748D02*
X209085004Y-43553331D01*
X209085004Y-43553331D02*
X209023072Y-43639948D01*
X209023072Y-43639948D02*
X208985826Y-43875112D01*
X208985826Y-43875112D02*
X209017960Y-43976626D01*
X209017960Y-43976626D02*
X209057544Y-44031109D01*
X209057544Y-44031109D02*
X209144160Y-44093040D01*
X209144160Y-44093040D02*
X209379324Y-44130286D01*
X209379324Y-44130286D02*
X209480839Y-44098152D01*
X209480839Y-44098152D02*
X209535321Y-44058568D01*
X208481027Y-43409458D02*
X208582542Y-43377324D01*
X208582542Y-43377324D02*
X208637024Y-43337741D01*
X208637024Y-43337741D02*
X208698955Y-43251124D01*
X208698955Y-43251124D02*
X208706404Y-43204091D01*
X208706404Y-43204091D02*
X208674270Y-43102577D01*
X208674270Y-43102577D02*
X208634686Y-43048095D01*
X208634686Y-43048095D02*
X208548070Y-42986163D01*
X208548070Y-42986163D02*
X208359939Y-42956366D01*
X208359939Y-42956366D02*
X208258424Y-42988501D01*
X208258424Y-42988501D02*
X208203942Y-43028084D01*
X208203942Y-43028084D02*
X208142011Y-43114700D01*
X208142011Y-43114700D02*
X208134562Y-43161733D01*
X208134562Y-43161733D02*
X208166696Y-43263248D01*
X208166696Y-43263248D02*
X208206279Y-43317730D01*
X208206279Y-43317730D02*
X208292896Y-43379661D01*
X208292896Y-43379661D02*
X208481027Y-43409458D01*
X208481027Y-43409458D02*
X208567643Y-43471390D01*
X208567643Y-43471390D02*
X208607227Y-43525872D01*
X208607227Y-43525872D02*
X208639361Y-43627386D01*
X208639361Y-43627386D02*
X208609564Y-43815518D01*
X208609564Y-43815518D02*
X208547633Y-43902134D01*
X208547633Y-43902134D02*
X208493151Y-43941717D01*
X208493151Y-43941717D02*
X208391636Y-43973852D01*
X208391636Y-43973852D02*
X208203505Y-43944055D01*
X208203505Y-43944055D02*
X208116888Y-43882123D01*
X208116888Y-43882123D02*
X208077305Y-43827641D01*
X208077305Y-43827641D02*
X208045171Y-43726126D01*
X208045171Y-43726126D02*
X208074968Y-43537995D01*
X208074968Y-43537995D02*
X208136899Y-43451379D01*
X208136899Y-43451379D02*
X208191381Y-43411796D01*
X208191381Y-43411796D02*
X208292896Y-43379661D01*
X257931334Y-54512504D02*
X258190153Y-53546578D01*
X258190153Y-53546578D02*
X257960170Y-53484955D01*
X257960170Y-53484955D02*
X257809856Y-53493977D01*
X257809856Y-53493977D02*
X257693214Y-53561321D01*
X257693214Y-53561321D02*
X257622568Y-53640989D01*
X257622568Y-53640989D02*
X257527273Y-53812650D01*
X257527273Y-53812650D02*
X257490298Y-53950639D01*
X257490298Y-53950639D02*
X257486996Y-54146950D01*
X257486996Y-54146950D02*
X257508343Y-54251268D01*
X257508343Y-54251268D02*
X257575687Y-54367910D01*
X257575687Y-54367910D02*
X257701351Y-54450881D01*
X257701351Y-54450881D02*
X257931334Y-54512504D01*
X256810259Y-53176837D02*
X256994245Y-53226136D01*
X256994245Y-53226136D02*
X257073913Y-53296782D01*
X257073913Y-53296782D02*
X257107584Y-53355103D01*
X257107584Y-53355103D02*
X257162603Y-53517742D01*
X257162603Y-53517742D02*
X257159301Y-53714052D01*
X257159301Y-53714052D02*
X257060703Y-54082024D01*
X257060703Y-54082024D02*
X256990057Y-54161692D01*
X256990057Y-54161692D02*
X256931736Y-54195364D01*
X256931736Y-54195364D02*
X256827418Y-54216711D01*
X256827418Y-54216711D02*
X256643433Y-54167412D01*
X256643433Y-54167412D02*
X256563764Y-54096766D01*
X256563764Y-54096766D02*
X256530093Y-54038445D01*
X256530093Y-54038445D02*
X256508746Y-53934127D01*
X256508746Y-53934127D02*
X256570369Y-53704145D01*
X256570369Y-53704145D02*
X256641015Y-53624477D01*
X256641015Y-53624477D02*
X256699336Y-53590805D01*
X256699336Y-53590805D02*
X256803654Y-53569458D01*
X256803654Y-53569458D02*
X256987640Y-53618757D01*
X256987640Y-53618757D02*
X257067308Y-53689403D01*
X257067308Y-53689403D02*
X257100980Y-53747724D01*
X257100980Y-53747724D02*
X257122327Y-53852042D01*
X256120312Y-52991966D02*
X256028319Y-52967317D01*
X256028319Y-52967317D02*
X255924001Y-52988664D01*
X255924001Y-52988664D02*
X255865680Y-53022336D01*
X255865680Y-53022336D02*
X255795034Y-53102004D01*
X255795034Y-53102004D02*
X255699739Y-53273665D01*
X255699739Y-53273665D02*
X255638115Y-53503647D01*
X255638115Y-53503647D02*
X255634813Y-53699958D01*
X255634813Y-53699958D02*
X255656160Y-53804275D01*
X255656160Y-53804275D02*
X255689831Y-53862597D01*
X255689831Y-53862597D02*
X255769500Y-53933243D01*
X255769500Y-53933243D02*
X255861493Y-53957892D01*
X255861493Y-53957892D02*
X255965810Y-53936545D01*
X255965810Y-53936545D02*
X256024131Y-53902873D01*
X256024131Y-53902873D02*
X256094777Y-53823205D01*
X256094777Y-53823205D02*
X256190073Y-53651544D01*
X256190073Y-53651544D02*
X256251696Y-53421561D01*
X256251696Y-53421561D02*
X256254999Y-53225251D01*
X256254999Y-53225251D02*
X256233652Y-53120933D01*
X256233652Y-53120933D02*
X256199980Y-53062612D01*
X256199980Y-53062612D02*
X256120312Y-52991966D01*
X207227745Y-63528219D02*
X207384179Y-62540531D01*
X207384179Y-62540531D02*
X207149016Y-62503284D01*
X207149016Y-62503284D02*
X207000468Y-62527969D01*
X207000468Y-62527969D02*
X206891504Y-62607137D01*
X206891504Y-62607137D02*
X206829573Y-62693753D01*
X206829573Y-62693753D02*
X206752743Y-62874435D01*
X206752743Y-62874435D02*
X206730395Y-63015533D01*
X206730395Y-63015533D02*
X206747631Y-63211113D01*
X206747631Y-63211113D02*
X206779765Y-63312628D01*
X206779765Y-63312628D02*
X206858932Y-63421592D01*
X206858932Y-63421592D02*
X206992581Y-63490973D01*
X206992581Y-63490973D02*
X207227745Y-63528219D01*
X205921051Y-62646282D02*
X205816762Y-63304741D01*
X206215809Y-62307266D02*
X206339234Y-63050004D01*
X206339234Y-63050004D02*
X205727808Y-62953164D01*
X205247694Y-62636058D02*
X205349209Y-62603924D01*
X205349209Y-62603924D02*
X205403691Y-62564341D01*
X205403691Y-62564341D02*
X205465622Y-62477724D01*
X205465622Y-62477724D02*
X205473071Y-62430691D01*
X205473071Y-62430691D02*
X205440937Y-62329177D01*
X205440937Y-62329177D02*
X205401353Y-62274695D01*
X205401353Y-62274695D02*
X205314737Y-62212763D01*
X205314737Y-62212763D02*
X205126606Y-62182966D01*
X205126606Y-62182966D02*
X205025091Y-62215101D01*
X205025091Y-62215101D02*
X204970609Y-62254684D01*
X204970609Y-62254684D02*
X204908678Y-62341300D01*
X204908678Y-62341300D02*
X204901229Y-62388333D01*
X204901229Y-62388333D02*
X204933363Y-62489848D01*
X204933363Y-62489848D02*
X204972946Y-62544330D01*
X204972946Y-62544330D02*
X205059563Y-62606261D01*
X205059563Y-62606261D02*
X205247694Y-62636058D01*
X205247694Y-62636058D02*
X205334310Y-62697990D01*
X205334310Y-62697990D02*
X205373894Y-62752472D01*
X205373894Y-62752472D02*
X205406028Y-62853986D01*
X205406028Y-62853986D02*
X205376231Y-63042118D01*
X205376231Y-63042118D02*
X205314300Y-63128734D01*
X205314300Y-63128734D02*
X205259818Y-63168317D01*
X205259818Y-63168317D02*
X205158303Y-63200452D01*
X205158303Y-63200452D02*
X204970172Y-63170655D01*
X204970172Y-63170655D02*
X204883555Y-63108723D01*
X204883555Y-63108723D02*
X204843972Y-63054241D01*
X204843972Y-63054241D02*
X204811838Y-62952726D01*
X204811838Y-62952726D02*
X204841635Y-62764595D01*
X204841635Y-62764595D02*
X204903566Y-62677979D01*
X204903566Y-62677979D02*
X204958048Y-62638396D01*
X204958048Y-62638396D02*
X205059563Y-62606261D01*
X235324778Y-49081188D02*
X235532690Y-48103040D01*
X235532690Y-48103040D02*
X235299797Y-48053537D01*
X235299797Y-48053537D02*
X235150161Y-48070414D01*
X235150161Y-48070414D02*
X235037203Y-48143770D01*
X235037203Y-48143770D02*
X234970824Y-48227026D01*
X234970824Y-48227026D02*
X234884643Y-48403440D01*
X234884643Y-48403440D02*
X234854942Y-48543175D01*
X234854942Y-48543175D02*
X234861918Y-48739389D01*
X234861918Y-48739389D02*
X234888695Y-48842447D01*
X234888695Y-48842447D02*
X234962051Y-48955405D01*
X234962051Y-48955405D02*
X235091886Y-49031685D01*
X235091886Y-49031685D02*
X235324778Y-49081188D01*
X234088758Y-47796123D02*
X234554542Y-47895129D01*
X234554542Y-47895129D02*
X234502115Y-48370814D01*
X234502115Y-48370814D02*
X234465437Y-48314335D01*
X234465437Y-48314335D02*
X234382181Y-48247955D01*
X234382181Y-48247955D02*
X234149288Y-48198452D01*
X234149288Y-48198452D02*
X234046231Y-48225230D01*
X234046231Y-48225230D02*
X233989752Y-48261908D01*
X233989752Y-48261908D02*
X233923372Y-48345164D01*
X233923372Y-48345164D02*
X233873870Y-48578056D01*
X233873870Y-48578056D02*
X233900647Y-48681114D01*
X233900647Y-48681114D02*
X233937325Y-48737593D01*
X233937325Y-48737593D02*
X234020581Y-48803972D01*
X234020581Y-48803972D02*
X234253473Y-48853475D01*
X234253473Y-48853475D02*
X234356531Y-48826698D01*
X234356531Y-48826698D02*
X234413010Y-48790020D01*
X233368483Y-48665364D02*
X233182169Y-48625762D01*
X233182169Y-48625762D02*
X233098913Y-48559383D01*
X233098913Y-48559383D02*
X233062235Y-48502904D01*
X233062235Y-48502904D02*
X232998779Y-48343367D01*
X232998779Y-48343367D02*
X232991803Y-48147153D01*
X232991803Y-48147153D02*
X233071008Y-47774525D01*
X233071008Y-47774525D02*
X233137387Y-47691269D01*
X233137387Y-47691269D02*
X233193866Y-47654591D01*
X233193866Y-47654591D02*
X233296924Y-47627814D01*
X233296924Y-47627814D02*
X233483238Y-47667416D01*
X233483238Y-47667416D02*
X233566494Y-47733795D01*
X233566494Y-47733795D02*
X233603172Y-47790274D01*
X233603172Y-47790274D02*
X233629949Y-47893332D01*
X233629949Y-47893332D02*
X233580446Y-48126224D01*
X233580446Y-48126224D02*
X233514067Y-48209480D01*
X233514067Y-48209480D02*
X233457588Y-48246158D01*
X233457588Y-48246158D02*
X233354530Y-48272936D01*
X233354530Y-48272936D02*
X233168216Y-48233333D01*
X233168216Y-48233333D02*
X233084960Y-48166954D01*
X233084960Y-48166954D02*
X233048282Y-48110475D01*
X233048282Y-48110475D02*
X233021505Y-48007417D01*
X95772539Y-117781949D02*
X95772539Y-116781949D01*
X95772539Y-116781949D02*
X95534444Y-116781949D01*
X95534444Y-116781949D02*
X95391587Y-116829568D01*
X95391587Y-116829568D02*
X95296349Y-116924806D01*
X95296349Y-116924806D02*
X95248730Y-117020044D01*
X95248730Y-117020044D02*
X95201111Y-117210520D01*
X95201111Y-117210520D02*
X95201111Y-117353377D01*
X95201111Y-117353377D02*
X95248730Y-117543853D01*
X95248730Y-117543853D02*
X95296349Y-117639091D01*
X95296349Y-117639091D02*
X95391587Y-117734330D01*
X95391587Y-117734330D02*
X95534444Y-117781949D01*
X95534444Y-117781949D02*
X95772539Y-117781949D01*
X94248730Y-117781949D02*
X94820158Y-117781949D01*
X94534444Y-117781949D02*
X94534444Y-116781949D01*
X94534444Y-116781949D02*
X94629682Y-116924806D01*
X94629682Y-116924806D02*
X94724920Y-117020044D01*
X94724920Y-117020044D02*
X94820158Y-117067663D01*
X93915396Y-116781949D02*
X93296349Y-116781949D01*
X93296349Y-116781949D02*
X93629682Y-117162901D01*
X93629682Y-117162901D02*
X93486825Y-117162901D01*
X93486825Y-117162901D02*
X93391587Y-117210520D01*
X93391587Y-117210520D02*
X93343968Y-117258139D01*
X93343968Y-117258139D02*
X93296349Y-117353377D01*
X93296349Y-117353377D02*
X93296349Y-117591472D01*
X93296349Y-117591472D02*
X93343968Y-117686710D01*
X93343968Y-117686710D02*
X93391587Y-117734330D01*
X93391587Y-117734330D02*
X93486825Y-117781949D01*
X93486825Y-117781949D02*
X93772539Y-117781949D01*
X93772539Y-117781949D02*
X93867777Y-117734330D01*
X93867777Y-117734330D02*
X93915396Y-117686710D01*
X75096348Y-137681949D02*
X75096348Y-136681949D01*
X75096348Y-136681949D02*
X74858253Y-136681949D01*
X74858253Y-136681949D02*
X74715396Y-136729568D01*
X74715396Y-136729568D02*
X74620158Y-136824806D01*
X74620158Y-136824806D02*
X74572539Y-136920044D01*
X74572539Y-136920044D02*
X74524920Y-137110520D01*
X74524920Y-137110520D02*
X74524920Y-137253377D01*
X74524920Y-137253377D02*
X74572539Y-137443853D01*
X74572539Y-137443853D02*
X74620158Y-137539091D01*
X74620158Y-137539091D02*
X74715396Y-137634330D01*
X74715396Y-137634330D02*
X74858253Y-137681949D01*
X74858253Y-137681949D02*
X75096348Y-137681949D01*
X74143967Y-136777187D02*
X74096348Y-136729568D01*
X74096348Y-136729568D02*
X74001110Y-136681949D01*
X74001110Y-136681949D02*
X73763015Y-136681949D01*
X73763015Y-136681949D02*
X73667777Y-136729568D01*
X73667777Y-136729568D02*
X73620158Y-136777187D01*
X73620158Y-136777187D02*
X73572539Y-136872425D01*
X73572539Y-136872425D02*
X73572539Y-136967663D01*
X73572539Y-136967663D02*
X73620158Y-137110520D01*
X73620158Y-137110520D02*
X74191586Y-137681949D01*
X74191586Y-137681949D02*
X73572539Y-137681949D01*
X174880174Y-139842054D02*
X174984703Y-138847532D01*
X174984703Y-138847532D02*
X174747912Y-138822644D01*
X174747912Y-138822644D02*
X174600860Y-138855070D01*
X174600860Y-138855070D02*
X174496188Y-138939831D01*
X174496188Y-138939831D02*
X174438875Y-139029570D01*
X174438875Y-139029570D02*
X174371607Y-139214025D01*
X174371607Y-139214025D02*
X174356674Y-139356100D01*
X174356674Y-139356100D02*
X174384122Y-139550510D01*
X174384122Y-139550510D02*
X174421525Y-139650204D01*
X174421525Y-139650204D02*
X174506286Y-139754875D01*
X174506286Y-139754875D02*
X174643383Y-139817166D01*
X174643383Y-139817166D02*
X174880174Y-139842054D01*
X174084897Y-138752959D02*
X173421883Y-138683273D01*
X173421883Y-138683273D02*
X173743578Y-139722593D01*
X185767053Y-41104968D02*
X185871581Y-40110447D01*
X185871581Y-40110447D02*
X185634790Y-40085559D01*
X185634790Y-40085559D02*
X185487738Y-40117984D01*
X185487738Y-40117984D02*
X185383067Y-40202746D01*
X185383067Y-40202746D02*
X185325753Y-40292484D01*
X185325753Y-40292484D02*
X185258485Y-40476940D01*
X185258485Y-40476940D02*
X185243552Y-40619014D01*
X185243552Y-40619014D02*
X185271000Y-40813424D01*
X185271000Y-40813424D02*
X185308404Y-40913118D01*
X185308404Y-40913118D02*
X185393165Y-41017790D01*
X185393165Y-41017790D02*
X185530262Y-41080081D01*
X185530262Y-41080081D02*
X185767053Y-41104968D01*
X184403477Y-39956143D02*
X184877059Y-40005918D01*
X184877059Y-40005918D02*
X184874642Y-40484477D01*
X184874642Y-40484477D02*
X184832261Y-40432142D01*
X184832261Y-40432142D02*
X184742523Y-40374828D01*
X184742523Y-40374828D02*
X184505732Y-40349941D01*
X184505732Y-40349941D02*
X184406038Y-40387344D01*
X184406038Y-40387344D02*
X184353702Y-40429724D01*
X184353702Y-40429724D02*
X184296389Y-40519463D01*
X184296389Y-40519463D02*
X184271501Y-40756254D01*
X184271501Y-40756254D02*
X184308904Y-40855948D01*
X184308904Y-40855948D02*
X184351285Y-40908284D01*
X184351285Y-40908284D02*
X184441024Y-40965597D01*
X184441024Y-40965597D02*
X184677814Y-40990485D01*
X184677814Y-40990485D02*
X184777508Y-40953082D01*
X184777508Y-40953082D02*
X184829844Y-40910701D01*
X184024612Y-39916322D02*
X183361597Y-39846637D01*
X183361597Y-39846637D02*
X183683293Y-40885956D01*
X75527206Y-117781949D02*
X75527206Y-116781949D01*
X75527206Y-116781949D02*
X75289111Y-116781949D01*
X75289111Y-116781949D02*
X75146254Y-116829568D01*
X75146254Y-116829568D02*
X75051016Y-116924806D01*
X75051016Y-116924806D02*
X75003397Y-117020044D01*
X75003397Y-117020044D02*
X74955778Y-117210520D01*
X74955778Y-117210520D02*
X74955778Y-117353377D01*
X74955778Y-117353377D02*
X75003397Y-117543853D01*
X75003397Y-117543853D02*
X75051016Y-117639091D01*
X75051016Y-117639091D02*
X75146254Y-117734330D01*
X75146254Y-117734330D02*
X75289111Y-117781949D01*
X75289111Y-117781949D02*
X75527206Y-117781949D01*
X74003397Y-117781949D02*
X74574825Y-117781949D01*
X74289111Y-117781949D02*
X74289111Y-116781949D01*
X74289111Y-116781949D02*
X74384349Y-116924806D01*
X74384349Y-116924806D02*
X74479587Y-117020044D01*
X74479587Y-117020044D02*
X74574825Y-117067663D01*
X73622444Y-116877187D02*
X73574825Y-116829568D01*
X73574825Y-116829568D02*
X73479587Y-116781949D01*
X73479587Y-116781949D02*
X73241492Y-116781949D01*
X73241492Y-116781949D02*
X73146254Y-116829568D01*
X73146254Y-116829568D02*
X73098635Y-116877187D01*
X73098635Y-116877187D02*
X73051016Y-116972425D01*
X73051016Y-116972425D02*
X73051016Y-117067663D01*
X73051016Y-117067663D02*
X73098635Y-117210520D01*
X73098635Y-117210520D02*
X73670063Y-117781949D01*
X73670063Y-117781949D02*
X73051016Y-117781949D01*
X232317423Y-150181456D02*
X232576242Y-149215530D01*
X232576242Y-149215530D02*
X232346259Y-149153907D01*
X232346259Y-149153907D02*
X232195945Y-149162929D01*
X232195945Y-149162929D02*
X232079303Y-149230273D01*
X232079303Y-149230273D02*
X232008657Y-149309941D01*
X232008657Y-149309941D02*
X231913362Y-149481602D01*
X231913362Y-149481602D02*
X231876387Y-149619591D01*
X231876387Y-149619591D02*
X231873085Y-149815902D01*
X231873085Y-149815902D02*
X231894432Y-149920220D01*
X231894432Y-149920220D02*
X231961776Y-150036862D01*
X231961776Y-150036862D02*
X232087440Y-150119833D01*
X232087440Y-150119833D02*
X232317423Y-150181456D01*
X230845536Y-149787065D02*
X231397493Y-149934962D01*
X231121514Y-149861014D02*
X231380334Y-148895088D01*
X231380334Y-148895088D02*
X231435352Y-149057727D01*
X231435352Y-149057727D02*
X231502696Y-149174369D01*
X231502696Y-149174369D02*
X231582364Y-149245015D01*
X230506401Y-148660918D02*
X230414408Y-148636269D01*
X230414408Y-148636269D02*
X230310090Y-148657616D01*
X230310090Y-148657616D02*
X230251769Y-148691288D01*
X230251769Y-148691288D02*
X230181123Y-148770956D01*
X230181123Y-148770956D02*
X230085828Y-148942617D01*
X230085828Y-148942617D02*
X230024204Y-149172599D01*
X230024204Y-149172599D02*
X230020902Y-149368910D01*
X230020902Y-149368910D02*
X230042249Y-149473227D01*
X230042249Y-149473227D02*
X230075920Y-149531549D01*
X230075920Y-149531549D02*
X230155589Y-149602195D01*
X230155589Y-149602195D02*
X230247582Y-149626844D01*
X230247582Y-149626844D02*
X230351899Y-149605497D01*
X230351899Y-149605497D02*
X230410220Y-149571825D01*
X230410220Y-149571825D02*
X230480866Y-149492157D01*
X230480866Y-149492157D02*
X230576162Y-149320496D01*
X230576162Y-149320496D02*
X230637785Y-149090513D01*
X230637785Y-149090513D02*
X230641088Y-148894203D01*
X230641088Y-148894203D02*
X230619741Y-148789885D01*
X230619741Y-148789885D02*
X230586069Y-148731564D01*
X230586069Y-148731564D02*
X230506401Y-148660918D01*
X230833111Y-67907788D02*
X231041023Y-66929640D01*
X231041023Y-66929640D02*
X230808130Y-66880137D01*
X230808130Y-66880137D02*
X230658494Y-66897014D01*
X230658494Y-66897014D02*
X230545536Y-66970370D01*
X230545536Y-66970370D02*
X230479157Y-67053626D01*
X230479157Y-67053626D02*
X230392976Y-67230040D01*
X230392976Y-67230040D02*
X230363275Y-67369775D01*
X230363275Y-67369775D02*
X230370251Y-67565989D01*
X230370251Y-67565989D02*
X230397028Y-67669047D01*
X230397028Y-67669047D02*
X230470384Y-67782005D01*
X230470384Y-67782005D02*
X230600219Y-67858285D01*
X230600219Y-67858285D02*
X230833111Y-67907788D01*
X229574365Y-66958673D02*
X229435757Y-67610771D01*
X229886462Y-66635548D02*
X229970846Y-67383728D01*
X229970846Y-67383728D02*
X229365326Y-67255020D01*
X228876816Y-67491964D02*
X228690502Y-67452362D01*
X228690502Y-67452362D02*
X228607246Y-67385983D01*
X228607246Y-67385983D02*
X228570568Y-67329504D01*
X228570568Y-67329504D02*
X228507112Y-67169967D01*
X228507112Y-67169967D02*
X228500136Y-66973753D01*
X228500136Y-66973753D02*
X228579341Y-66601125D01*
X228579341Y-66601125D02*
X228645720Y-66517869D01*
X228645720Y-66517869D02*
X228702199Y-66481191D01*
X228702199Y-66481191D02*
X228805257Y-66454414D01*
X228805257Y-66454414D02*
X228991571Y-66494016D01*
X228991571Y-66494016D02*
X229074827Y-66560395D01*
X229074827Y-66560395D02*
X229111505Y-66616874D01*
X229111505Y-66616874D02*
X229138282Y-66719932D01*
X229138282Y-66719932D02*
X229088779Y-66952824D01*
X229088779Y-66952824D02*
X229022400Y-67036080D01*
X229022400Y-67036080D02*
X228965921Y-67072758D01*
X228965921Y-67072758D02*
X228862863Y-67099536D01*
X228862863Y-67099536D02*
X228676549Y-67059933D01*
X228676549Y-67059933D02*
X228593293Y-66993554D01*
X228593293Y-66993554D02*
X228556615Y-66937075D01*
X228556615Y-66937075D02*
X228529838Y-66834017D01*
X156680090Y-118497524D02*
X156732426Y-117498895D01*
X156732426Y-117498895D02*
X156494657Y-117486434D01*
X156494657Y-117486434D02*
X156349503Y-117526511D01*
X156349503Y-117526511D02*
X156249411Y-117616634D01*
X156249411Y-117616634D02*
X156196873Y-117709249D01*
X156196873Y-117709249D02*
X156139351Y-117896972D01*
X156139351Y-117896972D02*
X156131874Y-118039634D01*
X156131874Y-118039634D02*
X156169459Y-118232341D01*
X156169459Y-118232341D02*
X156212028Y-118329941D01*
X156212028Y-118329941D02*
X156302152Y-118430033D01*
X156302152Y-118430033D02*
X156442321Y-118485063D01*
X156442321Y-118485063D02*
X156680090Y-118497524D01*
X155158369Y-118417774D02*
X155729014Y-118447680D01*
X155443691Y-118432727D02*
X155496027Y-117434098D01*
X155496027Y-117434098D02*
X155583658Y-117581743D01*
X155583658Y-117581743D02*
X155673781Y-117681835D01*
X155673781Y-117681835D02*
X155766397Y-117734373D01*
X154354736Y-117374285D02*
X154544951Y-117384254D01*
X154544951Y-117384254D02*
X154637567Y-117436792D01*
X154637567Y-117436792D02*
X154682628Y-117486838D01*
X154682628Y-117486838D02*
X154770259Y-117634484D01*
X154770259Y-117634484D02*
X154807844Y-117827191D01*
X154807844Y-117827191D02*
X154787907Y-118207621D01*
X154787907Y-118207621D02*
X154735369Y-118300237D01*
X154735369Y-118300237D02*
X154685323Y-118345298D01*
X154685323Y-118345298D02*
X154587723Y-118387868D01*
X154587723Y-118387868D02*
X154397508Y-118377899D01*
X154397508Y-118377899D02*
X154304893Y-118325361D01*
X154304893Y-118325361D02*
X154259831Y-118275315D01*
X154259831Y-118275315D02*
X154217261Y-118177715D01*
X154217261Y-118177715D02*
X154229722Y-117939946D01*
X154229722Y-117939946D02*
X154282261Y-117847331D01*
X154282261Y-117847331D02*
X154332307Y-117802269D01*
X154332307Y-117802269D02*
X154429906Y-117759700D01*
X154429906Y-117759700D02*
X154620121Y-117769669D01*
X154620121Y-117769669D02*
X154712737Y-117822207D01*
X154712737Y-117822207D02*
X154757798Y-117872253D01*
X154757798Y-117872253D02*
X154800368Y-117969852D01*
D11*
%TO.C,D22*%
X72198254Y-93643930D02*
X76208254Y-93643930D01*
X72198254Y-95643930D02*
X72198254Y-93643930D01*
X72198254Y-95643930D02*
X76208254Y-95643930D01*
%TO.C,D44*%
X112198254Y-53833730D02*
X116208254Y-53833730D01*
X112198254Y-55833730D02*
X112198254Y-53833730D01*
X112198254Y-55833730D02*
X116208254Y-55833730D01*
%TO.C,D54*%
X111848254Y-34327130D02*
X115858254Y-34327130D01*
X111848254Y-36327130D02*
X111848254Y-34327130D01*
X111848254Y-36327130D02*
X115858254Y-36327130D01*
%TO.C,D18*%
X194810954Y-120905570D02*
X195123823Y-118930193D01*
X194810954Y-120905570D02*
X198771584Y-121532872D01*
X195123823Y-118930193D02*
X199084453Y-119557497D01*
%TO.C,D21*%
X52198254Y-93643930D02*
X56208254Y-93643930D01*
X52198254Y-95643930D02*
X52198254Y-93643930D01*
X52198254Y-95643930D02*
X56208254Y-95643930D01*
%TO.C,D30*%
X241083113Y-109429098D02*
X241600751Y-107497246D01*
X241083113Y-109429098D02*
X244956476Y-110466962D01*
X241600751Y-107497246D02*
X245474114Y-108535111D01*
%TO.C,D20*%
X234022254Y-128765744D02*
X234539892Y-126833892D01*
X234022254Y-128765744D02*
X237895617Y-129803608D01*
X234539892Y-126833892D02*
X238413255Y-127871757D01*
%TO.C,D37*%
X177988101Y-78206505D02*
X178197158Y-76217461D01*
X177988101Y-78206505D02*
X181976134Y-78625664D01*
X178197158Y-76217461D02*
X182185191Y-76636620D01*
%TO.C,D14*%
X112198254Y-114327130D02*
X116208254Y-114327130D01*
X112198254Y-116327130D02*
X112198254Y-114327130D01*
X112198254Y-116327130D02*
X116208254Y-116327130D01*
%TO.C,D47*%
X180189418Y-58511105D02*
X180398475Y-56522061D01*
X180189418Y-58511105D02*
X184177451Y-58930264D01*
X180398475Y-56522061D02*
X184386508Y-56941220D01*
%TO.C,D28*%
X197958382Y-100622370D02*
X198271251Y-98646993D01*
X197958382Y-100622370D02*
X201919012Y-101249672D01*
X198271251Y-98646993D02*
X202231881Y-99274297D01*
%TO.C,D33*%
X92120476Y-73729130D02*
X96130476Y-73729130D01*
X92120476Y-75729130D02*
X92120476Y-73729130D01*
X92120476Y-75729130D02*
X96130476Y-75729130D01*
%TO.C,D31*%
X52198254Y-73729130D02*
X56208254Y-73729130D01*
X52198254Y-75729130D02*
X52198254Y-73729130D01*
X52198254Y-75729130D02*
X56208254Y-75729130D01*
%TO.C,D4*%
X111998254Y-134327130D02*
X116008254Y-134327130D01*
X111998254Y-136327130D02*
X111998254Y-134327130D01*
X111998254Y-136327130D02*
X116008254Y-136327130D01*
%TO.C,D9*%
X211077702Y-144207849D02*
X211493525Y-142251554D01*
X211077702Y-144207849D02*
X215000074Y-145041575D01*
X211493525Y-142251554D02*
X215415897Y-143085280D01*
%TO.C,D19*%
X215335517Y-124715025D02*
X215751340Y-122758730D01*
X215335517Y-124715025D02*
X219257889Y-125548751D01*
X215751340Y-122758730D02*
X219673712Y-123592456D01*
%TO.C,D45*%
X132139921Y-53833730D02*
X136149921Y-53833730D01*
X132139921Y-55833730D02*
X132139921Y-53833730D01*
X132139921Y-55833730D02*
X136149921Y-55833730D01*
%TO.C,D56*%
X157186842Y-37457636D02*
X157291514Y-35460377D01*
X157186842Y-37457636D02*
X161191347Y-37667503D01*
X157291514Y-35460377D02*
X161296019Y-35670244D01*
%TO.C,D15*%
X132198254Y-114327130D02*
X136208254Y-114327130D01*
X132198254Y-116327130D02*
X132198254Y-114327130D01*
X132198254Y-116327130D02*
X136208254Y-116327130D01*
%TO.C,D25*%
X131848254Y-93643930D02*
X135858254Y-93643930D01*
X131848254Y-95643930D02*
X131848254Y-93643930D01*
X131848254Y-95643930D02*
X135858254Y-95643930D01*
%TO.C,D34*%
X112081587Y-73729130D02*
X116091587Y-73729130D01*
X112081587Y-75729130D02*
X112081587Y-73729130D01*
X112081587Y-75729130D02*
X116091587Y-75729130D01*
%TO.C,D24*%
X112198254Y-93643930D02*
X116208254Y-93643930D01*
X112198254Y-95643930D02*
X112198254Y-93643930D01*
X112198254Y-95643930D02*
X116208254Y-95643930D01*
%TO.C,D55*%
X131848254Y-34327130D02*
X135858254Y-34327130D01*
X131848254Y-36327130D02*
X131848254Y-34327130D01*
X131848254Y-36327130D02*
X135858254Y-36327130D01*
%TO.C,D27*%
X175951122Y-98001305D02*
X176160179Y-96012261D01*
X175951122Y-98001305D02*
X179939155Y-98420464D01*
X176160179Y-96012261D02*
X180148212Y-96431420D01*
%TO.C,D26*%
X154186842Y-96374436D02*
X154291514Y-94377177D01*
X154186842Y-96374436D02*
X158191347Y-96584303D01*
X154291514Y-94377177D02*
X158296019Y-94587044D01*
%TO.C,D29*%
X219571073Y-104431825D02*
X219986896Y-102475530D01*
X219571073Y-104431825D02*
X223493445Y-105265551D01*
X219986896Y-102475530D02*
X223909268Y-103309256D01*
%TO.C,D40*%
X244556558Y-90129349D02*
X245074196Y-88197497D01*
X244556558Y-90129349D02*
X248429921Y-91167213D01*
X245074196Y-88197497D02*
X248947559Y-89235362D01*
%TO.C,D36*%
X154983383Y-76379636D02*
X155088055Y-74382377D01*
X154983383Y-76379636D02*
X158987888Y-76589503D01*
X155088055Y-74382377D02*
X159092560Y-74592244D01*
%TO.C,D35*%
X132042698Y-73729130D02*
X136052698Y-73729130D01*
X132042698Y-75729130D02*
X132042698Y-73729130D01*
X132042698Y-75729130D02*
X136052698Y-75729130D01*
%TO.C,D39*%
X223424406Y-85037025D02*
X223840229Y-83080730D01*
X223424406Y-85037025D02*
X227346778Y-85870751D01*
X223840229Y-83080730D02*
X227762601Y-83914456D01*
%TO.C,D11*%
X51998254Y-114327130D02*
X56008254Y-114327130D01*
X51998254Y-116327130D02*
X51998254Y-114327130D01*
X51998254Y-116327130D02*
X56008254Y-116327130D01*
%TO.C,D23*%
X92198254Y-93643930D02*
X96208254Y-93643930D01*
X92198254Y-95643930D02*
X92198254Y-93643930D01*
X92198254Y-95643930D02*
X96208254Y-95643930D01*
%TO.C,D38*%
X200695049Y-81027570D02*
X201007918Y-79052193D01*
X200695049Y-81027570D02*
X204655679Y-81654872D01*
X201007918Y-79052193D02*
X204968548Y-79679497D01*
%TO.C,D32*%
X72159365Y-73729130D02*
X76169365Y-73729130D01*
X72159365Y-75729130D02*
X72159365Y-73729130D01*
X72159365Y-75729130D02*
X76169365Y-75729130D01*
%TO.C,D6*%
X151986842Y-136684766D02*
X152091514Y-134687507D01*
X151986842Y-136684766D02*
X155991347Y-136894633D01*
X152091514Y-134687507D02*
X156096019Y-134897374D01*
%TO.C,D50*%
X249855374Y-70982164D02*
X250373012Y-69050312D01*
X249855374Y-70982164D02*
X253728737Y-72020028D01*
X250373012Y-69050312D02*
X254246375Y-70088177D01*
%TO.C,D8*%
X191526618Y-140656389D02*
X191839487Y-138681012D01*
X191526618Y-140656389D02*
X195487248Y-141283691D01*
X191839487Y-138681012D02*
X195800117Y-139308316D01*
%TO.C,D17*%
X174189361Y-118320307D02*
X174398418Y-116331263D01*
X174189361Y-118320307D02*
X178177394Y-118739466D01*
X174398418Y-116331263D02*
X178386451Y-116750422D01*
%TO.C,D1*%
X51848254Y-134227130D02*
X55858254Y-134227130D01*
X51848254Y-136227130D02*
X51848254Y-134227130D01*
X51848254Y-136227130D02*
X55858254Y-136227130D01*
%TO.C,D46*%
X156043382Y-56684236D02*
X156148054Y-54686977D01*
X156043382Y-56684236D02*
X160047887Y-56894103D01*
X156148054Y-54686977D02*
X160152559Y-54896844D01*
%TO.C,D3*%
X91848254Y-134327130D02*
X95858254Y-134327130D01*
X91848254Y-136327130D02*
X91848254Y-134327130D01*
X91848254Y-136327130D02*
X95858254Y-136327130D01*
%TO.C,D5*%
X131998254Y-134327130D02*
X136008254Y-134327130D01*
X131998254Y-136327130D02*
X131998254Y-134327130D01*
X131998254Y-136327130D02*
X136008254Y-136327130D01*
%TO.C,D58*%
X207158382Y-42305570D02*
X207471251Y-40330193D01*
X207158382Y-42305570D02*
X211119012Y-42932872D01*
X207471251Y-40330193D02*
X211431881Y-40957497D01*
%TO.C,D60*%
X254855374Y-52182164D02*
X255373012Y-50250312D01*
X254855374Y-52182164D02*
X258728737Y-53220028D01*
X255373012Y-50250312D02*
X259246375Y-51288177D01*
%TO.C,D48*%
X203925049Y-61532170D02*
X204237918Y-59556793D01*
X203925049Y-61532170D02*
X207885679Y-62159472D01*
X204237918Y-59556793D02*
X208198548Y-60184097D01*
%TO.C,D59*%
X232131073Y-46915025D02*
X232546896Y-44958730D01*
X232131073Y-46915025D02*
X236053445Y-47748751D01*
X232546896Y-44958730D02*
X236469268Y-45792456D01*
D12*
%TO.C,U1*%
X210061784Y-87956480D02*
X237156472Y-93715634D01*
X223106163Y-26587499D02*
X210061784Y-87956480D01*
X237156472Y-93715634D02*
X250200852Y-32346653D01*
X250200852Y-32346653D02*
X223106163Y-26587499D01*
D13*
X209458646Y-86377791D02*
G75*
G02*
X209258646Y-86377791I-100000J0D01*
G01*
X209258646Y-86377791D02*
G75*
G02*
X209458646Y-86377791I100000J0D01*
G01*
D11*
%TO.C,D13*%
X92198254Y-114327130D02*
X96208254Y-114327130D01*
X92198254Y-116327130D02*
X92198254Y-114327130D01*
X92198254Y-116327130D02*
X96208254Y-116327130D01*
%TO.C,D2*%
X71998254Y-134227130D02*
X76008254Y-134227130D01*
X71998254Y-136227130D02*
X71998254Y-134227130D01*
X71998254Y-136227130D02*
X76008254Y-136227130D01*
%TO.C,D7*%
X171951122Y-138071366D02*
X172160179Y-136082322D01*
X171951122Y-138071366D02*
X175939155Y-138490525D01*
X172160179Y-136082322D02*
X176148212Y-136501481D01*
%TO.C,D57*%
X182364418Y-39284505D02*
X182573475Y-37295461D01*
X182364418Y-39284505D02*
X186352451Y-39703664D01*
X182573475Y-37295461D02*
X186561508Y-37714620D01*
%TO.C,D12*%
X71952921Y-114327130D02*
X75962921Y-114327130D01*
X71952921Y-116327130D02*
X71952921Y-114327130D01*
X71952921Y-116327130D02*
X75962921Y-116327130D01*
%TO.C,D10*%
X229241463Y-147851116D02*
X229759101Y-145919264D01*
X229241463Y-147851116D02*
X233114826Y-148888980D01*
X229759101Y-145919264D02*
X233632464Y-146957129D01*
%TO.C,D49*%
X227639406Y-65741625D02*
X228055229Y-63785330D01*
X227639406Y-65741625D02*
X231561778Y-66575351D01*
X228055229Y-63785330D02*
X231977601Y-64619056D01*
%TO.C,D16*%
X153186842Y-116857636D02*
X153291514Y-114860377D01*
X153186842Y-116857636D02*
X157191347Y-117067503D01*
X153291514Y-114860377D02*
X157296019Y-115070244D01*
%TD*%
M02*
