M48
; DRILL file {KiCad 9.0.2} date 2025-07-31T22:52:35+0200
; FORMAT={-:-/ absolute / inch / decimal}
; #@! TF.CreationDate,2025-07-31T22:52:35+02:00
; #@! TF.GenerationSoftware,Kicad,Pcbnew,9.0.2
; #@! TF.FileFunction,Plated,1,2,PTH
FMAT,2
INCH
; #@! TA.AperFunction,Plated,PTH,ViaDrill
T1C0.0118
; #@! TA.AperFunction,Plated,PTH,ComponentDrill
T2C0.0394
; #@! TA.AperFunction,Plated,PTH,ComponentDrill
T3C0.0402
; #@! TA.AperFunction,Plated,PTH,ComponentDrill
T4C0.1024
%
G90
G05
T1
X1.8302Y-3.2278
X1.8302Y-4.0152
X1.8307Y-2.7362
X1.8307Y-4.8031
X2.5979Y-2.4404
X2.5979Y-3.9955
X2.5984Y-3.3268
X2.6383Y-4.843
X3.1693Y-3.1102
X3.3853Y-2.4404
X3.3853Y-3.2278
X3.3853Y-4.0152
X3.3853Y-4.8026
X3.9961Y-2.3228
X4.1142Y-1.1417
X4.1727Y-1.653
X4.1727Y-2.4404
X4.1727Y-3.2278
X4.1727Y-4.0152
X4.1727Y-4.8026
X4.2913Y-3.878
X4.9601Y-2.4404
X4.9601Y-4.0152
X4.9606Y-3.563
X5.0Y-1.9685
X5.0005Y-4.9016
X5.0591Y-0.8465
X5.7475Y-4.8026
X5.7869Y-4.0152
X5.8263Y-3.2475
X5.8656Y-2.4601
X5.905Y-1.6727
X6.0438Y-0.905
X6.5344Y-4.8415
X6.5577Y-2.9728
X6.6131Y-4.0738
X6.6919Y-3.3061
X6.7126Y-2.9724
X6.7903Y-2.5187
X6.8898Y-2.0472
X6.9094Y-1.2205
X6.9094Y-3.1102
X7.0669Y-1.5354
X7.2244Y-4.9803
X7.4016Y-1.437
X7.4399Y-4.1722
X7.5787Y-1.6339
X7.5787Y-3.1299
X7.5787Y-3.6811
X7.6181Y-2.1457
X7.6575Y-1.437
X7.6958Y-2.6171
X7.7165Y-2.2441
X7.7559Y-4.1142
X7.8139Y-1.8494
X7.815Y-0.9646
X7.815Y-1.3287
X7.8642Y-3.2677
X8.0709Y-3.3858
X8.1092Y-5.0777
X8.2087Y-3.1102
X8.248Y-3.7598
X8.2667Y-4.31
X8.3268Y-2.874
X8.4055Y-3.622
X8.4646Y-1.5157
X8.5039Y-1.7913
X8.5236Y-2.9724
X8.5827Y-1.0039
X8.5827Y-1.5157
X8.6417Y-1.3583
X8.7008Y-1.1614
X8.7008Y-2.815
X8.7598Y-1.2402
X8.8189Y-1.063
X8.8189Y-1.9882
X8.8386Y-1.8504
X8.878Y-5.2953
X8.8976Y-1.4961
X8.937Y-1.2992
X8.9764Y-4.2913
X9.0157Y-1.7913
X9.065Y-1.6437
X9.0738Y-4.4872
X9.124Y-1.1417
X9.1535Y-1.9094
X9.311Y-3.7795
X9.4094Y-1.2795
X9.5866Y-2.9528
X9.626Y-1.2992
X9.8031Y-2.1654
X9.9606Y-1.4961
X10.0244Y-3.713
X10.2165Y-2.9921
X10.2559Y-2.7756
X10.3445Y-1.1909
X10.4134Y-2.2441
X10.4429Y-1.5256
X10.4724Y-2.0669
X10.5512Y-1.6732
X10.6693Y-1.5945
T2
X2.0554Y-1.5444
X2.0554Y-1.6428
X2.0554Y-1.7412
X2.6263Y-1.5444
X2.6263Y-1.7412
X3.2365Y-1.5444
X3.2365Y-1.6428
X3.2365Y-1.7412
X3.8074Y-1.5444
X3.8074Y-1.7412
T3
X8.3305Y-3.4193
X8.3513Y-3.3215
X8.3721Y-3.2237
X8.3929Y-3.1259
X8.4137Y-3.0281
X8.4345Y-2.9303
X8.4553Y-2.8324
X8.4761Y-2.7346
X8.4968Y-2.6368
X8.5176Y-2.539
X8.5384Y-2.4412
X8.5592Y-2.3434
X8.58Y-2.2456
X8.6008Y-2.1477
X8.6216Y-2.0499
X8.6424Y-1.9521
X8.6632Y-1.8543
X8.684Y-1.7565
X8.7048Y-1.6587
X8.7255Y-1.5609
X8.7463Y-1.463
X8.7671Y-1.3652
X9.2942Y-3.6254
X9.315Y-3.5276
X9.3358Y-3.4297
X9.3565Y-3.3319
X9.3773Y-3.2341
X9.3981Y-3.1363
X9.4189Y-3.0385
X9.4397Y-2.9407
X9.4605Y-2.8429
X9.4813Y-2.745
X9.5021Y-2.6472
X9.5229Y-2.5494
X9.5437Y-2.4516
X9.5645Y-2.3538
X9.5852Y-2.256
X9.606Y-2.1582
X9.6268Y-2.0603
X9.6476Y-1.9625
X9.6684Y-1.8647
X9.6892Y-1.7669
X9.71Y-1.6691
X9.7308Y-1.5713
T4
X2.3507Y-1.4223
X2.3507Y-1.8633
X3.5318Y-1.4223
X3.5318Y-1.8633
M30
