%TF.GenerationSoftware,KiCad,Pcbnew,9.0.2*%
%TF.CreationDate,2025-07-31T22:52:32+02:00*%
%TF.ProjectId,multiboard_LEFT,6d756c74-6962-46f6-9172-645f4c454654,1.0*%
%TF.SameCoordinates,Original*%
%TF.FileFunction,Paste,Bot*%
%TF.FilePolarity,Positive*%
%FSLAX46Y46*%
G04 Gerber Fmt 4.6, Leading zero omitted, Abs format (unit mm)*
G04 Created by KiCad (PCBNEW 9.0.2) date 2025-07-31 22:52:32*
%MOMM*%
%LPD*%
G01*
G04 APERTURE LIST*
G04 Aperture macros list*
%AMRoundRect*
0 Rectangle with rounded corners*
0 $1 Rounding radius*
0 $2 $3 $4 $5 $6 $7 $8 $9 X,Y pos of 4 corners*
0 Add a 4 corners polygon primitive as box body*
4,1,4,$2,$3,$4,$5,$6,$7,$8,$9,$2,$3,0*
0 Add four circle primitives for the rounded corners*
1,1,$1+$1,$2,$3*
1,1,$1+$1,$4,$5*
1,1,$1+$1,$6,$7*
1,1,$1+$1,$8,$9*
0 Add four rect primitives between the rounded corners*
20,1,$1+$1,$2,$3,$4,$5,0*
20,1,$1+$1,$4,$5,$6,$7,0*
20,1,$1+$1,$6,$7,$8,$9,0*
20,1,$1+$1,$8,$9,$2,$3,0*%
G04 Aperture macros list end*
%ADD10RoundRect,0.225000X-0.225000X-0.375000X0.225000X-0.375000X0.225000X0.375000X-0.225000X0.375000X0*%
%ADD11RoundRect,0.200000X1.310130X0.735992X-0.766610X1.292453X-1.310130X-0.735992X0.766610X-1.292453X0*%
%ADD12RoundRect,0.200000X1.178866X0.931880X-0.959356X1.156616X-1.178866X-0.931880X0.959356X-1.156616X0*%
%ADD13RoundRect,0.225000X-0.280893X-0.335185X0.163567X-0.405581X0.280893X0.335185X-0.163567X0.405581X0*%
%ADD14RoundRect,0.200000X1.075000X1.050000X-1.075000X1.050000X-1.075000X-1.050000X1.075000X-1.050000X0*%
%ADD15RoundRect,0.225000X-0.314390X-0.303988X0.120276X-0.420456X0.314390X0.303988X-0.120276X0.420456X0*%
%ADD16RoundRect,0.225000X-0.262966X-0.349427X0.184569X-0.396465X0.262966X0.349427X-0.184569X0.396465X0*%
%ADD17RoundRect,0.200000X1.128480X0.992300X-1.018574X1.104822X-1.128480X-0.992300X1.018574X-1.104822X0*%
%ADD18RoundRect,0.200000X1.269816X0.803550X-0.833201X1.250560X-1.269816X-0.803550X0.833201X-1.250560X0*%
%ADD19RoundRect,0.225000X-0.298050X-0.320025X0.142116X-0.413585X0.298050X0.320025X-0.142116X0.413585X0*%
%ADD20RoundRect,0.225000X-0.244318X-0.362710X0.205066X-0.386262X0.244318X0.362710X-0.205066X0.386262X0*%
%ADD21RoundRect,0.200000X1.226021X0.868906X-0.897509X1.205240X-1.226021X-0.868906X0.897509X-1.205240X0*%
G04 APERTURE END LIST*
D10*
%TO.C,D22*%
X72908254Y-94643930D03*
X76208254Y-94643930D03*
%TD*%
D11*
%TO.C,SW42*%
X242000000Y-80200000D03*
X255143923Y-81092303D03*
%TD*%
D12*
%TO.C,SW19*%
X169411610Y-108235802D03*
X182533297Y-107060956D03*
%TD*%
D10*
%TO.C,D44*%
X112908254Y-54833730D03*
X116208254Y-54833730D03*
%TD*%
%TO.C,D54*%
X112558254Y-35327130D03*
X115858254Y-35327130D03*
%TD*%
D13*
%TO.C,D18*%
X195668647Y-120028950D03*
X198928019Y-120545184D03*
%TD*%
D10*
%TO.C,D21*%
X52908254Y-94643930D03*
X56208254Y-94643930D03*
%TD*%
D14*
%TO.C,SW17*%
X127263477Y-106717130D03*
X140190477Y-104177130D03*
%TD*%
D15*
%TO.C,D30*%
X242027739Y-108646935D03*
X245215295Y-109501035D03*
%TD*%
%TO.C,D20*%
X234966880Y-127983581D03*
X238154436Y-128837681D03*
%TD*%
D16*
%TO.C,D37*%
X178798740Y-77286198D03*
X182080662Y-77631142D03*
%TD*%
D10*
%TO.C,D14*%
X112908254Y-115327130D03*
X116208254Y-115327130D03*
%TD*%
D14*
%TO.C,SW47*%
X127285699Y-46797130D03*
X140212699Y-44257130D03*
%TD*%
D11*
%TO.C,SW12*%
X226643683Y-138008818D03*
X239787606Y-138901121D03*
%TD*%
D17*
%TO.C,SW38*%
X150443683Y-67200000D03*
X163485900Y-65340028D03*
%TD*%
D16*
%TO.C,D47*%
X181000057Y-57590798D03*
X184281979Y-57935742D03*
%TD*%
D14*
%TO.C,SW35*%
X87227921Y-66847130D03*
X100154921Y-64307130D03*
%TD*%
D11*
%TO.C,SW32*%
X237000000Y-99400000D03*
X250143923Y-100292303D03*
%TD*%
D13*
%TO.C,D28*%
X198816075Y-99745750D03*
X202075447Y-100261984D03*
%TD*%
D11*
%TO.C,SW62*%
X252400000Y-42000000D03*
X265543923Y-42892303D03*
%TD*%
D18*
%TO.C,SW61*%
X228000000Y-36400000D03*
X241172610Y-36603179D03*
%TD*%
D12*
%TO.C,SW49*%
X175600000Y-49000000D03*
X188721687Y-47825154D03*
%TD*%
D17*
%TO.C,SW48*%
X151443683Y-47400000D03*
X164485900Y-45540028D03*
%TD*%
D10*
%TO.C,D33*%
X92830476Y-74729130D03*
X96130476Y-74729130D03*
%TD*%
%TO.C,D31*%
X52908254Y-74729130D03*
X56208254Y-74729130D03*
%TD*%
D12*
%TO.C,SW29*%
X171496704Y-88600000D03*
X184618391Y-87425154D03*
%TD*%
D10*
%TO.C,D4*%
X112708254Y-135327130D03*
X116008254Y-135327130D03*
%TD*%
D12*
%TO.C,SW59*%
X177600000Y-29200000D03*
X190721687Y-28025154D03*
%TD*%
D19*
%TO.C,D9*%
X211980098Y-143377319D03*
X215207986Y-144063427D03*
%TD*%
D14*
%TO.C,SW7*%
X127227921Y-126717130D03*
X140154921Y-124177130D03*
%TD*%
D11*
%TO.C,SW22*%
X231800000Y-118800000D03*
X244943923Y-119692303D03*
%TD*%
D14*
%TO.C,SW25*%
X87219032Y-86767130D03*
X100146032Y-84227130D03*
%TD*%
D19*
%TO.C,D19*%
X216237913Y-123884495D03*
X219465801Y-124570603D03*
%TD*%
D10*
%TO.C,D45*%
X132849921Y-54833730D03*
X136149921Y-54833730D03*
%TD*%
D20*
%TO.C,D56*%
X157948205Y-36496165D03*
X161243683Y-36668873D03*
%TD*%
D14*
%TO.C,SW15*%
X87227921Y-106767130D03*
X100154921Y-104227130D03*
%TD*%
%TO.C,SW27*%
X127245699Y-86797130D03*
X140172699Y-84257130D03*
%TD*%
%TO.C,SW5*%
X87210143Y-126767130D03*
X100137143Y-124227130D03*
%TD*%
D21*
%TO.C,SW10*%
X187297125Y-130350819D03*
X200462315Y-129864319D03*
%TD*%
D10*
%TO.C,D15*%
X132908254Y-115327130D03*
X136208254Y-115327130D03*
%TD*%
D18*
%TO.C,SW21*%
X211200000Y-114200000D03*
X224372610Y-114403179D03*
%TD*%
D10*
%TO.C,D25*%
X132558254Y-94643930D03*
X135858254Y-94643930D03*
%TD*%
D12*
%TO.C,SW9*%
X167320037Y-127986861D03*
X180441724Y-126812015D03*
%TD*%
D11*
%TO.C,SW52*%
X247200000Y-61000000D03*
X260343923Y-61892303D03*
%TD*%
D10*
%TO.C,D34*%
X112791587Y-74729130D03*
X116091587Y-74729130D03*
%TD*%
D14*
%TO.C,SW36*%
X107254587Y-66847130D03*
X120181587Y-64307130D03*
%TD*%
%TO.C,SW4*%
X67235144Y-126717130D03*
X80162144Y-124177130D03*
%TD*%
%TO.C,SW57*%
X127285699Y-26717130D03*
X140212699Y-24177130D03*
%TD*%
D10*
%TO.C,D24*%
X112908254Y-94643930D03*
X116208254Y-94643930D03*
%TD*%
%TO.C,D55*%
X132558254Y-35327130D03*
X135858254Y-35327130D03*
%TD*%
D21*
%TO.C,SW30*%
X193600000Y-91000000D03*
X206765190Y-90513500D03*
%TD*%
%TO.C,SW40*%
X196600000Y-71400000D03*
X209765190Y-70913500D03*
%TD*%
D16*
%TO.C,D27*%
X176761761Y-97080998D03*
X180043683Y-97425942D03*
%TD*%
D20*
%TO.C,D26*%
X154948205Y-95412965D03*
X158243683Y-95585673D03*
%TD*%
D19*
%TO.C,D29*%
X220473469Y-103601295D03*
X223701357Y-104287403D03*
%TD*%
D15*
%TO.C,D40*%
X245501184Y-89347186D03*
X248688740Y-90201286D03*
%TD*%
D20*
%TO.C,D36*%
X155744746Y-75418165D03*
X159040224Y-75590873D03*
%TD*%
D14*
%TO.C,SW16*%
X107254587Y-106767130D03*
X120181587Y-104227130D03*
%TD*%
D10*
%TO.C,D35*%
X132752698Y-74729130D03*
X136052698Y-74729130D03*
%TD*%
D19*
%TO.C,D39*%
X224326802Y-84206495D03*
X227554690Y-84892603D03*
%TD*%
D17*
%TO.C,SW18*%
X148452698Y-107000000D03*
X161494915Y-105140028D03*
%TD*%
D14*
%TO.C,SW34*%
X67227921Y-66847130D03*
X80154921Y-64307130D03*
%TD*%
D18*
%TO.C,SW41*%
X219600000Y-75200000D03*
X232772610Y-75403179D03*
%TD*%
D14*
%TO.C,SW14*%
X67227921Y-106767130D03*
X80154921Y-104227130D03*
%TD*%
D18*
%TO.C,SW31*%
X215400000Y-94600000D03*
X228572610Y-94803179D03*
%TD*%
D10*
%TO.C,D11*%
X52708254Y-115327130D03*
X56008254Y-115327130D03*
%TD*%
%TO.C,D23*%
X92908254Y-94643930D03*
X96208254Y-94643930D03*
%TD*%
D14*
%TO.C,SW46*%
X107281254Y-46847130D03*
X120208254Y-44307130D03*
%TD*%
%TO.C,SW33*%
X47526254Y-66847130D03*
X60453254Y-64307130D03*
%TD*%
D13*
%TO.C,D38*%
X201552742Y-80150950D03*
X204812114Y-80667184D03*
%TD*%
D10*
%TO.C,D32*%
X72869365Y-74729130D03*
X76169365Y-74729130D03*
%TD*%
D20*
%TO.C,D6*%
X152748205Y-135723295D03*
X156043683Y-135896003D03*
%TD*%
D15*
%TO.C,D50*%
X250800000Y-70200001D03*
X253987556Y-71054101D03*
%TD*%
D13*
%TO.C,D8*%
X192384311Y-139779769D03*
X195643683Y-140296003D03*
%TD*%
D16*
%TO.C,D17*%
X175000000Y-117400000D03*
X178281922Y-117744944D03*
%TD*%
D21*
%TO.C,SW60*%
X202800000Y-32000000D03*
X215965190Y-31513500D03*
%TD*%
D17*
%TO.C,SW58*%
X152470476Y-27600000D03*
X165512693Y-25740028D03*
%TD*%
D10*
%TO.C,D1*%
X52558254Y-135227130D03*
X55858254Y-135227130D03*
%TD*%
D20*
%TO.C,D46*%
X156804745Y-55722765D03*
X160100223Y-55895473D03*
%TD*%
D14*
%TO.C,SW13*%
X47526254Y-106767130D03*
X60453254Y-104227130D03*
%TD*%
D21*
%TO.C,SW50*%
X199800000Y-51800000D03*
X212965190Y-51313500D03*
%TD*%
D10*
%TO.C,D3*%
X92558254Y-135327130D03*
X95858254Y-135327130D03*
%TD*%
%TO.C,D5*%
X132708254Y-135327130D03*
X136008254Y-135327130D03*
%TD*%
D14*
%TO.C,SW37*%
X127263477Y-66797130D03*
X140190477Y-64257130D03*
%TD*%
D13*
%TO.C,D58*%
X208016075Y-41428950D03*
X211275447Y-41945184D03*
%TD*%
D17*
%TO.C,SW28*%
X149470476Y-87200000D03*
X162512693Y-85340028D03*
%TD*%
D14*
%TO.C,SW24*%
X67263477Y-86767130D03*
X80190477Y-84227130D03*
%TD*%
%TO.C,SW26*%
X107281254Y-86767130D03*
X120208254Y-84227130D03*
%TD*%
D15*
%TO.C,D60*%
X255800000Y-51400001D03*
X258987556Y-52254101D03*
%TD*%
D13*
%TO.C,D48*%
X204782742Y-60655550D03*
X208042114Y-61171784D03*
%TD*%
D18*
%TO.C,SW11*%
X207071073Y-133692824D03*
X220243683Y-133896003D03*
%TD*%
D19*
%TO.C,D59*%
X233033469Y-46084495D03*
X236261357Y-46770603D03*
%TD*%
D10*
%TO.C,D13*%
X92908254Y-115327130D03*
X96208254Y-115327130D03*
%TD*%
D21*
%TO.C,SW20*%
X190443683Y-110600000D03*
X203608873Y-110113500D03*
%TD*%
D10*
%TO.C,D2*%
X72708254Y-135227130D03*
X76008254Y-135227130D03*
%TD*%
D14*
%TO.C,SW56*%
X107281254Y-26767130D03*
X120208254Y-24227130D03*
%TD*%
D16*
%TO.C,D7*%
X172761761Y-137151059D03*
X176043683Y-137496003D03*
%TD*%
D14*
%TO.C,SW6*%
X107227921Y-126767130D03*
X120154921Y-124227130D03*
%TD*%
D16*
%TO.C,D57*%
X183175057Y-38364198D03*
X186456979Y-38709142D03*
%TD*%
D12*
%TO.C,SW39*%
X173443683Y-68800000D03*
X186565370Y-67625154D03*
%TD*%
D17*
%TO.C,SW8*%
X147408254Y-126827130D03*
X160450471Y-124967158D03*
%TD*%
D10*
%TO.C,D12*%
X72662921Y-115327130D03*
X75962921Y-115327130D03*
%TD*%
D14*
%TO.C,SW23*%
X47526254Y-86767130D03*
X60453254Y-84227130D03*
%TD*%
D15*
%TO.C,D10*%
X230186089Y-147068953D03*
X233373645Y-147923053D03*
%TD*%
D19*
%TO.C,D49*%
X228541802Y-64911095D03*
X231769690Y-65597203D03*
%TD*%
D18*
%TO.C,SW51*%
X223800000Y-55800000D03*
X236972610Y-56003179D03*
%TD*%
D20*
%TO.C,D16*%
X153948205Y-115896165D03*
X157243683Y-116068873D03*
%TD*%
D14*
%TO.C,SW3*%
X47526254Y-126717130D03*
X60453254Y-124177130D03*
%TD*%
M02*
